<svg xmlns="http://www.w3.org/2000/svg" viewBox="0 0 1870 1047.35"><g fill="none"><path fill="#8f9abf" d="M0 0h1870v1047.35H0z"/><path fill="#999" d="M460 580h250v60H460z"/><path stroke="#000" stroke-linecap="square" d="M460 580h250v60H460z"/><path fill="#000" d="M699.5 612.5h-15a2 2 0 0 0-2 2v15c0 1.1.9 2 2 2h15a2 2 0 0 0 2-2v-15a2 2 0 0 0-2-2"/><path fill="#fff" d="M699.5 613.5h-15a1 1 0 0 0-1 1v15a1 1 0 0 0 1 1h15a1 1 0 0 0 1-1v-15a1 1 0 0 0-1-1m-12.25 3.5h-1v3h1Zm1.5 0h-1v3h1Zm1.5 0h-1v3h1Zm1.5 0h-1v3h1Zm1.5 0h-1v3h1Zm1.5 0h-1v3h1Zm1.5 0h-1v3h1Zm1.5 0h-1v3h1Zm-8.75-1h1.63m2.75 0h4.87c.28 0 .5.22.5.5v8a.5.5 0 0 1-.5.5h-2.75v1.25a.5.5 0 0 1-.5.5h-1.12v.75a.5.5 0 0 1-.5.5h-2.75a.5.5 0 0 1-.5-.5v-.75H689a.5.5 0 0 1-.5-.5V625h-2.75a.5.5 0 0 1-.5-.5v-8c0-.28.22-.5.5-.5H689m1.63 0h2.75"/><path fill="#000" d="M670.5 612.5h-15a2 2 0 0 0-2 2v15c0 1.1.9 2 2 2h15a2 2 0 0 0 2-2v-15a2 2 0 0 0-2-2"/><path fill="#fff" d="M670.5 613.5h-15a1 1 0 0 0-1 1v15a1 1 0 0 0 1 1h15a1 1 0 0 0 1-1v-15a1 1 0 0 0-1-1m-12.25 3.5h-1v3h1Zm1.5 0h-1v3h1Zm1.5 0h-1v3h1Zm1.5 0h-1v3h1Zm1.5 0h-1v3h1Zm1.5 0h-1v3h1Zm1.5 0h-1v3h1Zm1.5 0h-1v3h1Zm-8.75-1h1.63m2.75 0h4.87c.28 0 .5.22.5.5v8a.5.5 0 0 1-.5.5h-2.75v1.25a.5.5 0 0 1-.5.5h-1.12v.75a.5.5 0 0 1-.5.5h-2.75a.5.5 0 0 1-.5-.5v-.75H660a.5.5 0 0 1-.5-.5V625h-2.75a.5.5 0 0 1-.5-.5v-8c0-.28.22-.5.5-.5H660m1.63 0h2.75"/><path fill="#000" d="M485.5 612.5h-15a2 2 0 0 0-2 2v15c0 1.1.9 2 2 2h15a2 2 0 0 0 2-2v-15a2 2 0 0 0-2-2"/><path fill="#fff" d="M485.5 613.5h-15a1 1 0 0 0-1 1v15a1 1 0 0 0 1 1h15a1 1 0 0 0 1-1v-15a1 1 0 0 0-1-1m-12.25 3.5h-1v3h1Zm1.5 0h-1v3h1Zm1.5 0h-1v3h1Zm1.5 0h-1v3h1Zm1.5 0h-1v3h1Zm1.5 0h-1v3h1Zm1.5 0h-1v3h1Zm1.5 0h-1v3h1Zm-8.75-1h1.63m2.75 0h4.87c.28 0 .5.22.5.5v8a.5.5 0 0 1-.5.5h-2.75v1.25a.5.5 0 0 1-.5.5h-1.12v.75a.5.5 0 0 1-.5.5h-2.75a.5.5 0 0 1-.5-.5v-.75H475a.5.5 0 0 1-.5-.5V625h-2.75a.5.5 0 0 1-.5-.5v-8c0-.28.22-.5.5-.5H475m1.63 0h2.75"/><path fill="#000" d="M509.5 612.5h-15a2 2 0 0 0-2 2v15c0 1.1.9 2 2 2h15a2 2 0 0 0 2-2v-15a2 2 0 0 0-2-2"/><path fill="#fff" d="M509.5 613.5h-15a1 1 0 0 0-1 1v15a1 1 0 0 0 1 1h15a1 1 0 0 0 1-1v-15a1 1 0 0 0-1-1m-12.25 3.5h-1v3h1Zm1.5 0h-1v3h1Zm1.5 0h-1v3h1Zm1.5 0h-1v3h1Zm1.5 0h-1v3h1Zm1.5 0h-1v3h1Zm1.5 0h-1v3h1Zm1.5 0h-1v3h1Zm-8.75-1h1.63m2.75 0h4.87c.28 0 .5.22.5.5v8a.5.5 0 0 1-.5.5h-2.75v1.25a.5.5 0 0 1-.5.5h-1.12v.75a.5.5 0 0 1-.5.5h-2.75a.5.5 0 0 1-.5-.5v-.75H499a.5.5 0 0 1-.5-.5V625h-2.75a.5.5 0 0 1-.5-.5v-8c0-.28.22-.5.5-.5H499m1.63 0h2.75"/><path fill="#000" d="M533.5 612.5h-15a2 2 0 0 0-2 2v15c0 1.1.9 2 2 2h15a2 2 0 0 0 2-2v-15a2 2 0 0 0-2-2"/><path fill="#fff" d="M533.5 613.5h-15a1 1 0 0 0-1 1v15a1 1 0 0 0 1 1h15a1 1 0 0 0 1-1v-15a1 1 0 0 0-1-1m-12.25 3.5h-1v3h1Zm1.5 0h-1v3h1Zm1.5 0h-1v3h1Zm1.5 0h-1v3h1Zm1.5 0h-1v3h1Zm1.5 0h-1v3h1Zm1.5 0h-1v3h1Zm1.5 0h-1v3h1Zm-8.75-1h1.63m2.75 0h4.87c.28 0 .5.22.5.5v8a.5.5 0 0 1-.5.5h-2.75v1.25a.5.5 0 0 1-.5.5h-1.12v.75a.5.5 0 0 1-.5.5h-2.75a.5.5 0 0 1-.5-.5v-.75H523a.5.5 0 0 1-.5-.5V625h-2.75a.5.5 0 0 1-.5-.5v-8c0-.28.22-.5.5-.5H523m1.63 0h2.75"/><path fill="#000" d="M557.5 612.5h-15a2 2 0 0 0-2 2v15c0 1.1.9 2 2 2h15a2 2 0 0 0 2-2v-15a2 2 0 0 0-2-2"/><path fill="#fff" d="M557.5 613.5h-15a1 1 0 0 0-1 1v15a1 1 0 0 0 1 1h15a1 1 0 0 0 1-1v-15a1 1 0 0 0-1-1m-12.25 3.5h-1v3h1Zm1.5 0h-1v3h1Zm1.5 0h-1v3h1Zm1.5 0h-1v3h1Zm1.5 0h-1v3h1Zm1.5 0h-1v3h1Zm1.5 0h-1v3h1Zm1.5 0h-1v3h1Zm-8.75-1h1.63m2.75 0h4.87c.28 0 .5.22.5.5v8a.5.5 0 0 1-.5.5h-2.75v1.25a.5.5 0 0 1-.5.5h-1.12v.75a.5.5 0 0 1-.5.5h-2.75a.5.5 0 0 1-.5-.5v-.75H547a.5.5 0 0 1-.5-.5V625h-2.75a.5.5 0 0 1-.5-.5v-8c0-.28.22-.5.5-.5H547m1.63 0h2.75"/><path fill="#000" d="M581.5 612.5h-15a2 2 0 0 0-2 2v15c0 1.1.9 2 2 2h15a2 2 0 0 0 2-2v-15a2 2 0 0 0-2-2"/><path fill="#fff" d="M581.5 613.5h-15a1 1 0 0 0-1 1v15a1 1 0 0 0 1 1h15a1 1 0 0 0 1-1v-15a1 1 0 0 0-1-1m-12.25 3.5h-1v3h1Zm1.5 0h-1v3h1Zm1.5 0h-1v3h1Zm1.5 0h-1v3h1Zm1.5 0h-1v3h1Zm1.5 0h-1v3h1Zm1.5 0h-1v3h1Zm1.5 0h-1v3h1Zm-8.75-1h1.63m2.75 0h4.87c.28 0 .5.22.5.5v8a.5.5 0 0 1-.5.5h-2.75v1.25a.5.5 0 0 1-.5.5h-1.12v.75a.5.5 0 0 1-.5.5h-2.75a.5.5 0 0 1-.5-.5v-.75H571a.5.5 0 0 1-.5-.5V625h-2.75a.5.5 0 0 1-.5-.5v-8c0-.28.22-.5.5-.5H571m1.63 0h2.75"/><path fill="#000" d="M605.5 612.5h-15a2 2 0 0 0-2 2v15c0 1.1.9 2 2 2h15a2 2 0 0 0 2-2v-15a2 2 0 0 0-2-2"/><path fill="#fff" d="M605.5 613.5h-15a1 1 0 0 0-1 1v15a1 1 0 0 0 1 1h15a1 1 0 0 0 1-1v-15a1 1 0 0 0-1-1m-12.25 3.5h-1v3h1Zm1.5 0h-1v3h1Zm1.5 0h-1v3h1Zm1.5 0h-1v3h1Zm1.5 0h-1v3h1Zm1.5 0h-1v3h1Zm1.5 0h-1v3h1Zm1.5 0h-1v3h1Zm-8.75-1h1.63m2.75 0h4.87c.28 0 .5.22.5.5v8a.5.5 0 0 1-.5.5h-2.75v1.25a.5.5 0 0 1-.5.5h-1.12v.75a.5.5 0 0 1-.5.5h-2.75a.5.5 0 0 1-.5-.5v-.75H595a.5.5 0 0 1-.5-.5V625h-2.75a.5.5 0 0 1-.5-.5v-8c0-.28.22-.5.5-.5H595m1.63 0h2.75"/><path fill="#000" d="M485.5 607.5h-15a2 2 0 0 1-2-2v-15c0-1.1.9-2 2-2h15a2 2 0 0 1 2 2v15a2 2 0 0 1-2 2"/><path fill="#fff" d="M485.5 606.5h-15a1 1 0 0 1-1-1v-15a1 1 0 0 1 1-1h15a1 1 0 0 1 1 1v15a1 1 0 0 1-1 1m-12.25-3.5h-1v-3h1Zm1.5 0h-1v-3h1Zm1.5 0h-1v-3h1Zm1.5 0h-1v-3h1Zm1.5 0h-1v-3h1Zm1.5 0h-1v-3h1Zm1.5 0h-1v-3h1Zm1.5 0h-1v-3h1Zm-8.75 1h1.63m2.75 0h4.87a.5.5 0 0 0 .5-.5v-8a.5.5 0 0 0-.5-.5h-2.75v-1.25a.5.5 0 0 0-.5-.5h-1.12v-.75a.5.5 0 0 0-.5-.5h-2.75a.5.5 0 0 0-.5.5v.75H475a.5.5 0 0 0-.5.5V595h-2.75a.5.5 0 0 0-.5.5v8c0 .28.22.5.5.5H475m1.63 0h2.75"/><path fill="#000" d="M509.5 607.5h-15a2 2 0 0 1-2-2v-15c0-1.1.9-2 2-2h15a2 2 0 0 1 2 2v15a2 2 0 0 1-2 2"/><path fill="#fff" d="M509.5 606.5h-15a1 1 0 0 1-1-1v-15a1 1 0 0 1 1-1h15a1 1 0 0 1 1 1v15a1 1 0 0 1-1 1m-12.25-3.5h-1v-3h1Zm1.5 0h-1v-3h1Zm1.5 0h-1v-3h1Zm1.5 0h-1v-3h1Zm1.5 0h-1v-3h1Zm1.5 0h-1v-3h1Zm1.5 0h-1v-3h1Zm1.5 0h-1v-3h1Zm-8.75 1h1.63m2.75 0h4.87a.5.5 0 0 0 .5-.5v-8a.5.5 0 0 0-.5-.5h-2.75v-1.25a.5.5 0 0 0-.5-.5h-1.12v-.75a.5.5 0 0 0-.5-.5h-2.75a.5.5 0 0 0-.5.5v.75H499a.5.5 0 0 0-.5.5V595h-2.75a.5.5 0 0 0-.5.5v8c0 .28.22.5.5.5H499m1.63 0h2.75"/><path fill="#000" d="M533.5 607.5h-15a2 2 0 0 1-2-2v-15c0-1.1.9-2 2-2h15a2 2 0 0 1 2 2v15a2 2 0 0 1-2 2"/><path fill="#fff" d="M533.5 606.5h-15a1 1 0 0 1-1-1v-15a1 1 0 0 1 1-1h15a1 1 0 0 1 1 1v15a1 1 0 0 1-1 1m-12.25-3.5h-1v-3h1Zm1.5 0h-1v-3h1Zm1.5 0h-1v-3h1Zm1.5 0h-1v-3h1Zm1.5 0h-1v-3h1Zm1.5 0h-1v-3h1Zm1.5 0h-1v-3h1Zm1.5 0h-1v-3h1Zm-8.75 1h1.63m2.75 0h4.87a.5.5 0 0 0 .5-.5v-8a.5.5 0 0 0-.5-.5h-2.75v-1.25a.5.5 0 0 0-.5-.5h-1.12v-.75a.5.5 0 0 0-.5-.5h-2.75a.5.5 0 0 0-.5.5v.75H523a.5.5 0 0 0-.5.5V595h-2.75a.5.5 0 0 0-.5.5v8c0 .28.22.5.5.5H523m1.63 0h2.75"/><path fill="#000" d="M557.5 607.5h-15a2 2 0 0 1-2-2v-15c0-1.1.9-2 2-2h15a2 2 0 0 1 2 2v15a2 2 0 0 1-2 2"/><path fill="#fff" d="M557.5 606.5h-15a1 1 0 0 1-1-1v-15a1 1 0 0 1 1-1h15a1 1 0 0 1 1 1v15a1 1 0 0 1-1 1m-12.25-3.5h-1v-3h1Zm1.5 0h-1v-3h1Zm1.5 0h-1v-3h1Zm1.5 0h-1v-3h1Zm1.5 0h-1v-3h1Zm1.5 0h-1v-3h1Zm1.5 0h-1v-3h1Zm1.5 0h-1v-3h1Zm-8.75 1h1.63m2.75 0h4.87a.5.5 0 0 0 .5-.5v-8a.5.5 0 0 0-.5-.5h-2.75v-1.25a.5.5 0 0 0-.5-.5h-1.12v-.75a.5.5 0 0 0-.5-.5h-2.75a.5.5 0 0 0-.5.5v.75H547a.5.5 0 0 0-.5.5V595h-2.75a.5.5 0 0 0-.5.5v8c0 .28.22.5.5.5H547m1.63 0h2.75"/><path fill="#000" d="M581.5 607.5h-15a2 2 0 0 1-2-2v-15c0-1.1.9-2 2-2h15a2 2 0 0 1 2 2v15a2 2 0 0 1-2 2"/><path fill="#fff" d="M581.5 606.5h-15a1 1 0 0 1-1-1v-15a1 1 0 0 1 1-1h15a1 1 0 0 1 1 1v15a1 1 0 0 1-1 1m-12.25-3.5h-1v-3h1Zm1.5 0h-1v-3h1Zm1.5 0h-1v-3h1Zm1.5 0h-1v-3h1Zm1.5 0h-1v-3h1Zm1.5 0h-1v-3h1Zm1.5 0h-1v-3h1Zm1.5 0h-1v-3h1Zm-8.75 1h1.63m2.75 0h4.87a.5.5 0 0 0 .5-.5v-8a.5.5 0 0 0-.5-.5h-2.75v-1.25a.5.5 0 0 0-.5-.5h-1.12v-.75a.5.5 0 0 0-.5-.5h-2.75a.5.5 0 0 0-.5.5v.75H571a.5.5 0 0 0-.5.5V595h-2.75a.5.5 0 0 0-.5.5v8c0 .28.22.5.5.5H571m1.63 0h2.75"/><path fill="#000" d="M605.5 607.5h-15a2 2 0 0 1-2-2v-15c0-1.1.9-2 2-2h15a2 2 0 0 1 2 2v15a2 2 0 0 1-2 2"/><path fill="#fff" d="M605.5 606.5h-15a1 1 0 0 1-1-1v-15a1 1 0 0 1 1-1h15a1 1 0 0 1 1 1v15a1 1 0 0 1-1 1m-12.25-3.5h-1v-3h1Zm1.5 0h-1v-3h1Zm1.5 0h-1v-3h1Zm1.5 0h-1v-3h1Zm1.5 0h-1v-3h1Zm1.5 0h-1v-3h1Zm1.5 0h-1v-3h1Zm1.5 0h-1v-3h1Zm-8.75 1h1.63m2.75 0h4.87a.5.5 0 0 0 .5-.5v-8a.5.5 0 0 0-.5-.5h-2.75v-1.25a.5.5 0 0 0-.5-.5h-1.12v-.75a.5.5 0 0 0-.5-.5h-2.75a.5.5 0 0 0-.5.5v.75H595a.5.5 0 0 0-.5.5V595h-2.75a.5.5 0 0 0-.5.5v8c0 .28.22.5.5.5H595m1.63 0h2.75"/><path fill="#ccc" d="M710 580H460l50-30h150Z"/><path stroke="#000" stroke-linecap="square" d="M710 580H460l50-30h150Z"/><path fill="#fff" d="M559.34 555.83h51.33v18.34h-51.33z"/><path stroke="#000" stroke-linecap="round" stroke-linejoin="round" d="M559.34 555.83h51.33v18.34h-51.33z"/><text fill="#000" transform="translate(561.34 557.83)">
            <tspan xml:space="preserve" x="0" y="11" font-family="Helvetica Neue" font-size="12">lab-sw-4</tspan>
          </text><path fill="#999" d="M1160 580h250v60h-250z"/><path stroke="#000" stroke-linecap="square" d="M1160 580h250v60h-250z"/><path fill="#000" d="M1399.5 612.5h-15a2 2 0 0 0-2 2v15c0 1.1.9 2 2 2h15a2 2 0 0 0 2-2v-15a2 2 0 0 0-2-2"/><path fill="#fff" d="M1399.5 613.5h-15a1 1 0 0 0-1 1v15a1 1 0 0 0 1 1h15a1 1 0 0 0 1-1v-15a1 1 0 0 0-1-1m-12.25 3.5h-1v3h1Zm1.5 0h-1v3h1Zm1.5 0h-1v3h1Zm1.5 0h-1v3h1Zm1.5 0h-1v3h1Zm1.5 0h-1v3h1Zm1.5 0h-1v3h1Zm1.5 0h-1v3h1Zm-8.75-1h1.63m2.74 0h4.88c.28 0 .5.22.5.5v8a.5.5 0 0 1-.5.5h-2.75v1.25a.5.5 0 0 1-.5.5h-1.12v.75a.5.5 0 0 1-.5.5h-2.76a.5.5 0 0 1-.5-.5v-.75H1389a.5.5 0 0 1-.5-.5V625h-2.75a.5.5 0 0 1-.5-.5v-8c0-.28.22-.5.5-.5h3.25m1.63 0h2.74"/><path fill="#000" d="M1370.5 612.5h-15a2 2 0 0 0-2 2v15c0 1.1.9 2 2 2h15a2 2 0 0 0 2-2v-15a2 2 0 0 0-2-2"/><path fill="#fff" d="M1370.5 613.5h-15a1 1 0 0 0-1 1v15a1 1 0 0 0 1 1h15a1 1 0 0 0 1-1v-15a1 1 0 0 0-1-1m-12.25 3.5h-1v3h1Zm1.5 0h-1v3h1Zm1.5 0h-1v3h1Zm1.5 0h-1v3h1Zm1.5 0h-1v3h1Zm1.5 0h-1v3h1Zm1.5 0h-1v3h1Zm1.5 0h-1v3h1Zm-8.75-1h1.63m2.74 0h4.88c.28 0 .5.22.5.5v8a.5.5 0 0 1-.5.5h-2.75v1.25a.5.5 0 0 1-.5.5h-1.12v.75a.5.5 0 0 1-.5.5h-2.76a.5.5 0 0 1-.5-.5v-.75H1360a.5.5 0 0 1-.5-.5V625h-2.75a.5.5 0 0 1-.5-.5v-8c0-.28.22-.5.5-.5h3.25m1.63 0h2.74"/><path fill="#000" d="M1185.5 612.5h-15a2 2 0 0 0-2 2v15c0 1.1.9 2 2 2h15a2 2 0 0 0 2-2v-15a2 2 0 0 0-2-2"/><path fill="#fff" d="M1185.5 613.5h-15a1 1 0 0 0-1 1v15a1 1 0 0 0 1 1h15a1 1 0 0 0 1-1v-15a1 1 0 0 0-1-1m-12.25 3.5h-1v3h1Zm1.5 0h-1v3h1Zm1.5 0h-1v3h1Zm1.5 0h-1v3h1Zm1.5 0h-1v3h1Zm1.5 0h-1v3h1Zm1.5 0h-1v3h1Zm1.5 0h-1v3h1Zm-8.75-1h1.63m2.74 0h4.88c.28 0 .5.22.5.5v8a.5.5 0 0 1-.5.5h-2.75v1.25a.5.5 0 0 1-.5.5h-1.12v.75a.5.5 0 0 1-.5.5h-2.76a.5.5 0 0 1-.5-.5v-.75H1175a.5.5 0 0 1-.5-.5V625h-2.75a.5.5 0 0 1-.5-.5v-8c0-.28.22-.5.5-.5h3.25m1.63 0h2.74"/><path fill="#000" d="M1209.5 612.5h-15a2 2 0 0 0-2 2v15c0 1.1.9 2 2 2h15a2 2 0 0 0 2-2v-15a2 2 0 0 0-2-2"/><path fill="#fff" d="M1209.5 613.5h-15a1 1 0 0 0-1 1v15a1 1 0 0 0 1 1h15a1 1 0 0 0 1-1v-15a1 1 0 0 0-1-1m-12.25 3.5h-1v3h1Zm1.5 0h-1v3h1Zm1.5 0h-1v3h1Zm1.5 0h-1v3h1Zm1.5 0h-1v3h1Zm1.5 0h-1v3h1Zm1.5 0h-1v3h1Zm1.5 0h-1v3h1Zm-8.75-1h1.63m2.74 0h4.88c.28 0 .5.22.5.5v8a.5.5 0 0 1-.5.5h-2.75v1.25a.5.5 0 0 1-.5.5h-1.12v.75a.5.5 0 0 1-.5.5h-2.76a.5.5 0 0 1-.5-.5v-.75H1199a.5.5 0 0 1-.5-.5V625h-2.75a.5.5 0 0 1-.5-.5v-8c0-.28.22-.5.5-.5h3.25m1.63 0h2.74"/><path fill="#000" d="M1233.5 612.5h-15a2 2 0 0 0-2 2v15c0 1.1.9 2 2 2h15a2 2 0 0 0 2-2v-15a2 2 0 0 0-2-2"/><path fill="#fff" d="M1233.5 613.5h-15a1 1 0 0 0-1 1v15a1 1 0 0 0 1 1h15a1 1 0 0 0 1-1v-15a1 1 0 0 0-1-1m-12.25 3.5h-1v3h1Zm1.5 0h-1v3h1Zm1.5 0h-1v3h1Zm1.5 0h-1v3h1Zm1.5 0h-1v3h1Zm1.5 0h-1v3h1Zm1.5 0h-1v3h1Zm1.5 0h-1v3h1Zm-8.75-1h1.63m2.74 0h4.88c.28 0 .5.22.5.5v8a.5.5 0 0 1-.5.5h-2.75v1.25a.5.5 0 0 1-.5.5h-1.12v.75a.5.5 0 0 1-.5.5h-2.76a.5.5 0 0 1-.5-.5v-.75H1223a.5.5 0 0 1-.5-.5V625h-2.75a.5.5 0 0 1-.5-.5v-8c0-.28.22-.5.5-.5h3.25m1.63 0h2.74"/><path fill="#000" d="M1257.5 612.5h-15a2 2 0 0 0-2 2v15c0 1.1.9 2 2 2h15a2 2 0 0 0 2-2v-15a2 2 0 0 0-2-2"/><path fill="#fff" d="M1257.5 613.5h-15a1 1 0 0 0-1 1v15a1 1 0 0 0 1 1h15a1 1 0 0 0 1-1v-15a1 1 0 0 0-1-1m-12.25 3.5h-1v3h1Zm1.5 0h-1v3h1Zm1.5 0h-1v3h1Zm1.5 0h-1v3h1Zm1.5 0h-1v3h1Zm1.5 0h-1v3h1Zm1.5 0h-1v3h1Zm1.5 0h-1v3h1Zm-8.75-1h1.63m2.74 0h4.88c.28 0 .5.22.5.5v8a.5.5 0 0 1-.5.5h-2.75v1.25a.5.5 0 0 1-.5.5h-1.12v.75a.5.5 0 0 1-.5.5h-2.76a.5.5 0 0 1-.5-.5v-.75H1247a.5.5 0 0 1-.5-.5V625h-2.75a.5.5 0 0 1-.5-.5v-8c0-.28.22-.5.5-.5h3.25m1.63 0h2.74"/><path fill="#000" d="M1281.5 612.5h-15a2 2 0 0 0-2 2v15c0 1.1.9 2 2 2h15a2 2 0 0 0 2-2v-15a2 2 0 0 0-2-2"/><path fill="#fff" d="M1281.5 613.5h-15a1 1 0 0 0-1 1v15a1 1 0 0 0 1 1h15a1 1 0 0 0 1-1v-15a1 1 0 0 0-1-1m-12.25 3.5h-1v3h1Zm1.5 0h-1v3h1Zm1.5 0h-1v3h1Zm1.5 0h-1v3h1Zm1.5 0h-1v3h1Zm1.5 0h-1v3h1Zm1.5 0h-1v3h1Zm1.5 0h-1v3h1Zm-8.75-1h1.63m2.74 0h4.88c.28 0 .5.22.5.5v8a.5.5 0 0 1-.5.5h-2.75v1.25a.5.5 0 0 1-.5.5h-1.12v.75a.5.5 0 0 1-.5.5h-2.76a.5.5 0 0 1-.5-.5v-.75H1271a.5.5 0 0 1-.5-.5V625h-2.75a.5.5 0 0 1-.5-.5v-8c0-.28.22-.5.5-.5h3.25m1.63 0h2.74"/><path fill="#000" d="M1305.5 612.5h-15a2 2 0 0 0-2 2v15c0 1.1.9 2 2 2h15a2 2 0 0 0 2-2v-15a2 2 0 0 0-2-2"/><path fill="#fff" d="M1305.5 613.5h-15a1 1 0 0 0-1 1v15a1 1 0 0 0 1 1h15a1 1 0 0 0 1-1v-15a1 1 0 0 0-1-1m-12.25 3.5h-1v3h1Zm1.5 0h-1v3h1Zm1.5 0h-1v3h1Zm1.5 0h-1v3h1Zm1.5 0h-1v3h1Zm1.5 0h-1v3h1Zm1.5 0h-1v3h1Zm1.5 0h-1v3h1Zm-8.75-1h1.63m2.74 0h4.88c.28 0 .5.22.5.5v8a.5.5 0 0 1-.5.5h-2.75v1.25a.5.5 0 0 1-.5.5h-1.12v.75a.5.5 0 0 1-.5.5h-2.76a.5.5 0 0 1-.5-.5v-.75H1295a.5.5 0 0 1-.5-.5V625h-2.75a.5.5 0 0 1-.5-.5v-8c0-.28.22-.5.5-.5h3.25m1.63 0h2.74"/><path fill="#000" d="M1185.5 607.5h-15a2 2 0 0 1-2-2v-15c0-1.1.9-2 2-2h15a2 2 0 0 1 2 2v15a2 2 0 0 1-2 2"/><path fill="#fff" d="M1185.5 606.5h-15a1 1 0 0 1-1-1v-15a1 1 0 0 1 1-1h15a1 1 0 0 1 1 1v15a1 1 0 0 1-1 1m-12.25-3.5h-1v-3h1Zm1.5 0h-1v-3h1Zm1.5 0h-1v-3h1Zm1.5 0h-1v-3h1Zm1.5 0h-1v-3h1Zm1.5 0h-1v-3h1Zm1.5 0h-1v-3h1Zm1.5 0h-1v-3h1Zm-8.75 1h1.63m2.74 0h4.88a.5.5 0 0 0 .5-.5v-8a.5.5 0 0 0-.5-.5h-2.75v-1.25a.5.5 0 0 0-.5-.5h-1.12v-.75a.5.5 0 0 0-.5-.5h-2.76a.5.5 0 0 0-.5.5v.75H1175a.5.5 0 0 0-.5.5V595h-2.75a.5.5 0 0 0-.5.5v8c0 .28.22.5.5.5h3.25m1.63 0h2.74"/><path fill="#000" d="M1209.5 607.5h-15a2 2 0 0 1-2-2v-15c0-1.1.9-2 2-2h15a2 2 0 0 1 2 2v15a2 2 0 0 1-2 2"/><path fill="#fff" d="M1209.5 606.5h-15a1 1 0 0 1-1-1v-15a1 1 0 0 1 1-1h15a1 1 0 0 1 1 1v15a1 1 0 0 1-1 1m-12.25-3.5h-1v-3h1Zm1.5 0h-1v-3h1Zm1.5 0h-1v-3h1Zm1.5 0h-1v-3h1Zm1.5 0h-1v-3h1Zm1.5 0h-1v-3h1Zm1.5 0h-1v-3h1Zm1.5 0h-1v-3h1Zm-8.75 1h1.63m2.74 0h4.88a.5.5 0 0 0 .5-.5v-8a.5.5 0 0 0-.5-.5h-2.75v-1.25a.5.5 0 0 0-.5-.5h-1.12v-.75a.5.5 0 0 0-.5-.5h-2.76a.5.5 0 0 0-.5.5v.75H1199a.5.5 0 0 0-.5.5V595h-2.75a.5.5 0 0 0-.5.5v8c0 .28.22.5.5.5h3.25m1.63 0h2.74"/><path fill="#000" d="M1233.5 607.5h-15a2 2 0 0 1-2-2v-15c0-1.1.9-2 2-2h15a2 2 0 0 1 2 2v15a2 2 0 0 1-2 2"/><path fill="#fff" d="M1233.5 606.5h-15a1 1 0 0 1-1-1v-15a1 1 0 0 1 1-1h15a1 1 0 0 1 1 1v15a1 1 0 0 1-1 1m-12.25-3.5h-1v-3h1Zm1.5 0h-1v-3h1Zm1.5 0h-1v-3h1Zm1.5 0h-1v-3h1Zm1.5 0h-1v-3h1Zm1.5 0h-1v-3h1Zm1.5 0h-1v-3h1Zm1.5 0h-1v-3h1Zm-8.75 1h1.63m2.74 0h4.88a.5.5 0 0 0 .5-.5v-8a.5.5 0 0 0-.5-.5h-2.75v-1.25a.5.5 0 0 0-.5-.5h-1.12v-.75a.5.5 0 0 0-.5-.5h-2.76a.5.5 0 0 0-.5.5v.75H1223a.5.5 0 0 0-.5.5V595h-2.75a.5.5 0 0 0-.5.5v8c0 .28.22.5.5.5h3.25m1.63 0h2.74"/><path fill="#000" d="M1257.5 607.5h-15a2 2 0 0 1-2-2v-15c0-1.1.9-2 2-2h15a2 2 0 0 1 2 2v15a2 2 0 0 1-2 2"/><path fill="#fff" d="M1257.5 606.5h-15a1 1 0 0 1-1-1v-15a1 1 0 0 1 1-1h15a1 1 0 0 1 1 1v15a1 1 0 0 1-1 1m-12.25-3.5h-1v-3h1Zm1.5 0h-1v-3h1Zm1.5 0h-1v-3h1Zm1.5 0h-1v-3h1Zm1.5 0h-1v-3h1Zm1.5 0h-1v-3h1Zm1.5 0h-1v-3h1Zm1.5 0h-1v-3h1Zm-8.75 1h1.63m2.74 0h4.88a.5.5 0 0 0 .5-.5v-8a.5.5 0 0 0-.5-.5h-2.75v-1.25a.5.5 0 0 0-.5-.5h-1.12v-.75a.5.5 0 0 0-.5-.5h-2.76a.5.5 0 0 0-.5.5v.75H1247a.5.5 0 0 0-.5.5V595h-2.75a.5.5 0 0 0-.5.5v8c0 .28.22.5.5.5h3.25m1.63 0h2.74"/><path fill="#000" d="M1281.5 607.5h-15a2 2 0 0 1-2-2v-15c0-1.1.9-2 2-2h15a2 2 0 0 1 2 2v15a2 2 0 0 1-2 2"/><path fill="#fff" d="M1281.5 606.5h-15a1 1 0 0 1-1-1v-15a1 1 0 0 1 1-1h15a1 1 0 0 1 1 1v15a1 1 0 0 1-1 1m-12.25-3.5h-1v-3h1Zm1.5 0h-1v-3h1Zm1.5 0h-1v-3h1Zm1.5 0h-1v-3h1Zm1.5 0h-1v-3h1Zm1.5 0h-1v-3h1Zm1.5 0h-1v-3h1Zm1.5 0h-1v-3h1Zm-8.75 1h1.63m2.74 0h4.88a.5.5 0 0 0 .5-.5v-8a.5.5 0 0 0-.5-.5h-2.75v-1.25a.5.5 0 0 0-.5-.5h-1.12v-.75a.5.5 0 0 0-.5-.5h-2.76a.5.5 0 0 0-.5.5v.75H1271a.5.5 0 0 0-.5.5V595h-2.75a.5.5 0 0 0-.5.5v8c0 .28.22.5.5.5h3.25m1.63 0h2.74"/><path fill="#000" d="M1305.5 607.5h-15a2 2 0 0 1-2-2v-15c0-1.1.9-2 2-2h15a2 2 0 0 1 2 2v15a2 2 0 0 1-2 2"/><path fill="#fff" d="M1305.5 606.5h-15a1 1 0 0 1-1-1v-15a1 1 0 0 1 1-1h15a1 1 0 0 1 1 1v15a1 1 0 0 1-1 1m-12.25-3.5h-1v-3h1Zm1.5 0h-1v-3h1Zm1.5 0h-1v-3h1Zm1.5 0h-1v-3h1Zm1.5 0h-1v-3h1Zm1.5 0h-1v-3h1Zm1.5 0h-1v-3h1Zm1.5 0h-1v-3h1Zm-8.75 1h1.63m2.74 0h4.88a.5.5 0 0 0 .5-.5v-8a.5.5 0 0 0-.5-.5h-2.75v-1.25a.5.5 0 0 0-.5-.5h-1.12v-.75a.5.5 0 0 0-.5-.5h-2.76a.5.5 0 0 0-.5.5v.75H1295a.5.5 0 0 0-.5.5V595h-2.75a.5.5 0 0 0-.5.5v8c0 .28.22.5.5.5h3.25m1.63 0h2.74"/><path fill="#ccc" d="M1410 580h-250l50-30h150Z"/><path stroke="#000" stroke-linecap="square" d="M1410 580h-250l50-30h150Z"/><path fill="#fff" d="M1259.34 555.83h51.33v18.34h-51.33z"/><path stroke="#000" stroke-linecap="round" stroke-linejoin="round" d="M1259.34 555.83h51.33v18.34h-51.33z"/><text fill="#000" transform="translate(1261.34 557.83)">
            <tspan xml:space="preserve" x="0" y="11" font-family="Helvetica Neue" font-size="12">lab-sw-3</tspan>
          </text><path fill="#999" d="M1160 80h250v60h-250z"/><path stroke="#000" stroke-linecap="square" d="M1160 80h250v60h-250z"/><path fill="#000" d="M1399.5 112.5h-15a2 2 0 0 0-2 2v15c0 1.1.9 2 2 2h15a2 2 0 0 0 2-2v-15a2 2 0 0 0-2-2"/><path fill="#fff" d="M1399.5 113.5h-15a1 1 0 0 0-1 1v15a1 1 0 0 0 1 1h15a1 1 0 0 0 1-1v-15a1 1 0 0 0-1-1m-12.25 3.5h-1v3h1Zm1.5 0h-1v3h1Zm1.5 0h-1v3h1Zm1.5 0h-1v3h1Zm1.5 0h-1v3h1Zm1.5 0h-1v3h1Zm1.5 0h-1v3h1Zm1.5 0h-1v3h1Zm-8.75-1h1.63m2.74 0h4.88c.28 0 .5.22.5.5v8a.5.5 0 0 1-.5.5h-2.75v1.25a.5.5 0 0 1-.5.5h-1.12v.75a.5.5 0 0 1-.5.5h-2.76a.5.5 0 0 1-.5-.5v-.75H1389a.5.5 0 0 1-.5-.5V125h-2.75a.5.5 0 0 1-.5-.5v-8c0-.28.22-.5.5-.5h3.25m1.63 0h2.74"/><path fill="#000" d="M1370.5 112.5h-15a2 2 0 0 0-2 2v15c0 1.1.9 2 2 2h15a2 2 0 0 0 2-2v-15a2 2 0 0 0-2-2"/><path fill="#fff" d="M1370.5 113.5h-15a1 1 0 0 0-1 1v15a1 1 0 0 0 1 1h15a1 1 0 0 0 1-1v-15a1 1 0 0 0-1-1m-12.25 3.5h-1v3h1Zm1.5 0h-1v3h1Zm1.5 0h-1v3h1Zm1.5 0h-1v3h1Zm1.5 0h-1v3h1Zm1.5 0h-1v3h1Zm1.5 0h-1v3h1Zm1.5 0h-1v3h1Zm-8.75-1h1.63m2.74 0h4.88c.28 0 .5.22.5.5v8a.5.5 0 0 1-.5.5h-2.75v1.25a.5.5 0 0 1-.5.5h-1.12v.75a.5.5 0 0 1-.5.5h-2.76a.5.5 0 0 1-.5-.5v-.75H1360a.5.5 0 0 1-.5-.5V125h-2.75a.5.5 0 0 1-.5-.5v-8c0-.28.22-.5.5-.5h3.25m1.63 0h2.74"/><path fill="#000" d="M1185.5 112.5h-15a2 2 0 0 0-2 2v15c0 1.1.9 2 2 2h15a2 2 0 0 0 2-2v-15a2 2 0 0 0-2-2"/><path fill="#fff" d="M1185.5 113.5h-15a1 1 0 0 0-1 1v15a1 1 0 0 0 1 1h15a1 1 0 0 0 1-1v-15a1 1 0 0 0-1-1m-12.25 3.5h-1v3h1Zm1.5 0h-1v3h1Zm1.5 0h-1v3h1Zm1.5 0h-1v3h1Zm1.5 0h-1v3h1Zm1.5 0h-1v3h1Zm1.5 0h-1v3h1Zm1.5 0h-1v3h1Zm-8.75-1h1.63m2.74 0h4.88c.28 0 .5.22.5.5v8a.5.5 0 0 1-.5.5h-2.75v1.25a.5.5 0 0 1-.5.5h-1.12v.75a.5.5 0 0 1-.5.5h-2.76a.5.5 0 0 1-.5-.5v-.75H1175a.5.5 0 0 1-.5-.5V125h-2.75a.5.5 0 0 1-.5-.5v-8c0-.28.22-.5.5-.5h3.25m1.63 0h2.74"/><path fill="#000" d="M1209.5 112.5h-15a2 2 0 0 0-2 2v15c0 1.1.9 2 2 2h15a2 2 0 0 0 2-2v-15a2 2 0 0 0-2-2"/><path fill="#fff" d="M1209.5 113.5h-15a1 1 0 0 0-1 1v15a1 1 0 0 0 1 1h15a1 1 0 0 0 1-1v-15a1 1 0 0 0-1-1m-12.25 3.5h-1v3h1Zm1.5 0h-1v3h1Zm1.5 0h-1v3h1Zm1.5 0h-1v3h1Zm1.5 0h-1v3h1Zm1.5 0h-1v3h1Zm1.5 0h-1v3h1Zm1.5 0h-1v3h1Zm-8.75-1h1.63m2.74 0h4.88c.28 0 .5.22.5.5v8a.5.5 0 0 1-.5.5h-2.75v1.25a.5.5 0 0 1-.5.5h-1.12v.75a.5.5 0 0 1-.5.5h-2.76a.5.5 0 0 1-.5-.5v-.75H1199a.5.5 0 0 1-.5-.5V125h-2.75a.5.5 0 0 1-.5-.5v-8c0-.28.22-.5.5-.5h3.25m1.63 0h2.74"/><path fill="#000" d="M1233.5 112.5h-15a2 2 0 0 0-2 2v15c0 1.1.9 2 2 2h15a2 2 0 0 0 2-2v-15a2 2 0 0 0-2-2"/><path fill="#fff" d="M1233.5 113.5h-15a1 1 0 0 0-1 1v15a1 1 0 0 0 1 1h15a1 1 0 0 0 1-1v-15a1 1 0 0 0-1-1m-12.25 3.5h-1v3h1Zm1.5 0h-1v3h1Zm1.5 0h-1v3h1Zm1.5 0h-1v3h1Zm1.5 0h-1v3h1Zm1.5 0h-1v3h1Zm1.5 0h-1v3h1Zm1.5 0h-1v3h1Zm-8.75-1h1.63m2.74 0h4.88c.28 0 .5.22.5.5v8a.5.5 0 0 1-.5.5h-2.75v1.25a.5.5 0 0 1-.5.5h-1.12v.75a.5.5 0 0 1-.5.5h-2.76a.5.5 0 0 1-.5-.5v-.75H1223a.5.5 0 0 1-.5-.5V125h-2.75a.5.5 0 0 1-.5-.5v-8c0-.28.22-.5.5-.5h3.25m1.63 0h2.74"/><path fill="#000" d="M1257.5 112.5h-15a2 2 0 0 0-2 2v15c0 1.1.9 2 2 2h15a2 2 0 0 0 2-2v-15a2 2 0 0 0-2-2"/><path fill="#fff" d="M1257.5 113.5h-15a1 1 0 0 0-1 1v15a1 1 0 0 0 1 1h15a1 1 0 0 0 1-1v-15a1 1 0 0 0-1-1m-12.25 3.5h-1v3h1Zm1.5 0h-1v3h1Zm1.5 0h-1v3h1Zm1.5 0h-1v3h1Zm1.5 0h-1v3h1Zm1.5 0h-1v3h1Zm1.5 0h-1v3h1Zm1.5 0h-1v3h1Zm-8.75-1h1.63m2.74 0h4.88c.28 0 .5.22.5.5v8a.5.5 0 0 1-.5.5h-2.75v1.25a.5.5 0 0 1-.5.5h-1.12v.75a.5.5 0 0 1-.5.5h-2.76a.5.5 0 0 1-.5-.5v-.75H1247a.5.5 0 0 1-.5-.5V125h-2.75a.5.5 0 0 1-.5-.5v-8c0-.28.22-.5.5-.5h3.25m1.63 0h2.74"/><path fill="#000" d="M1281.5 112.5h-15a2 2 0 0 0-2 2v15c0 1.1.9 2 2 2h15a2 2 0 0 0 2-2v-15a2 2 0 0 0-2-2"/><path fill="#fff" d="M1281.5 113.5h-15a1 1 0 0 0-1 1v15a1 1 0 0 0 1 1h15a1 1 0 0 0 1-1v-15a1 1 0 0 0-1-1m-12.25 3.5h-1v3h1Zm1.5 0h-1v3h1Zm1.5 0h-1v3h1Zm1.5 0h-1v3h1Zm1.5 0h-1v3h1Zm1.5 0h-1v3h1Zm1.5 0h-1v3h1Zm1.5 0h-1v3h1Zm-8.75-1h1.63m2.74 0h4.88c.28 0 .5.22.5.5v8a.5.5 0 0 1-.5.5h-2.75v1.25a.5.5 0 0 1-.5.5h-1.12v.75a.5.5 0 0 1-.5.5h-2.76a.5.5 0 0 1-.5-.5v-.75H1271a.5.5 0 0 1-.5-.5V125h-2.75a.5.5 0 0 1-.5-.5v-8c0-.28.22-.5.5-.5h3.25m1.63 0h2.74"/><path fill="#000" d="M1305.5 112.5h-15a2 2 0 0 0-2 2v15c0 1.1.9 2 2 2h15a2 2 0 0 0 2-2v-15a2 2 0 0 0-2-2"/><path fill="#fff" d="M1305.5 113.5h-15a1 1 0 0 0-1 1v15a1 1 0 0 0 1 1h15a1 1 0 0 0 1-1v-15a1 1 0 0 0-1-1m-12.25 3.5h-1v3h1Zm1.5 0h-1v3h1Zm1.5 0h-1v3h1Zm1.5 0h-1v3h1Zm1.5 0h-1v3h1Zm1.5 0h-1v3h1Zm1.5 0h-1v3h1Zm1.5 0h-1v3h1Zm-8.75-1h1.63m2.74 0h4.88c.28 0 .5.22.5.5v8a.5.5 0 0 1-.5.5h-2.75v1.25a.5.5 0 0 1-.5.5h-1.12v.75a.5.5 0 0 1-.5.5h-2.76a.5.5 0 0 1-.5-.5v-.75H1295a.5.5 0 0 1-.5-.5V125h-2.75a.5.5 0 0 1-.5-.5v-8c0-.28.22-.5.5-.5h3.25m1.63 0h2.74"/><path fill="#000" d="M1185.5 107.5h-15a2 2 0 0 1-2-2v-15c0-1.1.9-2 2-2h15a2 2 0 0 1 2 2v15a2 2 0 0 1-2 2"/><path fill="#fff" d="M1185.5 106.5h-15a1 1 0 0 1-1-1v-15a1 1 0 0 1 1-1h15a1 1 0 0 1 1 1v15a1 1 0 0 1-1 1m-12.25-3.5h-1v-3h1Zm1.5 0h-1v-3h1Zm1.5 0h-1v-3h1Zm1.5 0h-1v-3h1Zm1.5 0h-1v-3h1Zm1.5 0h-1v-3h1Zm1.5 0h-1v-3h1Zm1.5 0h-1v-3h1Zm-8.75 1h1.63m2.74 0h4.88a.5.5 0 0 0 .5-.5v-8a.5.5 0 0 0-.5-.5h-2.75v-1.25a.5.5 0 0 0-.5-.5h-1.12v-.75a.5.5 0 0 0-.5-.5h-2.76a.5.5 0 0 0-.5.5v.75H1175a.5.5 0 0 0-.5.5V95h-2.75a.5.5 0 0 0-.5.5v8c0 .28.22.5.5.5h3.25m1.63 0h2.74"/><path fill="#000" d="M1209.5 107.5h-15a2 2 0 0 1-2-2v-15c0-1.1.9-2 2-2h15a2 2 0 0 1 2 2v15a2 2 0 0 1-2 2"/><path fill="#fff" d="M1209.5 106.5h-15a1 1 0 0 1-1-1v-15a1 1 0 0 1 1-1h15a1 1 0 0 1 1 1v15a1 1 0 0 1-1 1m-12.25-3.5h-1v-3h1Zm1.5 0h-1v-3h1Zm1.5 0h-1v-3h1Zm1.5 0h-1v-3h1Zm1.5 0h-1v-3h1Zm1.5 0h-1v-3h1Zm1.5 0h-1v-3h1Zm1.5 0h-1v-3h1Zm-8.75 1h1.63m2.74 0h4.88a.5.5 0 0 0 .5-.5v-8a.5.5 0 0 0-.5-.5h-2.75v-1.25a.5.5 0 0 0-.5-.5h-1.12v-.75a.5.5 0 0 0-.5-.5h-2.76a.5.5 0 0 0-.5.5v.75H1199a.5.5 0 0 0-.5.5V95h-2.75a.5.5 0 0 0-.5.5v8c0 .28.22.5.5.5h3.25m1.63 0h2.74"/><path fill="#000" d="M1233.5 107.5h-15a2 2 0 0 1-2-2v-15c0-1.1.9-2 2-2h15a2 2 0 0 1 2 2v15a2 2 0 0 1-2 2"/><path fill="#fff" d="M1233.5 106.5h-15a1 1 0 0 1-1-1v-15a1 1 0 0 1 1-1h15a1 1 0 0 1 1 1v15a1 1 0 0 1-1 1m-12.25-3.5h-1v-3h1Zm1.5 0h-1v-3h1Zm1.5 0h-1v-3h1Zm1.5 0h-1v-3h1Zm1.5 0h-1v-3h1Zm1.5 0h-1v-3h1Zm1.5 0h-1v-3h1Zm1.5 0h-1v-3h1Zm-8.75 1h1.63m2.74 0h4.88a.5.5 0 0 0 .5-.5v-8a.5.5 0 0 0-.5-.5h-2.75v-1.25a.5.5 0 0 0-.5-.5h-1.12v-.75a.5.5 0 0 0-.5-.5h-2.76a.5.5 0 0 0-.5.5v.75H1223a.5.5 0 0 0-.5.5V95h-2.75a.5.5 0 0 0-.5.5v8c0 .28.22.5.5.5h3.25m1.63 0h2.74"/><path fill="#000" d="M1257.5 107.5h-15a2 2 0 0 1-2-2v-15c0-1.1.9-2 2-2h15a2 2 0 0 1 2 2v15a2 2 0 0 1-2 2"/><path fill="#fff" d="M1257.5 106.5h-15a1 1 0 0 1-1-1v-15a1 1 0 0 1 1-1h15a1 1 0 0 1 1 1v15a1 1 0 0 1-1 1m-12.25-3.5h-1v-3h1Zm1.5 0h-1v-3h1Zm1.5 0h-1v-3h1Zm1.5 0h-1v-3h1Zm1.5 0h-1v-3h1Zm1.5 0h-1v-3h1Zm1.5 0h-1v-3h1Zm1.5 0h-1v-3h1Zm-8.75 1h1.63m2.74 0h4.88a.5.5 0 0 0 .5-.5v-8a.5.5 0 0 0-.5-.5h-2.75v-1.25a.5.5 0 0 0-.5-.5h-1.12v-.75a.5.5 0 0 0-.5-.5h-2.76a.5.5 0 0 0-.5.5v.75H1247a.5.5 0 0 0-.5.5V95h-2.75a.5.5 0 0 0-.5.5v8c0 .28.22.5.5.5h3.25m1.63 0h2.74"/><path fill="#000" d="M1281.5 107.5h-15a2 2 0 0 1-2-2v-15c0-1.1.9-2 2-2h15a2 2 0 0 1 2 2v15a2 2 0 0 1-2 2"/><path fill="#fff" d="M1281.5 106.5h-15a1 1 0 0 1-1-1v-15a1 1 0 0 1 1-1h15a1 1 0 0 1 1 1v15a1 1 0 0 1-1 1m-12.25-3.5h-1v-3h1Zm1.5 0h-1v-3h1Zm1.5 0h-1v-3h1Zm1.5 0h-1v-3h1Zm1.5 0h-1v-3h1Zm1.5 0h-1v-3h1Zm1.5 0h-1v-3h1Zm1.5 0h-1v-3h1Zm-8.75 1h1.63m2.74 0h4.88a.5.5 0 0 0 .5-.5v-8a.5.5 0 0 0-.5-.5h-2.75v-1.25a.5.5 0 0 0-.5-.5h-1.12v-.75a.5.5 0 0 0-.5-.5h-2.76a.5.5 0 0 0-.5.5v.75H1271a.5.5 0 0 0-.5.5V95h-2.75a.5.5 0 0 0-.5.5v8c0 .28.22.5.5.5h3.25m1.63 0h2.74"/><path fill="#000" d="M1305.5 107.5h-15a2 2 0 0 1-2-2v-15c0-1.1.9-2 2-2h15a2 2 0 0 1 2 2v15a2 2 0 0 1-2 2"/><path fill="#fff" d="M1305.5 106.5h-15a1 1 0 0 1-1-1v-15a1 1 0 0 1 1-1h15a1 1 0 0 1 1 1v15a1 1 0 0 1-1 1m-12.25-3.5h-1v-3h1Zm1.5 0h-1v-3h1Zm1.5 0h-1v-3h1Zm1.5 0h-1v-3h1Zm1.5 0h-1v-3h1Zm1.5 0h-1v-3h1Zm1.5 0h-1v-3h1Zm1.5 0h-1v-3h1Zm-8.75 1h1.63m2.74 0h4.88a.5.5 0 0 0 .5-.5v-8a.5.5 0 0 0-.5-.5h-2.75v-1.25a.5.5 0 0 0-.5-.5h-1.12v-.75a.5.5 0 0 0-.5-.5h-2.76a.5.5 0 0 0-.5.5v.75H1295a.5.5 0 0 0-.5.5V95h-2.75a.5.5 0 0 0-.5.5v8c0 .28.22.5.5.5h3.25m1.63 0h2.74"/><path fill="#ccc" d="M1410 80h-250l50-30h150Z"/><path stroke="#000" stroke-linecap="square" d="M1410 80h-250l50-30h150Z"/><path fill="#fff" d="M1259.34 55.83h51.33v18.34h-51.33z"/><path stroke="#000" stroke-linecap="round" stroke-linejoin="round" d="M1259.34 55.83h51.33v18.34h-51.33z"/><text fill="#000" transform="translate(1261.34 57.83)">
            <tspan xml:space="preserve" x="0" y="11" font-family="Helvetica Neue" font-size="12">lab-sw-2</tspan>
          </text><path fill="#999" d="M460 80h250v60H460z"/><path stroke="#000" stroke-linecap="square" d="M460 80h250v60H460z"/><path fill="#000" d="M699.5 112.5h-15a2 2 0 0 0-2 2v15c0 1.1.9 2 2 2h15a2 2 0 0 0 2-2v-15a2 2 0 0 0-2-2"/><path fill="#fff" d="M699.5 113.5h-15a1 1 0 0 0-1 1v15a1 1 0 0 0 1 1h15a1 1 0 0 0 1-1v-15a1 1 0 0 0-1-1m-12.25 3.5h-1v3h1Zm1.5 0h-1v3h1Zm1.5 0h-1v3h1Zm1.5 0h-1v3h1Zm1.5 0h-1v3h1Zm1.5 0h-1v3h1Zm1.5 0h-1v3h1Zm1.5 0h-1v3h1Zm-8.75-1h1.63m2.75 0h4.87c.28 0 .5.22.5.5v8a.5.5 0 0 1-.5.5h-2.75v1.25a.5.5 0 0 1-.5.5h-1.12v.75a.5.5 0 0 1-.5.5h-2.75a.5.5 0 0 1-.5-.5v-.75H689a.5.5 0 0 1-.5-.5V125h-2.75a.5.5 0 0 1-.5-.5v-8c0-.28.22-.5.5-.5H689m1.63 0h2.75"/><path fill="#000" d="M670.5 112.5h-15a2 2 0 0 0-2 2v15c0 1.1.9 2 2 2h15a2 2 0 0 0 2-2v-15a2 2 0 0 0-2-2"/><path fill="#fff" d="M670.5 113.5h-15a1 1 0 0 0-1 1v15a1 1 0 0 0 1 1h15a1 1 0 0 0 1-1v-15a1 1 0 0 0-1-1m-12.25 3.5h-1v3h1Zm1.5 0h-1v3h1Zm1.5 0h-1v3h1Zm1.5 0h-1v3h1Zm1.5 0h-1v3h1Zm1.5 0h-1v3h1Zm1.5 0h-1v3h1Zm1.5 0h-1v3h1Zm-8.75-1h1.63m2.75 0h4.87c.28 0 .5.22.5.5v8a.5.5 0 0 1-.5.5h-2.75v1.25a.5.5 0 0 1-.5.5h-1.12v.75a.5.5 0 0 1-.5.5h-2.75a.5.5 0 0 1-.5-.5v-.75H660a.5.5 0 0 1-.5-.5V125h-2.75a.5.5 0 0 1-.5-.5v-8c0-.28.22-.5.5-.5H660m1.63 0h2.75"/><path fill="#000" d="M485.5 112.5h-15a2 2 0 0 0-2 2v15c0 1.1.9 2 2 2h15a2 2 0 0 0 2-2v-15a2 2 0 0 0-2-2"/><path fill="#fff" d="M485.5 113.5h-15a1 1 0 0 0-1 1v15a1 1 0 0 0 1 1h15a1 1 0 0 0 1-1v-15a1 1 0 0 0-1-1m-12.25 3.5h-1v3h1Zm1.5 0h-1v3h1Zm1.5 0h-1v3h1Zm1.5 0h-1v3h1Zm1.5 0h-1v3h1Zm1.5 0h-1v3h1Zm1.5 0h-1v3h1Zm1.5 0h-1v3h1Zm-8.75-1h1.63m2.75 0h4.87c.28 0 .5.22.5.5v8a.5.5 0 0 1-.5.5h-2.75v1.25a.5.5 0 0 1-.5.5h-1.12v.75a.5.5 0 0 1-.5.5h-2.75a.5.5 0 0 1-.5-.5v-.75H475a.5.5 0 0 1-.5-.5V125h-2.75a.5.5 0 0 1-.5-.5v-8c0-.28.22-.5.5-.5H475m1.63 0h2.75"/><path fill="#000" d="M509.5 112.5h-15a2 2 0 0 0-2 2v15c0 1.1.9 2 2 2h15a2 2 0 0 0 2-2v-15a2 2 0 0 0-2-2"/><path fill="#fff" d="M509.5 113.5h-15a1 1 0 0 0-1 1v15a1 1 0 0 0 1 1h15a1 1 0 0 0 1-1v-15a1 1 0 0 0-1-1m-12.25 3.5h-1v3h1Zm1.5 0h-1v3h1Zm1.5 0h-1v3h1Zm1.5 0h-1v3h1Zm1.5 0h-1v3h1Zm1.5 0h-1v3h1Zm1.5 0h-1v3h1Zm1.5 0h-1v3h1Zm-8.75-1h1.63m2.75 0h4.87c.28 0 .5.22.5.5v8a.5.5 0 0 1-.5.5h-2.75v1.25a.5.5 0 0 1-.5.5h-1.12v.75a.5.5 0 0 1-.5.5h-2.75a.5.5 0 0 1-.5-.5v-.75H499a.5.5 0 0 1-.5-.5V125h-2.75a.5.5 0 0 1-.5-.5v-8c0-.28.22-.5.5-.5H499m1.63 0h2.75"/><path fill="#000" d="M533.5 112.5h-15a2 2 0 0 0-2 2v15c0 1.1.9 2 2 2h15a2 2 0 0 0 2-2v-15a2 2 0 0 0-2-2"/><path fill="#fff" d="M533.5 113.5h-15a1 1 0 0 0-1 1v15a1 1 0 0 0 1 1h15a1 1 0 0 0 1-1v-15a1 1 0 0 0-1-1m-12.25 3.5h-1v3h1Zm1.5 0h-1v3h1Zm1.5 0h-1v3h1Zm1.5 0h-1v3h1Zm1.5 0h-1v3h1Zm1.5 0h-1v3h1Zm1.5 0h-1v3h1Zm1.5 0h-1v3h1Zm-8.75-1h1.63m2.75 0h4.87c.28 0 .5.22.5.5v8a.5.5 0 0 1-.5.5h-2.75v1.25a.5.5 0 0 1-.5.5h-1.12v.75a.5.5 0 0 1-.5.5h-2.75a.5.5 0 0 1-.5-.5v-.75H523a.5.5 0 0 1-.5-.5V125h-2.75a.5.5 0 0 1-.5-.5v-8c0-.28.22-.5.5-.5H523m1.63 0h2.75"/><path fill="#000" d="M557.5 112.5h-15a2 2 0 0 0-2 2v15c0 1.1.9 2 2 2h15a2 2 0 0 0 2-2v-15a2 2 0 0 0-2-2"/><path fill="#fff" d="M557.5 113.5h-15a1 1 0 0 0-1 1v15a1 1 0 0 0 1 1h15a1 1 0 0 0 1-1v-15a1 1 0 0 0-1-1m-12.25 3.5h-1v3h1Zm1.5 0h-1v3h1Zm1.5 0h-1v3h1Zm1.5 0h-1v3h1Zm1.5 0h-1v3h1Zm1.5 0h-1v3h1Zm1.5 0h-1v3h1Zm1.5 0h-1v3h1Zm-8.75-1h1.63m2.75 0h4.87c.28 0 .5.22.5.5v8a.5.5 0 0 1-.5.5h-2.75v1.25a.5.5 0 0 1-.5.5h-1.12v.75a.5.5 0 0 1-.5.5h-2.75a.5.5 0 0 1-.5-.5v-.75H547a.5.5 0 0 1-.5-.5V125h-2.75a.5.5 0 0 1-.5-.5v-8c0-.28.22-.5.5-.5H547m1.63 0h2.75"/><path fill="#000" d="M581.5 112.5h-15a2 2 0 0 0-2 2v15c0 1.1.9 2 2 2h15a2 2 0 0 0 2-2v-15a2 2 0 0 0-2-2"/><path fill="#fff" d="M581.5 113.5h-15a1 1 0 0 0-1 1v15a1 1 0 0 0 1 1h15a1 1 0 0 0 1-1v-15a1 1 0 0 0-1-1m-12.25 3.5h-1v3h1Zm1.5 0h-1v3h1Zm1.5 0h-1v3h1Zm1.5 0h-1v3h1Zm1.5 0h-1v3h1Zm1.5 0h-1v3h1Zm1.5 0h-1v3h1Zm1.5 0h-1v3h1Zm-8.75-1h1.63m2.75 0h4.87c.28 0 .5.22.5.5v8a.5.5 0 0 1-.5.5h-2.75v1.25a.5.5 0 0 1-.5.5h-1.12v.75a.5.5 0 0 1-.5.5h-2.75a.5.5 0 0 1-.5-.5v-.75H571a.5.5 0 0 1-.5-.5V125h-2.75a.5.5 0 0 1-.5-.5v-8c0-.28.22-.5.5-.5H571m1.63 0h2.75"/><path fill="#000" d="M605.5 112.5h-15a2 2 0 0 0-2 2v15c0 1.1.9 2 2 2h15a2 2 0 0 0 2-2v-15a2 2 0 0 0-2-2"/><path fill="#fff" d="M605.5 113.5h-15a1 1 0 0 0-1 1v15a1 1 0 0 0 1 1h15a1 1 0 0 0 1-1v-15a1 1 0 0 0-1-1m-12.25 3.5h-1v3h1Zm1.5 0h-1v3h1Zm1.5 0h-1v3h1Zm1.5 0h-1v3h1Zm1.5 0h-1v3h1Zm1.5 0h-1v3h1Zm1.5 0h-1v3h1Zm1.5 0h-1v3h1Zm-8.75-1h1.63m2.75 0h4.87c.28 0 .5.22.5.5v8a.5.5 0 0 1-.5.5h-2.75v1.25a.5.5 0 0 1-.5.5h-1.12v.75a.5.5 0 0 1-.5.5h-2.75a.5.5 0 0 1-.5-.5v-.75H595a.5.5 0 0 1-.5-.5V125h-2.75a.5.5 0 0 1-.5-.5v-8c0-.28.22-.5.5-.5H595m1.63 0h2.75"/><path fill="#000" d="M485.5 107.5h-15a2 2 0 0 1-2-2v-15c0-1.1.9-2 2-2h15a2 2 0 0 1 2 2v15a2 2 0 0 1-2 2"/><path fill="#fff" d="M485.5 106.5h-15a1 1 0 0 1-1-1v-15a1 1 0 0 1 1-1h15a1 1 0 0 1 1 1v15a1 1 0 0 1-1 1m-12.25-3.5h-1v-3h1Zm1.5 0h-1v-3h1Zm1.5 0h-1v-3h1Zm1.5 0h-1v-3h1Zm1.5 0h-1v-3h1Zm1.5 0h-1v-3h1Zm1.5 0h-1v-3h1Zm1.5 0h-1v-3h1Zm-8.75 1h1.63m2.75 0h4.87a.5.5 0 0 0 .5-.5v-8a.5.5 0 0 0-.5-.5h-2.75v-1.25a.5.5 0 0 0-.5-.5h-1.12v-.75a.5.5 0 0 0-.5-.5h-2.75a.5.5 0 0 0-.5.5v.75H475a.5.5 0 0 0-.5.5V95h-2.75a.5.5 0 0 0-.5.5v8c0 .28.22.5.5.5H475m1.63 0h2.75"/><path fill="#000" d="M509.5 107.5h-15a2 2 0 0 1-2-2v-15c0-1.1.9-2 2-2h15a2 2 0 0 1 2 2v15a2 2 0 0 1-2 2"/><path fill="#fff" d="M509.5 106.5h-15a1 1 0 0 1-1-1v-15a1 1 0 0 1 1-1h15a1 1 0 0 1 1 1v15a1 1 0 0 1-1 1m-12.25-3.5h-1v-3h1Zm1.5 0h-1v-3h1Zm1.5 0h-1v-3h1Zm1.5 0h-1v-3h1Zm1.5 0h-1v-3h1Zm1.5 0h-1v-3h1Zm1.5 0h-1v-3h1Zm1.5 0h-1v-3h1Zm-8.75 1h1.63m2.75 0h4.87a.5.5 0 0 0 .5-.5v-8a.5.5 0 0 0-.5-.5h-2.75v-1.25a.5.5 0 0 0-.5-.5h-1.12v-.75a.5.5 0 0 0-.5-.5h-2.75a.5.5 0 0 0-.5.5v.75H499a.5.5 0 0 0-.5.5V95h-2.75a.5.5 0 0 0-.5.5v8c0 .28.22.5.5.5H499m1.63 0h2.75"/><path fill="#000" d="M533.5 107.5h-15a2 2 0 0 1-2-2v-15c0-1.1.9-2 2-2h15a2 2 0 0 1 2 2v15a2 2 0 0 1-2 2"/><path fill="#fff" d="M533.5 106.5h-15a1 1 0 0 1-1-1v-15a1 1 0 0 1 1-1h15a1 1 0 0 1 1 1v15a1 1 0 0 1-1 1m-12.25-3.5h-1v-3h1Zm1.5 0h-1v-3h1Zm1.5 0h-1v-3h1Zm1.5 0h-1v-3h1Zm1.5 0h-1v-3h1Zm1.5 0h-1v-3h1Zm1.5 0h-1v-3h1Zm1.5 0h-1v-3h1Zm-8.75 1h1.63m2.75 0h4.87a.5.5 0 0 0 .5-.5v-8a.5.5 0 0 0-.5-.5h-2.75v-1.25a.5.5 0 0 0-.5-.5h-1.12v-.75a.5.5 0 0 0-.5-.5h-2.75a.5.5 0 0 0-.5.5v.75H523a.5.5 0 0 0-.5.5V95h-2.75a.5.5 0 0 0-.5.5v8c0 .28.22.5.5.5H523m1.63 0h2.75"/><path fill="#000" d="M557.5 107.5h-15a2 2 0 0 1-2-2v-15c0-1.1.9-2 2-2h15a2 2 0 0 1 2 2v15a2 2 0 0 1-2 2"/><path fill="#fff" d="M557.5 106.5h-15a1 1 0 0 1-1-1v-15a1 1 0 0 1 1-1h15a1 1 0 0 1 1 1v15a1 1 0 0 1-1 1m-12.25-3.5h-1v-3h1Zm1.5 0h-1v-3h1Zm1.5 0h-1v-3h1Zm1.5 0h-1v-3h1Zm1.5 0h-1v-3h1Zm1.5 0h-1v-3h1Zm1.5 0h-1v-3h1Zm1.5 0h-1v-3h1Zm-8.75 1h1.63m2.75 0h4.87a.5.5 0 0 0 .5-.5v-8a.5.5 0 0 0-.5-.5h-2.75v-1.25a.5.5 0 0 0-.5-.5h-1.12v-.75a.5.5 0 0 0-.5-.5h-2.75a.5.5 0 0 0-.5.5v.75H547a.5.5 0 0 0-.5.5V95h-2.75a.5.5 0 0 0-.5.5v8c0 .28.22.5.5.5H547m1.63 0h2.75"/><path fill="#000" d="M581.5 107.5h-15a2 2 0 0 1-2-2v-15c0-1.1.9-2 2-2h15a2 2 0 0 1 2 2v15a2 2 0 0 1-2 2"/><path fill="#fff" d="M581.5 106.5h-15a1 1 0 0 1-1-1v-15a1 1 0 0 1 1-1h15a1 1 0 0 1 1 1v15a1 1 0 0 1-1 1m-12.25-3.5h-1v-3h1Zm1.5 0h-1v-3h1Zm1.5 0h-1v-3h1Zm1.5 0h-1v-3h1Zm1.5 0h-1v-3h1Zm1.5 0h-1v-3h1Zm1.5 0h-1v-3h1Zm1.5 0h-1v-3h1Zm-8.75 1h1.63m2.75 0h4.87a.5.5 0 0 0 .5-.5v-8a.5.5 0 0 0-.5-.5h-2.75v-1.25a.5.5 0 0 0-.5-.5h-1.12v-.75a.5.5 0 0 0-.5-.5h-2.75a.5.5 0 0 0-.5.5v.75H571a.5.5 0 0 0-.5.5V95h-2.75a.5.5 0 0 0-.5.5v8c0 .28.22.5.5.5H571m1.63 0h2.75"/><path fill="#000" d="M605.5 107.5h-15a2 2 0 0 1-2-2v-15c0-1.1.9-2 2-2h15a2 2 0 0 1 2 2v15a2 2 0 0 1-2 2"/><path fill="#fff" d="M605.5 106.5h-15a1 1 0 0 1-1-1v-15a1 1 0 0 1 1-1h15a1 1 0 0 1 1 1v15a1 1 0 0 1-1 1m-12.25-3.5h-1v-3h1Zm1.5 0h-1v-3h1Zm1.5 0h-1v-3h1Zm1.5 0h-1v-3h1Zm1.5 0h-1v-3h1Zm1.5 0h-1v-3h1Zm1.5 0h-1v-3h1Zm1.5 0h-1v-3h1Zm-8.75 1h1.63m2.75 0h4.87a.5.5 0 0 0 .5-.5v-8a.5.5 0 0 0-.5-.5h-2.75v-1.25a.5.5 0 0 0-.5-.5h-1.12v-.75a.5.5 0 0 0-.5-.5h-2.75a.5.5 0 0 0-.5.5v.75H595a.5.5 0 0 0-.5.5V95h-2.75a.5.5 0 0 0-.5.5v8c0 .28.22.5.5.5H595m1.63 0h2.75"/><path fill="#ccc" d="M710 80H460l50-30h150Z"/><path stroke="#000" stroke-linecap="square" d="M710 80H460l50-30h150Z"/><path fill="#fff" d="M559.34 55.83h51.33v18.34h-51.33z"/><path stroke="#000" stroke-linecap="round" stroke-linejoin="round" d="M559.34 55.83h51.33v18.34h-51.33z"/><text fill="#000" transform="translate(561.34 57.83)">
            <tspan xml:space="preserve" x="0" y="11" font-family="Helvetica Neue" font-size="12">lab-sw-1</tspan>
          </text><path fill="#fff" d="M1440 550h380v447.35h-380z"/><path stroke="#000" stroke-linecap="round" stroke-linejoin="round" d="M1440 550h380v447.35h-380z"/><path fill="#fff" d="M1735 958.97h75v28.38h-75z"/><path stroke="#000" stroke-linecap="round" stroke-linejoin="round" d="M1735 958.97h75v28.38h-75z"/><text fill="#000" transform="translate(1740 963.94)">
              <tspan xml:space="preserve" x="0" y="15" font-family="Helvetica Neue" font-size="16">vlan-311</tspan>
            </text><path fill="#fff" d="M1635 958.97h100v28.38h-100z"/><path stroke="#000" stroke-linecap="round" stroke-linejoin="round" d="M1635 958.97h100v28.38h-100z"/><text fill="#000" transform="translate(1640 963.94)">
              <tspan xml:space="preserve" x="0" y="15" font-family="Helvetica Neue" font-size="16">ge-0/0/11</tspan>
            </text><path fill="#fff" d="M1735 930.58h75v28.38h-75z"/><path stroke="#000" stroke-linecap="round" stroke-linejoin="round" d="M1735 930.58h75v28.38h-75z"/><text fill="#000" transform="translate(1740 935.55)">
              <tspan xml:space="preserve" x="0" y="15" font-family="Helvetica Neue" font-size="16">vlan-311</tspan>
            </text><path fill="#fff" d="M1635 930.58h100v28.38h-100z"/><path stroke="#000" stroke-linecap="round" stroke-linejoin="round" d="M1635 930.58h100v28.38h-100z"/><text fill="#000" transform="translate(1640 935.55)">
              <tspan xml:space="preserve" x="0" y="15" font-family="Helvetica Neue" font-size="16">ge-0/0/10</tspan>
            </text><path fill="#fff" d="M1735 902.2h75v28.38h-75z"/><path stroke="#000" stroke-linecap="round" stroke-linejoin="round" d="M1735 902.2h75v28.38h-75z"/><text fill="#000" transform="translate(1740 907.17)">
              <tspan xml:space="preserve" x="0" y="15" font-family="Helvetica Neue" font-size="16">vlan-311</tspan>
            </text><path fill="#fff" d="M1635 902.2h100v28.38h-100z"/><path stroke="#000" stroke-linecap="round" stroke-linejoin="round" d="M1635 902.2h100v28.38h-100z"/><text fill="#000" transform="translate(1640 907.17)">
              <tspan xml:space="preserve" x="0" y="15" font-family="Helvetica Neue" font-size="16">ge-0/0/9</tspan>
            </text><path fill="#fff" d="M1635 873.81h100v28.38h-100z"/><path stroke="#000" stroke-linecap="round" stroke-linejoin="round" d="M1635 873.81h100v28.38h-100z"/><text fill="#000" transform="translate(1640 878.78)">
              <tspan xml:space="preserve" x="0" y="15" font-family="Helvetica Neue" font-size="16">ge-0/0/8</tspan>
            </text><path fill="#fff" d="M1735 873.81h75v28.38h-75z"/><path stroke="#000" stroke-linecap="round" stroke-linejoin="round" d="M1735 873.81h75v28.38h-75z"/><text fill="#000" transform="translate(1740 878.78)">
              <tspan xml:space="preserve" x="0" y="15" font-family="Helvetica Neue" font-size="16">vlan-311</tspan>
            </text><path fill="#fff" d="M1735 845.43h75v28.38h-75z"/><path stroke="#000" stroke-linecap="round" stroke-linejoin="round" d="M1735 845.43h75v28.38h-75z"/><text fill="#000" transform="translate(1740 850.4)">
              <tspan xml:space="preserve" x="0" y="15" font-family="Helvetica Neue" font-size="16">vlan-311</tspan>
            </text><path fill="#fff" d="M1635 845.43h100v28.38h-100z"/><path stroke="#000" stroke-linecap="round" stroke-linejoin="round" d="M1635 845.43h100v28.38h-100z"/><text fill="#000" transform="translate(1640 850.4)">
              <tspan xml:space="preserve" x="0" y="15" font-family="Helvetica Neue" font-size="16">ge-0/0/7</tspan>
            </text><path fill="#fff" d="M1735 817.05h75v28.38h-75z"/><path stroke="#000" stroke-linecap="round" stroke-linejoin="round" d="M1735 817.05h75v28.38h-75z"/><text fill="#000" transform="translate(1740 822.01)">
              <tspan xml:space="preserve" x="0" y="15" font-family="Helvetica Neue" font-size="16">vlan-311</tspan>
            </text><path fill="#fff" d="M1635 817.05h100v28.38h-100z"/><path stroke="#000" stroke-linecap="round" stroke-linejoin="round" d="M1635 817.05h100v28.38h-100z"/><text fill="#000" transform="translate(1640 822.01)">
              <tspan xml:space="preserve" x="0" y="15" font-family="Helvetica Neue" font-size="16">ge-0/0/6</tspan>
            </text><path fill="#fff" d="M1735 788.66h75v28.38h-75z"/><path stroke="#000" stroke-linecap="round" stroke-linejoin="round" d="M1735 788.66h75v28.38h-75z"/><text fill="#000" transform="translate(1740 793.63)">
              <tspan xml:space="preserve" x="0" y="15" font-family="Helvetica Neue" font-size="16">vlan-310</tspan>
            </text><path fill="#fff" d="M1635 788.66h100v28.38h-100z"/><path stroke="#000" stroke-linecap="round" stroke-linejoin="round" d="M1635 788.66h100v28.38h-100z"/><text fill="#000" transform="translate(1640 793.63)">
              <tspan xml:space="preserve" x="0" y="15" font-family="Helvetica Neue" font-size="16">ge-0/0/5</tspan>
            </text><path fill="#fff" d="M1635 760.28h100v28.38h-100z"/><path stroke="#000" stroke-linecap="round" stroke-linejoin="round" d="M1635 760.28h100v28.38h-100z"/><text fill="#000" transform="translate(1640 765.25)">
              <tspan xml:space="preserve" x="0" y="15" font-family="Helvetica Neue" font-size="16">ge-0/0/4</tspan>
            </text><path fill="#fff" d="M1735 760.28h75v28.38h-75z"/><path stroke="#000" stroke-linecap="round" stroke-linejoin="round" d="M1735 760.28h75v28.38h-75z"/><text fill="#000" transform="translate(1740 765.25)">
              <tspan xml:space="preserve" x="0" y="15" font-family="Helvetica Neue" font-size="16">vlan-310</tspan>
            </text><path fill="#fff" d="M1735 731.89h75v28.38h-75z"/><path stroke="#000" stroke-linecap="round" stroke-linejoin="round" d="M1735 731.89h75v28.38h-75z"/><text fill="#000" transform="translate(1740 736.86)">
              <tspan xml:space="preserve" x="0" y="15" font-family="Helvetica Neue" font-size="16">vlan-310</tspan>
            </text><path fill="#fff" d="M1635 731.89h100v28.38h-100z"/><path stroke="#000" stroke-linecap="round" stroke-linejoin="round" d="M1635 731.89h100v28.38h-100z"/><text fill="#000" transform="translate(1640 736.86)">
              <tspan xml:space="preserve" x="0" y="15" font-family="Helvetica Neue" font-size="16">ge-0/0/3</tspan>
            </text><path fill="#fff" d="M1735 703.51h75v28.38h-75z"/><path stroke="#000" stroke-linecap="round" stroke-linejoin="round" d="M1735 703.51h75v28.38h-75z"/><text fill="#000" transform="translate(1740 708.48)">
              <tspan xml:space="preserve" x="0" y="15" font-family="Helvetica Neue" font-size="16">vlan-310</tspan>
            </text><path fill="#fff" d="M1635 703.51h100v28.38h-100z"/><path stroke="#000" stroke-linecap="round" stroke-linejoin="round" d="M1635 703.51h100v28.38h-100z"/><text fill="#000" transform="translate(1640 708.48)">
              <tspan xml:space="preserve" x="0" y="15" font-family="Helvetica Neue" font-size="16">ge-0/0/2</tspan>
            </text><path fill="#fff" d="M1735 675.13h75v28.38h-75z"/><path stroke="#000" stroke-linecap="round" stroke-linejoin="round" d="M1735 675.13h75v28.38h-75z"/><text fill="#000" transform="translate(1740 680.1)">
              <tspan xml:space="preserve" x="0" y="15" font-family="Helvetica Neue" font-size="16">vlan-310</tspan>
            </text><path fill="#fff" d="M1635 675.13h100v28.38h-100z"/><path stroke="#000" stroke-linecap="round" stroke-linejoin="round" d="M1635 675.13h100v28.38h-100z"/><text fill="#000" transform="translate(1640 680.1)">
              <tspan xml:space="preserve" x="0" y="15" font-family="Helvetica Neue" font-size="16">ge-0/0/1</tspan>
            </text><path fill="#fff" d="M1735 646.74h75v28.38h-75z"/><path stroke="#000" stroke-linecap="round" stroke-linejoin="round" d="M1735 646.74h75v28.38h-75z"/><text fill="#000" transform="translate(1740 651.71)">
              <tspan xml:space="preserve" x="0" y="15" font-family="Helvetica Neue" font-size="16">vlan-310</tspan>
            </text><path fill="#fff" d="M1635 646.74h100v28.38h-100z"/><path stroke="#000" stroke-linecap="round" stroke-linejoin="round" d="M1635 646.74h100v28.38h-100z"/><text fill="#000" transform="translate(1640 651.71)">
              <tspan xml:space="preserve" x="0" y="15" font-family="Helvetica Neue" font-size="16">ge-0/0/0</tspan>
            </text><path fill="#ccc" d="M1735 617.91h75v28.83h-75z"/><path stroke="#000" stroke-linecap="round" stroke-linejoin="round" d="M1735 617.91h75v28.83h-75z"/><text fill="#000" transform="translate(1740 623.1)">
              <tspan xml:space="preserve" x="0" y="15" font-family="Helvetica Neue" font-size="16">VLAN</tspan>
            </text><path fill="#ccc" d="M1635 617.91h100v28.83h-100z"/><path stroke="#000" stroke-linecap="round" stroke-linejoin="round" d="M1635 617.91h100v28.83h-100z"/><text fill="#000" transform="translate(1640 623.1)">
              <tspan xml:space="preserve" x="0" y="15" font-family="Helvetica Neue" font-size="16">Name</tspan>
            </text><path fill="#999" d="M1635 589.46h175v28.45h-175z"/><path stroke="#000" stroke-linecap="round" stroke-linejoin="round" d="M1635 589.46h175v28.45h-175z"/><text fill="#000" transform="translate(1640 594.46)">
            <tspan xml:space="preserve" x="0" y="15" font-family="Helvetica Neue" font-size="16">Interfaces</tspan>
          </text><path fill="#fff" d="M1550 675.13h75v28.38h-75z"/><path stroke="#000" stroke-linecap="round" stroke-linejoin="round" d="M1550 675.13h75v28.38h-75z"/><text fill="#000" transform="translate(1555 680.1)">
              <tspan xml:space="preserve" x="0" y="15" font-family="Helvetica Neue" font-size="16">311</tspan>
            </text><path fill="#fff" d="M1450 675.13h100v28.38h-100z"/><path stroke="#000" stroke-linecap="round" stroke-linejoin="round" d="M1450 675.13h100v28.38h-100z"/><text fill="#000" transform="translate(1455 680.1)">
              <tspan xml:space="preserve" x="0" y="15" font-family="Helvetica Neue" font-size="16">vlan-311</tspan>
            </text><path fill="#fff" d="M1550 646.74h75v28.38h-75z"/><path stroke="#000" stroke-linecap="round" stroke-linejoin="round" d="M1550 646.74h75v28.38h-75z"/><text fill="#000" transform="translate(1555 651.71)">
              <tspan xml:space="preserve" x="0" y="15" font-family="Helvetica Neue" font-size="16">310</tspan>
            </text><path fill="#fff" d="M1450 646.74h100v28.38h-100z"/><path stroke="#000" stroke-linecap="round" stroke-linejoin="round" d="M1450 646.74h100v28.38h-100z"/><text fill="#000" transform="translate(1455 651.71)">
              <tspan xml:space="preserve" x="0" y="15" font-family="Helvetica Neue" font-size="16">vlan-310</tspan>
            </text><path fill="#ccc" d="M1550 617.91h75v28.83h-75z"/><path stroke="#000" stroke-linecap="round" stroke-linejoin="round" d="M1550 617.91h75v28.83h-75z"/><text fill="#000" transform="translate(1555 623.1)">
              <tspan xml:space="preserve" x="0" y="15" font-family="Helvetica Neue" font-size="16">ID</tspan>
            </text><path fill="#ccc" d="M1450 617.91h100v28.83h-100z"/><path stroke="#000" stroke-linecap="round" stroke-linejoin="round" d="M1450 617.91h100v28.83h-100z"/><text fill="#000" transform="translate(1455 623.1)">
              <tspan xml:space="preserve" x="0" y="15" font-family="Helvetica Neue" font-size="16">Name</tspan>
            </text><path fill="#999" d="M1450 589.46h175v28.45h-175z"/><path stroke="#000" stroke-linecap="round" stroke-linejoin="round" d="M1450 589.46h175v28.45h-175z"/><text fill="#000" transform="translate(1455 594.46)">
            <tspan xml:space="preserve" x="0" y="15" font-family="Helvetica Neue" font-size="16">VLANs</tspan>
          </text><text fill="#000" transform="translate(1455 555)">
            <tspan xml:space="preserve" x="0" y="16" font-family="Helvetica Neue" font-size="16" font-weight="bold">lab-sw-3</tspan>
          </text><path fill="#fff" d="M1440 50h380v447.35h-380z"/><path stroke="#000" stroke-linecap="round" stroke-linejoin="round" d="M1440 50h380v447.35h-380z"/><path fill="#fff" d="M1735 458.97h75v28.38h-75z"/><path stroke="#000" stroke-linecap="round" stroke-linejoin="round" d="M1735 458.97h75v28.38h-75z"/><text fill="#000" transform="translate(1740 463.94)">
              <tspan xml:space="preserve" x="0" y="15" font-family="Helvetica Neue" font-size="16">vlan-211</tspan>
            </text><path fill="#fff" d="M1635 458.97h100v28.38h-100z"/><path stroke="#000" stroke-linecap="round" stroke-linejoin="round" d="M1635 458.97h100v28.38h-100z"/><text fill="#000" transform="translate(1640 463.94)">
              <tspan xml:space="preserve" x="0" y="15" font-family="Helvetica Neue" font-size="16">ge-0/0/11</tspan>
            </text><path fill="#fff" d="M1735 430.58h75v28.38h-75z"/><path stroke="#000" stroke-linecap="round" stroke-linejoin="round" d="M1735 430.58h75v28.38h-75z"/><text fill="#000" transform="translate(1740 435.55)">
              <tspan xml:space="preserve" x="0" y="15" font-family="Helvetica Neue" font-size="16">vlan-211</tspan>
            </text><path fill="#fff" d="M1635 430.58h100v28.38h-100z"/><path stroke="#000" stroke-linecap="round" stroke-linejoin="round" d="M1635 430.58h100v28.38h-100z"/><text fill="#000" transform="translate(1640 435.55)">
              <tspan xml:space="preserve" x="0" y="15" font-family="Helvetica Neue" font-size="16">ge-0/0/10</tspan>
            </text><path fill="#fff" d="M1735 402.2h75v28.38h-75z"/><path stroke="#000" stroke-linecap="round" stroke-linejoin="round" d="M1735 402.2h75v28.38h-75z"/><text fill="#000" transform="translate(1740 407.17)">
              <tspan xml:space="preserve" x="0" y="15" font-family="Helvetica Neue" font-size="16">vlan-211</tspan>
            </text><path fill="#fff" d="M1635 402.2h100v28.38h-100z"/><path stroke="#000" stroke-linecap="round" stroke-linejoin="round" d="M1635 402.2h100v28.38h-100z"/><text fill="#000" transform="translate(1640 407.17)">
              <tspan xml:space="preserve" x="0" y="15" font-family="Helvetica Neue" font-size="16">ge-0/0/9</tspan>
            </text><path fill="#fff" d="M1635 373.81h100v28.38h-100z"/><path stroke="#000" stroke-linecap="round" stroke-linejoin="round" d="M1635 373.81h100v28.38h-100z"/><text fill="#000" transform="translate(1640 378.78)">
              <tspan xml:space="preserve" x="0" y="15" font-family="Helvetica Neue" font-size="16">ge-0/0/8</tspan>
            </text><path fill="#fff" d="M1735 373.81h75v28.38h-75z"/><path stroke="#000" stroke-linecap="round" stroke-linejoin="round" d="M1735 373.81h75v28.38h-75z"/><text fill="#000" transform="translate(1740 378.78)">
              <tspan xml:space="preserve" x="0" y="15" font-family="Helvetica Neue" font-size="16">vlan-211</tspan>
            </text><path fill="#fff" d="M1735 345.43h75v28.38h-75z"/><path stroke="#000" stroke-linecap="round" stroke-linejoin="round" d="M1735 345.43h75v28.38h-75z"/><text fill="#000" transform="translate(1740 350.4)">
              <tspan xml:space="preserve" x="0" y="15" font-family="Helvetica Neue" font-size="16">vlan-211</tspan>
            </text><path fill="#fff" d="M1635 345.43h100v28.38h-100z"/><path stroke="#000" stroke-linecap="round" stroke-linejoin="round" d="M1635 345.43h100v28.38h-100z"/><text fill="#000" transform="translate(1640 350.4)">
              <tspan xml:space="preserve" x="0" y="15" font-family="Helvetica Neue" font-size="16">ge-0/0/7</tspan>
            </text><path fill="#fff" d="M1735 317.05h75v28.38h-75z"/><path stroke="#000" stroke-linecap="round" stroke-linejoin="round" d="M1735 317.05h75v28.38h-75z"/><text fill="#000" transform="translate(1740 322.01)">
              <tspan xml:space="preserve" x="0" y="15" font-family="Helvetica Neue" font-size="16">vlan-211</tspan>
            </text><path fill="#fff" d="M1635 317.05h100v28.38h-100z"/><path stroke="#000" stroke-linecap="round" stroke-linejoin="round" d="M1635 317.05h100v28.38h-100z"/><text fill="#000" transform="translate(1640 322.01)">
              <tspan xml:space="preserve" x="0" y="15" font-family="Helvetica Neue" font-size="16">ge-0/0/6</tspan>
            </text><path fill="#fff" d="M1735 288.66h75v28.38h-75z"/><path stroke="#000" stroke-linecap="round" stroke-linejoin="round" d="M1735 288.66h75v28.38h-75z"/><text fill="#000" transform="translate(1740 293.63)">
              <tspan xml:space="preserve" x="0" y="15" font-family="Helvetica Neue" font-size="16">vlan-210</tspan>
            </text><path fill="#fff" d="M1635 288.66h100v28.38h-100z"/><path stroke="#000" stroke-linecap="round" stroke-linejoin="round" d="M1635 288.66h100v28.38h-100z"/><text fill="#000" transform="translate(1640 293.63)">
              <tspan xml:space="preserve" x="0" y="15" font-family="Helvetica Neue" font-size="16">ge-0/0/5</tspan>
            </text><path fill="#fff" d="M1635 260.28h100v28.38h-100z"/><path stroke="#000" stroke-linecap="round" stroke-linejoin="round" d="M1635 260.28h100v28.38h-100z"/><text fill="#000" transform="translate(1640 265.25)">
              <tspan xml:space="preserve" x="0" y="15" font-family="Helvetica Neue" font-size="16">ge-0/0/4</tspan>
            </text><path fill="#fff" d="M1735 260.28h75v28.38h-75z"/><path stroke="#000" stroke-linecap="round" stroke-linejoin="round" d="M1735 260.28h75v28.38h-75z"/><text fill="#000" transform="translate(1740 265.25)">
              <tspan xml:space="preserve" x="0" y="15" font-family="Helvetica Neue" font-size="16">vlan-210</tspan>
            </text><path fill="#fff" d="M1735 231.89h75v28.38h-75z"/><path stroke="#000" stroke-linecap="round" stroke-linejoin="round" d="M1735 231.89h75v28.38h-75z"/><text fill="#000" transform="translate(1740 236.86)">
              <tspan xml:space="preserve" x="0" y="15" font-family="Helvetica Neue" font-size="16">vlan-210</tspan>
            </text><path fill="#fff" d="M1635 231.89h100v28.38h-100z"/><path stroke="#000" stroke-linecap="round" stroke-linejoin="round" d="M1635 231.89h100v28.38h-100z"/><text fill="#000" transform="translate(1640 236.86)">
              <tspan xml:space="preserve" x="0" y="15" font-family="Helvetica Neue" font-size="16">ge-0/0/3</tspan>
            </text><path fill="#fff" d="M1735 203.51h75v28.38h-75z"/><path stroke="#000" stroke-linecap="round" stroke-linejoin="round" d="M1735 203.51h75v28.38h-75z"/><text fill="#000" transform="translate(1740 208.48)">
              <tspan xml:space="preserve" x="0" y="15" font-family="Helvetica Neue" font-size="16">vlan-210</tspan>
            </text><path fill="#fff" d="M1635 203.51h100v28.38h-100z"/><path stroke="#000" stroke-linecap="round" stroke-linejoin="round" d="M1635 203.51h100v28.38h-100z"/><text fill="#000" transform="translate(1640 208.48)">
              <tspan xml:space="preserve" x="0" y="15" font-family="Helvetica Neue" font-size="16">ge-0/0/2</tspan>
            </text><path fill="#fff" d="M1735 175.13h75v28.38h-75z"/><path stroke="#000" stroke-linecap="round" stroke-linejoin="round" d="M1735 175.13h75v28.38h-75z"/><text fill="#000" transform="translate(1740 180.1)">
              <tspan xml:space="preserve" x="0" y="15" font-family="Helvetica Neue" font-size="16">vlan-210</tspan>
            </text><path fill="#fff" d="M1635 175.13h100v28.38h-100z"/><path stroke="#000" stroke-linecap="round" stroke-linejoin="round" d="M1635 175.13h100v28.38h-100z"/><text fill="#000" transform="translate(1640 180.1)">
              <tspan xml:space="preserve" x="0" y="15" font-family="Helvetica Neue" font-size="16">ge-0/0/1</tspan>
            </text><path fill="#fff" d="M1735 146.74h75v28.38h-75z"/><path stroke="#000" stroke-linecap="round" stroke-linejoin="round" d="M1735 146.74h75v28.38h-75z"/><text fill="#000" transform="translate(1740 151.71)">
              <tspan xml:space="preserve" x="0" y="15" font-family="Helvetica Neue" font-size="16">vlan-210</tspan>
            </text><path fill="#fff" d="M1635 146.74h100v28.38h-100z"/><path stroke="#000" stroke-linecap="round" stroke-linejoin="round" d="M1635 146.74h100v28.38h-100z"/><text fill="#000" transform="translate(1640 151.71)">
              <tspan xml:space="preserve" x="0" y="15" font-family="Helvetica Neue" font-size="16">ge-0/0/0</tspan>
            </text><path fill="#ccc" d="M1735 117.91h75v28.83h-75z"/><path stroke="#000" stroke-linecap="round" stroke-linejoin="round" d="M1735 117.91h75v28.83h-75z"/><text fill="#000" transform="translate(1740 123.1)">
              <tspan xml:space="preserve" x="0" y="15" font-family="Helvetica Neue" font-size="16">VLAN</tspan>
            </text><path fill="#ccc" d="M1635 117.91h100v28.83h-100z"/><path stroke="#000" stroke-linecap="round" stroke-linejoin="round" d="M1635 117.91h100v28.83h-100z"/><text fill="#000" transform="translate(1640 123.1)">
              <tspan xml:space="preserve" x="0" y="15" font-family="Helvetica Neue" font-size="16">Name</tspan>
            </text><path fill="#999" d="M1635 89.46h175v28.45h-175z"/><path stroke="#000" stroke-linecap="round" stroke-linejoin="round" d="M1635 89.46h175v28.45h-175z"/><text fill="#000" transform="translate(1640 94.46)">
            <tspan xml:space="preserve" x="0" y="15" font-family="Helvetica Neue" font-size="16">Interfaces</tspan>
          </text><path fill="#fff" d="M1550 175.13h75v28.38h-75z"/><path stroke="#000" stroke-linecap="round" stroke-linejoin="round" d="M1550 175.13h75v28.38h-75z"/><text fill="#000" transform="translate(1555 180.1)">
              <tspan xml:space="preserve" x="0" y="15" font-family="Helvetica Neue" font-size="16">211</tspan>
            </text><path fill="#fff" d="M1450 175.13h100v28.38h-100z"/><path stroke="#000" stroke-linecap="round" stroke-linejoin="round" d="M1450 175.13h100v28.38h-100z"/><text fill="#000" transform="translate(1455 180.1)">
              <tspan xml:space="preserve" x="0" y="15" font-family="Helvetica Neue" font-size="16">vlan-211</tspan>
            </text><path fill="#fff" d="M1550 146.74h75v28.38h-75z"/><path stroke="#000" stroke-linecap="round" stroke-linejoin="round" d="M1550 146.74h75v28.38h-75z"/><text fill="#000" transform="translate(1555 151.71)">
              <tspan xml:space="preserve" x="0" y="15" font-family="Helvetica Neue" font-size="16">210</tspan>
            </text><path fill="#fff" d="M1450 146.74h100v28.38h-100z"/><path stroke="#000" stroke-linecap="round" stroke-linejoin="round" d="M1450 146.74h100v28.38h-100z"/><text fill="#000" transform="translate(1455 151.71)">
              <tspan xml:space="preserve" x="0" y="15" font-family="Helvetica Neue" font-size="16">vlan-210</tspan>
            </text><path fill="#ccc" d="M1550 117.91h75v28.83h-75z"/><path stroke="#000" stroke-linecap="round" stroke-linejoin="round" d="M1550 117.91h75v28.83h-75z"/><text fill="#000" transform="translate(1555 123.1)">
              <tspan xml:space="preserve" x="0" y="15" font-family="Helvetica Neue" font-size="16">ID</tspan>
            </text><path fill="#ccc" d="M1450 117.91h100v28.83h-100z"/><path stroke="#000" stroke-linecap="round" stroke-linejoin="round" d="M1450 117.91h100v28.83h-100z"/><text fill="#000" transform="translate(1455 123.1)">
              <tspan xml:space="preserve" x="0" y="15" font-family="Helvetica Neue" font-size="16">Name</tspan>
            </text><path fill="#999" d="M1450 89.46h175v28.45h-175z"/><path stroke="#000" stroke-linecap="round" stroke-linejoin="round" d="M1450 89.46h175v28.45h-175z"/><text fill="#000" transform="translate(1455 94.46)">
            <tspan xml:space="preserve" x="0" y="15" font-family="Helvetica Neue" font-size="16">VLANs</tspan>
          </text><text fill="#000" transform="translate(1455 55)">
            <tspan xml:space="preserve" x="0" y="16" font-family="Helvetica Neue" font-size="16" font-weight="bold">lab-sw-2</tspan>
          </text><path fill="#fff" d="M50 50h380v447.35H50z"/><path stroke="#000" stroke-linecap="round" stroke-linejoin="round" d="M50 50h380v447.35H50z"/><path fill="#fff" d="M345 458.97h75v28.38h-75z"/><path stroke="#000" stroke-linecap="round" stroke-linejoin="round" d="M345 458.97h75v28.38h-75z"/><text fill="#000" transform="translate(350 463.94)">
              <tspan xml:space="preserve" x="0" y="15" font-family="Helvetica Neue" font-size="16">vlan-111</tspan>
            </text><path fill="#fff" d="M245 458.97h100v28.38H245z"/><path stroke="#000" stroke-linecap="round" stroke-linejoin="round" d="M245 458.97h100v28.38H245z"/><text fill="#000" transform="translate(250 463.94)">
              <tspan xml:space="preserve" x="0" y="15" font-family="Helvetica Neue" font-size="16">ge-0/0/11</tspan>
            </text><path fill="#fff" d="M345 430.58h75v28.38h-75z"/><path stroke="#000" stroke-linecap="round" stroke-linejoin="round" d="M345 430.58h75v28.38h-75z"/><text fill="#000" transform="translate(350 435.55)">
              <tspan xml:space="preserve" x="0" y="15" font-family="Helvetica Neue" font-size="16">vlan-111</tspan>
            </text><path fill="#fff" d="M245 430.58h100v28.38H245z"/><path stroke="#000" stroke-linecap="round" stroke-linejoin="round" d="M245 430.58h100v28.38H245z"/><text fill="#000" transform="translate(250 435.55)">
              <tspan xml:space="preserve" x="0" y="15" font-family="Helvetica Neue" font-size="16">ge-0/0/10</tspan>
            </text><path fill="#fff" d="M345 402.2h75v28.38h-75z"/><path stroke="#000" stroke-linecap="round" stroke-linejoin="round" d="M345 402.2h75v28.38h-75z"/><text fill="#000" transform="translate(350 407.17)">
              <tspan xml:space="preserve" x="0" y="15" font-family="Helvetica Neue" font-size="16">vlan-111</tspan>
            </text><path fill="#fff" d="M245 402.2h100v28.38H245z"/><path stroke="#000" stroke-linecap="round" stroke-linejoin="round" d="M245 402.2h100v28.38H245z"/><text fill="#000" transform="translate(250 407.17)">
              <tspan xml:space="preserve" x="0" y="15" font-family="Helvetica Neue" font-size="16">ge-0/0/9</tspan>
            </text><path fill="#fff" d="M245 373.81h100v28.38H245z"/><path stroke="#000" stroke-linecap="round" stroke-linejoin="round" d="M245 373.81h100v28.38H245z"/><text fill="#000" transform="translate(250 378.78)">
              <tspan xml:space="preserve" x="0" y="15" font-family="Helvetica Neue" font-size="16">ge-0/0/8</tspan>
            </text><path fill="#fff" d="M345 373.81h75v28.38h-75z"/><path stroke="#000" stroke-linecap="round" stroke-linejoin="round" d="M345 373.81h75v28.38h-75z"/><text fill="#000" transform="translate(350 378.78)">
              <tspan xml:space="preserve" x="0" y="15" font-family="Helvetica Neue" font-size="16">vlan-111</tspan>
            </text><path fill="#fff" d="M345 345.43h75v28.38h-75z"/><path stroke="#000" stroke-linecap="round" stroke-linejoin="round" d="M345 345.43h75v28.38h-75z"/><text fill="#000" transform="translate(350 350.4)">
              <tspan xml:space="preserve" x="0" y="15" font-family="Helvetica Neue" font-size="16">vlan-111</tspan>
            </text><path fill="#fff" d="M245 345.43h100v28.38H245z"/><path stroke="#000" stroke-linecap="round" stroke-linejoin="round" d="M245 345.43h100v28.38H245z"/><text fill="#000" transform="translate(250 350.4)">
              <tspan xml:space="preserve" x="0" y="15" font-family="Helvetica Neue" font-size="16">ge-0/0/7</tspan>
            </text><path fill="#fff" d="M345 317.05h75v28.38h-75z"/><path stroke="#000" stroke-linecap="round" stroke-linejoin="round" d="M345 317.05h75v28.38h-75z"/><text fill="#000" transform="translate(350 322.01)">
              <tspan xml:space="preserve" x="0" y="15" font-family="Helvetica Neue" font-size="16">vlan-111</tspan>
            </text><path fill="#fff" d="M245 317.05h100v28.38H245z"/><path stroke="#000" stroke-linecap="round" stroke-linejoin="round" d="M245 317.05h100v28.38H245z"/><text fill="#000" transform="translate(250 322.01)">
              <tspan xml:space="preserve" x="0" y="15" font-family="Helvetica Neue" font-size="16">ge-0/0/6</tspan>
            </text><path fill="#fff" d="M345 288.66h75v28.38h-75z"/><path stroke="#000" stroke-linecap="round" stroke-linejoin="round" d="M345 288.66h75v28.38h-75z"/><text fill="#000" transform="translate(350 293.63)">
              <tspan xml:space="preserve" x="0" y="15" font-family="Helvetica Neue" font-size="16">vlan-110</tspan>
            </text><path fill="#fff" d="M245 288.66h100v28.38H245z"/><path stroke="#000" stroke-linecap="round" stroke-linejoin="round" d="M245 288.66h100v28.38H245z"/><text fill="#000" transform="translate(250 293.63)">
              <tspan xml:space="preserve" x="0" y="15" font-family="Helvetica Neue" font-size="16">ge-0/0/5</tspan>
            </text><path fill="#fff" d="M245 260.28h100v28.38H245z"/><path stroke="#000" stroke-linecap="round" stroke-linejoin="round" d="M245 260.28h100v28.38H245z"/><text fill="#000" transform="translate(250 265.25)">
              <tspan xml:space="preserve" x="0" y="15" font-family="Helvetica Neue" font-size="16">ge-0/0/4</tspan>
            </text><path fill="#fff" d="M345 260.28h75v28.38h-75z"/><path stroke="#000" stroke-linecap="round" stroke-linejoin="round" d="M345 260.28h75v28.38h-75z"/><text fill="#000" transform="translate(350 265.25)">
              <tspan xml:space="preserve" x="0" y="15" font-family="Helvetica Neue" font-size="16">vlan-110</tspan>
            </text><path fill="#fff" d="M345 231.89h75v28.38h-75z"/><path stroke="#000" stroke-linecap="round" stroke-linejoin="round" d="M345 231.89h75v28.38h-75z"/><text fill="#000" transform="translate(350 236.86)">
              <tspan xml:space="preserve" x="0" y="15" font-family="Helvetica Neue" font-size="16">vlan-110</tspan>
            </text><path fill="#fff" d="M245 231.89h100v28.38H245z"/><path stroke="#000" stroke-linecap="round" stroke-linejoin="round" d="M245 231.89h100v28.38H245z"/><text fill="#000" transform="translate(250 236.86)">
              <tspan xml:space="preserve" x="0" y="15" font-family="Helvetica Neue" font-size="16">ge-0/0/3</tspan>
            </text><path fill="#fff" d="M345 203.51h75v28.38h-75z"/><path stroke="#000" stroke-linecap="round" stroke-linejoin="round" d="M345 203.51h75v28.38h-75z"/><text fill="#000" transform="translate(350 208.48)">
              <tspan xml:space="preserve" x="0" y="15" font-family="Helvetica Neue" font-size="16">vlan-110</tspan>
            </text><path fill="#fff" d="M245 203.51h100v28.38H245z"/><path stroke="#000" stroke-linecap="round" stroke-linejoin="round" d="M245 203.51h100v28.38H245z"/><text fill="#000" transform="translate(250 208.48)">
              <tspan xml:space="preserve" x="0" y="15" font-family="Helvetica Neue" font-size="16">ge-0/0/2</tspan>
            </text><path fill="#fff" d="M345 175.13h75v28.38h-75z"/><path stroke="#000" stroke-linecap="round" stroke-linejoin="round" d="M345 175.13h75v28.38h-75z"/><text fill="#000" transform="translate(350 180.1)">
              <tspan xml:space="preserve" x="0" y="15" font-family="Helvetica Neue" font-size="16">vlan-110</tspan>
            </text><path fill="#fff" d="M245 175.13h100v28.38H245z"/><path stroke="#000" stroke-linecap="round" stroke-linejoin="round" d="M245 175.13h100v28.38H245z"/><text fill="#000" transform="translate(250 180.1)">
              <tspan xml:space="preserve" x="0" y="15" font-family="Helvetica Neue" font-size="16">ge-0/0/1</tspan>
            </text><path fill="#fff" d="M345 146.74h75v28.38h-75z"/><path stroke="#000" stroke-linecap="round" stroke-linejoin="round" d="M345 146.74h75v28.38h-75z"/><text fill="#000" transform="translate(350 151.71)">
              <tspan xml:space="preserve" x="0" y="15" font-family="Helvetica Neue" font-size="16">vlan-110</tspan>
            </text><path fill="#fff" d="M245 146.74h100v28.38H245z"/><path stroke="#000" stroke-linecap="round" stroke-linejoin="round" d="M245 146.74h100v28.38H245z"/><text fill="#000" transform="translate(250 151.71)">
              <tspan xml:space="preserve" x="0" y="15" font-family="Helvetica Neue" font-size="16">ge-0/0/0</tspan>
            </text><path fill="#ccc" d="M345 117.91h75v28.83h-75z"/><path stroke="#000" stroke-linecap="round" stroke-linejoin="round" d="M345 117.91h75v28.83h-75z"/><text fill="#000" transform="translate(350 123.1)">
              <tspan xml:space="preserve" x="0" y="15" font-family="Helvetica Neue" font-size="16">VLAN</tspan>
            </text><path fill="#ccc" d="M245 117.91h100v28.83H245z"/><path stroke="#000" stroke-linecap="round" stroke-linejoin="round" d="M245 117.91h100v28.83H245z"/><text fill="#000" transform="translate(250 123.1)">
              <tspan xml:space="preserve" x="0" y="15" font-family="Helvetica Neue" font-size="16">Name</tspan>
            </text><path fill="#999" d="M245 89.46h175v28.45H245z"/><path stroke="#000" stroke-linecap="round" stroke-linejoin="round" d="M245 89.46h175v28.45H245z"/><text fill="#000" transform="translate(250 94.46)">
            <tspan xml:space="preserve" x="0" y="15" font-family="Helvetica Neue" font-size="16">Interfaces</tspan>
          </text><path fill="#fff" d="M160 175.13h75v28.38h-75z"/><path stroke="#000" stroke-linecap="round" stroke-linejoin="round" d="M160 175.13h75v28.38h-75z"/><text fill="#000" transform="translate(165 180.1)">
              <tspan xml:space="preserve" x="0" y="15" font-family="Helvetica Neue" font-size="16">111</tspan>
            </text><path fill="#fff" d="M60 175.13h100v28.38H60z"/><path stroke="#000" stroke-linecap="round" stroke-linejoin="round" d="M60 175.13h100v28.38H60z"/><text fill="#000" transform="translate(65 180.1)">
              <tspan xml:space="preserve" x="0" y="15" font-family="Helvetica Neue" font-size="16">vlan-111</tspan>
            </text><path fill="#fff" d="M160 146.74h75v28.38h-75z"/><path stroke="#000" stroke-linecap="round" stroke-linejoin="round" d="M160 146.74h75v28.38h-75z"/><text fill="#000" transform="translate(165 151.71)">
              <tspan xml:space="preserve" x="0" y="15" font-family="Helvetica Neue" font-size="16">110</tspan>
            </text><path fill="#fff" d="M60 146.74h100v28.38H60z"/><path stroke="#000" stroke-linecap="round" stroke-linejoin="round" d="M60 146.74h100v28.38H60z"/><text fill="#000" transform="translate(65 151.71)">
              <tspan xml:space="preserve" x="0" y="15" font-family="Helvetica Neue" font-size="16">vlan-110</tspan>
            </text><path fill="#ccc" d="M160 117.91h75v28.83h-75z"/><path stroke="#000" stroke-linecap="round" stroke-linejoin="round" d="M160 117.91h75v28.83h-75z"/><text fill="#000" transform="translate(165 123.1)">
              <tspan xml:space="preserve" x="0" y="15" font-family="Helvetica Neue" font-size="16">ID</tspan>
            </text><path fill="#ccc" d="M60 117.91h100v28.83H60z"/><path stroke="#000" stroke-linecap="round" stroke-linejoin="round" d="M60 117.91h100v28.83H60z"/><text fill="#000" transform="translate(65 123.1)">
              <tspan xml:space="preserve" x="0" y="15" font-family="Helvetica Neue" font-size="16">Name</tspan>
            </text><path fill="#999" d="M60 89.46h175v28.45H60z"/><path stroke="#000" stroke-linecap="round" stroke-linejoin="round" d="M60 89.46h175v28.45H60z"/><text fill="#000" transform="translate(65 94.46)">
            <tspan xml:space="preserve" x="0" y="15" font-family="Helvetica Neue" font-size="16">VLANs</tspan>
          </text><text fill="#000" transform="translate(65 55)">
            <tspan xml:space="preserve" x="0" y="16" font-family="Helvetica Neue" font-size="16" font-weight="bold">lab-sw-1</tspan>
          </text><path fill="#fff" d="M50 550h380v447.35H50z"/><path stroke="#000" stroke-linecap="round" stroke-linejoin="round" d="M50 550h380v447.35H50z"/><path fill="#fff" d="M345 958.97h75v28.38h-75z"/><path stroke="#000" stroke-linecap="round" stroke-linejoin="round" d="M345 958.97h75v28.38h-75z"/><text fill="#000" transform="translate(350 963.94)">
              <tspan xml:space="preserve" x="0" y="15" font-family="Helvetica Neue" font-size="16">vlan-411</tspan>
            </text><path fill="#fff" d="M245 958.97h100v28.38H245z"/><path stroke="#000" stroke-linecap="round" stroke-linejoin="round" d="M245 958.97h100v28.38H245z"/><text fill="#000" transform="translate(250 963.94)">
              <tspan xml:space="preserve" x="0" y="15" font-family="Helvetica Neue" font-size="16">ge-0/0/11</tspan>
            </text><path fill="#fff" d="M345 930.58h75v28.38h-75z"/><path stroke="#000" stroke-linecap="round" stroke-linejoin="round" d="M345 930.58h75v28.38h-75z"/><text fill="#000" transform="translate(350 935.55)">
              <tspan xml:space="preserve" x="0" y="15" font-family="Helvetica Neue" font-size="16">vlan-411</tspan>
            </text><path fill="#fff" d="M245 930.58h100v28.38H245z"/><path stroke="#000" stroke-linecap="round" stroke-linejoin="round" d="M245 930.58h100v28.38H245z"/><text fill="#000" transform="translate(250 935.55)">
              <tspan xml:space="preserve" x="0" y="15" font-family="Helvetica Neue" font-size="16">ge-0/0/10</tspan>
            </text><path fill="#fff" d="M345 902.2h75v28.38h-75z"/><path stroke="#000" stroke-linecap="round" stroke-linejoin="round" d="M345 902.2h75v28.38h-75z"/><text fill="#000" transform="translate(350 907.17)">
              <tspan xml:space="preserve" x="0" y="15" font-family="Helvetica Neue" font-size="16">vlan-411</tspan>
            </text><path fill="#fff" d="M245 902.2h100v28.38H245z"/><path stroke="#000" stroke-linecap="round" stroke-linejoin="round" d="M245 902.2h100v28.38H245z"/><text fill="#000" transform="translate(250 907.17)">
              <tspan xml:space="preserve" x="0" y="15" font-family="Helvetica Neue" font-size="16">ge-0/0/9</tspan>
            </text><path fill="#fff" d="M245 873.81h100v28.38H245z"/><path stroke="#000" stroke-linecap="round" stroke-linejoin="round" d="M245 873.81h100v28.38H245z"/><text fill="#000" transform="translate(250 878.78)">
              <tspan xml:space="preserve" x="0" y="15" font-family="Helvetica Neue" font-size="16">ge-0/0/8</tspan>
            </text><path fill="#fff" d="M345 873.81h75v28.38h-75z"/><path stroke="#000" stroke-linecap="round" stroke-linejoin="round" d="M345 873.81h75v28.38h-75z"/><text fill="#000" transform="translate(350 878.78)">
              <tspan xml:space="preserve" x="0" y="15" font-family="Helvetica Neue" font-size="16">vlan-411</tspan>
            </text><path fill="#fff" d="M345 845.43h75v28.38h-75z"/><path stroke="#000" stroke-linecap="round" stroke-linejoin="round" d="M345 845.43h75v28.38h-75z"/><text fill="#000" transform="translate(350 850.4)">
              <tspan xml:space="preserve" x="0" y="15" font-family="Helvetica Neue" font-size="16">vlan-411</tspan>
            </text><path fill="#fff" d="M245 845.43h100v28.38H245z"/><path stroke="#000" stroke-linecap="round" stroke-linejoin="round" d="M245 845.43h100v28.38H245z"/><text fill="#000" transform="translate(250 850.4)">
              <tspan xml:space="preserve" x="0" y="15" font-family="Helvetica Neue" font-size="16">ge-0/0/7</tspan>
            </text><path fill="#fff" d="M345 817.05h75v28.38h-75z"/><path stroke="#000" stroke-linecap="round" stroke-linejoin="round" d="M345 817.05h75v28.38h-75z"/><text fill="#000" transform="translate(350 822.01)">
              <tspan xml:space="preserve" x="0" y="15" font-family="Helvetica Neue" font-size="16">vlan-411</tspan>
            </text><path fill="#fff" d="M245 817.05h100v28.38H245z"/><path stroke="#000" stroke-linecap="round" stroke-linejoin="round" d="M245 817.05h100v28.38H245z"/><text fill="#000" transform="translate(250 822.01)">
              <tspan xml:space="preserve" x="0" y="15" font-family="Helvetica Neue" font-size="16">ge-0/0/6</tspan>
            </text><path fill="#fff" d="M345 788.66h75v28.38h-75z"/><path stroke="#000" stroke-linecap="round" stroke-linejoin="round" d="M345 788.66h75v28.38h-75z"/><text fill="#000" transform="translate(350 793.63)">
              <tspan xml:space="preserve" x="0" y="15" font-family="Helvetica Neue" font-size="16">vlan-410</tspan>
            </text><path fill="#fff" d="M245 788.66h100v28.38H245z"/><path stroke="#000" stroke-linecap="round" stroke-linejoin="round" d="M245 788.66h100v28.38H245z"/><text fill="#000" transform="translate(250 793.63)">
              <tspan xml:space="preserve" x="0" y="15" font-family="Helvetica Neue" font-size="16">ge-0/0/5</tspan>
            </text><path fill="#fff" d="M245 760.28h100v28.38H245z"/><path stroke="#000" stroke-linecap="round" stroke-linejoin="round" d="M245 760.28h100v28.38H245z"/><text fill="#000" transform="translate(250 765.25)">
              <tspan xml:space="preserve" x="0" y="15" font-family="Helvetica Neue" font-size="16">ge-0/0/4</tspan>
            </text><path fill="#fff" d="M345 760.28h75v28.38h-75z"/><path stroke="#000" stroke-linecap="round" stroke-linejoin="round" d="M345 760.28h75v28.38h-75z"/><text fill="#000" transform="translate(350 765.25)">
              <tspan xml:space="preserve" x="0" y="15" font-family="Helvetica Neue" font-size="16">vlan-410</tspan>
            </text><path fill="#fff" d="M345 731.89h75v28.38h-75z"/><path stroke="#000" stroke-linecap="round" stroke-linejoin="round" d="M345 731.89h75v28.38h-75z"/><text fill="#000" transform="translate(350 736.86)">
              <tspan xml:space="preserve" x="0" y="15" font-family="Helvetica Neue" font-size="16">vlan-410</tspan>
            </text><path fill="#fff" d="M245 731.89h100v28.38H245z"/><path stroke="#000" stroke-linecap="round" stroke-linejoin="round" d="M245 731.89h100v28.38H245z"/><text fill="#000" transform="translate(250 736.86)">
              <tspan xml:space="preserve" x="0" y="15" font-family="Helvetica Neue" font-size="16">ge-0/0/3</tspan>
            </text><path fill="#fff" d="M345 703.51h75v28.38h-75z"/><path stroke="#000" stroke-linecap="round" stroke-linejoin="round" d="M345 703.51h75v28.38h-75z"/><text fill="#000" transform="translate(350 708.48)">
              <tspan xml:space="preserve" x="0" y="15" font-family="Helvetica Neue" font-size="16">vlan-410</tspan>
            </text><path fill="#fff" d="M245 703.51h100v28.38H245z"/><path stroke="#000" stroke-linecap="round" stroke-linejoin="round" d="M245 703.51h100v28.38H245z"/><text fill="#000" transform="translate(250 708.48)">
              <tspan xml:space="preserve" x="0" y="15" font-family="Helvetica Neue" font-size="16">ge-0/0/2</tspan>
            </text><path fill="#fff" d="M345 675.13h75v28.38h-75z"/><path stroke="#000" stroke-linecap="round" stroke-linejoin="round" d="M345 675.13h75v28.38h-75z"/><text fill="#000" transform="translate(350 680.1)">
              <tspan xml:space="preserve" x="0" y="15" font-family="Helvetica Neue" font-size="16">vlan-410</tspan>
            </text><path fill="#fff" d="M245 675.13h100v28.38H245z"/><path stroke="#000" stroke-linecap="round" stroke-linejoin="round" d="M245 675.13h100v28.38H245z"/><text fill="#000" transform="translate(250 680.1)">
              <tspan xml:space="preserve" x="0" y="15" font-family="Helvetica Neue" font-size="16">ge-0/0/1</tspan>
            </text><path fill="#fff" d="M345 646.74h75v28.38h-75z"/><path stroke="#000" stroke-linecap="round" stroke-linejoin="round" d="M345 646.74h75v28.38h-75z"/><text fill="#000" transform="translate(350 651.71)">
              <tspan xml:space="preserve" x="0" y="15" font-family="Helvetica Neue" font-size="16">vlan-410</tspan>
            </text><path fill="#fff" d="M245 646.74h100v28.38H245z"/><path stroke="#000" stroke-linecap="round" stroke-linejoin="round" d="M245 646.74h100v28.38H245z"/><text fill="#000" transform="translate(250 651.71)">
              <tspan xml:space="preserve" x="0" y="15" font-family="Helvetica Neue" font-size="16">ge-0/0/0</tspan>
            </text><path fill="#ccc" d="M345 617.91h75v28.83h-75z"/><path stroke="#000" stroke-linecap="round" stroke-linejoin="round" d="M345 617.91h75v28.83h-75z"/><text fill="#000" transform="translate(350 623.1)">
              <tspan xml:space="preserve" x="0" y="15" font-family="Helvetica Neue" font-size="16">VLAN</tspan>
            </text><path fill="#ccc" d="M245 617.91h100v28.83H245z"/><path stroke="#000" stroke-linecap="round" stroke-linejoin="round" d="M245 617.91h100v28.83H245z"/><text fill="#000" transform="translate(250 623.1)">
              <tspan xml:space="preserve" x="0" y="15" font-family="Helvetica Neue" font-size="16">Name</tspan>
            </text><path fill="#999" d="M245 589.46h175v28.45H245z"/><path stroke="#000" stroke-linecap="round" stroke-linejoin="round" d="M245 589.46h175v28.45H245z"/><text fill="#000" transform="translate(250 594.46)">
            <tspan xml:space="preserve" x="0" y="15" font-family="Helvetica Neue" font-size="16">Interfaces</tspan>
          </text><path fill="#fff" d="M160 675.13h75v28.38h-75z"/><path stroke="#000" stroke-linecap="round" stroke-linejoin="round" d="M160 675.13h75v28.38h-75z"/><text fill="#000" transform="translate(165 680.1)">
              <tspan xml:space="preserve" x="0" y="15" font-family="Helvetica Neue" font-size="16">411</tspan>
            </text><path fill="#fff" d="M60 675.13h100v28.38H60z"/><path stroke="#000" stroke-linecap="round" stroke-linejoin="round" d="M60 675.13h100v28.38H60z"/><text fill="#000" transform="translate(65 680.1)">
              <tspan xml:space="preserve" x="0" y="15" font-family="Helvetica Neue" font-size="16">vlan-411</tspan>
            </text><path fill="#fff" d="M160 646.74h75v28.38h-75z"/><path stroke="#000" stroke-linecap="round" stroke-linejoin="round" d="M160 646.74h75v28.38h-75z"/><text fill="#000" transform="translate(165 651.71)">
              <tspan xml:space="preserve" x="0" y="15" font-family="Helvetica Neue" font-size="16">410</tspan>
            </text><path fill="#fff" d="M60 646.74h100v28.38H60z"/><path stroke="#000" stroke-linecap="round" stroke-linejoin="round" d="M60 646.74h100v28.38H60z"/><text fill="#000" transform="translate(65 651.71)">
              <tspan xml:space="preserve" x="0" y="15" font-family="Helvetica Neue" font-size="16">vlan-410</tspan>
            </text><path fill="#ccc" d="M160 617.91h75v28.83h-75z"/><path stroke="#000" stroke-linecap="round" stroke-linejoin="round" d="M160 617.91h75v28.83h-75z"/><text fill="#000" transform="translate(165 623.1)">
              <tspan xml:space="preserve" x="0" y="15" font-family="Helvetica Neue" font-size="16">ID</tspan>
            </text><path fill="#ccc" d="M60 617.91h100v28.83H60z"/><path stroke="#000" stroke-linecap="round" stroke-linejoin="round" d="M60 617.91h100v28.83H60z"/><text fill="#000" transform="translate(65 623.1)">
              <tspan xml:space="preserve" x="0" y="15" font-family="Helvetica Neue" font-size="16">Name</tspan>
            </text><path fill="#999" d="M60 589.46h175v28.45H60z"/><path stroke="#000" stroke-linecap="round" stroke-linejoin="round" d="M60 589.46h175v28.45H60z"/><text fill="#000" transform="translate(65 594.46)">
            <tspan xml:space="preserve" x="0" y="15" font-family="Helvetica Neue" font-size="16">VLANs</tspan>
          </text><text fill="#000" transform="translate(65 555)">
            <tspan xml:space="preserve" x="0" y="16" font-family="Helvetica Neue" font-size="16" font-weight="bold">lab-sw-4</tspan>
          </text></g></svg>