<svg xmlns="http://www.w3.org/2000/svg" viewBox="0 0 1870 1047.35"><g fill="none"><path fill="#8f9abf" d="M0 0h1870v1047.35H0z"/><path fill="#999" d="M460 580h250v60H460z"/><path stroke="#000" stroke-linecap="square" d="M460 580h250v60H460z"/><path fill="#000" d="M699.5 612.5h-15a2 2 0 0 0-2 2v15c0 1.1.9 2 2 2h15a2 2 0 0 0 2-2v-15a2 2 0 0 0-2-2"/><path fill="#fff" d="M699.5 613.5h-15a1 1 0 0 0-1 1v15a1 1 0 0 0 1 1h15a1 1 0 0 0 1-1v-15a1 1 0 0 0-1-1m-12.25 3.5h-1v3h1Zm1.5 0h-1v3h1Zm1.5 0h-1v3h1Zm1.5 0h-1v3h1Zm1.5 0h-1v3h1Zm1.5 0h-1v3h1Zm1.5 0h-1v3h1Zm1.5 0h-1v3h1Zm-8.75-1h1.63m2.75 0h4.87c.28 0 .5.22.5.5v8a.5.5 0 0 1-.5.5h-2.75v1.25a.5.5 0 0 1-.5.5h-1.12v.75a.5.5 0 0 1-.5.5h-2.75a.5.5 0 0 1-.5-.5v-.75H689a.5.5 0 0 1-.5-.5V625h-2.75a.5.5 0 0 1-.5-.5v-8c0-.28.22-.5.5-.5H689m1.63 0h2.75"/><path fill="#000" d="M670.5 612.5h-15a2 2 0 0 0-2 2v15c0 1.1.9 2 2 2h15a2 2 0 0 0 2-2v-15a2 2 0 0 0-2-2"/><path fill="#fff" d="M670.5 613.5h-15a1 1 0 0 0-1 1v15a1 1 0 0 0 1 1h15a1 1 0 0 0 1-1v-15a1 1 0 0 0-1-1m-12.25 3.5h-1v3h1Zm1.5 0h-1v3h1Zm1.5 0h-1v3h1Zm1.5 0h-1v3h1Zm1.5 0h-1v3h1Zm1.5 0h-1v3h1Zm1.5 0h-1v3h1Zm1.5 0h-1v3h1Zm-8.75-1h1.63m2.75 0h4.87c.28 0 .5.22.5.5v8a.5.5 0 0 1-.5.5h-2.75v1.25a.5.5 0 0 1-.5.5h-1.12v.75a.5.5 0 0 1-.5.5h-2.75a.5.5 0 0 1-.5-.5v-.75H660a.5.5 0 0 1-.5-.5V625h-2.75a.5.5 0 0 1-.5-.5v-8c0-.28.22-.5.5-.5H660m1.63 0h2.75"/><path fill="#000" d="M485.5 612.5h-15a2 2 0 0 0-2 2v15c0 1.1.9 2 2 2h15a2 2 0 0 0 2-2v-15a2 2 0 0 0-2-2"/><path fill="#fff" d="M485.5 613.5h-15a1 1 0 0 0-1 1v15a1 1 0 0 0 1 1h15a1 1 0 0 0 1-1v-15a1 1 0 0 0-1-1m-12.25 3.5h-1v3h1Zm1.5 0h-1v3h1Zm1.5 0h-1v3h1Zm1.5 0h-1v3h1Zm1.5 0h-1v3h1Zm1.5 0h-1v3h1Zm1.5 0h-1v3h1Zm1.5 0h-1v3h1Zm-8.75-1h1.63m2.75 0h4.87c.28 0 .5.22.5.5v8a.5.5 0 0 1-.5.5h-2.75v1.25a.5.5 0 0 1-.5.5h-1.12v.75a.5.5 0 0 1-.5.5h-2.75a.5.5 0 0 1-.5-.5v-.75H475a.5.5 0 0 1-.5-.5V625h-2.75a.5.5 0 0 1-.5-.5v-8c0-.28.22-.5.5-.5H475m1.63 0h2.75"/><path fill="#000" d="M509.5 612.5h-15a2 2 0 0 0-2 2v15c0 1.1.9 2 2 2h15a2 2 0 0 0 2-2v-15a2 2 0 0 0-2-2"/><path fill="#fff" d="M509.5 613.5h-15a1 1 0 0 0-1 1v15a1 1 0 0 0 1 1h15a1 1 0 0 0 1-1v-15a1 1 0 0 0-1-1m-12.25 3.5h-1v3h1Zm1.5 0h-1v3h1Zm1.5 0h-1v3h1Zm1.5 0h-1v3h1Zm1.5 0h-1v3h1Zm1.5 0h-1v3h1Zm1.5 0h-1v3h1Zm1.5 0h-1v3h1Zm-8.75-1h1.63m2.75 0h4.87c.28 0 .5.22.5.5v8a.5.5 0 0 1-.5.5h-2.75v1.25a.5.5 0 0 1-.5.5h-1.12v.75a.5.5 0 0 1-.5.5h-2.75a.5.5 0 0 1-.5-.5v-.75H499a.5.5 0 0 1-.5-.5V625h-2.75a.5.5 0 0 1-.5-.5v-8c0-.28.22-.5.5-.5H499m1.63 0h2.75"/><path fill="#000" d="M533.5 612.5h-15a2 2 0 0 0-2 2v15c0 1.1.9 2 2 2h15a2 2 0 0 0 2-2v-15a2 2 0 0 0-2-2"/><path fill="#fff" d="M533.5 613.5h-15a1 1 0 0 0-1 1v15a1 1 0 0 0 1 1h15a1 1 0 0 0 1-1v-15a1 1 0 0 0-1-1m-12.25 3.5h-1v3h1Zm1.5 0h-1v3h1Zm1.5 0h-1v3h1Zm1.5 0h-1v3h1Zm1.5 0h-1v3h1Zm1.5 0h-1v3h1Zm1.5 0h-1v3h1Zm1.5 0h-1v3h1Zm-8.75-1h1.63m2.75 0h4.87c.28 0 .5.22.5.5v8a.5.5 0 0 1-.5.5h-2.75v1.25a.5.5 0 0 1-.5.5h-1.12v.75a.5.5 0 0 1-.5.5h-2.75a.5.5 0 0 1-.5-.5v-.75H523a.5.5 0 0 1-.5-.5V625h-2.75a.5.5 0 0 1-.5-.5v-8c0-.28.22-.5.5-.5H523m1.63 0h2.75"/><path fill="#000" d="M557.5 612.5h-15a2 2 0 0 0-2 2v15c0 1.1.9 2 2 2h15a2 2 0 0 0 2-2v-15a2 2 0 0 0-2-2"/><path fill="#fff" d="M557.5 613.5h-15a1 1 0 0 0-1 1v15a1 1 0 0 0 1 1h15a1 1 0 0 0 1-1v-15a1 1 0 0 0-1-1m-12.25 3.5h-1v3h1Zm1.5 0h-1v3h1Zm1.5 0h-1v3h1Zm1.5 0h-1v3h1Zm1.5 0h-1v3h1Zm1.5 0h-1v3h1Zm1.5 0h-1v3h1Zm1.5 0h-1v3h1Zm-8.75-1h1.63m2.75 0h4.87c.28 0 .5.22.5.5v8a.5.5 0 0 1-.5.5h-2.75v1.25a.5.5 0 0 1-.5.5h-1.12v.75a.5.5 0 0 1-.5.5h-2.75a.5.5 0 0 1-.5-.5v-.75H547a.5.5 0 0 1-.5-.5V625h-2.75a.5.5 0 0 1-.5-.5v-8c0-.28.22-.5.5-.5H547m1.63 0h2.75"/><path fill="#000" d="M581.5 612.5h-15a2 2 0 0 0-2 2v15c0 1.1.9 2 2 2h15a2 2 0 0 0 2-2v-15a2 2 0 0 0-2-2"/><path fill="#fff" d="M581.5 613.5h-15a1 1 0 0 0-1 1v15a1 1 0 0 0 1 1h15a1 1 0 0 0 1-1v-15a1 1 0 0 0-1-1m-12.25 3.5h-1v3h1Zm1.5 0h-1v3h1Zm1.5 0h-1v3h1Zm1.5 0h-1v3h1Zm1.5 0h-1v3h1Zm1.5 0h-1v3h1Zm1.5 0h-1v3h1Zm1.5 0h-1v3h1Zm-8.75-1h1.63m2.75 0h4.87c.28 0 .5.22.5.5v8a.5.5 0 0 1-.5.5h-2.75v1.25a.5.5 0 0 1-.5.5h-1.12v.75a.5.5 0 0 1-.5.5h-2.75a.5.5 0 0 1-.5-.5v-.75H571a.5.5 0 0 1-.5-.5V625h-2.75a.5.5 0 0 1-.5-.5v-8c0-.28.22-.5.5-.5H571m1.63 0h2.75"/><path fill="#000" d="M605.5 612.5h-15a2 2 0 0 0-2 2v15c0 1.1.9 2 2 2h15a2 2 0 0 0 2-2v-15a2 2 0 0 0-2-2"/><path fill="#fff" d="M605.5 613.5h-15a1 1 0 0 0-1 1v15a1 1 0 0 0 1 1h15a1 1 0 0 0 1-1v-15a1 1 0 0 0-1-1m-12.25 3.5h-1v3h1Zm1.5 0h-1v3h1Zm1.5 0h-1v3h1Zm1.5 0h-1v3h1Zm1.5 0h-1v3h1Zm1.5 0h-1v3h1Zm1.5 0h-1v3h1Zm1.5 0h-1v3h1Zm-8.75-1h1.63m2.75 0h4.87c.28 0 .5.22.5.5v8a.5.5 0 0 1-.5.5h-2.75v1.25a.5.5 0 0 1-.5.5h-1.12v.75a.5.5 0 0 1-.5.5h-2.75a.5.5 0 0 1-.5-.5v-.75H595a.5.5 0 0 1-.5-.5V625h-2.75a.5.5 0 0 1-.5-.5v-8c0-.28.22-.5.5-.5H595m1.63 0h2.75"/><path fill="#000" d="M485.5 607.5h-15a2 2 0 0 1-2-2v-15c0-1.1.9-2 2-2h15a2 2 0 0 1 2 2v15a2 2 0 0 1-2 2"/><path fill="#fff" d="M485.5 606.5h-15a1 1 0 0 1-1-1v-15a1 1 0 0 1 1-1h15a1 1 0 0 1 1 1v15a1 1 0 0 1-1 1m-12.25-3.5h-1v-3h1Zm1.5 0h-1v-3h1Zm1.5 0h-1v-3h1Zm1.5 0h-1v-3h1Zm1.5 0h-1v-3h1Zm1.5 0h-1v-3h1Zm1.5 0h-1v-3h1Zm1.5 0h-1v-3h1Zm-8.75 1h1.63m2.75 0h4.87a.5.5 0 0 0 .5-.5v-8a.5.5 0 0 0-.5-.5h-2.75v-1.25a.5.5 0 0 0-.5-.5h-1.12v-.75a.5.5 0 0 0-.5-.5h-2.75a.5.5 0 0 0-.5.5v.75H475a.5.5 0 0 0-.5.5V595h-2.75a.5.5 0 0 0-.5.5v8c0 .28.22.5.5.5H475m1.63 0h2.75"/><path fill="#000" d="M509.5 607.5h-15a2 2 0 0 1-2-2v-15c0-1.1.9-2 2-2h15a2 2 0 0 1 2 2v15a2 2 0 0 1-2 2"/><path fill="#fff" d="M509.5 606.5h-15a1 1 0 0 1-1-1v-15a1 1 0 0 1 1-1h15a1 1 0 0 1 1 1v15a1 1 0 0 1-1 1m-12.25-3.5h-1v-3h1Zm1.5 0h-1v-3h1Zm1.5 0h-1v-3h1Zm1.5 0h-1v-3h1Zm1.5 0h-1v-3h1Zm1.5 0h-1v-3h1Zm1.5 0h-1v-3h1Zm1.5 0h-1v-3h1Zm-8.75 1h1.63m2.75 0h4.87a.5.5 0 0 0 .5-.5v-8a.5.5 0 0 0-.5-.5h-2.75v-1.25a.5.5 0 0 0-.5-.5h-1.12v-.75a.5.5 0 0 0-.5-.5h-2.75a.5.5 0 0 0-.5.5v.75H499a.5.5 0 0 0-.5.5V595h-2.75a.5.5 0 0 0-.5.5v8c0 .28.22.5.5.5H499m1.63 0h2.75"/><path fill="#000" d="M533.5 607.5h-15a2 2 0 0 1-2-2v-15c0-1.1.9-2 2-2h15a2 2 0 0 1 2 2v15a2 2 0 0 1-2 2"/><path fill="#fff" d="M533.5 606.5h-15a1 1 0 0 1-1-1v-15a1 1 0 0 1 1-1h15a1 1 0 0 1 1 1v15a1 1 0 0 1-1 1m-12.25-3.5h-1v-3h1Zm1.5 0h-1v-3h1Zm1.5 0h-1v-3h1Zm1.5 0h-1v-3h1Zm1.5 0h-1v-3h1Zm1.5 0h-1v-3h1Zm1.5 0h-1v-3h1Zm1.5 0h-1v-3h1Zm-8.75 1h1.63m2.75 0h4.87a.5.5 0 0 0 .5-.5v-8a.5.5 0 0 0-.5-.5h-2.75v-1.25a.5.5 0 0 0-.5-.5h-1.12v-.75a.5.5 0 0 0-.5-.5h-2.75a.5.5 0 0 0-.5.5v.75H523a.5.5 0 0 0-.5.5V595h-2.75a.5.5 0 0 0-.5.5v8c0 .28.22.5.5.5H523m1.63 0h2.75"/><path fill="#000" d="M557.5 607.5h-15a2 2 0 0 1-2-2v-15c0-1.1.9-2 2-2h15a2 2 0 0 1 2 2v15a2 2 0 0 1-2 2"/><path fill="#fff" d="M557.5 606.5h-15a1 1 0 0 1-1-1v-15a1 1 0 0 1 1-1h15a1 1 0 0 1 1 1v15a1 1 0 0 1-1 1m-12.25-3.5h-1v-3h1Zm1.5 0h-1v-3h1Zm1.5 0h-1v-3h1Zm1.5 0h-1v-3h1Zm1.5 0h-1v-3h1Zm1.5 0h-1v-3h1Zm1.5 0h-1v-3h1Zm1.5 0h-1v-3h1Zm-8.75 1h1.63m2.75 0h4.87a.5.5 0 0 0 .5-.5v-8a.5.5 0 0 0-.5-.5h-2.75v-1.25a.5.5 0 0 0-.5-.5h-1.12v-.75a.5.5 0 0 0-.5-.5h-2.75a.5.5 0 0 0-.5.5v.75H547a.5.5 0 0 0-.5.5V595h-2.75a.5.5 0 0 0-.5.5v8c0 .28.22.5.5.5H547m1.63 0h2.75"/><path fill="#000" d="M581.5 607.5h-15a2 2 0 0 1-2-2v-15c0-1.1.9-2 2-2h15a2 2 0 0 1 2 2v15a2 2 0 0 1-2 2"/><path fill="#fff" d="M581.5 606.5h-15a1 1 0 0 1-1-1v-15a1 1 0 0 1 1-1h15a1 1 0 0 1 1 1v15a1 1 0 0 1-1 1m-12.25-3.5h-1v-3h1Zm1.5 0h-1v-3h1Zm1.5 0h-1v-3h1Zm1.5 0h-1v-3h1Zm1.5 0h-1v-3h1Zm1.5 0h-1v-3h1Zm1.5 0h-1v-3h1Zm1.5 0h-1v-3h1Zm-8.75 1h1.63m2.75 0h4.87a.5.5 0 0 0 .5-.5v-8a.5.5 0 0 0-.5-.5h-2.75v-1.25a.5.5 0 0 0-.5-.5h-1.12v-.75a.5.5 0 0 0-.5-.5h-2.75a.5.5 0 0 0-.5.5v.75H571a.5.5 0 0 0-.5.5V595h-2.75a.5.5 0 0 0-.5.5v8c0 .28.22.5.5.5H571m1.63 0h2.75"/><path fill="#000" d="M605.5 607.5h-15a2 2 0 0 1-2-2v-15c0-1.1.9-2 2-2h15a2 2 0 0 1 2 2v15a2 2 0 0 1-2 2"/><path fill="#fff" d="M605.5 606.5h-15a1 1 0 0 1-1-1v-15a1 1 0 0 1 1-1h15a1 1 0 0 1 1 1v15a1 1 0 0 1-1 1m-12.25-3.5h-1v-3h1Zm1.5 0h-1v-3h1Zm1.5 0h-1v-3h1Zm1.5 0h-1v-3h1Zm1.5 0h-1v-3h1Zm1.5 0h-1v-3h1Zm1.5 0h-1v-3h1Zm1.5 0h-1v-3h1Zm-8.75 1h1.63m2.75 0h4.87a.5.5 0 0 0 .5-.5v-8a.5.5 0 0 0-.5-.5h-2.75v-1.25a.5.5 0 0 0-.5-.5h-1.12v-.75a.5.5 0 0 0-.5-.5h-2.75a.5.5 0 0 0-.5.5v.75H595a.5.5 0 0 0-.5.5V595h-2.75a.5.5 0 0 0-.5.5v8c0 .28.22.5.5.5H595m1.63 0h2.75"/><path fill="#ccc" d="M710 580H460l50-30h150Z"/><path stroke="#000" stroke-linecap="square" d="M710 580H460l50-30h150Z"/><path fill="#fff" d="M559.34 555.83h51.33v18.34h-51.33z"/><path stroke="#000" stroke-linecap="round" stroke-linejoin="round" d="M559.34 555.83h51.33v18.34h-51.33z"/><text fill="#000" transform="translate(561.34 557.83)">
            <tspan xml:space="preserve" x="0" y="11" font-family="Helvetica Neue" font-size="12">lab-sw-4</tspan>
          </text><path fill="#999" d="M1160 580h250v60h-250z"/><path stroke="#000" stroke-linecap="square" d="M1160 580h250v60h-250z"/><path fill="#000" d="M1399.5 612.5h-15a2 2 0 0 0-2 2v15c0 1.1.9 2 2 2h15a2 2 0 0 0 2-2v-15a2 2 0 0 0-2-2"/><path fill="#fff" d="M1399.5 613.5h-15a1 1 0 0 0-1 1v15a1 1 0 0 0 1 1h15a1 1 0 0 0 1-1v-15a1 1 0 0 0-1-1m-12.25 3.5h-1v3h1Zm1.5 0h-1v3h1Zm1.5 0h-1v3h1Zm1.5 0h-1v3h1Zm1.5 0h-1v3h1Zm1.5 0h-1v3h1Zm1.5 0h-1v3h1Zm1.5 0h-1v3h1Zm-8.75-1h1.63m2.74 0h4.88c.28 0 .5.22.5.5v8a.5.5 0 0 1-.5.5h-2.75v1.25a.5.5 0 0 1-.5.5h-1.12v.75a.5.5 0 0 1-.5.5h-2.76a.5.5 0 0 1-.5-.5v-.75H1389a.5.5 0 0 1-.5-.5V625h-2.75a.5.5 0 0 1-.5-.5v-8c0-.28.22-.5.5-.5h3.25m1.63 0h2.74"/><path fill="#000" d="M1370.5 612.5h-15a2 2 0 0 0-2 2v15c0 1.1.9 2 2 2h15a2 2 0 0 0 2-2v-15a2 2 0 0 0-2-2"/><path fill="#fff" d="M1370.5 613.5h-15a1 1 0 0 0-1 1v15a1 1 0 0 0 1 1h15a1 1 0 0 0 1-1v-15a1 1 0 0 0-1-1m-12.25 3.5h-1v3h1Zm1.5 0h-1v3h1Zm1.5 0h-1v3h1Zm1.5 0h-1v3h1Zm1.5 0h-1v3h1Zm1.5 0h-1v3h1Zm1.5 0h-1v3h1Zm1.5 0h-1v3h1Zm-8.75-1h1.63m2.74 0h4.88c.28 0 .5.22.5.5v8a.5.5 0 0 1-.5.5h-2.75v1.25a.5.5 0 0 1-.5.5h-1.12v.75a.5.5 0 0 1-.5.5h-2.76a.5.5 0 0 1-.5-.5v-.75H1360a.5.5 0 0 1-.5-.5V625h-2.75a.5.5 0 0 1-.5-.5v-8c0-.28.22-.5.5-.5h3.25m1.63 0h2.74"/><path fill="#000" d="M1185.5 612.5h-15a2 2 0 0 0-2 2v15c0 1.1.9 2 2 2h15a2 2 0 0 0 2-2v-15a2 2 0 0 0-2-2"/><path fill="#fff" d="M1185.5 613.5h-15a1 1 0 0 0-1 1v15a1 1 0 0 0 1 1h15a1 1 0 0 0 1-1v-15a1 1 0 0 0-1-1m-12.25 3.5h-1v3h1Zm1.5 0h-1v3h1Zm1.5 0h-1v3h1Zm1.5 0h-1v3h1Zm1.5 0h-1v3h1Zm1.5 0h-1v3h1Zm1.5 0h-1v3h1Zm1.5 0h-1v3h1Zm-8.75-1h1.63m2.74 0h4.88c.28 0 .5.22.5.5v8a.5.5 0 0 1-.5.5h-2.75v1.25a.5.5 0 0 1-.5.5h-1.12v.75a.5.5 0 0 1-.5.5h-2.76a.5.5 0 0 1-.5-.5v-.75H1175a.5.5 0 0 1-.5-.5V625h-2.75a.5.5 0 0 1-.5-.5v-8c0-.28.22-.5.5-.5h3.25m1.63 0h2.74"/><path fill="#000" d="M1209.5 612.5h-15a2 2 0 0 0-2 2v15c0 1.1.9 2 2 2h15a2 2 0 0 0 2-2v-15a2 2 0 0 0-2-2"/><path fill="#fff" d="M1209.5 613.5h-15a1 1 0 0 0-1 1v15a1 1 0 0 0 1 1h15a1 1 0 0 0 1-1v-15a1 1 0 0 0-1-1m-12.25 3.5h-1v3h1Zm1.5 0h-1v3h1Zm1.5 0h-1v3h1Zm1.5 0h-1v3h1Zm1.5 0h-1v3h1Zm1.5 0h-1v3h1Zm1.5 0h-1v3h1Zm1.5 0h-1v3h1Zm-8.75-1h1.63m2.74 0h4.88c.28 0 .5.22.5.5v8a.5.5 0 0 1-.5.5h-2.75v1.25a.5.5 0 0 1-.5.5h-1.12v.75a.5.5 0 0 1-.5.5h-2.76a.5.5 0 0 1-.5-.5v-.75H1199a.5.5 0 0 1-.5-.5V625h-2.75a.5.5 0 0 1-.5-.5v-8c0-.28.22-.5.5-.5h3.25m1.63 0h2.74"/><path fill="#000" d="M1233.5 612.5h-15a2 2 0 0 0-2 2v15c0 1.1.9 2 2 2h15a2 2 0 0 0 2-2v-15a2 2 0 0 0-2-2"/><path fill="#fff" d="M1233.5 613.5h-15a1 1 0 0 0-1 1v15a1 1 0 0 0 1 1h15a1 1 0 0 0 1-1v-15a1 1 0 0 0-1-1m-12.25 3.5h-1v3h1Zm1.5 0h-1v3h1Zm1.5 0h-1v3h1Zm1.5 0h-1v3h1Zm1.5 0h-1v3h1Zm1.5 0h-1v3h1Zm1.5 0h-1v3h1Zm1.5 0h-1v3h1Zm-8.75-1h1.63m2.74 0h4.88c.28 0 .5.22.5.5v8a.5.5 0 0 1-.5.5h-2.75v1.25a.5.5 0 0 1-.5.5h-1.12v.75a.5.5 0 0 1-.5.5h-2.76a.5.5 0 0 1-.5-.5v-.75H1223a.5.5 0 0 1-.5-.5V625h-2.75a.5.5 0 0 1-.5-.5v-8c0-.28.22-.5.5-.5h3.25m1.63 0h2.74"/><path fill="#000" d="M1257.5 612.5h-15a2 2 0 0 0-2 2v15c0 1.1.9 2 2 2h15a2 2 0 0 0 2-2v-15a2 2 0 0 0-2-2"/><path fill="#fff" d="M1257.5 613.5h-15a1 1 0 0 0-1 1v15a1 1 0 0 0 1 1h15a1 1 0 0 0 1-1v-15a1 1 0 0 0-1-1m-12.25 3.5h-1v3h1Zm1.5 0h-1v3h1Zm1.5 0h-1v3h1Zm1.5 0h-1v3h1Zm1.5 0h-1v3h1Zm1.5 0h-1v3h1Zm1.5 0h-1v3h1Zm1.5 0h-1v3h1Zm-8.75-1h1.63m2.74 0h4.88c.28 0 .5.22.5.5v8a.5.5 0 0 1-.5.5h-2.75v1.25a.5.5 0 0 1-.5.5h-1.12v.75a.5.5 0 0 1-.5.5h-2.76a.5.5 0 0 1-.5-.5v-.75H1247a.5.5 0 0 1-.5-.5V625h-2.75a.5.5 0 0 1-.5-.5v-8c0-.28.22-.5.5-.5h3.25m1.63 0h2.74"/><path fill="#000" d="M1281.5 612.5h-15a2 2 0 0 0-2 2v15c0 1.1.9 2 2 2h15a2 2 0 0 0 2-2v-15a2 2 0 0 0-2-2"/><path fill="#fff" d="M1281.5 613.5h-15a1 1 0 0 0-1 1v15a1 1 0 0 0 1 1h15a1 1 0 0 0 1-1v-15a1 1 0 0 0-1-1m-12.25 3.5h-1v3h1Zm1.5 0h-1v3h1Zm1.5 0h-1v3h1Zm1.5 0h-1v3h1Zm1.5 0h-1v3h1Zm1.5 0h-1v3h1Zm1.5 0h-1v3h1Zm1.5 0h-1v3h1Zm-8.75-1h1.63m2.74 0h4.88c.28 0 .5.22.5.5v8a.5.5 0 0 1-.5.5h-2.75v1.25a.5.5 0 0 1-.5.5h-1.12v.75a.5.5 0 0 1-.5.5h-2.76a.5.5 0 0 1-.5-.5v-.75H1271a.5.5 0 0 1-.5-.5V625h-2.75a.5.5 0 0 1-.5-.5v-8c0-.28.22-.5.5-.5h3.25m1.63 0h2.74"/><path fill="#000" d="M1305.5 612.5h-15a2 2 0 0 0-2 2v15c0 1.1.9 2 2 2h15a2 2 0 0 0 2-2v-15a2 2 0 0 0-2-2"/><path fill="#fff" d="M1305.5 613.5h-15a1 1 0 0 0-1 1v15a1 1 0 0 0 1 1h15a1 1 0 0 0 1-1v-15a1 1 0 0 0-1-1m-12.25 3.5h-1v3h1Zm1.5 0h-1v3h1Zm1.5 0h-1v3h1Zm1.5 0h-1v3h1Zm1.5 0h-1v3h1Zm1.5 0h-1v3h1Zm1.5 0h-1v3h1Zm1.5 0h-1v3h1Zm-8.75-1h1.63m2.74 0h4.88c.28 0 .5.22.5.5v8a.5.5 0 0 1-.5.5h-2.75v1.25a.5.5 0 0 1-.5.5h-1.12v.75a.5.5 0 0 1-.5.5h-2.76a.5.5 0 0 1-.5-.5v-.75H1295a.5.5 0 0 1-.5-.5V625h-2.75a.5.5 0 0 1-.5-.5v-8c0-.28.22-.5.5-.5h3.25m1.63 0h2.74"/><path fill="#000" d="M1185.5 607.5h-15a2 2 0 0 1-2-2v-15c0-1.1.9-2 2-2h15a2 2 0 0 1 2 2v15a2 2 0 0 1-2 2"/><path fill="#fff" d="M1185.5 606.5h-15a1 1 0 0 1-1-1v-15a1 1 0 0 1 1-1h15a1 1 0 0 1 1 1v15a1 1 0 0 1-1 1m-12.25-3.5h-1v-3h1Zm1.5 0h-1v-3h1Zm1.5 0h-1v-3h1Zm1.5 0h-1v-3h1Zm1.5 0h-1v-3h1Zm1.5 0h-1v-3h1Zm1.5 0h-1v-3h1Zm1.5 0h-1v-3h1Zm-8.75 1h1.63m2.74 0h4.88a.5.5 0 0 0 .5-.5v-8a.5.5 0 0 0-.5-.5h-2.75v-1.25a.5.5 0 0 0-.5-.5h-1.12v-.75a.5.5 0 0 0-.5-.5h-2.76a.5.5 0 0 0-.5.5v.75H1175a.5.5 0 0 0-.5.5V595h-2.75a.5.5 0 0 0-.5.5v8c0 .28.22.5.5.5h3.25m1.63 0h2.74"/><path fill="#000" d="M1209.5 607.5h-15a2 2 0 0 1-2-2v-15c0-1.1.9-2 2-2h15a2 2 0 0 1 2 2v15a2 2 0 0 1-2 2"/><path fill="#fff" d="M1209.5 606.5h-15a1 1 0 0 1-1-1v-15a1 1 0 0 1 1-1h15a1 1 0 0 1 1 1v15a1 1 0 0 1-1 1m-12.25-3.5h-1v-3h1Zm1.5 0h-1v-3h1Zm1.5 0h-1v-3h1Zm1.5 0h-1v-3h1Zm1.5 0h-1v-3h1Zm1.5 0h-1v-3h1Zm1.5 0h-1v-3h1Zm1.5 0h-1v-3h1Zm-8.75 1h1.63m2.74 0h4.88a.5.5 0 0 0 .5-.5v-8a.5.5 0 0 0-.5-.5h-2.75v-1.25a.5.5 0 0 0-.5-.5h-1.12v-.75a.5.5 0 0 0-.5-.5h-2.76a.5.5 0 0 0-.5.5v.75H1199a.5.5 0 0 0-.5.5V595h-2.75a.5.5 0 0 0-.5.5v8c0 .28.22.5.5.5h3.25m1.63 0h2.74"/><path fill="#000" d="M1233.5 607.5h-15a2 2 0 0 1-2-2v-15c0-1.1.9-2 2-2h15a2 2 0 0 1 2 2v15a2 2 0 0 1-2 2"/><path fill="#fff" d="M1233.5 606.5h-15a1 1 0 0 1-1-1v-15a1 1 0 0 1 1-1h15a1 1 0 0 1 1 1v15a1 1 0 0 1-1 1m-12.25-3.5h-1v-3h1Zm1.5 0h-1v-3h1Zm1.5 0h-1v-3h1Zm1.5 0h-1v-3h1Zm1.5 0h-1v-3h1Zm1.5 0h-1v-3h1Zm1.5 0h-1v-3h1Zm1.5 0h-1v-3h1Zm-8.75 1h1.63m2.74 0h4.88a.5.5 0 0 0 .5-.5v-8a.5.5 0 0 0-.5-.5h-2.75v-1.25a.5.5 0 0 0-.5-.5h-1.12v-.75a.5.5 0 0 0-.5-.5h-2.76a.5.5 0 0 0-.5.5v.75H1223a.5.5 0 0 0-.5.5V595h-2.75a.5.5 0 0 0-.5.5v8c0 .28.22.5.5.5h3.25m1.63 0h2.74"/><path fill="#000" d="M1257.5 607.5h-15a2 2 0 0 1-2-2v-15c0-1.1.9-2 2-2h15a2 2 0 0 1 2 2v15a2 2 0 0 1-2 2"/><path fill="#fff" d="M1257.5 606.5h-15a1 1 0 0 1-1-1v-15a1 1 0 0 1 1-1h15a1 1 0 0 1 1 1v15a1 1 0 0 1-1 1m-12.25-3.5h-1v-3h1Zm1.5 0h-1v-3h1Zm1.5 0h-1v-3h1Zm1.5 0h-1v-3h1Zm1.5 0h-1v-3h1Zm1.5 0h-1v-3h1Zm1.5 0h-1v-3h1Zm1.5 0h-1v-3h1Zm-8.75 1h1.63m2.74 0h4.88a.5.5 0 0 0 .5-.5v-8a.5.5 0 0 0-.5-.5h-2.75v-1.25a.5.5 0 0 0-.5-.5h-1.12v-.75a.5.5 0 0 0-.5-.5h-2.76a.5.5 0 0 0-.5.5v.75H1247a.5.5 0 0 0-.5.5V595h-2.75a.5.5 0 0 0-.5.5v8c0 .28.22.5.5.5h3.25m1.63 0h2.74"/><path fill="#000" d="M1281.5 607.5h-15a2 2 0 0 1-2-2v-15c0-1.1.9-2 2-2h15a2 2 0 0 1 2 2v15a2 2 0 0 1-2 2"/><path fill="#fff" d="M1281.5 606.5h-15a1 1 0 0 1-1-1v-15a1 1 0 0 1 1-1h15a1 1 0 0 1 1 1v15a1 1 0 0 1-1 1m-12.25-3.5h-1v-3h1Zm1.5 0h-1v-3h1Zm1.5 0h-1v-3h1Zm1.5 0h-1v-3h1Zm1.5 0h-1v-3h1Zm1.5 0h-1v-3h1Zm1.5 0h-1v-3h1Zm1.5 0h-1v-3h1Zm-8.75 1h1.63m2.74 0h4.88a.5.5 0 0 0 .5-.5v-8a.5.5 0 0 0-.5-.5h-2.75v-1.25a.5.5 0 0 0-.5-.5h-1.12v-.75a.5.5 0 0 0-.5-.5h-2.76a.5.5 0 0 0-.5.5v.75H1271a.5.5 0 0 0-.5.5V595h-2.75a.5.5 0 0 0-.5.5v8c0 .28.22.5.5.5h3.25m1.63 0h2.74"/><path fill="#000" d="M1305.5 607.5h-15a2 2 0 0 1-2-2v-15c0-1.1.9-2 2-2h15a2 2 0 0 1 2 2v15a2 2 0 0 1-2 2"/><path fill="#fff" d="M1305.5 606.5h-15a1 1 0 0 1-1-1v-15a1 1 0 0 1 1-1h15a1 1 0 0 1 1 1v15a1 1 0 0 1-1 1m-12.25-3.5h-1v-3h1Zm1.5 0h-1v-3h1Zm1.5 0h-1v-3h1Zm1.5 0h-1v-3h1Zm1.5 0h-1v-3h1Zm1.5 0h-1v-3h1Zm1.5 0h-1v-3h1Zm1.5 0h-1v-3h1Zm-8.75 1h1.63m2.74 0h4.88a.5.5 0 0 0 .5-.5v-8a.5.5 0 0 0-.5-.5h-2.75v-1.25a.5.5 0 0 0-.5-.5h-1.12v-.75a.5.5 0 0 0-.5-.5h-2.76a.5.5 0 0 0-.5.5v.75H1295a.5.5 0 0 0-.5.5V595h-2.75a.5.5 0 0 0-.5.5v8c0 .28.22.5.5.5h3.25m1.63 0h2.74"/><path fill="#ccc" d="M1410 580h-250l50-30h150Z"/><path stroke="#000" stroke-linecap="square" d="M1410 580h-250l50-30h150Z"/><path fill="#fff" d="M1259.34 555.83h51.33v18.34h-51.33z"/><path stroke="#000" stroke-linecap="round" stroke-linejoin="round" d="M1259.34 555.83h51.33v18.34h-51.33z"/><text fill="#000" transform="translate(1261.34 557.83)">
            <tspan xml:space="preserve" x="0" y="11" font-family="Helvetica Neue" font-size="12">lab-sw-3</tspan>
          </text><path fill="#999" d="M1160 80h250v60h-250z"/><path stroke="#000" stroke-linecap="square" d="M1160 80h250v60h-250z"/><path fill="#000" d="M1399.5 112.5h-15a2 2 0 0 0-2 2v15c0 1.1.9 2 2 2h15a2 2 0 0 0 2-2v-15a2 2 0 0 0-2-2"/><path fill="#fff" d="M1399.5 113.5h-15a1 1 0 0 0-1 1v15a1 1 0 0 0 1 1h15a1 1 0 0 0 1-1v-15a1 1 0 0 0-1-1m-12.25 3.5h-1v3h1Zm1.5 0h-1v3h1Zm1.5 0h-1v3h1Zm1.5 0h-1v3h1Zm1.5 0h-1v3h1Zm1.5 0h-1v3h1Zm1.5 0h-1v3h1Zm1.5 0h-1v3h1Zm-8.75-1h1.63m2.74 0h4.88c.28 0 .5.22.5.5v8a.5.5 0 0 1-.5.5h-2.75v1.25a.5.5 0 0 1-.5.5h-1.12v.75a.5.5 0 0 1-.5.5h-2.76a.5.5 0 0 1-.5-.5v-.75H1389a.5.5 0 0 1-.5-.5V125h-2.75a.5.5 0 0 1-.5-.5v-8c0-.28.22-.5.5-.5h3.25m1.63 0h2.74"/><path fill="#000" d="M1370.5 112.5h-15a2 2 0 0 0-2 2v15c0 1.1.9 2 2 2h15a2 2 0 0 0 2-2v-15a2 2 0 0 0-2-2"/><path fill="#fff" d="M1370.5 113.5h-15a1 1 0 0 0-1 1v15a1 1 0 0 0 1 1h15a1 1 0 0 0 1-1v-15a1 1 0 0 0-1-1m-12.25 3.5h-1v3h1Zm1.5 0h-1v3h1Zm1.5 0h-1v3h1Zm1.5 0h-1v3h1Zm1.5 0h-1v3h1Zm1.5 0h-1v3h1Zm1.5 0h-1v3h1Zm1.5 0h-1v3h1Zm-8.75-1h1.63m2.74 0h4.88c.28 0 .5.22.5.5v8a.5.5 0 0 1-.5.5h-2.75v1.25a.5.5 0 0 1-.5.5h-1.12v.75a.5.5 0 0 1-.5.5h-2.76a.5.5 0 0 1-.5-.5v-.75H1360a.5.5 0 0 1-.5-.5V125h-2.75a.5.5 0 0 1-.5-.5v-8c0-.28.22-.5.5-.5h3.25m1.63 0h2.74"/><path fill="#000" d="M1185.5 112.5h-15a2 2 0 0 0-2 2v15c0 1.1.9 2 2 2h15a2 2 0 0 0 2-2v-15a2 2 0 0 0-2-2"/><path fill="#fff" d="M1185.5 113.5h-15a1 1 0 0 0-1 1v15a1 1 0 0 0 1 1h15a1 1 0 0 0 1-1v-15a1 1 0 0 0-1-1m-12.25 3.5h-1v3h1Zm1.5 0h-1v3h1Zm1.5 0h-1v3h1Zm1.5 0h-1v3h1Zm1.5 0h-1v3h1Zm1.5 0h-1v3h1Zm1.5 0h-1v3h1Zm1.5 0h-1v3h1Zm-8.75-1h1.63m2.74 0h4.88c.28 0 .5.22.5.5v8a.5.5 0 0 1-.5.5h-2.75v1.25a.5.5 0 0 1-.5.5h-1.12v.75a.5.5 0 0 1-.5.5h-2.76a.5.5 0 0 1-.5-.5v-.75H1175a.5.5 0 0 1-.5-.5V125h-2.75a.5.5 0 0 1-.5-.5v-8c0-.28.22-.5.5-.5h3.25m1.63 0h2.74"/><path fill="#000" d="M1209.5 112.5h-15a2 2 0 0 0-2 2v15c0 1.1.9 2 2 2h15a2 2 0 0 0 2-2v-15a2 2 0 0 0-2-2"/><path fill="#fff" d="M1209.5 113.5h-15a1 1 0 0 0-1 1v15a1 1 0 0 0 1 1h15a1 1 0 0 0 1-1v-15a1 1 0 0 0-1-1m-12.25 3.5h-1v3h1Zm1.5 0h-1v3h1Zm1.5 0h-1v3h1Zm1.5 0h-1v3h1Zm1.5 0h-1v3h1Zm1.5 0h-1v3h1Zm1.5 0h-1v3h1Zm1.5 0h-1v3h1Zm-8.75-1h1.63m2.74 0h4.88c.28 0 .5.22.5.5v8a.5.5 0 0 1-.5.5h-2.75v1.25a.5.5 0 0 1-.5.5h-1.12v.75a.5.5 0 0 1-.5.5h-2.76a.5.5 0 0 1-.5-.5v-.75H1199a.5.5 0 0 1-.5-.5V125h-2.75a.5.5 0 0 1-.5-.5v-8c0-.28.22-.5.5-.5h3.25m1.63 0h2.74"/><path fill="#000" d="M1233.5 112.5h-15a2 2 0 0 0-2 2v15c0 1.1.9 2 2 2h15a2 2 0 0 0 2-2v-15a2 2 0 0 0-2-2"/><path fill="#fff" d="M1233.5 113.5h-15a1 1 0 0 0-1 1v15a1 1 0 0 0 1 1h15a1 1 0 0 0 1-1v-15a1 1 0 0 0-1-1m-12.25 3.5h-1v3h1Zm1.5 0h-1v3h1Zm1.5 0h-1v3h1Zm1.5 0h-1v3h1Zm1.5 0h-1v3h1Zm1.5 0h-1v3h1Zm1.5 0h-1v3h1Zm1.5 0h-1v3h1Zm-8.75-1h1.63m2.74 0h4.88c.28 0 .5.22.5.5v8a.5.5 0 0 1-.5.5h-2.75v1.25a.5.5 0 0 1-.5.5h-1.12v.75a.5.5 0 0 1-.5.5h-2.76a.5.5 0 0 1-.5-.5v-.75H1223a.5.5 0 0 1-.5-.5V125h-2.75a.5.5 0 0 1-.5-.5v-8c0-.28.22-.5.5-.5h3.25m1.63 0h2.74"/><path fill="#000" d="M1257.5 112.5h-15a2 2 0 0 0-2 2v15c0 1.1.9 2 2 2h15a2 2 0 0 0 2-2v-15a2 2 0 0 0-2-2"/><path fill="#fff" d="M1257.5 113.5h-15a1 1 0 0 0-1 1v15a1 1 0 0 0 1 1h15a1 1 0 0 0 1-1v-15a1 1 0 0 0-1-1m-12.25 3.5h-1v3h1Zm1.5 0h-1v3h1Zm1.5 0h-1v3h1Zm1.5 0h-1v3h1Zm1.5 0h-1v3h1Zm1.5 0h-1v3h1Zm1.5 0h-1v3h1Zm1.5 0h-1v3h1Zm-8.75-1h1.63m2.74 0h4.88c.28 0 .5.22.5.5v8a.5.5 0 0 1-.5.5h-2.75v1.25a.5.5 0 0 1-.5.5h-1.12v.75a.5.5 0 0 1-.5.5h-2.76a.5.5 0 0 1-.5-.5v-.75H1247a.5.5 0 0 1-.5-.5V125h-2.75a.5.5 0 0 1-.5-.5v-8c0-.28.22-.5.5-.5h3.25m1.63 0h2.74"/><path fill="#000" d="M1281.5 112.5h-15a2 2 0 0 0-2 2v15c0 1.1.9 2 2 2h15a2 2 0 0 0 2-2v-15a2 2 0 0 0-2-2"/><path fill="#fff" d="M1281.5 113.5h-15a1 1 0 0 0-1 1v15a1 1 0 0 0 1 1h15a1 1 0 0 0 1-1v-15a1 1 0 0 0-1-1m-12.25 3.5h-1v3h1Zm1.5 0h-1v3h1Zm1.5 0h-1v3h1Zm1.5 0h-1v3h1Zm1.5 0h-1v3h1Zm1.5 0h-1v3h1Zm1.5 0h-1v3h1Zm1.5 0h-1v3h1Zm-8.75-1h1.63m2.74 0h4.88c.28 0 .5.22.5.5v8a.5.5 0 0 1-.5.5h-2.75v1.25a.5.5 0 0 1-.5.5h-1.12v.75a.5.5 0 0 1-.5.5h-2.76a.5.5 0 0 1-.5-.5v-.75H1271a.5.5 0 0 1-.5-.5V125h-2.75a.5.5 0 0 1-.5-.5v-8c0-.28.22-.5.5-.5h3.25m1.63 0h2.74"/><path fill="#000" d="M1305.5 112.5h-15a2 2 0 0 0-2 2v15c0 1.1.9 2 2 2h15a2 2 0 0 0 2-2v-15a2 2 0 0 0-2-2"/><path fill="#fff" d="M1305.5 113.5h-15a1 1 0 0 0-1 1v15a1 1 0 0 0 1 1h15a1 1 0 0 0 1-1v-15a1 1 0 0 0-1-1m-12.25 3.5h-1v3h1Zm1.5 0h-1v3h1Zm1.5 0h-1v3h1Zm1.5 0h-1v3h1Zm1.5 0h-1v3h1Zm1.5 0h-1v3h1Zm1.5 0h-1v3h1Zm1.5 0h-1v3h1Zm-8.75-1h1.63m2.74 0h4.88c.28 0 .5.22.5.5v8a.5.5 0 0 1-.5.5h-2.75v1.25a.5.5 0 0 1-.5.5h-1.12v.75a.5.5 0 0 1-.5.5h-2.76a.5.5 0 0 1-.5-.5v-.75H1295a.5.5 0 0 1-.5-.5V125h-2.75a.5.5 0 0 1-.5-.5v-8c0-.28.22-.5.5-.5h3.25m1.63 0h2.74"/><path fill="#000" d="M1185.5 107.5h-15a2 2 0 0 1-2-2v-15c0-1.1.9-2 2-2h15a2 2 0 0 1 2 2v15a2 2 0 0 1-2 2"/><path fill="#fff" d="M1185.5 106.5h-15a1 1 0 0 1-1-1v-15a1 1 0 0 1 1-1h15a1 1 0 0 1 1 1v15a1 1 0 0 1-1 1m-12.25-3.5h-1v-3h1Zm1.5 0h-1v-3h1Zm1.5 0h-1v-3h1Zm1.5 0h-1v-3h1Zm1.5 0h-1v-3h1Zm1.5 0h-1v-3h1Zm1.5 0h-1v-3h1Zm1.5 0h-1v-3h1Zm-8.75 1h1.63m2.74 0h4.88a.5.5 0 0 0 .5-.5v-8a.5.5 0 0 0-.5-.5h-2.75v-1.25a.5.5 0 0 0-.5-.5h-1.12v-.75a.5.5 0 0 0-.5-.5h-2.76a.5.5 0 0 0-.5.5v.75H1175a.5.5 0 0 0-.5.5V95h-2.75a.5.5 0 0 0-.5.5v8c0 .28.22.5.5.5h3.25m1.63 0h2.74"/><path fill="#000" d="M1209.5 107.5h-15a2 2 0 0 1-2-2v-15c0-1.1.9-2 2-2h15a2 2 0 0 1 2 2v15a2 2 0 0 1-2 2"/><path fill="#fff" d="M1209.5 106.5h-15a1 1 0 0 1-1-1v-15a1 1 0 0 1 1-1h15a1 1 0 0 1 1 1v15a1 1 0 0 1-1 1m-12.25-3.5h-1v-3h1Zm1.5 0h-1v-3h1Zm1.5 0h-1v-3h1Zm1.5 0h-1v-3h1Zm1.5 0h-1v-3h1Zm1.5 0h-1v-3h1Zm1.5 0h-1v-3h1Zm1.5 0h-1v-3h1Zm-8.75 1h1.63m2.74 0h4.88a.5.5 0 0 0 .5-.5v-8a.5.5 0 0 0-.5-.5h-2.75v-1.25a.5.5 0 0 0-.5-.5h-1.12v-.75a.5.5 0 0 0-.5-.5h-2.76a.5.5 0 0 0-.5.5v.75H1199a.5.5 0 0 0-.5.5V95h-2.75a.5.5 0 0 0-.5.5v8c0 .28.22.5.5.5h3.25m1.63 0h2.74"/><path fill="#000" d="M1233.5 107.5h-15a2 2 0 0 1-2-2v-15c0-1.1.9-2 2-2h15a2 2 0 0 1 2 2v15a2 2 0 0 1-2 2"/><path fill="#fff" d="M1233.5 106.5h-15a1 1 0 0 1-1-1v-15a1 1 0 0 1 1-1h15a1 1 0 0 1 1 1v15a1 1 0 0 1-1 1m-12.25-3.5h-1v-3h1Zm1.5 0h-1v-3h1Zm1.5 0h-1v-3h1Zm1.5 0h-1v-3h1Zm1.5 0h-1v-3h1Zm1.5 0h-1v-3h1Zm1.5 0h-1v-3h1Zm1.5 0h-1v-3h1Zm-8.75 1h1.63m2.74 0h4.88a.5.5 0 0 0 .5-.5v-8a.5.5 0 0 0-.5-.5h-2.75v-1.25a.5.5 0 0 0-.5-.5h-1.12v-.75a.5.5 0 0 0-.5-.5h-2.76a.5.5 0 0 0-.5.5v.75H1223a.5.5 0 0 0-.5.5V95h-2.75a.5.5 0 0 0-.5.5v8c0 .28.22.5.5.5h3.25m1.63 0h2.74"/><path fill="#000" d="M1257.5 107.5h-15a2 2 0 0 1-2-2v-15c0-1.1.9-2 2-2h15a2 2 0 0 1 2 2v15a2 2 0 0 1-2 2"/><path fill="#fff" d="M1257.5 106.5h-15a1 1 0 0 1-1-1v-15a1 1 0 0 1 1-1h15a1 1 0 0 1 1 1v15a1 1 0 0 1-1 1m-12.25-3.5h-1v-3h1Zm1.5 0h-1v-3h1Zm1.5 0h-1v-3h1Zm1.5 0h-1v-3h1Zm1.5 0h-1v-3h1Zm1.5 0h-1v-3h1Zm1.5 0h-1v-3h1Zm1.5 0h-1v-3h1Zm-8.75 1h1.63m2.74 0h4.88a.5.5 0 0 0 .5-.5v-8a.5.5 0 0 0-.5-.5h-2.75v-1.25a.5.5 0 0 0-.5-.5h-1.12v-.75a.5.5 0 0 0-.5-.5h-2.76a.5.5 0 0 0-.5.5v.75H1247a.5.5 0 0 0-.5.5V95h-2.75a.5.5 0 0 0-.5.5v8c0 .28.22.5.5.5h3.25m1.63 0h2.74"/><path fill="#000" d="M1281.5 107.5h-15a2 2 0 0 1-2-2v-15c0-1.1.9-2 2-2h15a2 2 0 0 1 2 2v15a2 2 0 0 1-2 2"/><path fill="#fff" d="M1281.5 106.5h-15a1 1 0 0 1-1-1v-15a1 1 0 0 1 1-1h15a1 1 0 0 1 1 1v15a1 1 0 0 1-1 1m-12.25-3.5h-1v-3h1Zm1.5 0h-1v-3h1Zm1.5 0h-1v-3h1Zm1.5 0h-1v-3h1Zm1.5 0h-1v-3h1Zm1.5 0h-1v-3h1Zm1.5 0h-1v-3h1Zm1.5 0h-1v-3h1Zm-8.75 1h1.63m2.74 0h4.88a.5.5 0 0 0 .5-.5v-8a.5.5 0 0 0-.5-.5h-2.75v-1.25a.5.5 0 0 0-.5-.5h-1.12v-.75a.5.5 0 0 0-.5-.5h-2.76a.5.5 0 0 0-.5.5v.75H1271a.5.5 0 0 0-.5.5V95h-2.75a.5.5 0 0 0-.5.5v8c0 .28.22.5.5.5h3.25m1.63 0h2.74"/><path fill="#000" d="M1305.5 107.5h-15a2 2 0 0 1-2-2v-15c0-1.1.9-2 2-2h15a2 2 0 0 1 2 2v15a2 2 0 0 1-2 2"/><path fill="#fff" d="M1305.5 106.5h-15a1 1 0 0 1-1-1v-15a1 1 0 0 1 1-1h15a1 1 0 0 1 1 1v15a1 1 0 0 1-1 1m-12.25-3.5h-1v-3h1Zm1.5 0h-1v-3h1Zm1.5 0h-1v-3h1Zm1.5 0h-1v-3h1Zm1.5 0h-1v-3h1Zm1.5 0h-1v-3h1Zm1.5 0h-1v-3h1Zm1.5 0h-1v-3h1Zm-8.75 1h1.63m2.74 0h4.88a.5.5 0 0 0 .5-.5v-8a.5.5 0 0 0-.5-.5h-2.75v-1.25a.5.5 0 0 0-.5-.5h-1.12v-.75a.5.5 0 0 0-.5-.5h-2.76a.5.5 0 0 0-.5.5v.75H1295a.5.5 0 0 0-.5.5V95h-2.75a.5.5 0 0 0-.5.5v8c0 .28.22.5.5.5h3.25m1.63 0h2.74"/><path fill="#ccc" d="M1410 80h-250l50-30h150Z"/><path stroke="#000" stroke-linecap="square" d="M1410 80h-250l50-30h150Z"/><path fill="#fff" d="M1259.34 55.83h51.33v18.34h-51.33z"/><path stroke="#000" stroke-linecap="round" stroke-linejoin="round" d="M1259.34 55.83h51.33v18.34h-51.33z"/><text fill="#000" transform="translate(1261.34 57.83)">
            <tspan xml:space="preserve" x="0" y="11" font-family="Helvetica Neue" font-size="12">lab-sw-2</tspan>
          </text><path fill="#999" d="M460 80h250v60H460z"/><path stroke="#000" stroke-linecap="square" d="M460 80h250v60H460z"/><path fill="#000" d="M699.5 112.5h-15a2 2 0 0 0-2 2v15c0 1.1.9 2 2 2h15a2 2 0 0 0 2-2v-15a2 2 0 0 0-2-2"/><path fill="#fff" d="M699.5 113.5h-15a1 1 0 0 0-1 1v15a1 1 0 0 0 1 1h15a1 1 0 0 0 1-1v-15a1 1 0 0 0-1-1m-12.25 3.5h-1v3h1Zm1.5 0h-1v3h1Zm1.5 0h-1v3h1Zm1.5 0h-1v3h1Zm1.5 0h-1v3h1Zm1.5 0h-1v3h1Zm1.5 0h-1v3h1Zm1.5 0h-1v3h1Zm-8.75-1h1.63m2.75 0h4.87c.28 0 .5.22.5.5v8a.5.5 0 0 1-.5.5h-2.75v1.25a.5.5 0 0 1-.5.5h-1.12v.75a.5.5 0 0 1-.5.5h-2.75a.5.5 0 0 1-.5-.5v-.75H689a.5.5 0 0 1-.5-.5V125h-2.75a.5.5 0 0 1-.5-.5v-8c0-.28.22-.5.5-.5H689m1.63 0h2.75"/><path fill="#000" d="M670.5 112.5h-15a2 2 0 0 0-2 2v15c0 1.1.9 2 2 2h15a2 2 0 0 0 2-2v-15a2 2 0 0 0-2-2"/><path fill="#fff" d="M670.5 113.5h-15a1 1 0 0 0-1 1v15a1 1 0 0 0 1 1h15a1 1 0 0 0 1-1v-15a1 1 0 0 0-1-1m-12.25 3.5h-1v3h1Zm1.5 0h-1v3h1Zm1.5 0h-1v3h1Zm1.5 0h-1v3h1Zm1.5 0h-1v3h1Zm1.5 0h-1v3h1Zm1.5 0h-1v3h1Zm1.5 0h-1v3h1Zm-8.75-1h1.63m2.75 0h4.87c.28 0 .5.22.5.5v8a.5.5 0 0 1-.5.5h-2.75v1.25a.5.5 0 0 1-.5.5h-1.12v.75a.5.5 0 0 1-.5.5h-2.75a.5.5 0 0 1-.5-.5v-.75H660a.5.5 0 0 1-.5-.5V125h-2.75a.5.5 0 0 1-.5-.5v-8c0-.28.22-.5.5-.5H660m1.63 0h2.75"/><path fill="#000" d="M485.5 112.5h-15a2 2 0 0 0-2 2v15c0 1.1.9 2 2 2h15a2 2 0 0 0 2-2v-15a2 2 0 0 0-2-2"/><path fill="#fff" d="M485.5 113.5h-15a1 1 0 0 0-1 1v15a1 1 0 0 0 1 1h15a1 1 0 0 0 1-1v-15a1 1 0 0 0-1-1m-12.25 3.5h-1v3h1Zm1.5 0h-1v3h1Zm1.5 0h-1v3h1Zm1.5 0h-1v3h1Zm1.5 0h-1v3h1Zm1.5 0h-1v3h1Zm1.5 0h-1v3h1Zm1.5 0h-1v3h1Zm-8.75-1h1.63m2.75 0h4.87c.28 0 .5.22.5.5v8a.5.5 0 0 1-.5.5h-2.75v1.25a.5.5 0 0 1-.5.5h-1.12v.75a.5.5 0 0 1-.5.5h-2.75a.5.5 0 0 1-.5-.5v-.75H475a.5.5 0 0 1-.5-.5V125h-2.75a.5.5 0 0 1-.5-.5v-8c0-.28.22-.5.5-.5H475m1.63 0h2.75"/><path fill="#000" d="M509.5 112.5h-15a2 2 0 0 0-2 2v15c0 1.1.9 2 2 2h15a2 2 0 0 0 2-2v-15a2 2 0 0 0-2-2"/><path fill="#fff" d="M509.5 113.5h-15a1 1 0 0 0-1 1v15a1 1 0 0 0 1 1h15a1 1 0 0 0 1-1v-15a1 1 0 0 0-1-1m-12.25 3.5h-1v3h1Zm1.5 0h-1v3h1Zm1.5 0h-1v3h1Zm1.5 0h-1v3h1Zm1.5 0h-1v3h1Zm1.5 0h-1v3h1Zm1.5 0h-1v3h1Zm1.5 0h-1v3h1Zm-8.75-1h1.63m2.75 0h4.87c.28 0 .5.22.5.5v8a.5.5 0 0 1-.5.5h-2.75v1.25a.5.5 0 0 1-.5.5h-1.12v.75a.5.5 0 0 1-.5.5h-2.75a.5.5 0 0 1-.5-.5v-.75H499a.5.5 0 0 1-.5-.5V125h-2.75a.5.5 0 0 1-.5-.5v-8c0-.28.22-.5.5-.5H499m1.63 0h2.75"/><path fill="#000" d="M533.5 112.5h-15a2 2 0 0 0-2 2v15c0 1.1.9 2 2 2h15a2 2 0 0 0 2-2v-15a2 2 0 0 0-2-2"/><path fill="#fff" d="M533.5 113.5h-15a1 1 0 0 0-1 1v15a1 1 0 0 0 1 1h15a1 1 0 0 0 1-1v-15a1 1 0 0 0-1-1m-12.25 3.5h-1v3h1Zm1.5 0h-1v3h1Zm1.5 0h-1v3h1Zm1.5 0h-1v3h1Zm1.5 0h-1v3h1Zm1.5 0h-1v3h1Zm1.5 0h-1v3h1Zm1.5 0h-1v3h1Zm-8.75-1h1.63m2.75 0h4.87c.28 0 .5.22.5.5v8a.5.5 0 0 1-.5.5h-2.75v1.25a.5.5 0 0 1-.5.5h-1.12v.75a.5.5 0 0 1-.5.5h-2.75a.5.5 0 0 1-.5-.5v-.75H523a.5.5 0 0 1-.5-.5V125h-2.75a.5.5 0 0 1-.5-.5v-8c0-.28.22-.5.5-.5H523m1.63 0h2.75"/><path fill="#000" d="M557.5 112.5h-15a2 2 0 0 0-2 2v15c0 1.1.9 2 2 2h15a2 2 0 0 0 2-2v-15a2 2 0 0 0-2-2"/><path fill="#fff" d="M557.5 113.5h-15a1 1 0 0 0-1 1v15a1 1 0 0 0 1 1h15a1 1 0 0 0 1-1v-15a1 1 0 0 0-1-1m-12.25 3.5h-1v3h1Zm1.5 0h-1v3h1Zm1.5 0h-1v3h1Zm1.5 0h-1v3h1Zm1.5 0h-1v3h1Zm1.5 0h-1v3h1Zm1.5 0h-1v3h1Zm1.5 0h-1v3h1Zm-8.75-1h1.63m2.75 0h4.87c.28 0 .5.22.5.5v8a.5.5 0 0 1-.5.5h-2.75v1.25a.5.5 0 0 1-.5.5h-1.12v.75a.5.5 0 0 1-.5.5h-2.75a.5.5 0 0 1-.5-.5v-.75H547a.5.5 0 0 1-.5-.5V125h-2.75a.5.5 0 0 1-.5-.5v-8c0-.28.22-.5.5-.5H547m1.63 0h2.75"/><path fill="#000" d="M581.5 112.5h-15a2 2 0 0 0-2 2v15c0 1.1.9 2 2 2h15a2 2 0 0 0 2-2v-15a2 2 0 0 0-2-2"/><path fill="#fff" d="M581.5 113.5h-15a1 1 0 0 0-1 1v15a1 1 0 0 0 1 1h15a1 1 0 0 0 1-1v-15a1 1 0 0 0-1-1m-12.25 3.5h-1v3h1Zm1.5 0h-1v3h1Zm1.5 0h-1v3h1Zm1.5 0h-1v3h1Zm1.5 0h-1v3h1Zm1.5 0h-1v3h1Zm1.5 0h-1v3h1Zm1.5 0h-1v3h1Zm-8.75-1h1.63m2.75 0h4.87c.28 0 .5.22.5.5v8a.5.5 0 0 1-.5.5h-2.75v1.25a.5.5 0 0 1-.5.5h-1.12v.75a.5.5 0 0 1-.5.5h-2.75a.5.5 0 0 1-.5-.5v-.75H571a.5.5 0 0 1-.5-.5V125h-2.75a.5.5 0 0 1-.5-.5v-8c0-.28.22-.5.5-.5H571m1.63 0h2.75"/><path fill="#000" d="M605.5 112.5h-15a2 2 0 0 0-2 2v15c0 1.1.9 2 2 2h15a2 2 0 0 0 2-2v-15a2 2 0 0 0-2-2"/><path fill="#fff" d="M605.5 113.5h-15a1 1 0 0 0-1 1v15a1 1 0 0 0 1 1h15a1 1 0 0 0 1-1v-15a1 1 0 0 0-1-1m-12.25 3.5h-1v3h1Zm1.5 0h-1v3h1Zm1.5 0h-1v3h1Zm1.5 0h-1v3h1Zm1.5 0h-1v3h1Zm1.5 0h-1v3h1Zm1.5 0h-1v3h1Zm1.5 0h-1v3h1Zm-8.75-1h1.63m2.75 0h4.87c.28 0 .5.22.5.5v8a.5.5 0 0 1-.5.5h-2.75v1.25a.5.5 0 0 1-.5.5h-1.12v.75a.5.5 0 0 1-.5.5h-2.75a.5.5 0 0 1-.5-.5v-.75H595a.5.5 0 0 1-.5-.5V125h-2.75a.5.5 0 0 1-.5-.5v-8c0-.28.22-.5.5-.5H595m1.63 0h2.75"/><path fill="#000" d="M485.5 107.5h-15a2 2 0 0 1-2-2v-15c0-1.1.9-2 2-2h15a2 2 0 0 1 2 2v15a2 2 0 0 1-2 2"/><path fill="#fff" d="M485.5 106.5h-15a1 1 0 0 1-1-1v-15a1 1 0 0 1 1-1h15a1 1 0 0 1 1 1v15a1 1 0 0 1-1 1m-12.25-3.5h-1v-3h1Zm1.5 0h-1v-3h1Zm1.5 0h-1v-3h1Zm1.5 0h-1v-3h1Zm1.5 0h-1v-3h1Zm1.5 0h-1v-3h1Zm1.5 0h-1v-3h1Zm1.5 0h-1v-3h1Zm-8.75 1h1.63m2.75 0h4.87a.5.5 0 0 0 .5-.5v-8a.5.5 0 0 0-.5-.5h-2.75v-1.25a.5.5 0 0 0-.5-.5h-1.12v-.75a.5.5 0 0 0-.5-.5h-2.75a.5.5 0 0 0-.5.5v.75H475a.5.5 0 0 0-.5.5V95h-2.75a.5.5 0 0 0-.5.5v8c0 .28.22.5.5.5H475m1.63 0h2.75"/><path fill="#000" d="M509.5 107.5h-15a2 2 0 0 1-2-2v-15c0-1.1.9-2 2-2h15a2 2 0 0 1 2 2v15a2 2 0 0 1-2 2"/><path fill="#fff" d="M509.5 106.5h-15a1 1 0 0 1-1-1v-15a1 1 0 0 1 1-1h15a1 1 0 0 1 1 1v15a1 1 0 0 1-1 1m-12.25-3.5h-1v-3h1Zm1.5 0h-1v-3h1Zm1.5 0h-1v-3h1Zm1.5 0h-1v-3h1Zm1.5 0h-1v-3h1Zm1.5 0h-1v-3h1Zm1.5 0h-1v-3h1Zm1.5 0h-1v-3h1Zm-8.75 1h1.63m2.75 0h4.87a.5.5 0 0 0 .5-.5v-8a.5.5 0 0 0-.5-.5h-2.75v-1.25a.5.5 0 0 0-.5-.5h-1.12v-.75a.5.5 0 0 0-.5-.5h-2.75a.5.5 0 0 0-.5.5v.75H499a.5.5 0 0 0-.5.5V95h-2.75a.5.5 0 0 0-.5.5v8c0 .28.22.5.5.5H499m1.63 0h2.75"/><path fill="#000" d="M533.5 107.5h-15a2 2 0 0 1-2-2v-15c0-1.1.9-2 2-2h15a2 2 0 0 1 2 2v15a2 2 0 0 1-2 2"/><path fill="#fff" d="M533.5 106.5h-15a1 1 0 0 1-1-1v-15a1 1 0 0 1 1-1h15a1 1 0 0 1 1 1v15a1 1 0 0 1-1 1m-12.25-3.5h-1v-3h1Zm1.5 0h-1v-3h1Zm1.5 0h-1v-3h1Zm1.5 0h-1v-3h1Zm1.5 0h-1v-3h1Zm1.5 0h-1v-3h1Zm1.5 0h-1v-3h1Zm1.5 0h-1v-3h1Zm-8.75 1h1.63m2.75 0h4.87a.5.5 0 0 0 .5-.5v-8a.5.5 0 0 0-.5-.5h-2.75v-1.25a.5.5 0 0 0-.5-.5h-1.12v-.75a.5.5 0 0 0-.5-.5h-2.75a.5.5 0 0 0-.5.5v.75H523a.5.5 0 0 0-.5.5V95h-2.75a.5.5 0 0 0-.5.5v8c0 .28.22.5.5.5H523m1.63 0h2.75"/><path fill="#000" d="M557.5 107.5h-15a2 2 0 0 1-2-2v-15c0-1.1.9-2 2-2h15a2 2 0 0 1 2 2v15a2 2 0 0 1-2 2"/><path fill="#fff" d="M557.5 106.5h-15a1 1 0 0 1-1-1v-15a1 1 0 0 1 1-1h15a1 1 0 0 1 1 1v15a1 1 0 0 1-1 1m-12.25-3.5h-1v-3h1Zm1.5 0h-1v-3h1Zm1.5 0h-1v-3h1Zm1.5 0h-1v-3h1Zm1.5 0h-1v-3h1Zm1.5 0h-1v-3h1Zm1.5 0h-1v-3h1Zm1.5 0h-1v-3h1Zm-8.75 1h1.63m2.75 0h4.87a.5.5 0 0 0 .5-.5v-8a.5.5 0 0 0-.5-.5h-2.75v-1.25a.5.5 0 0 0-.5-.5h-1.12v-.75a.5.5 0 0 0-.5-.5h-2.75a.5.5 0 0 0-.5.5v.75H547a.5.5 0 0 0-.5.5V95h-2.75a.5.5 0 0 0-.5.5v8c0 .28.22.5.5.5H547m1.63 0h2.75"/><path fill="#000" d="M581.5 107.5h-15a2 2 0 0 1-2-2v-15c0-1.1.9-2 2-2h15a2 2 0 0 1 2 2v15a2 2 0 0 1-2 2"/><path fill="#fff" d="M581.5 106.5h-15a1 1 0 0 1-1-1v-15a1 1 0 0 1 1-1h15a1 1 0 0 1 1 1v15a1 1 0 0 1-1 1m-12.25-3.5h-1v-3h1Zm1.5 0h-1v-3h1Zm1.5 0h-1v-3h1Zm1.5 0h-1v-3h1Zm1.5 0h-1v-3h1Zm1.5 0h-1v-3h1Zm1.5 0h-1v-3h1Zm1.5 0h-1v-3h1Zm-8.75 1h1.63m2.75 0h4.87a.5.5 0 0 0 .5-.5v-8a.5.5 0 0 0-.5-.5h-2.75v-1.25a.5.5 0 0 0-.5-.5h-1.12v-.75a.5.5 0 0 0-.5-.5h-2.75a.5.5 0 0 0-.5.5v.75H571a.5.5 0 0 0-.5.5V95h-2.75a.5.5 0 0 0-.5.5v8c0 .28.22.5.5.5H571m1.63 0h2.75"/><path fill="#000" d="M605.5 107.5h-15a2 2 0 0 1-2-2v-15c0-1.1.9-2 2-2h15a2 2 0 0 1 2 2v15a2 2 0 0 1-2 2"/><path fill="#fff" d="M605.5 106.5h-15a1 1 0 0 1-1-1v-15a1 1 0 0 1 1-1h15a1 1 0 0 1 1 1v15a1 1 0 0 1-1 1m-12.25-3.5h-1v-3h1Zm1.5 0h-1v-3h1Zm1.5 0h-1v-3h1Zm1.5 0h-1v-3h1Zm1.5 0h-1v-3h1Zm1.5 0h-1v-3h1Zm1.5 0h-1v-3h1Zm1.5 0h-1v-3h1Zm-8.75 1h1.63m2.75 0h4.87a.5.5 0 0 0 .5-.5v-8a.5.5 0 0 0-.5-.5h-2.75v-1.25a.5.5 0 0 0-.5-.5h-1.12v-.75a.5.5 0 0 0-.5-.5h-2.75a.5.5 0 0 0-.5.5v.75H595a.5.5 0 0 0-.5.5V95h-2.75a.5.5 0 0 0-.5.5v8c0 .28.22.5.5.5H595m1.63 0h2.75"/><path fill="#ccc" d="M710 80H460l50-30h150Z"/><path stroke="#000" stroke-linecap="square" d="M710 80H460l50-30h150Z"/><path fill="#fff" d="M559.34 55.83h51.33v18.34h-51.33z"/><path stroke="#000" stroke-linecap="round" stroke-linejoin="round" d="M559.34 55.83h51.33v18.34h-51.33z"/><text fill="#000" transform="translate(561.34 57.83)">
            <tspan xml:space="preserve" x="0" y="11" font-family="Helvetica Neue" font-size="12">lab-sw-1</tspan>
          </text><path fill="#fff" d="M185 50h245v191.89H185z"/><path stroke="#000" stroke-linecap="round" stroke-linejoin="round" d="M185 50h245v191.89H185z"/><path fill="#fff" d="M295 203.51h125v28.38H295z"/><path stroke="#000" stroke-linecap="round" stroke-linejoin="round" d="M295 203.51h125v28.38H295z"/><text fill="#000" transform="translate(300 208.48)">
                  <tspan xml:space="preserve" x="0" y="15" font-family="Helvetica Neue" font-size="16">10.1.11.1/24</tspan>
                </text><path fill="#fff" d="M195 203.51h100v28.38H195z"/><path stroke="#000" stroke-linecap="round" stroke-linejoin="round" d="M195 203.51h100v28.38H195z"/><text fill="#000" transform="translate(200 208.48)">
                  <tspan xml:space="preserve" x="0" y="15" font-family="Helvetica Neue" font-size="16">irb.111</tspan>
                </text><path fill="#fff" d="M295 175.13h125v28.38H295z"/><path stroke="#000" stroke-linecap="round" stroke-linejoin="round" d="M295 175.13h125v28.38H295z"/><text fill="#000" transform="translate(300 180.1)">
                  <tspan xml:space="preserve" x="0" y="15" font-family="Helvetica Neue" font-size="16">10.1.10.1/24</tspan>
                </text><path fill="#fff" d="M195 175.13h100v28.38H195z"/><path stroke="#000" stroke-linecap="round" stroke-linejoin="round" d="M195 175.13h100v28.38H195z"/><text fill="#000" transform="translate(200 180.1)">
                  <tspan xml:space="preserve" x="0" y="15" font-family="Helvetica Neue" font-size="16">irb.110</tspan>
                </text><path fill="#fff" d="M295 146.74h125v28.38H295z"/><path stroke="#000" stroke-linecap="round" stroke-linejoin="round" d="M295 146.74h125v28.38H295z"/><text fill="#000" transform="translate(300 151.71)">
                  <tspan xml:space="preserve" x="0" y="15" font-family="Helvetica Neue" font-size="16">10.1.0.1/32</tspan>
                </text><path fill="#fff" d="M195 146.74h100v28.38H195z"/><path stroke="#000" stroke-linecap="round" stroke-linejoin="round" d="M195 146.74h100v28.38H195z"/><text fill="#000" transform="translate(200 151.71)">
                  <tspan xml:space="preserve" x="0" y="15" font-family="Helvetica Neue" font-size="16">lo0.0</tspan>
                </text><path fill="#ccc" d="M295 117.91h125v28.83H295z"/><path stroke="#000" stroke-linecap="round" stroke-linejoin="round" d="M295 117.91h125v28.83H295z"/><text fill="#000" transform="translate(300 123.1)">
                  <tspan xml:space="preserve" x="0" y="15" font-family="Helvetica Neue" font-size="16">IPv4 Address</tspan>
                </text><path fill="#ccc" d="M195 117.91h100v28.83H195z"/><path stroke="#000" stroke-linecap="round" stroke-linejoin="round" d="M195 117.91h100v28.83H195z"/><text fill="#000" transform="translate(200 123.1)">
                  <tspan xml:space="preserve" x="0" y="15" font-family="Helvetica Neue" font-size="16">Name</tspan>
                </text><path fill="#999" d="M195 89.46h225v28.45H195z"/><path stroke="#000" stroke-linecap="round" stroke-linejoin="round" d="M195 89.46h225v28.45H195z"/><text fill="#000" transform="translate(200 94.46)">
                <tspan xml:space="preserve" x="0" y="15" font-family="Helvetica Neue" font-size="16">Interfaces</tspan>
              </text><text fill="#000" transform="translate(200 55)">
              <tspan xml:space="preserve" x="0" y="16" font-family="Helvetica Neue" font-size="16" font-weight="bold">lab-sw-1</tspan>
            </text><path fill="#fff" d="M185 550h245v191.89H185z"/><path stroke="#000" stroke-linecap="round" stroke-linejoin="round" d="M185 550h245v191.89H185z"/><path fill="#fff" d="M295 703.51h125v28.38H295z"/><path stroke="#000" stroke-linecap="round" stroke-linejoin="round" d="M295 703.51h125v28.38H295z"/><text fill="#000" transform="translate(300 708.48)">
                  <tspan xml:space="preserve" x="0" y="15" font-family="Helvetica Neue" font-size="16">10.4.11.1/24</tspan>
                </text><path fill="#fff" d="M195 703.51h100v28.38H195z"/><path stroke="#000" stroke-linecap="round" stroke-linejoin="round" d="M195 703.51h100v28.38H195z"/><text fill="#000" transform="translate(200 708.48)">
                  <tspan xml:space="preserve" x="0" y="15" font-family="Helvetica Neue" font-size="16">irb.411</tspan>
                </text><path fill="#fff" d="M295 675.13h125v28.38H295z"/><path stroke="#000" stroke-linecap="round" stroke-linejoin="round" d="M295 675.13h125v28.38H295z"/><text fill="#000" transform="translate(300 680.1)">
                  <tspan xml:space="preserve" x="0" y="15" font-family="Helvetica Neue" font-size="16">10.4.10.1/24</tspan>
                </text><path fill="#fff" d="M195 675.13h100v28.38H195z"/><path stroke="#000" stroke-linecap="round" stroke-linejoin="round" d="M195 675.13h100v28.38H195z"/><text fill="#000" transform="translate(200 680.1)">
                  <tspan xml:space="preserve" x="0" y="15" font-family="Helvetica Neue" font-size="16">irb.410</tspan>
                </text><path fill="#fff" d="M295 646.74h125v28.38H295z"/><path stroke="#000" stroke-linecap="round" stroke-linejoin="round" d="M295 646.74h125v28.38H295z"/><text fill="#000" transform="translate(300 651.71)">
                  <tspan xml:space="preserve" x="0" y="15" font-family="Helvetica Neue" font-size="16">10.4.0.1/32</tspan>
                </text><path fill="#fff" d="M195 646.74h100v28.38H195z"/><path stroke="#000" stroke-linecap="round" stroke-linejoin="round" d="M195 646.74h100v28.38H195z"/><text fill="#000" transform="translate(200 651.71)">
                  <tspan xml:space="preserve" x="0" y="15" font-family="Helvetica Neue" font-size="16">lo0.0</tspan>
                </text><path fill="#ccc" d="M295 617.91h125v28.83H295z"/><path stroke="#000" stroke-linecap="round" stroke-linejoin="round" d="M295 617.91h125v28.83H295z"/><text fill="#000" transform="translate(300 623.1)">
                  <tspan xml:space="preserve" x="0" y="15" font-family="Helvetica Neue" font-size="16">IPv4 Address</tspan>
                </text><path fill="#ccc" d="M195 617.91h100v28.83H195z"/><path stroke="#000" stroke-linecap="round" stroke-linejoin="round" d="M195 617.91h100v28.83H195z"/><text fill="#000" transform="translate(200 623.1)">
                  <tspan xml:space="preserve" x="0" y="15" font-family="Helvetica Neue" font-size="16">Name</tspan>
                </text><path fill="#999" d="M195 589.46h225v28.45H195z"/><path stroke="#000" stroke-linecap="round" stroke-linejoin="round" d="M195 589.46h225v28.45H195z"/><text fill="#000" transform="translate(200 594.46)">
                <tspan xml:space="preserve" x="0" y="15" font-family="Helvetica Neue" font-size="16">Interfaces</tspan>
              </text><text fill="#000" transform="translate(200 555)">
              <tspan xml:space="preserve" x="0" y="16" font-family="Helvetica Neue" font-size="16" font-weight="bold">lab-sw-4</tspan>
            </text><path fill="#fff" d="M1440 550h245v191.89h-245z"/><path stroke="#000" stroke-linecap="round" stroke-linejoin="round" d="M1440 550h245v191.89h-245z"/><path fill="#fff" d="M1550 703.51h125v28.38h-125z"/><path stroke="#000" stroke-linecap="round" stroke-linejoin="round" d="M1550 703.51h125v28.38h-125z"/><text fill="#000" transform="translate(1555 708.48)">
                  <tspan xml:space="preserve" x="0" y="15" font-family="Helvetica Neue" font-size="16">10.3.11.1/24</tspan>
                </text><path fill="#fff" d="M1450 703.51h100v28.38h-100z"/><path stroke="#000" stroke-linecap="round" stroke-linejoin="round" d="M1450 703.51h100v28.38h-100z"/><text fill="#000" transform="translate(1455 708.48)">
                  <tspan xml:space="preserve" x="0" y="15" font-family="Helvetica Neue" font-size="16">irb.311</tspan>
                </text><path fill="#fff" d="M1550 675.13h125v28.38h-125z"/><path stroke="#000" stroke-linecap="round" stroke-linejoin="round" d="M1550 675.13h125v28.38h-125z"/><text fill="#000" transform="translate(1555 680.1)">
                  <tspan xml:space="preserve" x="0" y="15" font-family="Helvetica Neue" font-size="16">10.3.10.1/24</tspan>
                </text><path fill="#fff" d="M1450 675.13h100v28.38h-100z"/><path stroke="#000" stroke-linecap="round" stroke-linejoin="round" d="M1450 675.13h100v28.38h-100z"/><text fill="#000" transform="translate(1455 680.1)">
                  <tspan xml:space="preserve" x="0" y="15" font-family="Helvetica Neue" font-size="16">irb.310</tspan>
                </text><path fill="#fff" d="M1550 646.74h125v28.38h-125z"/><path stroke="#000" stroke-linecap="round" stroke-linejoin="round" d="M1550 646.74h125v28.38h-125z"/><text fill="#000" transform="translate(1555 651.71)">
                  <tspan xml:space="preserve" x="0" y="15" font-family="Helvetica Neue" font-size="16">10.3.0.1/32</tspan>
                </text><path fill="#fff" d="M1450 646.74h100v28.38h-100z"/><path stroke="#000" stroke-linecap="round" stroke-linejoin="round" d="M1450 646.74h100v28.38h-100z"/><text fill="#000" transform="translate(1455 651.71)">
                  <tspan xml:space="preserve" x="0" y="15" font-family="Helvetica Neue" font-size="16">lo0.0</tspan>
                </text><path fill="#ccc" d="M1550 617.91h125v28.83h-125z"/><path stroke="#000" stroke-linecap="round" stroke-linejoin="round" d="M1550 617.91h125v28.83h-125z"/><text fill="#000" transform="translate(1555 623.1)">
                  <tspan xml:space="preserve" x="0" y="15" font-family="Helvetica Neue" font-size="16">IPv4 Address</tspan>
                </text><path fill="#ccc" d="M1450 617.91h100v28.83h-100z"/><path stroke="#000" stroke-linecap="round" stroke-linejoin="round" d="M1450 617.91h100v28.83h-100z"/><text fill="#000" transform="translate(1455 623.1)">
                  <tspan xml:space="preserve" x="0" y="15" font-family="Helvetica Neue" font-size="16">Name</tspan>
                </text><path fill="#999" d="M1450 589.46h225v28.45h-225z"/><path stroke="#000" stroke-linecap="round" stroke-linejoin="round" d="M1450 589.46h225v28.45h-225z"/><text fill="#000" transform="translate(1455 594.46)">
                <tspan xml:space="preserve" x="0" y="15" font-family="Helvetica Neue" font-size="16">Interfaces</tspan>
              </text><text fill="#000" transform="translate(1455 555)">
              <tspan xml:space="preserve" x="0" y="16" font-family="Helvetica Neue" font-size="16" font-weight="bold">lab-sw-3</tspan>
            </text><path fill="#fff" d="M1440 50h245v191.89h-245z"/><path stroke="#000" stroke-linecap="round" stroke-linejoin="round" d="M1440 50h245v191.89h-245z"/><path fill="#fff" d="M1550 203.51h125v28.38h-125z"/><path stroke="#000" stroke-linecap="round" stroke-linejoin="round" d="M1550 203.51h125v28.38h-125z"/><text fill="#000" transform="translate(1555 208.48)">
                  <tspan xml:space="preserve" x="0" y="15" font-family="Helvetica Neue" font-size="16">10.2.11.1/24</tspan>
                </text><path fill="#fff" d="M1450 203.51h100v28.38h-100z"/><path stroke="#000" stroke-linecap="round" stroke-linejoin="round" d="M1450 203.51h100v28.38h-100z"/><text fill="#000" transform="translate(1455 208.48)">
                  <tspan xml:space="preserve" x="0" y="15" font-family="Helvetica Neue" font-size="16">irb.211</tspan>
                </text><path fill="#fff" d="M1550 175.13h125v28.38h-125z"/><path stroke="#000" stroke-linecap="round" stroke-linejoin="round" d="M1550 175.13h125v28.38h-125z"/><text fill="#000" transform="translate(1555 180.1)">
                  <tspan xml:space="preserve" x="0" y="15" font-family="Helvetica Neue" font-size="16">10.2.10.1/24</tspan>
                </text><path fill="#fff" d="M1450 175.13h100v28.38h-100z"/><path stroke="#000" stroke-linecap="round" stroke-linejoin="round" d="M1450 175.13h100v28.38h-100z"/><text fill="#000" transform="translate(1455 180.1)">
                  <tspan xml:space="preserve" x="0" y="15" font-family="Helvetica Neue" font-size="16">irb.210</tspan>
                </text><path fill="#fff" d="M1550 146.74h125v28.38h-125z"/><path stroke="#000" stroke-linecap="round" stroke-linejoin="round" d="M1550 146.74h125v28.38h-125z"/><text fill="#000" transform="translate(1555 151.71)">
                  <tspan xml:space="preserve" x="0" y="15" font-family="Helvetica Neue" font-size="16">10.2.0.1/32</tspan>
                </text><path fill="#fff" d="M1450 146.74h100v28.38h-100z"/><path stroke="#000" stroke-linecap="round" stroke-linejoin="round" d="M1450 146.74h100v28.38h-100z"/><text fill="#000" transform="translate(1455 151.71)">
                  <tspan xml:space="preserve" x="0" y="15" font-family="Helvetica Neue" font-size="16">lo0.0</tspan>
                </text><path fill="#ccc" d="M1550 117.91h125v28.83h-125z"/><path stroke="#000" stroke-linecap="round" stroke-linejoin="round" d="M1550 117.91h125v28.83h-125z"/><text fill="#000" transform="translate(1555 123.1)">
                  <tspan xml:space="preserve" x="0" y="15" font-family="Helvetica Neue" font-size="16">IPv4 Address</tspan>
                </text><path fill="#ccc" d="M1450 117.91h100v28.83h-100z"/><path stroke="#000" stroke-linecap="round" stroke-linejoin="round" d="M1450 117.91h100v28.83h-100z"/><text fill="#000" transform="translate(1455 123.1)">
                  <tspan xml:space="preserve" x="0" y="15" font-family="Helvetica Neue" font-size="16">Name</tspan>
                </text><path fill="#999" d="M1450 89.46h225v28.45h-225z"/><path stroke="#000" stroke-linecap="round" stroke-linejoin="round" d="M1450 89.46h225v28.45h-225z"/><text fill="#000" transform="translate(1455 94.46)">
                <tspan xml:space="preserve" x="0" y="15" font-family="Helvetica Neue" font-size="16">Interfaces</tspan>
              </text><text fill="#000" transform="translate(1455 55)">
              <tspan xml:space="preserve" x="0" y="16" font-family="Helvetica Neue" font-size="16" font-weight="bold">lab-sw-2</tspan>
            </text></g></svg>