<svg xmlns="http://www.w3.org/2000/svg" viewBox="0 0 1870 1047.35" xmlns:xlink="http://www.w3.org/1999/xlink"><defs><marker id="a" stroke-linejoin="miter" stroke-miterlimit="10" color="#000" markerHeight="6" markerUnits="strokeWidth" markerWidth="6" orient="auto" overflow="visible" viewBox="-1 -3 6 6"><circle cx="1.8" r="1.8" fill="currentColor" stroke="currentColor"/></marker><marker id="b" stroke-linejoin="miter" stroke-miterlimit="10" color="#000" markerHeight="6" markerUnits="strokeWidth" markerWidth="6" orient="auto" overflow="visible" viewBox="-5 -3 6 6"><circle cx="-1.8" r="1.8" fill="currentColor" stroke="currentColor"/></marker></defs><g fill="none"><path fill="#8f9abf" d="M0 0h1870v1047.35H0z"/><path fill="#999" d="M460 580h250v60H460z"/><path stroke="#000" stroke-linecap="square" d="M460 580h250v60H460z"/><path fill="#000" d="M699.5 612.5h-15a2 2 0 0 0-2 2v15c0 1.1.9 2 2 2h15a2 2 0 0 0 2-2v-15a2 2 0 0 0-2-2"/><path fill="#fff" d="M699.5 613.5h-15a1 1 0 0 0-1 1v15a1 1 0 0 0 1 1h15a1 1 0 0 0 1-1v-15a1 1 0 0 0-1-1m-12.25 3.5h-1v3h1Zm1.5 0h-1v3h1Zm1.5 0h-1v3h1Zm1.5 0h-1v3h1Zm1.5 0h-1v3h1Zm1.5 0h-1v3h1Zm1.5 0h-1v3h1Zm1.5 0h-1v3h1Zm-8.75-1h1.63m2.75 0h4.87c.28 0 .5.22.5.5v8a.5.5 0 0 1-.5.5h-2.75v1.25a.5.5 0 0 1-.5.5h-1.12v.75a.5.5 0 0 1-.5.5h-2.75a.5.5 0 0 1-.5-.5v-.75H689a.5.5 0 0 1-.5-.5V625h-2.75a.5.5 0 0 1-.5-.5v-8c0-.28.22-.5.5-.5H689m1.63 0h2.75"/><path fill="#000" d="M670.5 612.5h-15a2 2 0 0 0-2 2v15c0 1.1.9 2 2 2h15a2 2 0 0 0 2-2v-15a2 2 0 0 0-2-2"/><path fill="#fff" d="M670.5 613.5h-15a1 1 0 0 0-1 1v15a1 1 0 0 0 1 1h15a1 1 0 0 0 1-1v-15a1 1 0 0 0-1-1m-12.25 3.5h-1v3h1Zm1.5 0h-1v3h1Zm1.5 0h-1v3h1Zm1.5 0h-1v3h1Zm1.5 0h-1v3h1Zm1.5 0h-1v3h1Zm1.5 0h-1v3h1Zm1.5 0h-1v3h1Zm-8.75-1h1.63m2.75 0h4.87c.28 0 .5.22.5.5v8a.5.5 0 0 1-.5.5h-2.75v1.25a.5.5 0 0 1-.5.5h-1.12v.75a.5.5 0 0 1-.5.5h-2.75a.5.5 0 0 1-.5-.5v-.75H660a.5.5 0 0 1-.5-.5V625h-2.75a.5.5 0 0 1-.5-.5v-8c0-.28.22-.5.5-.5H660m1.63 0h2.75"/><path fill="#000" d="M485.5 612.5h-15a2 2 0 0 0-2 2v15c0 1.1.9 2 2 2h15a2 2 0 0 0 2-2v-15a2 2 0 0 0-2-2"/><path fill="#fff" d="M485.5 613.5h-15a1 1 0 0 0-1 1v15a1 1 0 0 0 1 1h15a1 1 0 0 0 1-1v-15a1 1 0 0 0-1-1m-12.25 3.5h-1v3h1Zm1.5 0h-1v3h1Zm1.5 0h-1v3h1Zm1.5 0h-1v3h1Zm1.5 0h-1v3h1Zm1.5 0h-1v3h1Zm1.5 0h-1v3h1Zm1.5 0h-1v3h1Zm-8.75-1h1.63m2.75 0h4.87c.28 0 .5.22.5.5v8a.5.5 0 0 1-.5.5h-2.75v1.25a.5.5 0 0 1-.5.5h-1.12v.75a.5.5 0 0 1-.5.5h-2.75a.5.5 0 0 1-.5-.5v-.75H475a.5.5 0 0 1-.5-.5V625h-2.75a.5.5 0 0 1-.5-.5v-8c0-.28.22-.5.5-.5H475m1.63 0h2.75"/><path fill="#000" d="M509.5 612.5h-15a2 2 0 0 0-2 2v15c0 1.1.9 2 2 2h15a2 2 0 0 0 2-2v-15a2 2 0 0 0-2-2"/><path fill="#fff" d="M509.5 613.5h-15a1 1 0 0 0-1 1v15a1 1 0 0 0 1 1h15a1 1 0 0 0 1-1v-15a1 1 0 0 0-1-1m-12.25 3.5h-1v3h1Zm1.5 0h-1v3h1Zm1.5 0h-1v3h1Zm1.5 0h-1v3h1Zm1.5 0h-1v3h1Zm1.5 0h-1v3h1Zm1.5 0h-1v3h1Zm1.5 0h-1v3h1Zm-8.75-1h1.63m2.75 0h4.87c.28 0 .5.22.5.5v8a.5.5 0 0 1-.5.5h-2.75v1.25a.5.5 0 0 1-.5.5h-1.12v.75a.5.5 0 0 1-.5.5h-2.75a.5.5 0 0 1-.5-.5v-.75H499a.5.5 0 0 1-.5-.5V625h-2.75a.5.5 0 0 1-.5-.5v-8c0-.28.22-.5.5-.5H499m1.63 0h2.75"/><path fill="#000" d="M533.5 612.5h-15a2 2 0 0 0-2 2v15c0 1.1.9 2 2 2h15a2 2 0 0 0 2-2v-15a2 2 0 0 0-2-2"/><path fill="#fff" d="M533.5 613.5h-15a1 1 0 0 0-1 1v15a1 1 0 0 0 1 1h15a1 1 0 0 0 1-1v-15a1 1 0 0 0-1-1m-12.25 3.5h-1v3h1Zm1.5 0h-1v3h1Zm1.5 0h-1v3h1Zm1.5 0h-1v3h1Zm1.5 0h-1v3h1Zm1.5 0h-1v3h1Zm1.5 0h-1v3h1Zm1.5 0h-1v3h1Zm-8.75-1h1.63m2.75 0h4.87c.28 0 .5.22.5.5v8a.5.5 0 0 1-.5.5h-2.75v1.25a.5.5 0 0 1-.5.5h-1.12v.75a.5.5 0 0 1-.5.5h-2.75a.5.5 0 0 1-.5-.5v-.75H523a.5.5 0 0 1-.5-.5V625h-2.75a.5.5 0 0 1-.5-.5v-8c0-.28.22-.5.5-.5H523m1.63 0h2.75"/><path fill="#000" d="M557.5 612.5h-15a2 2 0 0 0-2 2v15c0 1.1.9 2 2 2h15a2 2 0 0 0 2-2v-15a2 2 0 0 0-2-2"/><path fill="#fff" d="M557.5 613.5h-15a1 1 0 0 0-1 1v15a1 1 0 0 0 1 1h15a1 1 0 0 0 1-1v-15a1 1 0 0 0-1-1m-12.25 3.5h-1v3h1Zm1.5 0h-1v3h1Zm1.5 0h-1v3h1Zm1.5 0h-1v3h1Zm1.5 0h-1v3h1Zm1.5 0h-1v3h1Zm1.5 0h-1v3h1Zm1.5 0h-1v3h1Zm-8.75-1h1.63m2.75 0h4.87c.28 0 .5.22.5.5v8a.5.5 0 0 1-.5.5h-2.75v1.25a.5.5 0 0 1-.5.5h-1.12v.75a.5.5 0 0 1-.5.5h-2.75a.5.5 0 0 1-.5-.5v-.75H547a.5.5 0 0 1-.5-.5V625h-2.75a.5.5 0 0 1-.5-.5v-8c0-.28.22-.5.5-.5H547m1.63 0h2.75"/><path fill="#000" d="M581.5 612.5h-15a2 2 0 0 0-2 2v15c0 1.1.9 2 2 2h15a2 2 0 0 0 2-2v-15a2 2 0 0 0-2-2"/><path fill="#fff" d="M581.5 613.5h-15a1 1 0 0 0-1 1v15a1 1 0 0 0 1 1h15a1 1 0 0 0 1-1v-15a1 1 0 0 0-1-1m-12.25 3.5h-1v3h1Zm1.5 0h-1v3h1Zm1.5 0h-1v3h1Zm1.5 0h-1v3h1Zm1.5 0h-1v3h1Zm1.5 0h-1v3h1Zm1.5 0h-1v3h1Zm1.5 0h-1v3h1Zm-8.75-1h1.63m2.75 0h4.87c.28 0 .5.22.5.5v8a.5.5 0 0 1-.5.5h-2.75v1.25a.5.5 0 0 1-.5.5h-1.12v.75a.5.5 0 0 1-.5.5h-2.75a.5.5 0 0 1-.5-.5v-.75H571a.5.5 0 0 1-.5-.5V625h-2.75a.5.5 0 0 1-.5-.5v-8c0-.28.22-.5.5-.5H571m1.63 0h2.75"/><path fill="#000" d="M605.5 612.5h-15a2 2 0 0 0-2 2v15c0 1.1.9 2 2 2h15a2 2 0 0 0 2-2v-15a2 2 0 0 0-2-2"/><path fill="#fff" d="M605.5 613.5h-15a1 1 0 0 0-1 1v15a1 1 0 0 0 1 1h15a1 1 0 0 0 1-1v-15a1 1 0 0 0-1-1m-12.25 3.5h-1v3h1Zm1.5 0h-1v3h1Zm1.5 0h-1v3h1Zm1.5 0h-1v3h1Zm1.5 0h-1v3h1Zm1.5 0h-1v3h1Zm1.5 0h-1v3h1Zm1.5 0h-1v3h1Zm-8.75-1h1.63m2.75 0h4.87c.28 0 .5.22.5.5v8a.5.5 0 0 1-.5.5h-2.75v1.25a.5.5 0 0 1-.5.5h-1.12v.75a.5.5 0 0 1-.5.5h-2.75a.5.5 0 0 1-.5-.5v-.75H595a.5.5 0 0 1-.5-.5V625h-2.75a.5.5 0 0 1-.5-.5v-8c0-.28.22-.5.5-.5H595m1.63 0h2.75"/><path fill="#000" d="M485.5 607.5h-15a2 2 0 0 1-2-2v-15c0-1.1.9-2 2-2h15a2 2 0 0 1 2 2v15a2 2 0 0 1-2 2"/><path fill="#fff" d="M485.5 606.5h-15a1 1 0 0 1-1-1v-15a1 1 0 0 1 1-1h15a1 1 0 0 1 1 1v15a1 1 0 0 1-1 1m-12.25-3.5h-1v-3h1Zm1.5 0h-1v-3h1Zm1.5 0h-1v-3h1Zm1.5 0h-1v-3h1Zm1.5 0h-1v-3h1Zm1.5 0h-1v-3h1Zm1.5 0h-1v-3h1Zm1.5 0h-1v-3h1Zm-8.75 1h1.63m2.75 0h4.87a.5.5 0 0 0 .5-.5v-8a.5.5 0 0 0-.5-.5h-2.75v-1.25a.5.5 0 0 0-.5-.5h-1.12v-.75a.5.5 0 0 0-.5-.5h-2.75a.5.5 0 0 0-.5.5v.75H475a.5.5 0 0 0-.5.5V595h-2.75a.5.5 0 0 0-.5.5v8c0 .28.22.5.5.5H475m1.63 0h2.75"/><path fill="#000" d="M509.5 607.5h-15a2 2 0 0 1-2-2v-15c0-1.1.9-2 2-2h15a2 2 0 0 1 2 2v15a2 2 0 0 1-2 2"/><path fill="#fff" d="M509.5 606.5h-15a1 1 0 0 1-1-1v-15a1 1 0 0 1 1-1h15a1 1 0 0 1 1 1v15a1 1 0 0 1-1 1m-12.25-3.5h-1v-3h1Zm1.5 0h-1v-3h1Zm1.5 0h-1v-3h1Zm1.5 0h-1v-3h1Zm1.5 0h-1v-3h1Zm1.5 0h-1v-3h1Zm1.5 0h-1v-3h1Zm1.5 0h-1v-3h1Zm-8.75 1h1.63m2.75 0h4.87a.5.5 0 0 0 .5-.5v-8a.5.5 0 0 0-.5-.5h-2.75v-1.25a.5.5 0 0 0-.5-.5h-1.12v-.75a.5.5 0 0 0-.5-.5h-2.75a.5.5 0 0 0-.5.5v.75H499a.5.5 0 0 0-.5.5V595h-2.75a.5.5 0 0 0-.5.5v8c0 .28.22.5.5.5H499m1.63 0h2.75"/><path fill="#000" d="M533.5 607.5h-15a2 2 0 0 1-2-2v-15c0-1.1.9-2 2-2h15a2 2 0 0 1 2 2v15a2 2 0 0 1-2 2"/><path fill="#fff" d="M533.5 606.5h-15a1 1 0 0 1-1-1v-15a1 1 0 0 1 1-1h15a1 1 0 0 1 1 1v15a1 1 0 0 1-1 1m-12.25-3.5h-1v-3h1Zm1.5 0h-1v-3h1Zm1.5 0h-1v-3h1Zm1.5 0h-1v-3h1Zm1.5 0h-1v-3h1Zm1.5 0h-1v-3h1Zm1.5 0h-1v-3h1Zm1.5 0h-1v-3h1Zm-8.75 1h1.63m2.75 0h4.87a.5.5 0 0 0 .5-.5v-8a.5.5 0 0 0-.5-.5h-2.75v-1.25a.5.5 0 0 0-.5-.5h-1.12v-.75a.5.5 0 0 0-.5-.5h-2.75a.5.5 0 0 0-.5.5v.75H523a.5.5 0 0 0-.5.5V595h-2.75a.5.5 0 0 0-.5.5v8c0 .28.22.5.5.5H523m1.63 0h2.75"/><path fill="#000" d="M557.5 607.5h-15a2 2 0 0 1-2-2v-15c0-1.1.9-2 2-2h15a2 2 0 0 1 2 2v15a2 2 0 0 1-2 2"/><path fill="#fff" d="M557.5 606.5h-15a1 1 0 0 1-1-1v-15a1 1 0 0 1 1-1h15a1 1 0 0 1 1 1v15a1 1 0 0 1-1 1m-12.25-3.5h-1v-3h1Zm1.5 0h-1v-3h1Zm1.5 0h-1v-3h1Zm1.5 0h-1v-3h1Zm1.5 0h-1v-3h1Zm1.5 0h-1v-3h1Zm1.5 0h-1v-3h1Zm1.5 0h-1v-3h1Zm-8.75 1h1.63m2.75 0h4.87a.5.5 0 0 0 .5-.5v-8a.5.5 0 0 0-.5-.5h-2.75v-1.25a.5.5 0 0 0-.5-.5h-1.12v-.75a.5.5 0 0 0-.5-.5h-2.75a.5.5 0 0 0-.5.5v.75H547a.5.5 0 0 0-.5.5V595h-2.75a.5.5 0 0 0-.5.5v8c0 .28.22.5.5.5H547m1.63 0h2.75"/><path fill="#000" d="M581.5 607.5h-15a2 2 0 0 1-2-2v-15c0-1.1.9-2 2-2h15a2 2 0 0 1 2 2v15a2 2 0 0 1-2 2"/><path fill="#fff" d="M581.5 606.5h-15a1 1 0 0 1-1-1v-15a1 1 0 0 1 1-1h15a1 1 0 0 1 1 1v15a1 1 0 0 1-1 1m-12.25-3.5h-1v-3h1Zm1.5 0h-1v-3h1Zm1.5 0h-1v-3h1Zm1.5 0h-1v-3h1Zm1.5 0h-1v-3h1Zm1.5 0h-1v-3h1Zm1.5 0h-1v-3h1Zm1.5 0h-1v-3h1Zm-8.75 1h1.63m2.75 0h4.87a.5.5 0 0 0 .5-.5v-8a.5.5 0 0 0-.5-.5h-2.75v-1.25a.5.5 0 0 0-.5-.5h-1.12v-.75a.5.5 0 0 0-.5-.5h-2.75a.5.5 0 0 0-.5.5v.75H571a.5.5 0 0 0-.5.5V595h-2.75a.5.5 0 0 0-.5.5v8c0 .28.22.5.5.5H571m1.63 0h2.75"/><path fill="#000" d="M605.5 607.5h-15a2 2 0 0 1-2-2v-15c0-1.1.9-2 2-2h15a2 2 0 0 1 2 2v15a2 2 0 0 1-2 2"/><path fill="#fff" d="M605.5 606.5h-15a1 1 0 0 1-1-1v-15a1 1 0 0 1 1-1h15a1 1 0 0 1 1 1v15a1 1 0 0 1-1 1m-12.25-3.5h-1v-3h1Zm1.5 0h-1v-3h1Zm1.5 0h-1v-3h1Zm1.5 0h-1v-3h1Zm1.5 0h-1v-3h1Zm1.5 0h-1v-3h1Zm1.5 0h-1v-3h1Zm1.5 0h-1v-3h1Zm-8.75 1h1.63m2.75 0h4.87a.5.5 0 0 0 .5-.5v-8a.5.5 0 0 0-.5-.5h-2.75v-1.25a.5.5 0 0 0-.5-.5h-1.12v-.75a.5.5 0 0 0-.5-.5h-2.75a.5.5 0 0 0-.5.5v.75H595a.5.5 0 0 0-.5.5V595h-2.75a.5.5 0 0 0-.5.5v8c0 .28.22.5.5.5H595m1.63 0h2.75"/><path fill="#ccc" d="M710 580H460l50-30h150Z"/><path stroke="#000" stroke-linecap="square" d="M710 580H460l50-30h150Z"/><path fill="#fff" d="M559.34 555.83h51.33v18.34h-51.33z"/><path stroke="#000" stroke-linecap="round" stroke-linejoin="round" d="M559.34 555.83h51.33v18.34h-51.33z"/><text fill="#000" transform="translate(561.34 557.83)">
            <tspan xml:space="preserve" x="0" y="11" font-family="Helvetica Neue" font-size="12">lab-sw-4</tspan>
          </text><path fill="#999" d="M1160 580h250v60h-250z"/><path stroke="#000" stroke-linecap="square" d="M1160 580h250v60h-250z"/><path fill="#000" d="M1399.5 612.5h-15a2 2 0 0 0-2 2v15c0 1.1.9 2 2 2h15a2 2 0 0 0 2-2v-15a2 2 0 0 0-2-2"/><path fill="#fff" d="M1399.5 613.5h-15a1 1 0 0 0-1 1v15a1 1 0 0 0 1 1h15a1 1 0 0 0 1-1v-15a1 1 0 0 0-1-1m-12.25 3.5h-1v3h1Zm1.5 0h-1v3h1Zm1.5 0h-1v3h1Zm1.5 0h-1v3h1Zm1.5 0h-1v3h1Zm1.5 0h-1v3h1Zm1.5 0h-1v3h1Zm1.5 0h-1v3h1Zm-8.75-1h1.63m2.74 0h4.88c.28 0 .5.22.5.5v8a.5.5 0 0 1-.5.5h-2.75v1.25a.5.5 0 0 1-.5.5h-1.12v.75a.5.5 0 0 1-.5.5h-2.76a.5.5 0 0 1-.5-.5v-.75H1389a.5.5 0 0 1-.5-.5V625h-2.75a.5.5 0 0 1-.5-.5v-8c0-.28.22-.5.5-.5h3.25m1.63 0h2.74"/><path fill="#000" d="M1370.5 612.5h-15a2 2 0 0 0-2 2v15c0 1.1.9 2 2 2h15a2 2 0 0 0 2-2v-15a2 2 0 0 0-2-2"/><path fill="#fff" d="M1370.5 613.5h-15a1 1 0 0 0-1 1v15a1 1 0 0 0 1 1h15a1 1 0 0 0 1-1v-15a1 1 0 0 0-1-1m-12.25 3.5h-1v3h1Zm1.5 0h-1v3h1Zm1.5 0h-1v3h1Zm1.5 0h-1v3h1Zm1.5 0h-1v3h1Zm1.5 0h-1v3h1Zm1.5 0h-1v3h1Zm1.5 0h-1v3h1Zm-8.75-1h1.63m2.74 0h4.88c.28 0 .5.22.5.5v8a.5.5 0 0 1-.5.5h-2.75v1.25a.5.5 0 0 1-.5.5h-1.12v.75a.5.5 0 0 1-.5.5h-2.76a.5.5 0 0 1-.5-.5v-.75H1360a.5.5 0 0 1-.5-.5V625h-2.75a.5.5 0 0 1-.5-.5v-8c0-.28.22-.5.5-.5h3.25m1.63 0h2.74"/><path fill="#000" d="M1185.5 612.5h-15a2 2 0 0 0-2 2v15c0 1.1.9 2 2 2h15a2 2 0 0 0 2-2v-15a2 2 0 0 0-2-2"/><path fill="#fff" d="M1185.5 613.5h-15a1 1 0 0 0-1 1v15a1 1 0 0 0 1 1h15a1 1 0 0 0 1-1v-15a1 1 0 0 0-1-1m-12.25 3.5h-1v3h1Zm1.5 0h-1v3h1Zm1.5 0h-1v3h1Zm1.5 0h-1v3h1Zm1.5 0h-1v3h1Zm1.5 0h-1v3h1Zm1.5 0h-1v3h1Zm1.5 0h-1v3h1Zm-8.75-1h1.63m2.74 0h4.88c.28 0 .5.22.5.5v8a.5.5 0 0 1-.5.5h-2.75v1.25a.5.5 0 0 1-.5.5h-1.12v.75a.5.5 0 0 1-.5.5h-2.76a.5.5 0 0 1-.5-.5v-.75H1175a.5.5 0 0 1-.5-.5V625h-2.75a.5.5 0 0 1-.5-.5v-8c0-.28.22-.5.5-.5h3.25m1.63 0h2.74"/><path fill="#000" d="M1209.5 612.5h-15a2 2 0 0 0-2 2v15c0 1.1.9 2 2 2h15a2 2 0 0 0 2-2v-15a2 2 0 0 0-2-2"/><path fill="#fff" d="M1209.5 613.5h-15a1 1 0 0 0-1 1v15a1 1 0 0 0 1 1h15a1 1 0 0 0 1-1v-15a1 1 0 0 0-1-1m-12.25 3.5h-1v3h1Zm1.5 0h-1v3h1Zm1.5 0h-1v3h1Zm1.5 0h-1v3h1Zm1.5 0h-1v3h1Zm1.5 0h-1v3h1Zm1.5 0h-1v3h1Zm1.5 0h-1v3h1Zm-8.75-1h1.63m2.74 0h4.88c.28 0 .5.22.5.5v8a.5.5 0 0 1-.5.5h-2.75v1.25a.5.5 0 0 1-.5.5h-1.12v.75a.5.5 0 0 1-.5.5h-2.76a.5.5 0 0 1-.5-.5v-.75H1199a.5.5 0 0 1-.5-.5V625h-2.75a.5.5 0 0 1-.5-.5v-8c0-.28.22-.5.5-.5h3.25m1.63 0h2.74"/><path fill="#000" d="M1233.5 612.5h-15a2 2 0 0 0-2 2v15c0 1.1.9 2 2 2h15a2 2 0 0 0 2-2v-15a2 2 0 0 0-2-2"/><path fill="#fff" d="M1233.5 613.5h-15a1 1 0 0 0-1 1v15a1 1 0 0 0 1 1h15a1 1 0 0 0 1-1v-15a1 1 0 0 0-1-1m-12.25 3.5h-1v3h1Zm1.5 0h-1v3h1Zm1.5 0h-1v3h1Zm1.5 0h-1v3h1Zm1.5 0h-1v3h1Zm1.5 0h-1v3h1Zm1.5 0h-1v3h1Zm1.5 0h-1v3h1Zm-8.75-1h1.63m2.74 0h4.88c.28 0 .5.22.5.5v8a.5.5 0 0 1-.5.5h-2.75v1.25a.5.5 0 0 1-.5.5h-1.12v.75a.5.5 0 0 1-.5.5h-2.76a.5.5 0 0 1-.5-.5v-.75H1223a.5.5 0 0 1-.5-.5V625h-2.75a.5.5 0 0 1-.5-.5v-8c0-.28.22-.5.5-.5h3.25m1.63 0h2.74"/><path fill="#000" d="M1257.5 612.5h-15a2 2 0 0 0-2 2v15c0 1.1.9 2 2 2h15a2 2 0 0 0 2-2v-15a2 2 0 0 0-2-2"/><path fill="#fff" d="M1257.5 613.5h-15a1 1 0 0 0-1 1v15a1 1 0 0 0 1 1h15a1 1 0 0 0 1-1v-15a1 1 0 0 0-1-1m-12.25 3.5h-1v3h1Zm1.5 0h-1v3h1Zm1.5 0h-1v3h1Zm1.5 0h-1v3h1Zm1.5 0h-1v3h1Zm1.5 0h-1v3h1Zm1.5 0h-1v3h1Zm1.5 0h-1v3h1Zm-8.75-1h1.63m2.74 0h4.88c.28 0 .5.22.5.5v8a.5.5 0 0 1-.5.5h-2.75v1.25a.5.5 0 0 1-.5.5h-1.12v.75a.5.5 0 0 1-.5.5h-2.76a.5.5 0 0 1-.5-.5v-.75H1247a.5.5 0 0 1-.5-.5V625h-2.75a.5.5 0 0 1-.5-.5v-8c0-.28.22-.5.5-.5h3.25m1.63 0h2.74"/><path fill="#000" d="M1281.5 612.5h-15a2 2 0 0 0-2 2v15c0 1.1.9 2 2 2h15a2 2 0 0 0 2-2v-15a2 2 0 0 0-2-2"/><path fill="#fff" d="M1281.5 613.5h-15a1 1 0 0 0-1 1v15a1 1 0 0 0 1 1h15a1 1 0 0 0 1-1v-15a1 1 0 0 0-1-1m-12.25 3.5h-1v3h1Zm1.5 0h-1v3h1Zm1.5 0h-1v3h1Zm1.5 0h-1v3h1Zm1.5 0h-1v3h1Zm1.5 0h-1v3h1Zm1.5 0h-1v3h1Zm1.5 0h-1v3h1Zm-8.75-1h1.63m2.74 0h4.88c.28 0 .5.22.5.5v8a.5.5 0 0 1-.5.5h-2.75v1.25a.5.5 0 0 1-.5.5h-1.12v.75a.5.5 0 0 1-.5.5h-2.76a.5.5 0 0 1-.5-.5v-.75H1271a.5.5 0 0 1-.5-.5V625h-2.75a.5.5 0 0 1-.5-.5v-8c0-.28.22-.5.5-.5h3.25m1.63 0h2.74"/><path fill="#000" d="M1305.5 612.5h-15a2 2 0 0 0-2 2v15c0 1.1.9 2 2 2h15a2 2 0 0 0 2-2v-15a2 2 0 0 0-2-2"/><path fill="#fff" d="M1305.5 613.5h-15a1 1 0 0 0-1 1v15a1 1 0 0 0 1 1h15a1 1 0 0 0 1-1v-15a1 1 0 0 0-1-1m-12.25 3.5h-1v3h1Zm1.5 0h-1v3h1Zm1.5 0h-1v3h1Zm1.5 0h-1v3h1Zm1.5 0h-1v3h1Zm1.5 0h-1v3h1Zm1.5 0h-1v3h1Zm1.5 0h-1v3h1Zm-8.75-1h1.63m2.74 0h4.88c.28 0 .5.22.5.5v8a.5.5 0 0 1-.5.5h-2.75v1.25a.5.5 0 0 1-.5.5h-1.12v.75a.5.5 0 0 1-.5.5h-2.76a.5.5 0 0 1-.5-.5v-.75H1295a.5.5 0 0 1-.5-.5V625h-2.75a.5.5 0 0 1-.5-.5v-8c0-.28.22-.5.5-.5h3.25m1.63 0h2.74"/><path fill="#000" d="M1185.5 607.5h-15a2 2 0 0 1-2-2v-15c0-1.1.9-2 2-2h15a2 2 0 0 1 2 2v15a2 2 0 0 1-2 2"/><path fill="#fff" d="M1185.5 606.5h-15a1 1 0 0 1-1-1v-15a1 1 0 0 1 1-1h15a1 1 0 0 1 1 1v15a1 1 0 0 1-1 1m-12.25-3.5h-1v-3h1Zm1.5 0h-1v-3h1Zm1.5 0h-1v-3h1Zm1.5 0h-1v-3h1Zm1.5 0h-1v-3h1Zm1.5 0h-1v-3h1Zm1.5 0h-1v-3h1Zm1.5 0h-1v-3h1Zm-8.75 1h1.63m2.74 0h4.88a.5.5 0 0 0 .5-.5v-8a.5.5 0 0 0-.5-.5h-2.75v-1.25a.5.5 0 0 0-.5-.5h-1.12v-.75a.5.5 0 0 0-.5-.5h-2.76a.5.5 0 0 0-.5.5v.75H1175a.5.5 0 0 0-.5.5V595h-2.75a.5.5 0 0 0-.5.5v8c0 .28.22.5.5.5h3.25m1.63 0h2.74"/><path fill="#000" d="M1209.5 607.5h-15a2 2 0 0 1-2-2v-15c0-1.1.9-2 2-2h15a2 2 0 0 1 2 2v15a2 2 0 0 1-2 2"/><path fill="#fff" d="M1209.5 606.5h-15a1 1 0 0 1-1-1v-15a1 1 0 0 1 1-1h15a1 1 0 0 1 1 1v15a1 1 0 0 1-1 1m-12.25-3.5h-1v-3h1Zm1.5 0h-1v-3h1Zm1.5 0h-1v-3h1Zm1.5 0h-1v-3h1Zm1.5 0h-1v-3h1Zm1.5 0h-1v-3h1Zm1.5 0h-1v-3h1Zm1.5 0h-1v-3h1Zm-8.75 1h1.63m2.74 0h4.88a.5.5 0 0 0 .5-.5v-8a.5.5 0 0 0-.5-.5h-2.75v-1.25a.5.5 0 0 0-.5-.5h-1.12v-.75a.5.5 0 0 0-.5-.5h-2.76a.5.5 0 0 0-.5.5v.75H1199a.5.5 0 0 0-.5.5V595h-2.75a.5.5 0 0 0-.5.5v8c0 .28.22.5.5.5h3.25m1.63 0h2.74"/><path fill="#000" d="M1233.5 607.5h-15a2 2 0 0 1-2-2v-15c0-1.1.9-2 2-2h15a2 2 0 0 1 2 2v15a2 2 0 0 1-2 2"/><path fill="#fff" d="M1233.5 606.5h-15a1 1 0 0 1-1-1v-15a1 1 0 0 1 1-1h15a1 1 0 0 1 1 1v15a1 1 0 0 1-1 1m-12.25-3.5h-1v-3h1Zm1.5 0h-1v-3h1Zm1.5 0h-1v-3h1Zm1.5 0h-1v-3h1Zm1.5 0h-1v-3h1Zm1.5 0h-1v-3h1Zm1.5 0h-1v-3h1Zm1.5 0h-1v-3h1Zm-8.75 1h1.63m2.74 0h4.88a.5.5 0 0 0 .5-.5v-8a.5.5 0 0 0-.5-.5h-2.75v-1.25a.5.5 0 0 0-.5-.5h-1.12v-.75a.5.5 0 0 0-.5-.5h-2.76a.5.5 0 0 0-.5.5v.75H1223a.5.5 0 0 0-.5.5V595h-2.75a.5.5 0 0 0-.5.5v8c0 .28.22.5.5.5h3.25m1.63 0h2.74"/><path fill="#000" d="M1257.5 607.5h-15a2 2 0 0 1-2-2v-15c0-1.1.9-2 2-2h15a2 2 0 0 1 2 2v15a2 2 0 0 1-2 2"/><path fill="#fff" d="M1257.5 606.5h-15a1 1 0 0 1-1-1v-15a1 1 0 0 1 1-1h15a1 1 0 0 1 1 1v15a1 1 0 0 1-1 1m-12.25-3.5h-1v-3h1Zm1.5 0h-1v-3h1Zm1.5 0h-1v-3h1Zm1.5 0h-1v-3h1Zm1.5 0h-1v-3h1Zm1.5 0h-1v-3h1Zm1.5 0h-1v-3h1Zm1.5 0h-1v-3h1Zm-8.75 1h1.63m2.74 0h4.88a.5.5 0 0 0 .5-.5v-8a.5.5 0 0 0-.5-.5h-2.75v-1.25a.5.5 0 0 0-.5-.5h-1.12v-.75a.5.5 0 0 0-.5-.5h-2.76a.5.5 0 0 0-.5.5v.75H1247a.5.5 0 0 0-.5.5V595h-2.75a.5.5 0 0 0-.5.5v8c0 .28.22.5.5.5h3.25m1.63 0h2.74"/><path fill="#000" d="M1281.5 607.5h-15a2 2 0 0 1-2-2v-15c0-1.1.9-2 2-2h15a2 2 0 0 1 2 2v15a2 2 0 0 1-2 2"/><path fill="#fff" d="M1281.5 606.5h-15a1 1 0 0 1-1-1v-15a1 1 0 0 1 1-1h15a1 1 0 0 1 1 1v15a1 1 0 0 1-1 1m-12.25-3.5h-1v-3h1Zm1.5 0h-1v-3h1Zm1.5 0h-1v-3h1Zm1.5 0h-1v-3h1Zm1.5 0h-1v-3h1Zm1.5 0h-1v-3h1Zm1.5 0h-1v-3h1Zm1.5 0h-1v-3h1Zm-8.75 1h1.63m2.74 0h4.88a.5.5 0 0 0 .5-.5v-8a.5.5 0 0 0-.5-.5h-2.75v-1.25a.5.5 0 0 0-.5-.5h-1.12v-.75a.5.5 0 0 0-.5-.5h-2.76a.5.5 0 0 0-.5.5v.75H1271a.5.5 0 0 0-.5.5V595h-2.75a.5.5 0 0 0-.5.5v8c0 .28.22.5.5.5h3.25m1.63 0h2.74"/><path fill="#000" d="M1305.5 607.5h-15a2 2 0 0 1-2-2v-15c0-1.1.9-2 2-2h15a2 2 0 0 1 2 2v15a2 2 0 0 1-2 2"/><path fill="#fff" d="M1305.5 606.5h-15a1 1 0 0 1-1-1v-15a1 1 0 0 1 1-1h15a1 1 0 0 1 1 1v15a1 1 0 0 1-1 1m-12.25-3.5h-1v-3h1Zm1.5 0h-1v-3h1Zm1.5 0h-1v-3h1Zm1.5 0h-1v-3h1Zm1.5 0h-1v-3h1Zm1.5 0h-1v-3h1Zm1.5 0h-1v-3h1Zm1.5 0h-1v-3h1Zm-8.75 1h1.63m2.74 0h4.88a.5.5 0 0 0 .5-.5v-8a.5.5 0 0 0-.5-.5h-2.75v-1.25a.5.5 0 0 0-.5-.5h-1.12v-.75a.5.5 0 0 0-.5-.5h-2.76a.5.5 0 0 0-.5.5v.75H1295a.5.5 0 0 0-.5.5V595h-2.75a.5.5 0 0 0-.5.5v8c0 .28.22.5.5.5h3.25m1.63 0h2.74"/><path fill="#ccc" d="M1410 580h-250l50-30h150Z"/><path stroke="#000" stroke-linecap="square" d="M1410 580h-250l50-30h150Z"/><path fill="#fff" d="M1259.34 555.83h51.33v18.34h-51.33z"/><path stroke="#000" stroke-linecap="round" stroke-linejoin="round" d="M1259.34 555.83h51.33v18.34h-51.33z"/><text fill="#000" transform="translate(1261.34 557.83)">
            <tspan xml:space="preserve" x="0" y="11" font-family="Helvetica Neue" font-size="12">lab-sw-3</tspan>
          </text><path fill="#999" d="M1160 80h250v60h-250z"/><path stroke="#000" stroke-linecap="square" d="M1160 80h250v60h-250z"/><path fill="#000" d="M1399.5 112.5h-15a2 2 0 0 0-2 2v15c0 1.1.9 2 2 2h15a2 2 0 0 0 2-2v-15a2 2 0 0 0-2-2"/><path fill="#fff" d="M1399.5 113.5h-15a1 1 0 0 0-1 1v15a1 1 0 0 0 1 1h15a1 1 0 0 0 1-1v-15a1 1 0 0 0-1-1m-12.25 3.5h-1v3h1Zm1.5 0h-1v3h1Zm1.5 0h-1v3h1Zm1.5 0h-1v3h1Zm1.5 0h-1v3h1Zm1.5 0h-1v3h1Zm1.5 0h-1v3h1Zm1.5 0h-1v3h1Zm-8.75-1h1.63m2.74 0h4.88c.28 0 .5.22.5.5v8a.5.5 0 0 1-.5.5h-2.75v1.25a.5.5 0 0 1-.5.5h-1.12v.75a.5.5 0 0 1-.5.5h-2.76a.5.5 0 0 1-.5-.5v-.75H1389a.5.5 0 0 1-.5-.5V125h-2.75a.5.5 0 0 1-.5-.5v-8c0-.28.22-.5.5-.5h3.25m1.63 0h2.74"/><path fill="#000" d="M1370.5 112.5h-15a2 2 0 0 0-2 2v15c0 1.1.9 2 2 2h15a2 2 0 0 0 2-2v-15a2 2 0 0 0-2-2"/><path fill="#fff" d="M1370.5 113.5h-15a1 1 0 0 0-1 1v15a1 1 0 0 0 1 1h15a1 1 0 0 0 1-1v-15a1 1 0 0 0-1-1m-12.25 3.5h-1v3h1Zm1.5 0h-1v3h1Zm1.5 0h-1v3h1Zm1.5 0h-1v3h1Zm1.5 0h-1v3h1Zm1.5 0h-1v3h1Zm1.5 0h-1v3h1Zm1.5 0h-1v3h1Zm-8.75-1h1.63m2.74 0h4.88c.28 0 .5.22.5.5v8a.5.5 0 0 1-.5.5h-2.75v1.25a.5.5 0 0 1-.5.5h-1.12v.75a.5.5 0 0 1-.5.5h-2.76a.5.5 0 0 1-.5-.5v-.75H1360a.5.5 0 0 1-.5-.5V125h-2.75a.5.5 0 0 1-.5-.5v-8c0-.28.22-.5.5-.5h3.25m1.63 0h2.74"/><path fill="#000" d="M1185.5 112.5h-15a2 2 0 0 0-2 2v15c0 1.1.9 2 2 2h15a2 2 0 0 0 2-2v-15a2 2 0 0 0-2-2"/><path fill="#fff" d="M1185.5 113.5h-15a1 1 0 0 0-1 1v15a1 1 0 0 0 1 1h15a1 1 0 0 0 1-1v-15a1 1 0 0 0-1-1m-12.25 3.5h-1v3h1Zm1.5 0h-1v3h1Zm1.5 0h-1v3h1Zm1.5 0h-1v3h1Zm1.5 0h-1v3h1Zm1.5 0h-1v3h1Zm1.5 0h-1v3h1Zm1.5 0h-1v3h1Zm-8.75-1h1.63m2.74 0h4.88c.28 0 .5.22.5.5v8a.5.5 0 0 1-.5.5h-2.75v1.25a.5.5 0 0 1-.5.5h-1.12v.75a.5.5 0 0 1-.5.5h-2.76a.5.5 0 0 1-.5-.5v-.75H1175a.5.5 0 0 1-.5-.5V125h-2.75a.5.5 0 0 1-.5-.5v-8c0-.28.22-.5.5-.5h3.25m1.63 0h2.74"/><path fill="#000" d="M1209.5 112.5h-15a2 2 0 0 0-2 2v15c0 1.1.9 2 2 2h15a2 2 0 0 0 2-2v-15a2 2 0 0 0-2-2"/><path fill="#fff" d="M1209.5 113.5h-15a1 1 0 0 0-1 1v15a1 1 0 0 0 1 1h15a1 1 0 0 0 1-1v-15a1 1 0 0 0-1-1m-12.25 3.5h-1v3h1Zm1.5 0h-1v3h1Zm1.5 0h-1v3h1Zm1.5 0h-1v3h1Zm1.5 0h-1v3h1Zm1.5 0h-1v3h1Zm1.5 0h-1v3h1Zm1.5 0h-1v3h1Zm-8.75-1h1.63m2.74 0h4.88c.28 0 .5.22.5.5v8a.5.5 0 0 1-.5.5h-2.75v1.25a.5.5 0 0 1-.5.5h-1.12v.75a.5.5 0 0 1-.5.5h-2.76a.5.5 0 0 1-.5-.5v-.75H1199a.5.5 0 0 1-.5-.5V125h-2.75a.5.5 0 0 1-.5-.5v-8c0-.28.22-.5.5-.5h3.25m1.63 0h2.74"/><path fill="#000" d="M1233.5 112.5h-15a2 2 0 0 0-2 2v15c0 1.1.9 2 2 2h15a2 2 0 0 0 2-2v-15a2 2 0 0 0-2-2"/><path fill="#fff" d="M1233.5 113.5h-15a1 1 0 0 0-1 1v15a1 1 0 0 0 1 1h15a1 1 0 0 0 1-1v-15a1 1 0 0 0-1-1m-12.25 3.5h-1v3h1Zm1.5 0h-1v3h1Zm1.5 0h-1v3h1Zm1.5 0h-1v3h1Zm1.5 0h-1v3h1Zm1.5 0h-1v3h1Zm1.5 0h-1v3h1Zm1.5 0h-1v3h1Zm-8.75-1h1.63m2.74 0h4.88c.28 0 .5.22.5.5v8a.5.5 0 0 1-.5.5h-2.75v1.25a.5.5 0 0 1-.5.5h-1.12v.75a.5.5 0 0 1-.5.5h-2.76a.5.5 0 0 1-.5-.5v-.75H1223a.5.5 0 0 1-.5-.5V125h-2.75a.5.5 0 0 1-.5-.5v-8c0-.28.22-.5.5-.5h3.25m1.63 0h2.74"/><path fill="#000" d="M1257.5 112.5h-15a2 2 0 0 0-2 2v15c0 1.1.9 2 2 2h15a2 2 0 0 0 2-2v-15a2 2 0 0 0-2-2"/><path fill="#fff" d="M1257.5 113.5h-15a1 1 0 0 0-1 1v15a1 1 0 0 0 1 1h15a1 1 0 0 0 1-1v-15a1 1 0 0 0-1-1m-12.25 3.5h-1v3h1Zm1.5 0h-1v3h1Zm1.5 0h-1v3h1Zm1.5 0h-1v3h1Zm1.5 0h-1v3h1Zm1.5 0h-1v3h1Zm1.5 0h-1v3h1Zm1.5 0h-1v3h1Zm-8.75-1h1.63m2.74 0h4.88c.28 0 .5.22.5.5v8a.5.5 0 0 1-.5.5h-2.75v1.25a.5.5 0 0 1-.5.5h-1.12v.75a.5.5 0 0 1-.5.5h-2.76a.5.5 0 0 1-.5-.5v-.75H1247a.5.5 0 0 1-.5-.5V125h-2.75a.5.5 0 0 1-.5-.5v-8c0-.28.22-.5.5-.5h3.25m1.63 0h2.74"/><path fill="#000" d="M1281.5 112.5h-15a2 2 0 0 0-2 2v15c0 1.1.9 2 2 2h15a2 2 0 0 0 2-2v-15a2 2 0 0 0-2-2"/><path fill="#fff" d="M1281.5 113.5h-15a1 1 0 0 0-1 1v15a1 1 0 0 0 1 1h15a1 1 0 0 0 1-1v-15a1 1 0 0 0-1-1m-12.25 3.5h-1v3h1Zm1.5 0h-1v3h1Zm1.5 0h-1v3h1Zm1.5 0h-1v3h1Zm1.5 0h-1v3h1Zm1.5 0h-1v3h1Zm1.5 0h-1v3h1Zm1.5 0h-1v3h1Zm-8.75-1h1.63m2.74 0h4.88c.28 0 .5.22.5.5v8a.5.5 0 0 1-.5.5h-2.75v1.25a.5.5 0 0 1-.5.5h-1.12v.75a.5.5 0 0 1-.5.5h-2.76a.5.5 0 0 1-.5-.5v-.75H1271a.5.5 0 0 1-.5-.5V125h-2.75a.5.5 0 0 1-.5-.5v-8c0-.28.22-.5.5-.5h3.25m1.63 0h2.74"/><path fill="#000" d="M1305.5 112.5h-15a2 2 0 0 0-2 2v15c0 1.1.9 2 2 2h15a2 2 0 0 0 2-2v-15a2 2 0 0 0-2-2"/><path fill="#fff" d="M1305.5 113.5h-15a1 1 0 0 0-1 1v15a1 1 0 0 0 1 1h15a1 1 0 0 0 1-1v-15a1 1 0 0 0-1-1m-12.25 3.5h-1v3h1Zm1.5 0h-1v3h1Zm1.5 0h-1v3h1Zm1.5 0h-1v3h1Zm1.5 0h-1v3h1Zm1.5 0h-1v3h1Zm1.5 0h-1v3h1Zm1.5 0h-1v3h1Zm-8.75-1h1.63m2.74 0h4.88c.28 0 .5.22.5.5v8a.5.5 0 0 1-.5.5h-2.75v1.25a.5.5 0 0 1-.5.5h-1.12v.75a.5.5 0 0 1-.5.5h-2.76a.5.5 0 0 1-.5-.5v-.75H1295a.5.5 0 0 1-.5-.5V125h-2.75a.5.5 0 0 1-.5-.5v-8c0-.28.22-.5.5-.5h3.25m1.63 0h2.74"/><path fill="#000" d="M1185.5 107.5h-15a2 2 0 0 1-2-2v-15c0-1.1.9-2 2-2h15a2 2 0 0 1 2 2v15a2 2 0 0 1-2 2"/><path fill="#fff" d="M1185.5 106.5h-15a1 1 0 0 1-1-1v-15a1 1 0 0 1 1-1h15a1 1 0 0 1 1 1v15a1 1 0 0 1-1 1m-12.25-3.5h-1v-3h1Zm1.5 0h-1v-3h1Zm1.5 0h-1v-3h1Zm1.5 0h-1v-3h1Zm1.5 0h-1v-3h1Zm1.5 0h-1v-3h1Zm1.5 0h-1v-3h1Zm1.5 0h-1v-3h1Zm-8.75 1h1.63m2.74 0h4.88a.5.5 0 0 0 .5-.5v-8a.5.5 0 0 0-.5-.5h-2.75v-1.25a.5.5 0 0 0-.5-.5h-1.12v-.75a.5.5 0 0 0-.5-.5h-2.76a.5.5 0 0 0-.5.5v.75H1175a.5.5 0 0 0-.5.5V95h-2.75a.5.5 0 0 0-.5.5v8c0 .28.22.5.5.5h3.25m1.63 0h2.74"/><path fill="#000" d="M1209.5 107.5h-15a2 2 0 0 1-2-2v-15c0-1.1.9-2 2-2h15a2 2 0 0 1 2 2v15a2 2 0 0 1-2 2"/><path fill="#fff" d="M1209.5 106.5h-15a1 1 0 0 1-1-1v-15a1 1 0 0 1 1-1h15a1 1 0 0 1 1 1v15a1 1 0 0 1-1 1m-12.25-3.5h-1v-3h1Zm1.5 0h-1v-3h1Zm1.5 0h-1v-3h1Zm1.5 0h-1v-3h1Zm1.5 0h-1v-3h1Zm1.5 0h-1v-3h1Zm1.5 0h-1v-3h1Zm1.5 0h-1v-3h1Zm-8.75 1h1.63m2.74 0h4.88a.5.5 0 0 0 .5-.5v-8a.5.5 0 0 0-.5-.5h-2.75v-1.25a.5.5 0 0 0-.5-.5h-1.12v-.75a.5.5 0 0 0-.5-.5h-2.76a.5.5 0 0 0-.5.5v.75H1199a.5.5 0 0 0-.5.5V95h-2.75a.5.5 0 0 0-.5.5v8c0 .28.22.5.5.5h3.25m1.63 0h2.74"/><path fill="#000" d="M1233.5 107.5h-15a2 2 0 0 1-2-2v-15c0-1.1.9-2 2-2h15a2 2 0 0 1 2 2v15a2 2 0 0 1-2 2"/><path fill="#fff" d="M1233.5 106.5h-15a1 1 0 0 1-1-1v-15a1 1 0 0 1 1-1h15a1 1 0 0 1 1 1v15a1 1 0 0 1-1 1m-12.25-3.5h-1v-3h1Zm1.5 0h-1v-3h1Zm1.5 0h-1v-3h1Zm1.5 0h-1v-3h1Zm1.5 0h-1v-3h1Zm1.5 0h-1v-3h1Zm1.5 0h-1v-3h1Zm1.5 0h-1v-3h1Zm-8.75 1h1.63m2.74 0h4.88a.5.5 0 0 0 .5-.5v-8a.5.5 0 0 0-.5-.5h-2.75v-1.25a.5.5 0 0 0-.5-.5h-1.12v-.75a.5.5 0 0 0-.5-.5h-2.76a.5.5 0 0 0-.5.5v.75H1223a.5.5 0 0 0-.5.5V95h-2.75a.5.5 0 0 0-.5.5v8c0 .28.22.5.5.5h3.25m1.63 0h2.74"/><path fill="#000" d="M1257.5 107.5h-15a2 2 0 0 1-2-2v-15c0-1.1.9-2 2-2h15a2 2 0 0 1 2 2v15a2 2 0 0 1-2 2"/><path fill="#fff" d="M1257.5 106.5h-15a1 1 0 0 1-1-1v-15a1 1 0 0 1 1-1h15a1 1 0 0 1 1 1v15a1 1 0 0 1-1 1m-12.25-3.5h-1v-3h1Zm1.5 0h-1v-3h1Zm1.5 0h-1v-3h1Zm1.5 0h-1v-3h1Zm1.5 0h-1v-3h1Zm1.5 0h-1v-3h1Zm1.5 0h-1v-3h1Zm1.5 0h-1v-3h1Zm-8.75 1h1.63m2.74 0h4.88a.5.5 0 0 0 .5-.5v-8a.5.5 0 0 0-.5-.5h-2.75v-1.25a.5.5 0 0 0-.5-.5h-1.12v-.75a.5.5 0 0 0-.5-.5h-2.76a.5.5 0 0 0-.5.5v.75H1247a.5.5 0 0 0-.5.5V95h-2.75a.5.5 0 0 0-.5.5v8c0 .28.22.5.5.5h3.25m1.63 0h2.74"/><path fill="#000" d="M1281.5 107.5h-15a2 2 0 0 1-2-2v-15c0-1.1.9-2 2-2h15a2 2 0 0 1 2 2v15a2 2 0 0 1-2 2"/><path fill="#fff" d="M1281.5 106.5h-15a1 1 0 0 1-1-1v-15a1 1 0 0 1 1-1h15a1 1 0 0 1 1 1v15a1 1 0 0 1-1 1m-12.25-3.5h-1v-3h1Zm1.5 0h-1v-3h1Zm1.5 0h-1v-3h1Zm1.5 0h-1v-3h1Zm1.5 0h-1v-3h1Zm1.5 0h-1v-3h1Zm1.5 0h-1v-3h1Zm1.5 0h-1v-3h1Zm-8.75 1h1.63m2.74 0h4.88a.5.5 0 0 0 .5-.5v-8a.5.5 0 0 0-.5-.5h-2.75v-1.25a.5.5 0 0 0-.5-.5h-1.12v-.75a.5.5 0 0 0-.5-.5h-2.76a.5.5 0 0 0-.5.5v.75H1271a.5.5 0 0 0-.5.5V95h-2.75a.5.5 0 0 0-.5.5v8c0 .28.22.5.5.5h3.25m1.63 0h2.74"/><path fill="#000" d="M1305.5 107.5h-15a2 2 0 0 1-2-2v-15c0-1.1.9-2 2-2h15a2 2 0 0 1 2 2v15a2 2 0 0 1-2 2"/><path fill="#fff" d="M1305.5 106.5h-15a1 1 0 0 1-1-1v-15a1 1 0 0 1 1-1h15a1 1 0 0 1 1 1v15a1 1 0 0 1-1 1m-12.25-3.5h-1v-3h1Zm1.5 0h-1v-3h1Zm1.5 0h-1v-3h1Zm1.5 0h-1v-3h1Zm1.5 0h-1v-3h1Zm1.5 0h-1v-3h1Zm1.5 0h-1v-3h1Zm1.5 0h-1v-3h1Zm-8.75 1h1.63m2.74 0h4.88a.5.5 0 0 0 .5-.5v-8a.5.5 0 0 0-.5-.5h-2.75v-1.25a.5.5 0 0 0-.5-.5h-1.12v-.75a.5.5 0 0 0-.5-.5h-2.76a.5.5 0 0 0-.5.5v.75H1295a.5.5 0 0 0-.5.5V95h-2.75a.5.5 0 0 0-.5.5v8c0 .28.22.5.5.5h3.25m1.63 0h2.74"/><path fill="#ccc" d="M1410 80h-250l50-30h150Z"/><path stroke="#000" stroke-linecap="square" d="M1410 80h-250l50-30h150Z"/><path fill="#fff" d="M1259.34 55.83h51.33v18.34h-51.33z"/><path stroke="#000" stroke-linecap="round" stroke-linejoin="round" d="M1259.34 55.83h51.33v18.34h-51.33z"/><text fill="#000" transform="translate(1261.34 57.83)">
            <tspan xml:space="preserve" x="0" y="11" font-family="Helvetica Neue" font-size="12">lab-sw-2</tspan>
          </text><path fill="#999" d="M460 80h250v60H460z"/><path stroke="#000" stroke-linecap="square" d="M460 80h250v60H460z"/><path fill="#000" d="M699.5 112.5h-15a2 2 0 0 0-2 2v15c0 1.1.9 2 2 2h15a2 2 0 0 0 2-2v-15a2 2 0 0 0-2-2"/><path fill="#fff" d="M699.5 113.5h-15a1 1 0 0 0-1 1v15a1 1 0 0 0 1 1h15a1 1 0 0 0 1-1v-15a1 1 0 0 0-1-1m-12.25 3.5h-1v3h1Zm1.5 0h-1v3h1Zm1.5 0h-1v3h1Zm1.5 0h-1v3h1Zm1.5 0h-1v3h1Zm1.5 0h-1v3h1Zm1.5 0h-1v3h1Zm1.5 0h-1v3h1Zm-8.75-1h1.63m2.75 0h4.87c.28 0 .5.22.5.5v8a.5.5 0 0 1-.5.5h-2.75v1.25a.5.5 0 0 1-.5.5h-1.12v.75a.5.5 0 0 1-.5.5h-2.75a.5.5 0 0 1-.5-.5v-.75H689a.5.5 0 0 1-.5-.5V125h-2.75a.5.5 0 0 1-.5-.5v-8c0-.28.22-.5.5-.5H689m1.63 0h2.75"/><path fill="#000" d="M670.5 112.5h-15a2 2 0 0 0-2 2v15c0 1.1.9 2 2 2h15a2 2 0 0 0 2-2v-15a2 2 0 0 0-2-2"/><path fill="#fff" d="M670.5 113.5h-15a1 1 0 0 0-1 1v15a1 1 0 0 0 1 1h15a1 1 0 0 0 1-1v-15a1 1 0 0 0-1-1m-12.25 3.5h-1v3h1Zm1.5 0h-1v3h1Zm1.5 0h-1v3h1Zm1.5 0h-1v3h1Zm1.5 0h-1v3h1Zm1.5 0h-1v3h1Zm1.5 0h-1v3h1Zm1.5 0h-1v3h1Zm-8.75-1h1.63m2.75 0h4.87c.28 0 .5.22.5.5v8a.5.5 0 0 1-.5.5h-2.75v1.25a.5.5 0 0 1-.5.5h-1.12v.75a.5.5 0 0 1-.5.5h-2.75a.5.5 0 0 1-.5-.5v-.75H660a.5.5 0 0 1-.5-.5V125h-2.75a.5.5 0 0 1-.5-.5v-8c0-.28.22-.5.5-.5H660m1.63 0h2.75"/><path fill="#000" d="M485.5 112.5h-15a2 2 0 0 0-2 2v15c0 1.1.9 2 2 2h15a2 2 0 0 0 2-2v-15a2 2 0 0 0-2-2"/><path fill="#fff" d="M485.5 113.5h-15a1 1 0 0 0-1 1v15a1 1 0 0 0 1 1h15a1 1 0 0 0 1-1v-15a1 1 0 0 0-1-1m-12.25 3.5h-1v3h1Zm1.5 0h-1v3h1Zm1.5 0h-1v3h1Zm1.5 0h-1v3h1Zm1.5 0h-1v3h1Zm1.5 0h-1v3h1Zm1.5 0h-1v3h1Zm1.5 0h-1v3h1Zm-8.75-1h1.63m2.75 0h4.87c.28 0 .5.22.5.5v8a.5.5 0 0 1-.5.5h-2.75v1.25a.5.5 0 0 1-.5.5h-1.12v.75a.5.5 0 0 1-.5.5h-2.75a.5.5 0 0 1-.5-.5v-.75H475a.5.5 0 0 1-.5-.5V125h-2.75a.5.5 0 0 1-.5-.5v-8c0-.28.22-.5.5-.5H475m1.63 0h2.75"/><path fill="#000" d="M509.5 112.5h-15a2 2 0 0 0-2 2v15c0 1.1.9 2 2 2h15a2 2 0 0 0 2-2v-15a2 2 0 0 0-2-2"/><path fill="#fff" d="M509.5 113.5h-15a1 1 0 0 0-1 1v15a1 1 0 0 0 1 1h15a1 1 0 0 0 1-1v-15a1 1 0 0 0-1-1m-12.25 3.5h-1v3h1Zm1.5 0h-1v3h1Zm1.5 0h-1v3h1Zm1.5 0h-1v3h1Zm1.5 0h-1v3h1Zm1.5 0h-1v3h1Zm1.5 0h-1v3h1Zm1.5 0h-1v3h1Zm-8.75-1h1.63m2.75 0h4.87c.28 0 .5.22.5.5v8a.5.5 0 0 1-.5.5h-2.75v1.25a.5.5 0 0 1-.5.5h-1.12v.75a.5.5 0 0 1-.5.5h-2.75a.5.5 0 0 1-.5-.5v-.75H499a.5.5 0 0 1-.5-.5V125h-2.75a.5.5 0 0 1-.5-.5v-8c0-.28.22-.5.5-.5H499m1.63 0h2.75"/><path fill="#000" d="M533.5 112.5h-15a2 2 0 0 0-2 2v15c0 1.1.9 2 2 2h15a2 2 0 0 0 2-2v-15a2 2 0 0 0-2-2"/><path fill="#fff" d="M533.5 113.5h-15a1 1 0 0 0-1 1v15a1 1 0 0 0 1 1h15a1 1 0 0 0 1-1v-15a1 1 0 0 0-1-1m-12.25 3.5h-1v3h1Zm1.5 0h-1v3h1Zm1.5 0h-1v3h1Zm1.5 0h-1v3h1Zm1.5 0h-1v3h1Zm1.5 0h-1v3h1Zm1.5 0h-1v3h1Zm1.5 0h-1v3h1Zm-8.75-1h1.63m2.75 0h4.87c.28 0 .5.22.5.5v8a.5.5 0 0 1-.5.5h-2.75v1.25a.5.5 0 0 1-.5.5h-1.12v.75a.5.5 0 0 1-.5.5h-2.75a.5.5 0 0 1-.5-.5v-.75H523a.5.5 0 0 1-.5-.5V125h-2.75a.5.5 0 0 1-.5-.5v-8c0-.28.22-.5.5-.5H523m1.63 0h2.75"/><path fill="#000" d="M557.5 112.5h-15a2 2 0 0 0-2 2v15c0 1.1.9 2 2 2h15a2 2 0 0 0 2-2v-15a2 2 0 0 0-2-2"/><path fill="#fff" d="M557.5 113.5h-15a1 1 0 0 0-1 1v15a1 1 0 0 0 1 1h15a1 1 0 0 0 1-1v-15a1 1 0 0 0-1-1m-12.25 3.5h-1v3h1Zm1.5 0h-1v3h1Zm1.5 0h-1v3h1Zm1.5 0h-1v3h1Zm1.5 0h-1v3h1Zm1.5 0h-1v3h1Zm1.5 0h-1v3h1Zm1.5 0h-1v3h1Zm-8.75-1h1.63m2.75 0h4.87c.28 0 .5.22.5.5v8a.5.5 0 0 1-.5.5h-2.75v1.25a.5.5 0 0 1-.5.5h-1.12v.75a.5.5 0 0 1-.5.5h-2.75a.5.5 0 0 1-.5-.5v-.75H547a.5.5 0 0 1-.5-.5V125h-2.75a.5.5 0 0 1-.5-.5v-8c0-.28.22-.5.5-.5H547m1.63 0h2.75"/><path fill="#000" d="M581.5 112.5h-15a2 2 0 0 0-2 2v15c0 1.1.9 2 2 2h15a2 2 0 0 0 2-2v-15a2 2 0 0 0-2-2"/><path fill="#fff" d="M581.5 113.5h-15a1 1 0 0 0-1 1v15a1 1 0 0 0 1 1h15a1 1 0 0 0 1-1v-15a1 1 0 0 0-1-1m-12.25 3.5h-1v3h1Zm1.5 0h-1v3h1Zm1.5 0h-1v3h1Zm1.5 0h-1v3h1Zm1.5 0h-1v3h1Zm1.5 0h-1v3h1Zm1.5 0h-1v3h1Zm1.5 0h-1v3h1Zm-8.75-1h1.63m2.75 0h4.87c.28 0 .5.22.5.5v8a.5.5 0 0 1-.5.5h-2.75v1.25a.5.5 0 0 1-.5.5h-1.12v.75a.5.5 0 0 1-.5.5h-2.75a.5.5 0 0 1-.5-.5v-.75H571a.5.5 0 0 1-.5-.5V125h-2.75a.5.5 0 0 1-.5-.5v-8c0-.28.22-.5.5-.5H571m1.63 0h2.75"/><path fill="#000" d="M605.5 112.5h-15a2 2 0 0 0-2 2v15c0 1.1.9 2 2 2h15a2 2 0 0 0 2-2v-15a2 2 0 0 0-2-2"/><path fill="#fff" d="M605.5 113.5h-15a1 1 0 0 0-1 1v15a1 1 0 0 0 1 1h15a1 1 0 0 0 1-1v-15a1 1 0 0 0-1-1m-12.25 3.5h-1v3h1Zm1.5 0h-1v3h1Zm1.5 0h-1v3h1Zm1.5 0h-1v3h1Zm1.5 0h-1v3h1Zm1.5 0h-1v3h1Zm1.5 0h-1v3h1Zm1.5 0h-1v3h1Zm-8.75-1h1.63m2.75 0h4.87c.28 0 .5.22.5.5v8a.5.5 0 0 1-.5.5h-2.75v1.25a.5.5 0 0 1-.5.5h-1.12v.75a.5.5 0 0 1-.5.5h-2.75a.5.5 0 0 1-.5-.5v-.75H595a.5.5 0 0 1-.5-.5V125h-2.75a.5.5 0 0 1-.5-.5v-8c0-.28.22-.5.5-.5H595m1.63 0h2.75"/><path fill="#000" d="M485.5 107.5h-15a2 2 0 0 1-2-2v-15c0-1.1.9-2 2-2h15a2 2 0 0 1 2 2v15a2 2 0 0 1-2 2"/><path fill="#fff" d="M485.5 106.5h-15a1 1 0 0 1-1-1v-15a1 1 0 0 1 1-1h15a1 1 0 0 1 1 1v15a1 1 0 0 1-1 1m-12.25-3.5h-1v-3h1Zm1.5 0h-1v-3h1Zm1.5 0h-1v-3h1Zm1.5 0h-1v-3h1Zm1.5 0h-1v-3h1Zm1.5 0h-1v-3h1Zm1.5 0h-1v-3h1Zm1.5 0h-1v-3h1Zm-8.75 1h1.63m2.75 0h4.87a.5.5 0 0 0 .5-.5v-8a.5.5 0 0 0-.5-.5h-2.75v-1.25a.5.5 0 0 0-.5-.5h-1.12v-.75a.5.5 0 0 0-.5-.5h-2.75a.5.5 0 0 0-.5.5v.75H475a.5.5 0 0 0-.5.5V95h-2.75a.5.5 0 0 0-.5.5v8c0 .28.22.5.5.5H475m1.63 0h2.75"/><path fill="#000" d="M509.5 107.5h-15a2 2 0 0 1-2-2v-15c0-1.1.9-2 2-2h15a2 2 0 0 1 2 2v15a2 2 0 0 1-2 2"/><path fill="#fff" d="M509.5 106.5h-15a1 1 0 0 1-1-1v-15a1 1 0 0 1 1-1h15a1 1 0 0 1 1 1v15a1 1 0 0 1-1 1m-12.25-3.5h-1v-3h1Zm1.5 0h-1v-3h1Zm1.5 0h-1v-3h1Zm1.5 0h-1v-3h1Zm1.5 0h-1v-3h1Zm1.5 0h-1v-3h1Zm1.5 0h-1v-3h1Zm1.5 0h-1v-3h1Zm-8.75 1h1.63m2.75 0h4.87a.5.5 0 0 0 .5-.5v-8a.5.5 0 0 0-.5-.5h-2.75v-1.25a.5.5 0 0 0-.5-.5h-1.12v-.75a.5.5 0 0 0-.5-.5h-2.75a.5.5 0 0 0-.5.5v.75H499a.5.5 0 0 0-.5.5V95h-2.75a.5.5 0 0 0-.5.5v8c0 .28.22.5.5.5H499m1.63 0h2.75"/><path fill="#000" d="M533.5 107.5h-15a2 2 0 0 1-2-2v-15c0-1.1.9-2 2-2h15a2 2 0 0 1 2 2v15a2 2 0 0 1-2 2"/><path fill="#fff" d="M533.5 106.5h-15a1 1 0 0 1-1-1v-15a1 1 0 0 1 1-1h15a1 1 0 0 1 1 1v15a1 1 0 0 1-1 1m-12.25-3.5h-1v-3h1Zm1.5 0h-1v-3h1Zm1.5 0h-1v-3h1Zm1.5 0h-1v-3h1Zm1.5 0h-1v-3h1Zm1.5 0h-1v-3h1Zm1.5 0h-1v-3h1Zm1.5 0h-1v-3h1Zm-8.75 1h1.63m2.75 0h4.87a.5.5 0 0 0 .5-.5v-8a.5.5 0 0 0-.5-.5h-2.75v-1.25a.5.5 0 0 0-.5-.5h-1.12v-.75a.5.5 0 0 0-.5-.5h-2.75a.5.5 0 0 0-.5.5v.75H523a.5.5 0 0 0-.5.5V95h-2.75a.5.5 0 0 0-.5.5v8c0 .28.22.5.5.5H523m1.63 0h2.75"/><path fill="#000" d="M557.5 107.5h-15a2 2 0 0 1-2-2v-15c0-1.1.9-2 2-2h15a2 2 0 0 1 2 2v15a2 2 0 0 1-2 2"/><path fill="#fff" d="M557.5 106.5h-15a1 1 0 0 1-1-1v-15a1 1 0 0 1 1-1h15a1 1 0 0 1 1 1v15a1 1 0 0 1-1 1m-12.25-3.5h-1v-3h1Zm1.5 0h-1v-3h1Zm1.5 0h-1v-3h1Zm1.5 0h-1v-3h1Zm1.5 0h-1v-3h1Zm1.5 0h-1v-3h1Zm1.5 0h-1v-3h1Zm1.5 0h-1v-3h1Zm-8.75 1h1.63m2.75 0h4.87a.5.5 0 0 0 .5-.5v-8a.5.5 0 0 0-.5-.5h-2.75v-1.25a.5.5 0 0 0-.5-.5h-1.12v-.75a.5.5 0 0 0-.5-.5h-2.75a.5.5 0 0 0-.5.5v.75H547a.5.5 0 0 0-.5.5V95h-2.75a.5.5 0 0 0-.5.5v8c0 .28.22.5.5.5H547m1.63 0h2.75"/><path fill="#000" d="M581.5 107.5h-15a2 2 0 0 1-2-2v-15c0-1.1.9-2 2-2h15a2 2 0 0 1 2 2v15a2 2 0 0 1-2 2"/><path fill="#fff" d="M581.5 106.5h-15a1 1 0 0 1-1-1v-15a1 1 0 0 1 1-1h15a1 1 0 0 1 1 1v15a1 1 0 0 1-1 1m-12.25-3.5h-1v-3h1Zm1.5 0h-1v-3h1Zm1.5 0h-1v-3h1Zm1.5 0h-1v-3h1Zm1.5 0h-1v-3h1Zm1.5 0h-1v-3h1Zm1.5 0h-1v-3h1Zm1.5 0h-1v-3h1Zm-8.75 1h1.63m2.75 0h4.87a.5.5 0 0 0 .5-.5v-8a.5.5 0 0 0-.5-.5h-2.75v-1.25a.5.5 0 0 0-.5-.5h-1.12v-.75a.5.5 0 0 0-.5-.5h-2.75a.5.5 0 0 0-.5.5v.75H571a.5.5 0 0 0-.5.5V95h-2.75a.5.5 0 0 0-.5.5v8c0 .28.22.5.5.5H571m1.63 0h2.75"/><path fill="#000" d="M605.5 107.5h-15a2 2 0 0 1-2-2v-15c0-1.1.9-2 2-2h15a2 2 0 0 1 2 2v15a2 2 0 0 1-2 2"/><path fill="#fff" d="M605.5 106.5h-15a1 1 0 0 1-1-1v-15a1 1 0 0 1 1-1h15a1 1 0 0 1 1 1v15a1 1 0 0 1-1 1m-12.25-3.5h-1v-3h1Zm1.5 0h-1v-3h1Zm1.5 0h-1v-3h1Zm1.5 0h-1v-3h1Zm1.5 0h-1v-3h1Zm1.5 0h-1v-3h1Zm1.5 0h-1v-3h1Zm1.5 0h-1v-3h1Zm-8.75 1h1.63m2.75 0h4.87a.5.5 0 0 0 .5-.5v-8a.5.5 0 0 0-.5-.5h-2.75v-1.25a.5.5 0 0 0-.5-.5h-1.12v-.75a.5.5 0 0 0-.5-.5h-2.75a.5.5 0 0 0-.5.5v.75H595a.5.5 0 0 0-.5.5V95h-2.75a.5.5 0 0 0-.5.5v8c0 .28.22.5.5.5H595m1.63 0h2.75"/><path fill="#ccc" d="M710 80H460l50-30h150Z"/><path stroke="#000" stroke-linecap="square" d="M710 80H460l50-30h150Z"/><path fill="#fff" d="M559.34 55.83h51.33v18.34h-51.33z"/><path stroke="#000" stroke-linecap="round" stroke-linejoin="round" d="M559.34 55.83h51.33v18.34h-51.33z"/><text fill="#000" transform="translate(561.34 57.83)">
            <tspan xml:space="preserve" x="0" y="11" font-family="Helvetica Neue" font-size="12">lab-sw-1</tspan>
          </text><path stroke="#000" stroke-linecap="square" stroke-width="2" marker-end="url(#a)" marker-start="url(#b)" d="M663 139.7v464.6"/><path stroke="#000" stroke-linecap="square" stroke-width="2" marker-end="url(#a)" marker-start="url(#b)" d="M709.7 622h635.6"/><path stroke="#000" stroke-linecap="square" stroke-width="2" marker-end="url(#a)" marker-start="url(#b)" d="M1392 604.3V139.7"/><path stroke="#000" stroke-linecap="square" stroke-width="2" marker-end="url(#a)" marker-start="url(#b)" d="M1345.3 122H709.7"/><path fill="#fff" d="M1349.5 165.38h84.99v28.45h-84.99z"/><path stroke="#000" stroke-linecap="round" stroke-linejoin="round" stroke-width="2" d="M1349.5 165.38h84.99v28.45h-84.99z"/><text fill="#000" transform="translate(1354.5 170.38)">
          <tspan xml:space="preserve" x="0" y="15" font-family="Helvetica Neue" font-size="16">mge-0/2/1</tspan>
        </text><path fill="#fff" d="M1050.2 607.78h84.99v28.45h-84.99z"/><path stroke="#000" stroke-linecap="round" stroke-linejoin="round" stroke-width="2" d="M1050.2 607.78h84.99v28.45h-84.99z"/><text fill="#000" transform="translate(1055.2 612.78)">
          <tspan xml:space="preserve" x="0" y="15" font-family="Helvetica Neue" font-size="16">mge-0/2/0</tspan>
        </text><path fill="#fff" d="M620.5 502.08h84.99v28.45H620.5z"/><path stroke="#000" stroke-linecap="round" stroke-linejoin="round" stroke-width="2" d="M620.5 502.08h84.99v28.45H620.5z"/><text fill="#000" transform="translate(625.5 507.08)">
          <tspan xml:space="preserve" x="0" y="15" font-family="Helvetica Neue" font-size="16">mge-0/2/0</tspan>
        </text><path fill="#fff" d="M789.4 107.78h84.99v28.45H789.4z"/><path stroke="#000" stroke-linecap="round" stroke-linejoin="round" stroke-width="2" d="M789.4 107.78h84.99v28.45H789.4z"/><text fill="#000" transform="translate(794.4 112.78)">
          <tspan xml:space="preserve" x="0" y="15" font-family="Helvetica Neue" font-size="16">mge-0/2/1</tspan>
        </text><path fill="#fff" d="M1050.2 107.78h84.99v28.45h-84.99z"/><path stroke="#000" stroke-linecap="round" stroke-linejoin="round" stroke-width="2" d="M1050.2 107.78h84.99v28.45h-84.99z"/><text fill="#000" transform="translate(1055.2 112.78)">
          <tspan xml:space="preserve" x="0" y="15" font-family="Helvetica Neue" font-size="16">mge-0/2/0</tspan>
        </text><path fill="#fff" d="M1349.5 502.08h84.99v28.45h-84.99z"/><path stroke="#000" stroke-linecap="round" stroke-linejoin="round" stroke-width="2" d="M1349.5 502.08h84.99v28.45h-84.99z"/><text fill="#000" transform="translate(1354.5 507.08)">
          <tspan xml:space="preserve" x="0" y="15" font-family="Helvetica Neue" font-size="16">mge-0/2/1</tspan>
        </text><path fill="#fff" d="M789.4 607.78h84.99v28.45H789.4z"/><path stroke="#000" stroke-linecap="round" stroke-linejoin="round" stroke-width="2" d="M789.4 607.78h84.99v28.45H789.4z"/><text fill="#000" transform="translate(794.4 612.78)">
          <tspan xml:space="preserve" x="0" y="15" font-family="Helvetica Neue" font-size="16">mge-0/2/1</tspan>
        </text><path fill="#fff" d="M620.5 165.38h84.99v28.45H620.5z"/><path stroke="#000" stroke-linecap="round" stroke-linejoin="round" stroke-width="2" d="M620.5 165.38h84.99v28.45H620.5z"/><text fill="#000" transform="translate(625.5 170.38)">
          <tspan xml:space="preserve" x="0" y="15" font-family="Helvetica Neue" font-size="16">mge-0/2/0</tspan>
        </text><path fill="#fff" d="M110 50h320v401.09H110z"/><path stroke="#000" stroke-linecap="round" stroke-linejoin="round" d="M110 50h320v401.09H110z"/><path fill="#fff" d="M220 175.13h125v28.38H220z"/><path stroke="#000" stroke-linecap="round" stroke-linejoin="round" d="M220 175.13h125v28.38H220z"/><text fill="#000" transform="translate(225 180.1)">
                <tspan xml:space="preserve" x="0" y="15" font-family="Helvetica Neue" font-size="16">10.0.12.0/31</tspan>
              </text><path fill="#fff" d="M120 175.13h100v28.38H120z"/><path stroke="#000" stroke-linecap="round" stroke-linejoin="round" d="M120 175.13h100v28.38H120z"/><text fill="#000" transform="translate(125 180.1)">
                <tspan xml:space="preserve" x="0" y="15" font-family="Helvetica Neue" font-size="16">mge-0/2/1</tspan>
              </text><path fill="#fff" d="M220 146.74h125v28.38H220z"/><path stroke="#000" stroke-linecap="round" stroke-linejoin="round" d="M220 146.74h125v28.38H220z"/><text fill="#000" transform="translate(225 151.71)">
                <tspan xml:space="preserve" x="0" y="15" font-family="Helvetica Neue" font-size="16">10.0.41.1/31</tspan>
              </text><path fill="#fff" d="M120 146.74h100v28.38H120z"/><path stroke="#000" stroke-linecap="round" stroke-linejoin="round" d="M120 146.74h100v28.38H120z"/><text fill="#000" transform="translate(125 151.71)">
                <tspan xml:space="preserve" x="0" y="15" font-family="Helvetica Neue" font-size="16">mge-0/2/0</tspan>
              </text><path fill="#ccc" d="M220 117.91h125v28.83H220z"/><path stroke="#000" stroke-linecap="round" stroke-linejoin="round" d="M220 117.91h125v28.83H220z"/><text fill="#000" transform="translate(225 123.1)">
                <tspan xml:space="preserve" x="0" y="15" font-family="Helvetica Neue" font-size="16">IPv4 Address</tspan>
              </text><path fill="#ccc" d="M120 117.91h100v28.83H120z"/><path stroke="#000" stroke-linecap="round" stroke-linejoin="round" d="M120 117.91h100v28.83H120z"/><text fill="#000" transform="translate(125 123.1)">
                <tspan xml:space="preserve" x="0" y="15" font-family="Helvetica Neue" font-size="16">Name</tspan>
              </text><path fill="#999" d="M120 89.46h225v28.45H120z"/><path stroke="#000" stroke-linecap="round" stroke-linejoin="round" d="M120 89.46h225v28.45H120z"/><text fill="#000" transform="translate(125 94.46)">
              <tspan xml:space="preserve" x="0" y="15" font-family="Helvetica Neue" font-size="16">Interfaces</tspan>
            </text><text fill="#000" transform="translate(125 55)">
            <tspan xml:space="preserve" x="0" y="16" font-family="Helvetica Neue" font-size="16" font-weight="bold">lab-sw-1</tspan>
          </text><path fill="#fff" d="M320 270.41h100v28.45H320z"/><path stroke="#000" stroke-linecap="round" stroke-linejoin="round" d="M320 270.41h100v28.45H320z"/><text fill="#000" transform="translate(325 275.4)">
                <tspan xml:space="preserve" x="0" y="15" font-family="Helvetica Neue" font-size="16">5</tspan>
              </text><path fill="#fff" d="M320 355.75h100v28.45H320z"/><path stroke="#000" stroke-linecap="round" stroke-linejoin="round" d="M320 355.75h100v28.45H320z"/><text fill="#000" transform="translate(325 360.75)">
                <tspan xml:space="preserve" x="0" y="15" font-family="Helvetica Neue" font-size="16">6</tspan>
              </text><path fill="#fff" d="M320 298.85h100v28.45H320z"/><path stroke="#000" stroke-linecap="round" stroke-linejoin="round" d="M320 298.85h100v28.45H320z"/><text fill="#000" transform="translate(325 303.85)">
                <tspan xml:space="preserve" x="0" y="15" font-family="Helvetica Neue" font-size="16">7</tspan>
              </text><path fill="#fff" d="M320 384.2h100v28.45H320z"/><path stroke="#000" stroke-linecap="round" stroke-linejoin="round" d="M320 384.2h100v28.45H320z"/><text fill="#000" transform="translate(325 389.2)">
                <tspan xml:space="preserve" x="0" y="15" font-family="Helvetica Neue" font-size="16">5</tspan>
              </text><path fill="#fff" d="M320 327.3h100v28.45H320z"/><path stroke="#000" stroke-linecap="round" stroke-linejoin="round" d="M320 327.3h100v28.45H320z"/><text fill="#000" transform="translate(325 332.3)">
                <tspan xml:space="preserve" x="0" y="15" font-family="Helvetica Neue" font-size="16">6</tspan>
              </text><path fill="#ccc" d="M320 241.96h100v28.45H320z"/><path stroke="#000" stroke-linecap="round" stroke-linejoin="round" d="M320 241.96h100v28.45H320z"/><text fill="#000" transform="translate(325 246.96)">
                <tspan xml:space="preserve" x="0" y="15" font-family="Helvetica Neue" font-size="16">Preference</tspan>
              </text><path fill="#fff" d="M320 412.65h100v28.45H320z"/><path stroke="#000" stroke-linecap="round" stroke-linejoin="round" d="M320 412.65h100v28.45H320z"/><text fill="#000" transform="translate(325 417.65)">
                <tspan xml:space="preserve" x="0" y="15" font-family="Helvetica Neue" font-size="16">7</tspan>
              </text><path fill="#fff" d="M120 412.65h100v28.45H120z"/><path stroke="#000" stroke-linecap="round" stroke-linejoin="round" d="M120 412.65h100v28.45H120z"/><text fill="#000" transform="translate(125 417.65)">
                <tspan xml:space="preserve" x="0" y="15" font-family="Helvetica Neue" font-size="16">10.4.0.0/16</tspan>
              </text><path fill="#fff" d="M220 412.65h100v28.45H220z"/><path stroke="#000" stroke-linecap="round" stroke-linejoin="round" d="M220 412.65h100v28.45H220z"/><text fill="#000" transform="translate(225 417.65)">
                <tspan xml:space="preserve" x="0" y="15" font-family="Helvetica Neue" font-size="16">10.0.12.1</tspan>
              </text><path fill="#fff" d="M220 355.75h100v28.45H220z"/><path stroke="#000" stroke-linecap="round" stroke-linejoin="round" d="M220 355.75h100v28.45H220z"/><text fill="#000" transform="translate(225 360.75)">
                <tspan xml:space="preserve" x="0" y="15" font-family="Helvetica Neue" font-size="16">10.0.41.0</tspan>
              </text><path fill="#fff" d="M120 355.75h100v28.45H120z"/><path stroke="#000" stroke-linecap="round" stroke-linejoin="round" d="M120 355.75h100v28.45H120z"/><text fill="#000" transform="translate(125 360.75)">
                <tspan xml:space="preserve" x="0" y="15" font-family="Helvetica Neue" font-size="16">10.3.0.0/16</tspan>
              </text><path fill="#fff" d="M120 298.85h100v28.45H120z"/><path stroke="#000" stroke-linecap="round" stroke-linejoin="round" d="M120 298.85h100v28.45H120z"/><text fill="#000" transform="translate(125 303.85)">
                <tspan xml:space="preserve" x="0" y="15" font-family="Helvetica Neue" font-size="16">10.2.0.0/16</tspan>
              </text><path fill="#fff" d="M220 298.85h100v28.45H220z"/><path stroke="#000" stroke-linecap="round" stroke-linejoin="round" d="M220 298.85h100v28.45H220z"/><text fill="#000" transform="translate(225 303.85)">
                <tspan xml:space="preserve" x="0" y="15" font-family="Helvetica Neue" font-size="16">10.0.41.0</tspan>
              </text><path fill="#fff" d="M220 384.2h100v28.45H220z"/><path stroke="#000" stroke-linecap="round" stroke-linejoin="round" d="M220 384.2h100v28.45H220z"/><text fill="#000" transform="translate(225 389.2)">
                <tspan xml:space="preserve" x="0" y="15" font-family="Helvetica Neue" font-size="16">10.0.41.0</tspan>
              </text><path fill="#fff" d="M120 384.2h100v28.45H120z"/><path stroke="#000" stroke-linecap="round" stroke-linejoin="round" d="M120 384.2h100v28.45H120z"/><text fill="#000" transform="translate(125 389.2)">
                <tspan xml:space="preserve" x="0" y="15" font-family="Helvetica Neue" font-size="16">10.4.0.0/16</tspan>
              </text><path fill="#fff" d="M220 327.3h100v28.45H220z"/><path stroke="#000" stroke-linecap="round" stroke-linejoin="round" d="M220 327.3h100v28.45H220z"/><text fill="#000" transform="translate(225 332.3)">
                <tspan xml:space="preserve" x="0" y="15" font-family="Helvetica Neue" font-size="16">10.0.12.1</tspan>
              </text><path fill="#fff" d="M120 327.3h100v28.45H120z"/><path stroke="#000" stroke-linecap="round" stroke-linejoin="round" d="M120 327.3h100v28.45H120z"/><text fill="#000" transform="translate(125 332.3)">
                <tspan xml:space="preserve" x="0" y="15" font-family="Helvetica Neue" font-size="16">10.3.0.0/16</tspan>
              </text><path fill="#fff" d="M220 270.41h100v28.45H220z"/><path stroke="#000" stroke-linecap="round" stroke-linejoin="round" d="M220 270.41h100v28.45H220z"/><text fill="#000" transform="translate(225 275.4)">
                <tspan xml:space="preserve" x="0" y="15" font-family="Helvetica Neue" font-size="16">10.0.12.1</tspan>
              </text><path fill="#fff" d="M120 270.41h100v28.45H120z"/><path stroke="#000" stroke-linecap="round" stroke-linejoin="round" d="M120 270.41h100v28.45H120z"/><text fill="#000" transform="translate(125 275.4)">
                <tspan xml:space="preserve" x="0" y="15" font-family="Helvetica Neue" font-size="16">10.2.0.0/16</tspan>
              </text><path fill="#ccc" d="M220 241.96h100v28.45H220z"/><path stroke="#000" stroke-linecap="round" stroke-linejoin="round" d="M220 241.96h100v28.45H220z"/><text fill="#000" transform="translate(225 246.96)">
                <tspan xml:space="preserve" x="0" y="15" font-family="Helvetica Neue" font-size="16">Next Hop</tspan>
              </text><path fill="#ccc" d="M120 241.96h100v28.45H120z"/><path stroke="#000" stroke-linecap="round" stroke-linejoin="round" d="M120 241.96h100v28.45H120z"/><text fill="#000" transform="translate(125 246.96)">
                <tspan xml:space="preserve" x="0" y="15" font-family="Helvetica Neue" font-size="16">Prefix</tspan>
              </text><path fill="#999" d="M120 213.51h300v28.45H120z"/><path stroke="#000" stroke-linecap="round" stroke-linejoin="round" d="M120 213.51h300v28.45H120z"/><text fill="#000" transform="translate(125 218.51)">
              <tspan xml:space="preserve" x="0" y="15" font-family="Helvetica Neue" font-size="16">Static Routes</tspan>
            </text><path fill="#fff" d="M110 550h320v401.09H110z"/><path stroke="#000" stroke-linecap="round" stroke-linejoin="round" d="M110 550h320v401.09H110z"/><path fill="#fff" d="M220 675.13h125v28.38H220z"/><path stroke="#000" stroke-linecap="round" stroke-linejoin="round" d="M220 675.13h125v28.38H220z"/><text fill="#000" transform="translate(225 680.1)">
                <tspan xml:space="preserve" x="0" y="15" font-family="Helvetica Neue" font-size="16">10.0.34.1/31</tspan>
              </text><path fill="#fff" d="M120 675.13h100v28.38H120z"/><path stroke="#000" stroke-linecap="round" stroke-linejoin="round" d="M120 675.13h100v28.38H120z"/><text fill="#000" transform="translate(125 680.1)">
                <tspan xml:space="preserve" x="0" y="15" font-family="Helvetica Neue" font-size="16">mge-0/2/1</tspan>
              </text><path fill="#fff" d="M220 646.74h125v28.38H220z"/><path stroke="#000" stroke-linecap="round" stroke-linejoin="round" d="M220 646.74h125v28.38H220z"/><text fill="#000" transform="translate(225 651.71)">
                <tspan xml:space="preserve" x="0" y="15" font-family="Helvetica Neue" font-size="16">10.0.41.0/31</tspan>
              </text><path fill="#fff" d="M120 646.74h100v28.38H120z"/><path stroke="#000" stroke-linecap="round" stroke-linejoin="round" d="M120 646.74h100v28.38H120z"/><text fill="#000" transform="translate(125 651.71)">
                <tspan xml:space="preserve" x="0" y="15" font-family="Helvetica Neue" font-size="16">mge-0/2/0</tspan>
              </text><path fill="#ccc" d="M220 617.91h125v28.83H220z"/><path stroke="#000" stroke-linecap="round" stroke-linejoin="round" d="M220 617.91h125v28.83H220z"/><text fill="#000" transform="translate(225 623.1)">
                <tspan xml:space="preserve" x="0" y="15" font-family="Helvetica Neue" font-size="16">IPv4 Address</tspan>
              </text><path fill="#ccc" d="M120 617.91h100v28.83H120z"/><path stroke="#000" stroke-linecap="round" stroke-linejoin="round" d="M120 617.91h100v28.83H120z"/><text fill="#000" transform="translate(125 623.1)">
                <tspan xml:space="preserve" x="0" y="15" font-family="Helvetica Neue" font-size="16">Name</tspan>
              </text><path fill="#999" d="M120 589.46h225v28.45H120z"/><path stroke="#000" stroke-linecap="round" stroke-linejoin="round" d="M120 589.46h225v28.45H120z"/><text fill="#000" transform="translate(125 594.46)">
              <tspan xml:space="preserve" x="0" y="15" font-family="Helvetica Neue" font-size="16">Interfaces</tspan>
            </text><text fill="#000" transform="translate(125 555)">
            <tspan xml:space="preserve" x="0" y="16" font-family="Helvetica Neue" font-size="16" font-weight="bold">lab-sw-4</tspan>
          </text><path fill="#fff" d="M320 770.41h100v28.45H320z"/><path stroke="#000" stroke-linecap="round" stroke-linejoin="round" d="M320 770.41h100v28.45H320z"/><text fill="#000" transform="translate(325 775.4)">
                <tspan xml:space="preserve" x="0" y="15" font-family="Helvetica Neue" font-size="16">5</tspan>
              </text><path fill="#fff" d="M320 855.75h100v28.45H320z"/><path stroke="#000" stroke-linecap="round" stroke-linejoin="round" d="M320 855.75h100v28.45H320z"/><text fill="#000" transform="translate(325 860.75)">
                <tspan xml:space="preserve" x="0" y="15" font-family="Helvetica Neue" font-size="16">6</tspan>
              </text><path fill="#fff" d="M320 798.85h100v28.45H320z"/><path stroke="#000" stroke-linecap="round" stroke-linejoin="round" d="M320 798.85h100v28.45H320z"/><text fill="#000" transform="translate(325 803.85)">
                <tspan xml:space="preserve" x="0" y="15" font-family="Helvetica Neue" font-size="16">7</tspan>
              </text><path fill="#fff" d="M320 884.2h100v28.45H320z"/><path stroke="#000" stroke-linecap="round" stroke-linejoin="round" d="M320 884.2h100v28.45H320z"/><text fill="#000" transform="translate(325 889.2)">
                <tspan xml:space="preserve" x="0" y="15" font-family="Helvetica Neue" font-size="16">5</tspan>
              </text><path fill="#fff" d="M320 827.3h100v28.45H320z"/><path stroke="#000" stroke-linecap="round" stroke-linejoin="round" d="M320 827.3h100v28.45H320z"/><text fill="#000" transform="translate(325 832.3)">
                <tspan xml:space="preserve" x="0" y="15" font-family="Helvetica Neue" font-size="16">6</tspan>
              </text><path fill="#ccc" d="M320 741.96h100v28.45H320z"/><path stroke="#000" stroke-linecap="round" stroke-linejoin="round" d="M320 741.96h100v28.45H320z"/><text fill="#000" transform="translate(325 746.96)">
                <tspan xml:space="preserve" x="0" y="15" font-family="Helvetica Neue" font-size="16">Preference</tspan>
              </text><path fill="#fff" d="M320 912.65h100v28.45H320z"/><path stroke="#000" stroke-linecap="round" stroke-linejoin="round" d="M320 912.65h100v28.45H320z"/><text fill="#000" transform="translate(325 917.65)">
                <tspan xml:space="preserve" x="0" y="15" font-family="Helvetica Neue" font-size="16">7</tspan>
              </text><path fill="#fff" d="M120 912.65h100v28.45H120z"/><path stroke="#000" stroke-linecap="round" stroke-linejoin="round" d="M120 912.65h100v28.45H120z"/><text fill="#000" transform="translate(125 917.65)">
                <tspan xml:space="preserve" x="0" y="15" font-family="Helvetica Neue" font-size="16">10.3.0.0/16</tspan>
              </text><path fill="#fff" d="M220 912.65h100v28.45H220z"/><path stroke="#000" stroke-linecap="round" stroke-linejoin="round" d="M220 912.65h100v28.45H220z"/><text fill="#000" transform="translate(225 917.65)">
                <tspan xml:space="preserve" x="0" y="15" font-family="Helvetica Neue" font-size="16">10.0.41.1</tspan>
              </text><path fill="#fff" d="M220 855.75h100v28.45H220z"/><path stroke="#000" stroke-linecap="round" stroke-linejoin="round" d="M220 855.75h100v28.45H220z"/><text fill="#000" transform="translate(225 860.75)">
                <tspan xml:space="preserve" x="0" y="15" font-family="Helvetica Neue" font-size="16">10.0.41.1</tspan>
              </text><path fill="#fff" d="M120 855.75h100v28.45H120z"/><path stroke="#000" stroke-linecap="round" stroke-linejoin="round" d="M120 855.75h100v28.45H120z"/><text fill="#000" transform="translate(125 860.75)">
                <tspan xml:space="preserve" x="0" y="15" font-family="Helvetica Neue" font-size="16">10.2.0.0/16</tspan>
              </text><path fill="#fff" d="M120 798.85h100v28.45H120z"/><path stroke="#000" stroke-linecap="round" stroke-linejoin="round" d="M120 798.85h100v28.45H120z"/><text fill="#000" transform="translate(125 803.85)">
                <tspan xml:space="preserve" x="0" y="15" font-family="Helvetica Neue" font-size="16">10.1.0.0/16</tspan>
              </text><path fill="#fff" d="M220 798.85h100v28.45H220z"/><path stroke="#000" stroke-linecap="round" stroke-linejoin="round" d="M220 798.85h100v28.45H220z"/><text fill="#000" transform="translate(225 803.85)">
                <tspan xml:space="preserve" x="0" y="15" font-family="Helvetica Neue" font-size="16">10.0.34.0</tspan>
              </text><path fill="#fff" d="M220 884.2h100v28.45H220z"/><path stroke="#000" stroke-linecap="round" stroke-linejoin="round" d="M220 884.2h100v28.45H220z"/><text fill="#000" transform="translate(225 889.2)">
                <tspan xml:space="preserve" x="0" y="15" font-family="Helvetica Neue" font-size="16">10.0.34.0</tspan>
              </text><path fill="#fff" d="M120 884.2h100v28.45H120z"/><path stroke="#000" stroke-linecap="round" stroke-linejoin="round" d="M120 884.2h100v28.45H120z"/><text fill="#000" transform="translate(125 889.2)">
                <tspan xml:space="preserve" x="0" y="15" font-family="Helvetica Neue" font-size="16">10.3.0.0/16</tspan>
              </text><path fill="#fff" d="M220 827.3h100v28.45H220z"/><path stroke="#000" stroke-linecap="round" stroke-linejoin="round" d="M220 827.3h100v28.45H220z"/><text fill="#000" transform="translate(225 832.3)">
                <tspan xml:space="preserve" x="0" y="15" font-family="Helvetica Neue" font-size="16">10.0.34.0</tspan>
              </text><path fill="#fff" d="M120 827.3h100v28.45H120z"/><path stroke="#000" stroke-linecap="round" stroke-linejoin="round" d="M120 827.3h100v28.45H120z"/><text fill="#000" transform="translate(125 832.3)">
                <tspan xml:space="preserve" x="0" y="15" font-family="Helvetica Neue" font-size="16">10.2.0.0/16</tspan>
              </text><path fill="#fff" d="M220 770.41h100v28.45H220z"/><path stroke="#000" stroke-linecap="round" stroke-linejoin="round" d="M220 770.41h100v28.45H220z"/><text fill="#000" transform="translate(225 775.4)">
                <tspan xml:space="preserve" x="0" y="15" font-family="Helvetica Neue" font-size="16">10.0.41.1</tspan>
              </text><path fill="#fff" d="M120 770.41h100v28.45H120z"/><path stroke="#000" stroke-linecap="round" stroke-linejoin="round" d="M120 770.41h100v28.45H120z"/><text fill="#000" transform="translate(125 775.4)">
                <tspan xml:space="preserve" x="0" y="15" font-family="Helvetica Neue" font-size="16">10.1.0.0/16</tspan>
              </text><path fill="#ccc" d="M220 741.96h100v28.45H220z"/><path stroke="#000" stroke-linecap="round" stroke-linejoin="round" d="M220 741.96h100v28.45H220z"/><text fill="#000" transform="translate(225 746.96)">
                <tspan xml:space="preserve" x="0" y="15" font-family="Helvetica Neue" font-size="16">Next Hop</tspan>
              </text><path fill="#ccc" d="M120 741.96h100v28.45H120z"/><path stroke="#000" stroke-linecap="round" stroke-linejoin="round" d="M120 741.96h100v28.45H120z"/><text fill="#000" transform="translate(125 746.96)">
                <tspan xml:space="preserve" x="0" y="15" font-family="Helvetica Neue" font-size="16">Prefix</tspan>
              </text><path fill="#999" d="M120 713.51h300v28.45H120z"/><path stroke="#000" stroke-linecap="round" stroke-linejoin="round" d="M120 713.51h300v28.45H120z"/><text fill="#000" transform="translate(125 718.51)">
              <tspan xml:space="preserve" x="0" y="15" font-family="Helvetica Neue" font-size="16">Static Routes</tspan>
            </text><path fill="#fff" d="M1440 50h320v401.09h-320z"/><path stroke="#000" stroke-linecap="round" stroke-linejoin="round" d="M1440 50h320v401.09h-320z"/><path fill="#fff" d="M1550 175.13h125v28.38h-125z"/><path stroke="#000" stroke-linecap="round" stroke-linejoin="round" d="M1550 175.13h125v28.38h-125z"/><text fill="#000" transform="translate(1555 180.1)">
                <tspan xml:space="preserve" x="0" y="15" font-family="Helvetica Neue" font-size="16">10.0.23.0/31</tspan>
              </text><path fill="#fff" d="M1450 175.13h100v28.38h-100z"/><path stroke="#000" stroke-linecap="round" stroke-linejoin="round" d="M1450 175.13h100v28.38h-100z"/><text fill="#000" transform="translate(1455 180.1)">
                <tspan xml:space="preserve" x="0" y="15" font-family="Helvetica Neue" font-size="16">mge-0/2/1</tspan>
              </text><path fill="#fff" d="M1550 146.74h125v28.38h-125z"/><path stroke="#000" stroke-linecap="round" stroke-linejoin="round" d="M1550 146.74h125v28.38h-125z"/><text fill="#000" transform="translate(1555 151.71)">
                <tspan xml:space="preserve" x="0" y="15" font-family="Helvetica Neue" font-size="16">10.0.12.1/31</tspan>
              </text><path fill="#fff" d="M1450 146.74h100v28.38h-100z"/><path stroke="#000" stroke-linecap="round" stroke-linejoin="round" d="M1450 146.74h100v28.38h-100z"/><text fill="#000" transform="translate(1455 151.71)">
                <tspan xml:space="preserve" x="0" y="15" font-family="Helvetica Neue" font-size="16">mge-0/2/0</tspan>
              </text><path fill="#ccc" d="M1550 117.91h125v28.83h-125z"/><path stroke="#000" stroke-linecap="round" stroke-linejoin="round" d="M1550 117.91h125v28.83h-125z"/><text fill="#000" transform="translate(1555 123.1)">
                <tspan xml:space="preserve" x="0" y="15" font-family="Helvetica Neue" font-size="16">IPv4 Address</tspan>
              </text><path fill="#ccc" d="M1450 117.91h100v28.83h-100z"/><path stroke="#000" stroke-linecap="round" stroke-linejoin="round" d="M1450 117.91h100v28.83h-100z"/><text fill="#000" transform="translate(1455 123.1)">
                <tspan xml:space="preserve" x="0" y="15" font-family="Helvetica Neue" font-size="16">Name</tspan>
              </text><path fill="#999" d="M1450 89.46h225v28.45h-225z"/><path stroke="#000" stroke-linecap="round" stroke-linejoin="round" d="M1450 89.46h225v28.45h-225z"/><text fill="#000" transform="translate(1455 94.46)">
              <tspan xml:space="preserve" x="0" y="15" font-family="Helvetica Neue" font-size="16">Interfaces</tspan>
            </text><text fill="#000" transform="translate(1455 55)">
            <tspan xml:space="preserve" x="0" y="16" font-family="Helvetica Neue" font-size="16" font-weight="bold">lab-sw-2</tspan>
          </text><path fill="#fff" d="M1650 270.41h100v28.45h-100z"/><path stroke="#000" stroke-linecap="round" stroke-linejoin="round" d="M1650 270.41h100v28.45h-100z"/><text fill="#000" transform="translate(1655 275.4)">
                <tspan xml:space="preserve" x="0" y="15" font-family="Helvetica Neue" font-size="16">5</tspan>
              </text><path fill="#fff" d="M1650 355.75h100v28.45h-100z"/><path stroke="#000" stroke-linecap="round" stroke-linejoin="round" d="M1650 355.75h100v28.45h-100z"/><text fill="#000" transform="translate(1655 360.75)">
                <tspan xml:space="preserve" x="0" y="15" font-family="Helvetica Neue" font-size="16">7</tspan>
              </text><path fill="#fff" d="M1650 298.85h100v28.45h-100z"/><path stroke="#000" stroke-linecap="round" stroke-linejoin="round" d="M1650 298.85h100v28.45h-100z"/><text fill="#000" transform="translate(1655 303.85)">
                <tspan xml:space="preserve" x="0" y="15" font-family="Helvetica Neue" font-size="16">7</tspan>
              </text><path fill="#fff" d="M1650 384.2h100v28.45h-100z"/><path stroke="#000" stroke-linecap="round" stroke-linejoin="round" d="M1650 384.2h100v28.45h-100z"/><text fill="#000" transform="translate(1655 389.2)">
                <tspan xml:space="preserve" x="0" y="15" font-family="Helvetica Neue" font-size="16">6</tspan>
              </text><path fill="#fff" d="M1650 327.3h100v28.45h-100z"/><path stroke="#000" stroke-linecap="round" stroke-linejoin="round" d="M1650 327.3h100v28.45h-100z"/><text fill="#000" transform="translate(1655 332.3)">
                <tspan xml:space="preserve" x="0" y="15" font-family="Helvetica Neue" font-size="16">5</tspan>
              </text><path fill="#ccc" d="M1650 241.96h100v28.45h-100z"/><path stroke="#000" stroke-linecap="round" stroke-linejoin="round" d="M1650 241.96h100v28.45h-100z"/><text fill="#000" transform="translate(1655 246.96)">
                <tspan xml:space="preserve" x="0" y="15" font-family="Helvetica Neue" font-size="16">Preference</tspan>
              </text><path fill="#fff" d="M1650 412.65h100v28.45h-100z"/><path stroke="#000" stroke-linecap="round" stroke-linejoin="round" d="M1650 412.65h100v28.45h-100z"/><text fill="#000" transform="translate(1655 417.65)">
                <tspan xml:space="preserve" x="0" y="15" font-family="Helvetica Neue" font-size="16">6</tspan>
              </text><path fill="#fff" d="M1450 412.65h100v28.45h-100z"/><path stroke="#000" stroke-linecap="round" stroke-linejoin="round" d="M1450 412.65h100v28.45h-100z"/><text fill="#000" transform="translate(1455 417.65)">
                <tspan xml:space="preserve" x="0" y="15" font-family="Helvetica Neue" font-size="16">10.4.0.0/16</tspan>
              </text><path fill="#fff" d="M1550 412.65h100v28.45h-100z"/><path stroke="#000" stroke-linecap="round" stroke-linejoin="round" d="M1550 412.65h100v28.45h-100z"/><text fill="#000" transform="translate(1555 417.65)">
                <tspan xml:space="preserve" x="0" y="15" font-family="Helvetica Neue" font-size="16">10.0.12.0</tspan>
              </text><path fill="#fff" d="M1550 355.75h100v28.45h-100z"/><path stroke="#000" stroke-linecap="round" stroke-linejoin="round" d="M1550 355.75h100v28.45h-100z"/><text fill="#000" transform="translate(1555 360.75)">
                <tspan xml:space="preserve" x="0" y="15" font-family="Helvetica Neue" font-size="16">10.0.12.0</tspan>
              </text><path fill="#fff" d="M1450 355.75h100v28.45h-100z"/><path stroke="#000" stroke-linecap="round" stroke-linejoin="round" d="M1450 355.75h100v28.45h-100z"/><text fill="#000" transform="translate(1455 360.75)">
                <tspan xml:space="preserve" x="0" y="15" font-family="Helvetica Neue" font-size="16">10.3.0.0/16</tspan>
              </text><path fill="#fff" d="M1450 298.85h100v28.45h-100z"/><path stroke="#000" stroke-linecap="round" stroke-linejoin="round" d="M1450 298.85h100v28.45h-100z"/><text fill="#000" transform="translate(1455 303.85)">
                <tspan xml:space="preserve" x="0" y="15" font-family="Helvetica Neue" font-size="16">10.1.0.0/16</tspan>
              </text><path fill="#fff" d="M1550 298.85h100v28.45h-100z"/><path stroke="#000" stroke-linecap="round" stroke-linejoin="round" d="M1550 298.85h100v28.45h-100z"/><text fill="#000" transform="translate(1555 303.85)">
                <tspan xml:space="preserve" x="0" y="15" font-family="Helvetica Neue" font-size="16">10.0.23.1</tspan>
              </text><path fill="#fff" d="M1550 384.2h100v28.45h-100z"/><path stroke="#000" stroke-linecap="round" stroke-linejoin="round" d="M1550 384.2h100v28.45h-100z"/><text fill="#000" transform="translate(1555 389.2)">
                <tspan xml:space="preserve" x="0" y="15" font-family="Helvetica Neue" font-size="16">10.0.23.1</tspan>
              </text><path fill="#fff" d="M1450 384.2h100v28.45h-100z"/><path stroke="#000" stroke-linecap="round" stroke-linejoin="round" d="M1450 384.2h100v28.45h-100z"/><text fill="#000" transform="translate(1455 389.2)">
                <tspan xml:space="preserve" x="0" y="15" font-family="Helvetica Neue" font-size="16">10.4.0.0/16</tspan>
              </text><path fill="#fff" d="M1550 327.3h100v28.45h-100z"/><path stroke="#000" stroke-linecap="round" stroke-linejoin="round" d="M1550 327.3h100v28.45h-100z"/><text fill="#000" transform="translate(1555 332.3)">
                <tspan xml:space="preserve" x="0" y="15" font-family="Helvetica Neue" font-size="16">10.0.23.1</tspan>
              </text><path fill="#fff" d="M1450 327.3h100v28.45h-100z"/><path stroke="#000" stroke-linecap="round" stroke-linejoin="round" d="M1450 327.3h100v28.45h-100z"/><text fill="#000" transform="translate(1455 332.3)">
                <tspan xml:space="preserve" x="0" y="15" font-family="Helvetica Neue" font-size="16">10.3.0.0/16</tspan>
              </text><path fill="#fff" d="M1550 270.41h100v28.45h-100z"/><path stroke="#000" stroke-linecap="round" stroke-linejoin="round" d="M1550 270.41h100v28.45h-100z"/><text fill="#000" transform="translate(1555 275.4)">
                <tspan xml:space="preserve" x="0" y="15" font-family="Helvetica Neue" font-size="16">10.0.12.0</tspan>
              </text><path fill="#fff" d="M1450 270.41h100v28.45h-100z"/><path stroke="#000" stroke-linecap="round" stroke-linejoin="round" d="M1450 270.41h100v28.45h-100z"/><text fill="#000" transform="translate(1455 275.4)">
                <tspan xml:space="preserve" x="0" y="15" font-family="Helvetica Neue" font-size="16">10.1.0.0/16</tspan>
              </text><path fill="#ccc" d="M1550 241.96h100v28.45h-100z"/><path stroke="#000" stroke-linecap="round" stroke-linejoin="round" d="M1550 241.96h100v28.45h-100z"/><text fill="#000" transform="translate(1555 246.96)">
                <tspan xml:space="preserve" x="0" y="15" font-family="Helvetica Neue" font-size="16">Next Hop</tspan>
              </text><path fill="#ccc" d="M1450 241.96h100v28.45h-100z"/><path stroke="#000" stroke-linecap="round" stroke-linejoin="round" d="M1450 241.96h100v28.45h-100z"/><text fill="#000" transform="translate(1455 246.96)">
                <tspan xml:space="preserve" x="0" y="15" font-family="Helvetica Neue" font-size="16">Prefix</tspan>
              </text><path fill="#999" d="M1450 213.51h300v28.45h-300z"/><path stroke="#000" stroke-linecap="round" stroke-linejoin="round" d="M1450 213.51h300v28.45h-300z"/><text fill="#000" transform="translate(1455 218.51)">
              <tspan xml:space="preserve" x="0" y="15" font-family="Helvetica Neue" font-size="16">Static Routes</tspan>
            </text><path fill="#fff" d="M1440 550h320v401.09h-320z"/><path stroke="#000" stroke-linecap="round" stroke-linejoin="round" d="M1440 550h320v401.09h-320z"/><path fill="#fff" d="M1550 675.13h125v28.38h-125z"/><path stroke="#000" stroke-linecap="round" stroke-linejoin="round" d="M1550 675.13h125v28.38h-125z"/><text fill="#000" transform="translate(1555 680.1)">
                <tspan xml:space="preserve" x="0" y="15" font-family="Helvetica Neue" font-size="16">10.0.23.1/31</tspan>
              </text><path fill="#fff" d="M1450 675.13h100v28.38h-100z"/><path stroke="#000" stroke-linecap="round" stroke-linejoin="round" d="M1450 675.13h100v28.38h-100z"/><text fill="#000" transform="translate(1455 680.1)">
                <tspan xml:space="preserve" x="0" y="15" font-family="Helvetica Neue" font-size="16">mge-0/2/1</tspan>
              </text><path fill="#fff" d="M1550 646.74h125v28.38h-125z"/><path stroke="#000" stroke-linecap="round" stroke-linejoin="round" d="M1550 646.74h125v28.38h-125z"/><text fill="#000" transform="translate(1555 651.71)">
                <tspan xml:space="preserve" x="0" y="15" font-family="Helvetica Neue" font-size="16">10.0.34.0/31</tspan>
              </text><path fill="#fff" d="M1450 646.74h100v28.38h-100z"/><path stroke="#000" stroke-linecap="round" stroke-linejoin="round" d="M1450 646.74h100v28.38h-100z"/><text fill="#000" transform="translate(1455 651.71)">
                <tspan xml:space="preserve" x="0" y="15" font-family="Helvetica Neue" font-size="16">mge-0/2/0</tspan>
              </text><path fill="#ccc" d="M1550 617.91h125v28.83h-125z"/><path stroke="#000" stroke-linecap="round" stroke-linejoin="round" d="M1550 617.91h125v28.83h-125z"/><text fill="#000" transform="translate(1555 623.1)">
                <tspan xml:space="preserve" x="0" y="15" font-family="Helvetica Neue" font-size="16">IPv4 Address</tspan>
              </text><path fill="#ccc" d="M1450 617.91h100v28.83h-100z"/><path stroke="#000" stroke-linecap="round" stroke-linejoin="round" d="M1450 617.91h100v28.83h-100z"/><text fill="#000" transform="translate(1455 623.1)">
                <tspan xml:space="preserve" x="0" y="15" font-family="Helvetica Neue" font-size="16">Name</tspan>
              </text><path fill="#999" d="M1450 589.46h225v28.45h-225z"/><path stroke="#000" stroke-linecap="round" stroke-linejoin="round" d="M1450 589.46h225v28.45h-225z"/><text fill="#000" transform="translate(1455 594.46)">
              <tspan xml:space="preserve" x="0" y="15" font-family="Helvetica Neue" font-size="16">Interfaces</tspan>
            </text><text fill="#000" transform="translate(1455 555)">
            <tspan xml:space="preserve" x="0" y="16" font-family="Helvetica Neue" font-size="16" font-weight="bold">lab-sw-3</tspan>
          </text><path fill="#fff" d="M1650 770.41h100v28.45h-100z"/><path stroke="#000" stroke-linecap="round" stroke-linejoin="round" d="M1650 770.41h100v28.45h-100z"/><text fill="#000" transform="translate(1655 775.4)">
                <tspan xml:space="preserve" x="0" y="15" font-family="Helvetica Neue" font-size="16">6</tspan>
              </text><path fill="#fff" d="M1650 855.75h100v28.45h-100z"/><path stroke="#000" stroke-linecap="round" stroke-linejoin="round" d="M1650 855.75h100v28.45h-100z"/><text fill="#000" transform="translate(1655 860.75)">
                <tspan xml:space="preserve" x="0" y="15" font-family="Helvetica Neue" font-size="16">7</tspan>
              </text><path fill="#fff" d="M1650 798.85h100v28.45h-100z"/><path stroke="#000" stroke-linecap="round" stroke-linejoin="round" d="M1650 798.85h100v28.45h-100z"/><text fill="#000" transform="translate(1655 803.85)">
                <tspan xml:space="preserve" x="0" y="15" font-family="Helvetica Neue" font-size="16">6</tspan>
              </text><path fill="#fff" d="M1650 884.2h100v28.45h-100z"/><path stroke="#000" stroke-linecap="round" stroke-linejoin="round" d="M1650 884.2h100v28.45h-100z"/><text fill="#000" transform="translate(1655 889.2)">
                <tspan xml:space="preserve" x="0" y="15" font-family="Helvetica Neue" font-size="16">5</tspan>
              </text><path fill="#fff" d="M1650 827.3h100v28.45h-100z"/><path stroke="#000" stroke-linecap="round" stroke-linejoin="round" d="M1650 827.3h100v28.45h-100z"/><text fill="#000" transform="translate(1655 832.3)">
                <tspan xml:space="preserve" x="0" y="15" font-family="Helvetica Neue" font-size="16">5</tspan>
              </text><path fill="#ccc" d="M1650 741.96h100v28.45h-100z"/><path stroke="#000" stroke-linecap="round" stroke-linejoin="round" d="M1650 741.96h100v28.45h-100z"/><text fill="#000" transform="translate(1655 746.96)">
                <tspan xml:space="preserve" x="0" y="15" font-family="Helvetica Neue" font-size="16">Preference</tspan>
              </text><path fill="#fff" d="M1650 912.65h100v28.45h-100z"/><path stroke="#000" stroke-linecap="round" stroke-linejoin="round" d="M1650 912.65h100v28.45h-100z"/><text fill="#000" transform="translate(1655 917.65)">
                <tspan xml:space="preserve" x="0" y="15" font-family="Helvetica Neue" font-size="16">7</tspan>
              </text><path fill="#fff" d="M1450 912.65h100v28.45h-100z"/><path stroke="#000" stroke-linecap="round" stroke-linejoin="round" d="M1450 912.65h100v28.45h-100z"/><text fill="#000" transform="translate(1455 917.65)">
                <tspan xml:space="preserve" x="0" y="15" font-family="Helvetica Neue" font-size="16">10.4.0.0/16</tspan>
              </text><path fill="#fff" d="M1550 912.65h100v28.45h-100z"/><path stroke="#000" stroke-linecap="round" stroke-linejoin="round" d="M1550 912.65h100v28.45h-100z"/><text fill="#000" transform="translate(1555 917.65)">
                <tspan xml:space="preserve" x="0" y="15" font-family="Helvetica Neue" font-size="16">10.0.23.0</tspan>
              </text><path fill="#fff" d="M1550 855.75h100v28.45h-100z"/><path stroke="#000" stroke-linecap="round" stroke-linejoin="round" d="M1550 855.75h100v28.45h-100z"/><text fill="#000" transform="translate(1555 860.75)">
                <tspan xml:space="preserve" x="0" y="15" font-family="Helvetica Neue" font-size="16">10.0.34.1</tspan>
              </text><path fill="#fff" d="M1450 855.75h100v28.45h-100z"/><path stroke="#000" stroke-linecap="round" stroke-linejoin="round" d="M1450 855.75h100v28.45h-100z"/><text fill="#000" transform="translate(1455 860.75)">
                <tspan xml:space="preserve" x="0" y="15" font-family="Helvetica Neue" font-size="16">10.2.0.0/16</tspan>
              </text><path fill="#fff" d="M1450 798.85h100v28.45h-100z"/><path stroke="#000" stroke-linecap="round" stroke-linejoin="round" d="M1450 798.85h100v28.45h-100z"/><text fill="#000" transform="translate(1455 803.85)">
                <tspan xml:space="preserve" x="0" y="15" font-family="Helvetica Neue" font-size="16">10.1.0.0/16</tspan>
              </text><path fill="#fff" d="M1550 798.85h100v28.45h-100z"/><path stroke="#000" stroke-linecap="round" stroke-linejoin="round" d="M1550 798.85h100v28.45h-100z"/><text fill="#000" transform="translate(1555 803.85)">
                <tspan xml:space="preserve" x="0" y="15" font-family="Helvetica Neue" font-size="16">10.0.34.1</tspan>
              </text><path fill="#fff" d="M1550 884.2h100v28.45h-100z"/><path stroke="#000" stroke-linecap="round" stroke-linejoin="round" d="M1550 884.2h100v28.45h-100z"/><text fill="#000" transform="translate(1555 889.2)">
                <tspan xml:space="preserve" x="0" y="15" font-family="Helvetica Neue" font-size="16">10.0.34.1</tspan>
              </text><path fill="#fff" d="M1450 884.2h100v28.45h-100z"/><path stroke="#000" stroke-linecap="round" stroke-linejoin="round" d="M1450 884.2h100v28.45h-100z"/><text fill="#000" transform="translate(1455 889.2)">
                <tspan xml:space="preserve" x="0" y="15" font-family="Helvetica Neue" font-size="16">10.4.0.0/16</tspan>
              </text><path fill="#fff" d="M1550 827.3h100v28.45h-100z"/><path stroke="#000" stroke-linecap="round" stroke-linejoin="round" d="M1550 827.3h100v28.45h-100z"/><text fill="#000" transform="translate(1555 832.3)">
                <tspan xml:space="preserve" x="0" y="15" font-family="Helvetica Neue" font-size="16">10.0.23.0</tspan>
              </text><path fill="#fff" d="M1450 827.3h100v28.45h-100z"/><path stroke="#000" stroke-linecap="round" stroke-linejoin="round" d="M1450 827.3h100v28.45h-100z"/><text fill="#000" transform="translate(1455 832.3)">
                <tspan xml:space="preserve" x="0" y="15" font-family="Helvetica Neue" font-size="16">10.2.0.0/16</tspan>
              </text><path fill="#fff" d="M1550 770.41h100v28.45h-100z"/><path stroke="#000" stroke-linecap="round" stroke-linejoin="round" d="M1550 770.41h100v28.45h-100z"/><text fill="#000" transform="translate(1555 775.4)">
                <tspan xml:space="preserve" x="0" y="15" font-family="Helvetica Neue" font-size="16">10.0.23.0</tspan>
              </text><path fill="#fff" d="M1450 770.41h100v28.45h-100z"/><path stroke="#000" stroke-linecap="round" stroke-linejoin="round" d="M1450 770.41h100v28.45h-100z"/><text fill="#000" transform="translate(1455 775.4)">
                <tspan xml:space="preserve" x="0" y="15" font-family="Helvetica Neue" font-size="16">10.1.0.0/16</tspan>
              </text><path fill="#ccc" d="M1550 741.96h100v28.45h-100z"/><path stroke="#000" stroke-linecap="round" stroke-linejoin="round" d="M1550 741.96h100v28.45h-100z"/><text fill="#000" transform="translate(1555 746.96)">
                <tspan xml:space="preserve" x="0" y="15" font-family="Helvetica Neue" font-size="16">Next Hop</tspan>
              </text><path fill="#ccc" d="M1450 741.96h100v28.45h-100z"/><path stroke="#000" stroke-linecap="round" stroke-linejoin="round" d="M1450 741.96h100v28.45h-100z"/><text fill="#000" transform="translate(1455 746.96)">
                <tspan xml:space="preserve" x="0" y="15" font-family="Helvetica Neue" font-size="16">Prefix</tspan>
              </text><path fill="#999" d="M1450 713.51h300v28.45h-300z"/><path stroke="#000" stroke-linecap="round" stroke-linejoin="round" d="M1450 713.51h300v28.45h-300z"/><text fill="#000" transform="translate(1455 718.51)">
              <tspan xml:space="preserve" x="0" y="15" font-family="Helvetica Neue" font-size="16">Static Routes</tspan>
            </text></g></svg>