<svg xmlns="http://www.w3.org/2000/svg" viewBox="0 0 1870 1047.35" xmlns:xlink="http://www.w3.org/1999/xlink"><defs><marker id="a" stroke-linejoin="miter" stroke-miterlimit="10" color="#000" markerHeight="6" markerUnits="strokeWidth" markerWidth="6" orient="auto" overflow="visible" viewBox="-1 -3 6 6"><circle cx="1.8" r="1.8" fill="currentColor" stroke="currentColor"/></marker><marker id="b" stroke-linejoin="miter" stroke-miterlimit="10" color="#000" markerHeight="6" markerUnits="strokeWidth" markerWidth="6" orient="auto" overflow="visible" viewBox="-5 -3 6 6"><circle cx="-1.8" r="1.8" fill="currentColor" stroke="currentColor"/></marker></defs><g fill="none"><path fill="#8f9abf" d="M0 0h1870v1047.35H0z"/><path fill="#999" d="M460 580h250v60H460z"/><path stroke="#000" stroke-linecap="square" d="M460 580h250v60H460z"/><path fill="#000" d="M699.5 612.5h-15a2 2 0 0 0-2 2v15c0 1.1.9 2 2 2h15a2 2 0 0 0 2-2v-15a2 2 0 0 0-2-2"/><path fill="#fff" d="M699.5 613.5h-15a1 1 0 0 0-1 1v15a1 1 0 0 0 1 1h15a1 1 0 0 0 1-1v-15a1 1 0 0 0-1-1m-12.25 3.5h-1v3h1Zm1.5 0h-1v3h1Zm1.5 0h-1v3h1Zm1.5 0h-1v3h1Zm1.5 0h-1v3h1Zm1.5 0h-1v3h1Zm1.5 0h-1v3h1Zm1.5 0h-1v3h1Zm-8.75-1h1.63m2.75 0h4.87c.28 0 .5.22.5.5v8a.5.5 0 0 1-.5.5h-2.75v1.25a.5.5 0 0 1-.5.5h-1.12v.75a.5.5 0 0 1-.5.5h-2.75a.5.5 0 0 1-.5-.5v-.75H689a.5.5 0 0 1-.5-.5V625h-2.75a.5.5 0 0 1-.5-.5v-8c0-.28.22-.5.5-.5H689m1.63 0h2.75"/><path fill="#000" d="M670.5 612.5h-15a2 2 0 0 0-2 2v15c0 1.1.9 2 2 2h15a2 2 0 0 0 2-2v-15a2 2 0 0 0-2-2"/><path fill="#fff" d="M670.5 613.5h-15a1 1 0 0 0-1 1v15a1 1 0 0 0 1 1h15a1 1 0 0 0 1-1v-15a1 1 0 0 0-1-1m-12.25 3.5h-1v3h1Zm1.5 0h-1v3h1Zm1.5 0h-1v3h1Zm1.5 0h-1v3h1Zm1.5 0h-1v3h1Zm1.5 0h-1v3h1Zm1.5 0h-1v3h1Zm1.5 0h-1v3h1Zm-8.75-1h1.63m2.75 0h4.87c.28 0 .5.22.5.5v8a.5.5 0 0 1-.5.5h-2.75v1.25a.5.5 0 0 1-.5.5h-1.12v.75a.5.5 0 0 1-.5.5h-2.75a.5.5 0 0 1-.5-.5v-.75H660a.5.5 0 0 1-.5-.5V625h-2.75a.5.5 0 0 1-.5-.5v-8c0-.28.22-.5.5-.5H660m1.63 0h2.75"/><path fill="#000" d="M485.5 612.5h-15a2 2 0 0 0-2 2v15c0 1.1.9 2 2 2h15a2 2 0 0 0 2-2v-15a2 2 0 0 0-2-2"/><path fill="#fff" d="M485.5 613.5h-15a1 1 0 0 0-1 1v15a1 1 0 0 0 1 1h15a1 1 0 0 0 1-1v-15a1 1 0 0 0-1-1m-12.25 3.5h-1v3h1Zm1.5 0h-1v3h1Zm1.5 0h-1v3h1Zm1.5 0h-1v3h1Zm1.5 0h-1v3h1Zm1.5 0h-1v3h1Zm1.5 0h-1v3h1Zm1.5 0h-1v3h1Zm-8.75-1h1.63m2.75 0h4.87c.28 0 .5.22.5.5v8a.5.5 0 0 1-.5.5h-2.75v1.25a.5.5 0 0 1-.5.5h-1.12v.75a.5.5 0 0 1-.5.5h-2.75a.5.5 0 0 1-.5-.5v-.75H475a.5.5 0 0 1-.5-.5V625h-2.75a.5.5 0 0 1-.5-.5v-8c0-.28.22-.5.5-.5H475m1.63 0h2.75"/><path fill="#000" d="M509.5 612.5h-15a2 2 0 0 0-2 2v15c0 1.1.9 2 2 2h15a2 2 0 0 0 2-2v-15a2 2 0 0 0-2-2"/><path fill="#fff" d="M509.5 613.5h-15a1 1 0 0 0-1 1v15a1 1 0 0 0 1 1h15a1 1 0 0 0 1-1v-15a1 1 0 0 0-1-1m-12.25 3.5h-1v3h1Zm1.5 0h-1v3h1Zm1.5 0h-1v3h1Zm1.5 0h-1v3h1Zm1.5 0h-1v3h1Zm1.5 0h-1v3h1Zm1.5 0h-1v3h1Zm1.5 0h-1v3h1Zm-8.75-1h1.63m2.75 0h4.87c.28 0 .5.22.5.5v8a.5.5 0 0 1-.5.5h-2.75v1.25a.5.5 0 0 1-.5.5h-1.12v.75a.5.5 0 0 1-.5.5h-2.75a.5.5 0 0 1-.5-.5v-.75H499a.5.5 0 0 1-.5-.5V625h-2.75a.5.5 0 0 1-.5-.5v-8c0-.28.22-.5.5-.5H499m1.63 0h2.75"/><path fill="#000" d="M533.5 612.5h-15a2 2 0 0 0-2 2v15c0 1.1.9 2 2 2h15a2 2 0 0 0 2-2v-15a2 2 0 0 0-2-2"/><path fill="#fff" d="M533.5 613.5h-15a1 1 0 0 0-1 1v15a1 1 0 0 0 1 1h15a1 1 0 0 0 1-1v-15a1 1 0 0 0-1-1m-12.25 3.5h-1v3h1Zm1.5 0h-1v3h1Zm1.5 0h-1v3h1Zm1.5 0h-1v3h1Zm1.5 0h-1v3h1Zm1.5 0h-1v3h1Zm1.5 0h-1v3h1Zm1.5 0h-1v3h1Zm-8.75-1h1.63m2.75 0h4.87c.28 0 .5.22.5.5v8a.5.5 0 0 1-.5.5h-2.75v1.25a.5.5 0 0 1-.5.5h-1.12v.75a.5.5 0 0 1-.5.5h-2.75a.5.5 0 0 1-.5-.5v-.75H523a.5.5 0 0 1-.5-.5V625h-2.75a.5.5 0 0 1-.5-.5v-8c0-.28.22-.5.5-.5H523m1.63 0h2.75"/><path fill="#000" d="M557.5 612.5h-15a2 2 0 0 0-2 2v15c0 1.1.9 2 2 2h15a2 2 0 0 0 2-2v-15a2 2 0 0 0-2-2"/><path fill="#fff" d="M557.5 613.5h-15a1 1 0 0 0-1 1v15a1 1 0 0 0 1 1h15a1 1 0 0 0 1-1v-15a1 1 0 0 0-1-1m-12.25 3.5h-1v3h1Zm1.5 0h-1v3h1Zm1.5 0h-1v3h1Zm1.5 0h-1v3h1Zm1.5 0h-1v3h1Zm1.5 0h-1v3h1Zm1.5 0h-1v3h1Zm1.5 0h-1v3h1Zm-8.75-1h1.63m2.75 0h4.87c.28 0 .5.22.5.5v8a.5.5 0 0 1-.5.5h-2.75v1.25a.5.5 0 0 1-.5.5h-1.12v.75a.5.5 0 0 1-.5.5h-2.75a.5.5 0 0 1-.5-.5v-.75H547a.5.5 0 0 1-.5-.5V625h-2.75a.5.5 0 0 1-.5-.5v-8c0-.28.22-.5.5-.5H547m1.63 0h2.75"/><path fill="#000" d="M581.5 612.5h-15a2 2 0 0 0-2 2v15c0 1.1.9 2 2 2h15a2 2 0 0 0 2-2v-15a2 2 0 0 0-2-2"/><path fill="#fff" d="M581.5 613.5h-15a1 1 0 0 0-1 1v15a1 1 0 0 0 1 1h15a1 1 0 0 0 1-1v-15a1 1 0 0 0-1-1m-12.25 3.5h-1v3h1Zm1.5 0h-1v3h1Zm1.5 0h-1v3h1Zm1.5 0h-1v3h1Zm1.5 0h-1v3h1Zm1.5 0h-1v3h1Zm1.5 0h-1v3h1Zm1.5 0h-1v3h1Zm-8.75-1h1.63m2.75 0h4.87c.28 0 .5.22.5.5v8a.5.5 0 0 1-.5.5h-2.75v1.25a.5.5 0 0 1-.5.5h-1.12v.75a.5.5 0 0 1-.5.5h-2.75a.5.5 0 0 1-.5-.5v-.75H571a.5.5 0 0 1-.5-.5V625h-2.75a.5.5 0 0 1-.5-.5v-8c0-.28.22-.5.5-.5H571m1.63 0h2.75"/><path fill="#000" d="M605.5 612.5h-15a2 2 0 0 0-2 2v15c0 1.1.9 2 2 2h15a2 2 0 0 0 2-2v-15a2 2 0 0 0-2-2"/><path fill="#fff" d="M605.5 613.5h-15a1 1 0 0 0-1 1v15a1 1 0 0 0 1 1h15a1 1 0 0 0 1-1v-15a1 1 0 0 0-1-1m-12.25 3.5h-1v3h1Zm1.5 0h-1v3h1Zm1.5 0h-1v3h1Zm1.5 0h-1v3h1Zm1.5 0h-1v3h1Zm1.5 0h-1v3h1Zm1.5 0h-1v3h1Zm1.5 0h-1v3h1Zm-8.75-1h1.63m2.75 0h4.87c.28 0 .5.22.5.5v8a.5.5 0 0 1-.5.5h-2.75v1.25a.5.5 0 0 1-.5.5h-1.12v.75a.5.5 0 0 1-.5.5h-2.75a.5.5 0 0 1-.5-.5v-.75H595a.5.5 0 0 1-.5-.5V625h-2.75a.5.5 0 0 1-.5-.5v-8c0-.28.22-.5.5-.5H595m1.63 0h2.75"/><path fill="#000" d="M485.5 607.5h-15a2 2 0 0 1-2-2v-15c0-1.1.9-2 2-2h15a2 2 0 0 1 2 2v15a2 2 0 0 1-2 2"/><path fill="#fff" d="M485.5 606.5h-15a1 1 0 0 1-1-1v-15a1 1 0 0 1 1-1h15a1 1 0 0 1 1 1v15a1 1 0 0 1-1 1m-12.25-3.5h-1v-3h1Zm1.5 0h-1v-3h1Zm1.5 0h-1v-3h1Zm1.5 0h-1v-3h1Zm1.5 0h-1v-3h1Zm1.5 0h-1v-3h1Zm1.5 0h-1v-3h1Zm1.5 0h-1v-3h1Zm-8.75 1h1.63m2.75 0h4.87a.5.5 0 0 0 .5-.5v-8a.5.5 0 0 0-.5-.5h-2.75v-1.25a.5.5 0 0 0-.5-.5h-1.12v-.75a.5.5 0 0 0-.5-.5h-2.75a.5.5 0 0 0-.5.5v.75H475a.5.5 0 0 0-.5.5V595h-2.75a.5.5 0 0 0-.5.5v8c0 .28.22.5.5.5H475m1.63 0h2.75"/><path fill="#000" d="M509.5 607.5h-15a2 2 0 0 1-2-2v-15c0-1.1.9-2 2-2h15a2 2 0 0 1 2 2v15a2 2 0 0 1-2 2"/><path fill="#fff" d="M509.5 606.5h-15a1 1 0 0 1-1-1v-15a1 1 0 0 1 1-1h15a1 1 0 0 1 1 1v15a1 1 0 0 1-1 1m-12.25-3.5h-1v-3h1Zm1.5 0h-1v-3h1Zm1.5 0h-1v-3h1Zm1.5 0h-1v-3h1Zm1.5 0h-1v-3h1Zm1.5 0h-1v-3h1Zm1.5 0h-1v-3h1Zm1.5 0h-1v-3h1Zm-8.75 1h1.63m2.75 0h4.87a.5.5 0 0 0 .5-.5v-8a.5.5 0 0 0-.5-.5h-2.75v-1.25a.5.5 0 0 0-.5-.5h-1.12v-.75a.5.5 0 0 0-.5-.5h-2.75a.5.5 0 0 0-.5.5v.75H499a.5.5 0 0 0-.5.5V595h-2.75a.5.5 0 0 0-.5.5v8c0 .28.22.5.5.5H499m1.63 0h2.75"/><path fill="#000" d="M533.5 607.5h-15a2 2 0 0 1-2-2v-15c0-1.1.9-2 2-2h15a2 2 0 0 1 2 2v15a2 2 0 0 1-2 2"/><path fill="#fff" d="M533.5 606.5h-15a1 1 0 0 1-1-1v-15a1 1 0 0 1 1-1h15a1 1 0 0 1 1 1v15a1 1 0 0 1-1 1m-12.25-3.5h-1v-3h1Zm1.5 0h-1v-3h1Zm1.5 0h-1v-3h1Zm1.5 0h-1v-3h1Zm1.5 0h-1v-3h1Zm1.5 0h-1v-3h1Zm1.5 0h-1v-3h1Zm1.5 0h-1v-3h1Zm-8.75 1h1.63m2.75 0h4.87a.5.5 0 0 0 .5-.5v-8a.5.5 0 0 0-.5-.5h-2.75v-1.25a.5.5 0 0 0-.5-.5h-1.12v-.75a.5.5 0 0 0-.5-.5h-2.75a.5.5 0 0 0-.5.5v.75H523a.5.5 0 0 0-.5.5V595h-2.75a.5.5 0 0 0-.5.5v8c0 .28.22.5.5.5H523m1.63 0h2.75"/><path fill="#000" d="M557.5 607.5h-15a2 2 0 0 1-2-2v-15c0-1.1.9-2 2-2h15a2 2 0 0 1 2 2v15a2 2 0 0 1-2 2"/><path fill="#fff" d="M557.5 606.5h-15a1 1 0 0 1-1-1v-15a1 1 0 0 1 1-1h15a1 1 0 0 1 1 1v15a1 1 0 0 1-1 1m-12.25-3.5h-1v-3h1Zm1.5 0h-1v-3h1Zm1.5 0h-1v-3h1Zm1.5 0h-1v-3h1Zm1.5 0h-1v-3h1Zm1.5 0h-1v-3h1Zm1.5 0h-1v-3h1Zm1.5 0h-1v-3h1Zm-8.75 1h1.63m2.75 0h4.87a.5.5 0 0 0 .5-.5v-8a.5.5 0 0 0-.5-.5h-2.75v-1.25a.5.5 0 0 0-.5-.5h-1.12v-.75a.5.5 0 0 0-.5-.5h-2.75a.5.5 0 0 0-.5.5v.75H547a.5.5 0 0 0-.5.5V595h-2.75a.5.5 0 0 0-.5.5v8c0 .28.22.5.5.5H547m1.63 0h2.75"/><path fill="#000" d="M581.5 607.5h-15a2 2 0 0 1-2-2v-15c0-1.1.9-2 2-2h15a2 2 0 0 1 2 2v15a2 2 0 0 1-2 2"/><path fill="#fff" d="M581.5 606.5h-15a1 1 0 0 1-1-1v-15a1 1 0 0 1 1-1h15a1 1 0 0 1 1 1v15a1 1 0 0 1-1 1m-12.25-3.5h-1v-3h1Zm1.5 0h-1v-3h1Zm1.5 0h-1v-3h1Zm1.5 0h-1v-3h1Zm1.5 0h-1v-3h1Zm1.5 0h-1v-3h1Zm1.5 0h-1v-3h1Zm1.5 0h-1v-3h1Zm-8.75 1h1.63m2.75 0h4.87a.5.5 0 0 0 .5-.5v-8a.5.5 0 0 0-.5-.5h-2.75v-1.25a.5.5 0 0 0-.5-.5h-1.12v-.75a.5.5 0 0 0-.5-.5h-2.75a.5.5 0 0 0-.5.5v.75H571a.5.5 0 0 0-.5.5V595h-2.75a.5.5 0 0 0-.5.5v8c0 .28.22.5.5.5H571m1.63 0h2.75"/><path fill="#000" d="M605.5 607.5h-15a2 2 0 0 1-2-2v-15c0-1.1.9-2 2-2h15a2 2 0 0 1 2 2v15a2 2 0 0 1-2 2"/><path fill="#fff" d="M605.5 606.5h-15a1 1 0 0 1-1-1v-15a1 1 0 0 1 1-1h15a1 1 0 0 1 1 1v15a1 1 0 0 1-1 1m-12.25-3.5h-1v-3h1Zm1.5 0h-1v-3h1Zm1.5 0h-1v-3h1Zm1.5 0h-1v-3h1Zm1.5 0h-1v-3h1Zm1.5 0h-1v-3h1Zm1.5 0h-1v-3h1Zm1.5 0h-1v-3h1Zm-8.75 1h1.63m2.75 0h4.87a.5.5 0 0 0 .5-.5v-8a.5.5 0 0 0-.5-.5h-2.75v-1.25a.5.5 0 0 0-.5-.5h-1.12v-.75a.5.5 0 0 0-.5-.5h-2.75a.5.5 0 0 0-.5.5v.75H595a.5.5 0 0 0-.5.5V595h-2.75a.5.5 0 0 0-.5.5v8c0 .28.22.5.5.5H595m1.63 0h2.75"/><path fill="#ccc" d="M710 580H460l50-30h150Z"/><path stroke="#000" stroke-linecap="square" d="M710 580H460l50-30h150Z"/><path fill="#fff" d="M559.34 555.83h51.33v18.34h-51.33z"/><path stroke="#000" stroke-linecap="round" stroke-linejoin="round" d="M559.34 555.83h51.33v18.34h-51.33z"/><text fill="#000" transform="translate(561.34 557.83)">
            <tspan xml:space="preserve" x="0" y="11" font-family="Helvetica Neue" font-size="12">lab-sw-4</tspan>
          </text><path fill="#999" d="M1160 580h250v60h-250z"/><path stroke="#000" stroke-linecap="square" d="M1160 580h250v60h-250z"/><path fill="#000" d="M1399.5 612.5h-15a2 2 0 0 0-2 2v15c0 1.1.9 2 2 2h15a2 2 0 0 0 2-2v-15a2 2 0 0 0-2-2"/><path fill="#fff" d="M1399.5 613.5h-15a1 1 0 0 0-1 1v15a1 1 0 0 0 1 1h15a1 1 0 0 0 1-1v-15a1 1 0 0 0-1-1m-12.25 3.5h-1v3h1Zm1.5 0h-1v3h1Zm1.5 0h-1v3h1Zm1.5 0h-1v3h1Zm1.5 0h-1v3h1Zm1.5 0h-1v3h1Zm1.5 0h-1v3h1Zm1.5 0h-1v3h1Zm-8.75-1h1.63m2.74 0h4.88c.28 0 .5.22.5.5v8a.5.5 0 0 1-.5.5h-2.75v1.25a.5.5 0 0 1-.5.5h-1.12v.75a.5.5 0 0 1-.5.5h-2.76a.5.5 0 0 1-.5-.5v-.75H1389a.5.5 0 0 1-.5-.5V625h-2.75a.5.5 0 0 1-.5-.5v-8c0-.28.22-.5.5-.5h3.25m1.63 0h2.74"/><path fill="#000" d="M1370.5 612.5h-15a2 2 0 0 0-2 2v15c0 1.1.9 2 2 2h15a2 2 0 0 0 2-2v-15a2 2 0 0 0-2-2"/><path fill="#fff" d="M1370.5 613.5h-15a1 1 0 0 0-1 1v15a1 1 0 0 0 1 1h15a1 1 0 0 0 1-1v-15a1 1 0 0 0-1-1m-12.25 3.5h-1v3h1Zm1.5 0h-1v3h1Zm1.5 0h-1v3h1Zm1.5 0h-1v3h1Zm1.5 0h-1v3h1Zm1.5 0h-1v3h1Zm1.5 0h-1v3h1Zm1.5 0h-1v3h1Zm-8.75-1h1.63m2.74 0h4.88c.28 0 .5.22.5.5v8a.5.5 0 0 1-.5.5h-2.75v1.25a.5.5 0 0 1-.5.5h-1.12v.75a.5.5 0 0 1-.5.5h-2.76a.5.5 0 0 1-.5-.5v-.75H1360a.5.5 0 0 1-.5-.5V625h-2.75a.5.5 0 0 1-.5-.5v-8c0-.28.22-.5.5-.5h3.25m1.63 0h2.74"/><path fill="#000" d="M1185.5 612.5h-15a2 2 0 0 0-2 2v15c0 1.1.9 2 2 2h15a2 2 0 0 0 2-2v-15a2 2 0 0 0-2-2"/><path fill="#fff" d="M1185.5 613.5h-15a1 1 0 0 0-1 1v15a1 1 0 0 0 1 1h15a1 1 0 0 0 1-1v-15a1 1 0 0 0-1-1m-12.25 3.5h-1v3h1Zm1.5 0h-1v3h1Zm1.5 0h-1v3h1Zm1.5 0h-1v3h1Zm1.5 0h-1v3h1Zm1.5 0h-1v3h1Zm1.5 0h-1v3h1Zm1.5 0h-1v3h1Zm-8.75-1h1.63m2.74 0h4.88c.28 0 .5.22.5.5v8a.5.5 0 0 1-.5.5h-2.75v1.25a.5.5 0 0 1-.5.5h-1.12v.75a.5.5 0 0 1-.5.5h-2.76a.5.5 0 0 1-.5-.5v-.75H1175a.5.5 0 0 1-.5-.5V625h-2.75a.5.5 0 0 1-.5-.5v-8c0-.28.22-.5.5-.5h3.25m1.63 0h2.74"/><path fill="#000" d="M1209.5 612.5h-15a2 2 0 0 0-2 2v15c0 1.1.9 2 2 2h15a2 2 0 0 0 2-2v-15a2 2 0 0 0-2-2"/><path fill="#fff" d="M1209.5 613.5h-15a1 1 0 0 0-1 1v15a1 1 0 0 0 1 1h15a1 1 0 0 0 1-1v-15a1 1 0 0 0-1-1m-12.25 3.5h-1v3h1Zm1.5 0h-1v3h1Zm1.5 0h-1v3h1Zm1.5 0h-1v3h1Zm1.5 0h-1v3h1Zm1.5 0h-1v3h1Zm1.5 0h-1v3h1Zm1.5 0h-1v3h1Zm-8.75-1h1.63m2.74 0h4.88c.28 0 .5.22.5.5v8a.5.5 0 0 1-.5.5h-2.75v1.25a.5.5 0 0 1-.5.5h-1.12v.75a.5.5 0 0 1-.5.5h-2.76a.5.5 0 0 1-.5-.5v-.75H1199a.5.5 0 0 1-.5-.5V625h-2.75a.5.5 0 0 1-.5-.5v-8c0-.28.22-.5.5-.5h3.25m1.63 0h2.74"/><path fill="#000" d="M1233.5 612.5h-15a2 2 0 0 0-2 2v15c0 1.1.9 2 2 2h15a2 2 0 0 0 2-2v-15a2 2 0 0 0-2-2"/><path fill="#fff" d="M1233.5 613.5h-15a1 1 0 0 0-1 1v15a1 1 0 0 0 1 1h15a1 1 0 0 0 1-1v-15a1 1 0 0 0-1-1m-12.25 3.5h-1v3h1Zm1.5 0h-1v3h1Zm1.5 0h-1v3h1Zm1.5 0h-1v3h1Zm1.5 0h-1v3h1Zm1.5 0h-1v3h1Zm1.5 0h-1v3h1Zm1.5 0h-1v3h1Zm-8.75-1h1.63m2.74 0h4.88c.28 0 .5.22.5.5v8a.5.5 0 0 1-.5.5h-2.75v1.25a.5.5 0 0 1-.5.5h-1.12v.75a.5.5 0 0 1-.5.5h-2.76a.5.5 0 0 1-.5-.5v-.75H1223a.5.5 0 0 1-.5-.5V625h-2.75a.5.5 0 0 1-.5-.5v-8c0-.28.22-.5.5-.5h3.25m1.63 0h2.74"/><path fill="#000" d="M1257.5 612.5h-15a2 2 0 0 0-2 2v15c0 1.1.9 2 2 2h15a2 2 0 0 0 2-2v-15a2 2 0 0 0-2-2"/><path fill="#fff" d="M1257.5 613.5h-15a1 1 0 0 0-1 1v15a1 1 0 0 0 1 1h15a1 1 0 0 0 1-1v-15a1 1 0 0 0-1-1m-12.25 3.5h-1v3h1Zm1.5 0h-1v3h1Zm1.5 0h-1v3h1Zm1.5 0h-1v3h1Zm1.5 0h-1v3h1Zm1.5 0h-1v3h1Zm1.5 0h-1v3h1Zm1.5 0h-1v3h1Zm-8.75-1h1.63m2.74 0h4.88c.28 0 .5.22.5.5v8a.5.5 0 0 1-.5.5h-2.75v1.25a.5.5 0 0 1-.5.5h-1.12v.75a.5.5 0 0 1-.5.5h-2.76a.5.5 0 0 1-.5-.5v-.75H1247a.5.5 0 0 1-.5-.5V625h-2.75a.5.5 0 0 1-.5-.5v-8c0-.28.22-.5.5-.5h3.25m1.63 0h2.74"/><path fill="#000" d="M1281.5 612.5h-15a2 2 0 0 0-2 2v15c0 1.1.9 2 2 2h15a2 2 0 0 0 2-2v-15a2 2 0 0 0-2-2"/><path fill="#fff" d="M1281.5 613.5h-15a1 1 0 0 0-1 1v15a1 1 0 0 0 1 1h15a1 1 0 0 0 1-1v-15a1 1 0 0 0-1-1m-12.25 3.5h-1v3h1Zm1.5 0h-1v3h1Zm1.5 0h-1v3h1Zm1.5 0h-1v3h1Zm1.5 0h-1v3h1Zm1.5 0h-1v3h1Zm1.5 0h-1v3h1Zm1.5 0h-1v3h1Zm-8.75-1h1.63m2.74 0h4.88c.28 0 .5.22.5.5v8a.5.5 0 0 1-.5.5h-2.75v1.25a.5.5 0 0 1-.5.5h-1.12v.75a.5.5 0 0 1-.5.5h-2.76a.5.5 0 0 1-.5-.5v-.75H1271a.5.5 0 0 1-.5-.5V625h-2.75a.5.5 0 0 1-.5-.5v-8c0-.28.22-.5.5-.5h3.25m1.63 0h2.74"/><path fill="#000" d="M1305.5 612.5h-15a2 2 0 0 0-2 2v15c0 1.1.9 2 2 2h15a2 2 0 0 0 2-2v-15a2 2 0 0 0-2-2"/><path fill="#fff" d="M1305.5 613.5h-15a1 1 0 0 0-1 1v15a1 1 0 0 0 1 1h15a1 1 0 0 0 1-1v-15a1 1 0 0 0-1-1m-12.25 3.5h-1v3h1Zm1.5 0h-1v3h1Zm1.5 0h-1v3h1Zm1.5 0h-1v3h1Zm1.5 0h-1v3h1Zm1.5 0h-1v3h1Zm1.5 0h-1v3h1Zm1.5 0h-1v3h1Zm-8.75-1h1.63m2.74 0h4.88c.28 0 .5.22.5.5v8a.5.5 0 0 1-.5.5h-2.75v1.25a.5.5 0 0 1-.5.5h-1.12v.75a.5.5 0 0 1-.5.5h-2.76a.5.5 0 0 1-.5-.5v-.75H1295a.5.5 0 0 1-.5-.5V625h-2.75a.5.5 0 0 1-.5-.5v-8c0-.28.22-.5.5-.5h3.25m1.63 0h2.74"/><path fill="#000" d="M1185.5 607.5h-15a2 2 0 0 1-2-2v-15c0-1.1.9-2 2-2h15a2 2 0 0 1 2 2v15a2 2 0 0 1-2 2"/><path fill="#fff" d="M1185.5 606.5h-15a1 1 0 0 1-1-1v-15a1 1 0 0 1 1-1h15a1 1 0 0 1 1 1v15a1 1 0 0 1-1 1m-12.25-3.5h-1v-3h1Zm1.5 0h-1v-3h1Zm1.5 0h-1v-3h1Zm1.5 0h-1v-3h1Zm1.5 0h-1v-3h1Zm1.5 0h-1v-3h1Zm1.5 0h-1v-3h1Zm1.5 0h-1v-3h1Zm-8.75 1h1.63m2.74 0h4.88a.5.5 0 0 0 .5-.5v-8a.5.5 0 0 0-.5-.5h-2.75v-1.25a.5.5 0 0 0-.5-.5h-1.12v-.75a.5.5 0 0 0-.5-.5h-2.76a.5.5 0 0 0-.5.5v.75H1175a.5.5 0 0 0-.5.5V595h-2.75a.5.5 0 0 0-.5.5v8c0 .28.22.5.5.5h3.25m1.63 0h2.74"/><path fill="#000" d="M1209.5 607.5h-15a2 2 0 0 1-2-2v-15c0-1.1.9-2 2-2h15a2 2 0 0 1 2 2v15a2 2 0 0 1-2 2"/><path fill="#fff" d="M1209.5 606.5h-15a1 1 0 0 1-1-1v-15a1 1 0 0 1 1-1h15a1 1 0 0 1 1 1v15a1 1 0 0 1-1 1m-12.25-3.5h-1v-3h1Zm1.5 0h-1v-3h1Zm1.5 0h-1v-3h1Zm1.5 0h-1v-3h1Zm1.5 0h-1v-3h1Zm1.5 0h-1v-3h1Zm1.5 0h-1v-3h1Zm1.5 0h-1v-3h1Zm-8.75 1h1.63m2.74 0h4.88a.5.5 0 0 0 .5-.5v-8a.5.5 0 0 0-.5-.5h-2.75v-1.25a.5.5 0 0 0-.5-.5h-1.12v-.75a.5.5 0 0 0-.5-.5h-2.76a.5.5 0 0 0-.5.5v.75H1199a.5.5 0 0 0-.5.5V595h-2.75a.5.5 0 0 0-.5.5v8c0 .28.22.5.5.5h3.25m1.63 0h2.74"/><path fill="#000" d="M1233.5 607.5h-15a2 2 0 0 1-2-2v-15c0-1.1.9-2 2-2h15a2 2 0 0 1 2 2v15a2 2 0 0 1-2 2"/><path fill="#fff" d="M1233.5 606.5h-15a1 1 0 0 1-1-1v-15a1 1 0 0 1 1-1h15a1 1 0 0 1 1 1v15a1 1 0 0 1-1 1m-12.25-3.5h-1v-3h1Zm1.5 0h-1v-3h1Zm1.5 0h-1v-3h1Zm1.5 0h-1v-3h1Zm1.5 0h-1v-3h1Zm1.5 0h-1v-3h1Zm1.5 0h-1v-3h1Zm1.5 0h-1v-3h1Zm-8.75 1h1.63m2.74 0h4.88a.5.5 0 0 0 .5-.5v-8a.5.5 0 0 0-.5-.5h-2.75v-1.25a.5.5 0 0 0-.5-.5h-1.12v-.75a.5.5 0 0 0-.5-.5h-2.76a.5.5 0 0 0-.5.5v.75H1223a.5.5 0 0 0-.5.5V595h-2.75a.5.5 0 0 0-.5.5v8c0 .28.22.5.5.5h3.25m1.63 0h2.74"/><path fill="#000" d="M1257.5 607.5h-15a2 2 0 0 1-2-2v-15c0-1.1.9-2 2-2h15a2 2 0 0 1 2 2v15a2 2 0 0 1-2 2"/><path fill="#fff" d="M1257.5 606.5h-15a1 1 0 0 1-1-1v-15a1 1 0 0 1 1-1h15a1 1 0 0 1 1 1v15a1 1 0 0 1-1 1m-12.25-3.5h-1v-3h1Zm1.5 0h-1v-3h1Zm1.5 0h-1v-3h1Zm1.5 0h-1v-3h1Zm1.5 0h-1v-3h1Zm1.5 0h-1v-3h1Zm1.5 0h-1v-3h1Zm1.5 0h-1v-3h1Zm-8.75 1h1.63m2.74 0h4.88a.5.5 0 0 0 .5-.5v-8a.5.5 0 0 0-.5-.5h-2.75v-1.25a.5.5 0 0 0-.5-.5h-1.12v-.75a.5.5 0 0 0-.5-.5h-2.76a.5.5 0 0 0-.5.5v.75H1247a.5.5 0 0 0-.5.5V595h-2.75a.5.5 0 0 0-.5.5v8c0 .28.22.5.5.5h3.25m1.63 0h2.74"/><path fill="#000" d="M1281.5 607.5h-15a2 2 0 0 1-2-2v-15c0-1.1.9-2 2-2h15a2 2 0 0 1 2 2v15a2 2 0 0 1-2 2"/><path fill="#fff" d="M1281.5 606.5h-15a1 1 0 0 1-1-1v-15a1 1 0 0 1 1-1h15a1 1 0 0 1 1 1v15a1 1 0 0 1-1 1m-12.25-3.5h-1v-3h1Zm1.5 0h-1v-3h1Zm1.5 0h-1v-3h1Zm1.5 0h-1v-3h1Zm1.5 0h-1v-3h1Zm1.5 0h-1v-3h1Zm1.5 0h-1v-3h1Zm1.5 0h-1v-3h1Zm-8.75 1h1.63m2.74 0h4.88a.5.5 0 0 0 .5-.5v-8a.5.5 0 0 0-.5-.5h-2.75v-1.25a.5.5 0 0 0-.5-.5h-1.12v-.75a.5.5 0 0 0-.5-.5h-2.76a.5.5 0 0 0-.5.5v.75H1271a.5.5 0 0 0-.5.5V595h-2.75a.5.5 0 0 0-.5.5v8c0 .28.22.5.5.5h3.25m1.63 0h2.74"/><path fill="#000" d="M1305.5 607.5h-15a2 2 0 0 1-2-2v-15c0-1.1.9-2 2-2h15a2 2 0 0 1 2 2v15a2 2 0 0 1-2 2"/><path fill="#fff" d="M1305.5 606.5h-15a1 1 0 0 1-1-1v-15a1 1 0 0 1 1-1h15a1 1 0 0 1 1 1v15a1 1 0 0 1-1 1m-12.25-3.5h-1v-3h1Zm1.5 0h-1v-3h1Zm1.5 0h-1v-3h1Zm1.5 0h-1v-3h1Zm1.5 0h-1v-3h1Zm1.5 0h-1v-3h1Zm1.5 0h-1v-3h1Zm1.5 0h-1v-3h1Zm-8.75 1h1.63m2.74 0h4.88a.5.5 0 0 0 .5-.5v-8a.5.5 0 0 0-.5-.5h-2.75v-1.25a.5.5 0 0 0-.5-.5h-1.12v-.75a.5.5 0 0 0-.5-.5h-2.76a.5.5 0 0 0-.5.5v.75H1295a.5.5 0 0 0-.5.5V595h-2.75a.5.5 0 0 0-.5.5v8c0 .28.22.5.5.5h3.25m1.63 0h2.74"/><path fill="#ccc" d="M1410 580h-250l50-30h150Z"/><path stroke="#000" stroke-linecap="square" d="M1410 580h-250l50-30h150Z"/><path fill="#fff" d="M1259.34 555.83h51.33v18.34h-51.33z"/><path stroke="#000" stroke-linecap="round" stroke-linejoin="round" d="M1259.34 555.83h51.33v18.34h-51.33z"/><text fill="#000" transform="translate(1261.34 557.83)">
            <tspan xml:space="preserve" x="0" y="11" font-family="Helvetica Neue" font-size="12">lab-sw-3</tspan>
          </text><path fill="#999" d="M1160 80h250v60h-250z"/><path stroke="#000" stroke-linecap="square" d="M1160 80h250v60h-250z"/><path fill="#000" d="M1399.5 112.5h-15a2 2 0 0 0-2 2v15c0 1.1.9 2 2 2h15a2 2 0 0 0 2-2v-15a2 2 0 0 0-2-2"/><path fill="#fff" d="M1399.5 113.5h-15a1 1 0 0 0-1 1v15a1 1 0 0 0 1 1h15a1 1 0 0 0 1-1v-15a1 1 0 0 0-1-1m-12.25 3.5h-1v3h1Zm1.5 0h-1v3h1Zm1.5 0h-1v3h1Zm1.5 0h-1v3h1Zm1.5 0h-1v3h1Zm1.5 0h-1v3h1Zm1.5 0h-1v3h1Zm1.5 0h-1v3h1Zm-8.75-1h1.63m2.74 0h4.88c.28 0 .5.22.5.5v8a.5.5 0 0 1-.5.5h-2.75v1.25a.5.5 0 0 1-.5.5h-1.12v.75a.5.5 0 0 1-.5.5h-2.76a.5.5 0 0 1-.5-.5v-.75H1389a.5.5 0 0 1-.5-.5V125h-2.75a.5.5 0 0 1-.5-.5v-8c0-.28.22-.5.5-.5h3.25m1.63 0h2.74"/><path fill="#000" d="M1370.5 112.5h-15a2 2 0 0 0-2 2v15c0 1.1.9 2 2 2h15a2 2 0 0 0 2-2v-15a2 2 0 0 0-2-2"/><path fill="#fff" d="M1370.5 113.5h-15a1 1 0 0 0-1 1v15a1 1 0 0 0 1 1h15a1 1 0 0 0 1-1v-15a1 1 0 0 0-1-1m-12.25 3.5h-1v3h1Zm1.5 0h-1v3h1Zm1.5 0h-1v3h1Zm1.5 0h-1v3h1Zm1.5 0h-1v3h1Zm1.5 0h-1v3h1Zm1.5 0h-1v3h1Zm1.5 0h-1v3h1Zm-8.75-1h1.63m2.74 0h4.88c.28 0 .5.22.5.5v8a.5.5 0 0 1-.5.5h-2.75v1.25a.5.5 0 0 1-.5.5h-1.12v.75a.5.5 0 0 1-.5.5h-2.76a.5.5 0 0 1-.5-.5v-.75H1360a.5.5 0 0 1-.5-.5V125h-2.75a.5.5 0 0 1-.5-.5v-8c0-.28.22-.5.5-.5h3.25m1.63 0h2.74"/><path fill="#000" d="M1185.5 112.5h-15a2 2 0 0 0-2 2v15c0 1.1.9 2 2 2h15a2 2 0 0 0 2-2v-15a2 2 0 0 0-2-2"/><path fill="#fff" d="M1185.5 113.5h-15a1 1 0 0 0-1 1v15a1 1 0 0 0 1 1h15a1 1 0 0 0 1-1v-15a1 1 0 0 0-1-1m-12.25 3.5h-1v3h1Zm1.5 0h-1v3h1Zm1.5 0h-1v3h1Zm1.5 0h-1v3h1Zm1.5 0h-1v3h1Zm1.5 0h-1v3h1Zm1.5 0h-1v3h1Zm1.5 0h-1v3h1Zm-8.75-1h1.63m2.74 0h4.88c.28 0 .5.22.5.5v8a.5.5 0 0 1-.5.5h-2.75v1.25a.5.5 0 0 1-.5.5h-1.12v.75a.5.5 0 0 1-.5.5h-2.76a.5.5 0 0 1-.5-.5v-.75H1175a.5.5 0 0 1-.5-.5V125h-2.75a.5.5 0 0 1-.5-.5v-8c0-.28.22-.5.5-.5h3.25m1.63 0h2.74"/><path fill="#000" d="M1209.5 112.5h-15a2 2 0 0 0-2 2v15c0 1.1.9 2 2 2h15a2 2 0 0 0 2-2v-15a2 2 0 0 0-2-2"/><path fill="#fff" d="M1209.5 113.5h-15a1 1 0 0 0-1 1v15a1 1 0 0 0 1 1h15a1 1 0 0 0 1-1v-15a1 1 0 0 0-1-1m-12.25 3.5h-1v3h1Zm1.5 0h-1v3h1Zm1.5 0h-1v3h1Zm1.5 0h-1v3h1Zm1.5 0h-1v3h1Zm1.5 0h-1v3h1Zm1.5 0h-1v3h1Zm1.5 0h-1v3h1Zm-8.75-1h1.63m2.74 0h4.88c.28 0 .5.22.5.5v8a.5.5 0 0 1-.5.5h-2.75v1.25a.5.5 0 0 1-.5.5h-1.12v.75a.5.5 0 0 1-.5.5h-2.76a.5.5 0 0 1-.5-.5v-.75H1199a.5.5 0 0 1-.5-.5V125h-2.75a.5.5 0 0 1-.5-.5v-8c0-.28.22-.5.5-.5h3.25m1.63 0h2.74"/><path fill="#000" d="M1233.5 112.5h-15a2 2 0 0 0-2 2v15c0 1.1.9 2 2 2h15a2 2 0 0 0 2-2v-15a2 2 0 0 0-2-2"/><path fill="#fff" d="M1233.5 113.5h-15a1 1 0 0 0-1 1v15a1 1 0 0 0 1 1h15a1 1 0 0 0 1-1v-15a1 1 0 0 0-1-1m-12.25 3.5h-1v3h1Zm1.5 0h-1v3h1Zm1.5 0h-1v3h1Zm1.5 0h-1v3h1Zm1.5 0h-1v3h1Zm1.5 0h-1v3h1Zm1.5 0h-1v3h1Zm1.5 0h-1v3h1Zm-8.75-1h1.63m2.74 0h4.88c.28 0 .5.22.5.5v8a.5.5 0 0 1-.5.5h-2.75v1.25a.5.5 0 0 1-.5.5h-1.12v.75a.5.5 0 0 1-.5.5h-2.76a.5.5 0 0 1-.5-.5v-.75H1223a.5.5 0 0 1-.5-.5V125h-2.75a.5.5 0 0 1-.5-.5v-8c0-.28.22-.5.5-.5h3.25m1.63 0h2.74"/><path fill="#000" d="M1257.5 112.5h-15a2 2 0 0 0-2 2v15c0 1.1.9 2 2 2h15a2 2 0 0 0 2-2v-15a2 2 0 0 0-2-2"/><path fill="#fff" d="M1257.5 113.5h-15a1 1 0 0 0-1 1v15a1 1 0 0 0 1 1h15a1 1 0 0 0 1-1v-15a1 1 0 0 0-1-1m-12.25 3.5h-1v3h1Zm1.5 0h-1v3h1Zm1.5 0h-1v3h1Zm1.5 0h-1v3h1Zm1.5 0h-1v3h1Zm1.5 0h-1v3h1Zm1.5 0h-1v3h1Zm1.5 0h-1v3h1Zm-8.75-1h1.63m2.74 0h4.88c.28 0 .5.22.5.5v8a.5.5 0 0 1-.5.5h-2.75v1.25a.5.5 0 0 1-.5.5h-1.12v.75a.5.5 0 0 1-.5.5h-2.76a.5.5 0 0 1-.5-.5v-.75H1247a.5.5 0 0 1-.5-.5V125h-2.75a.5.5 0 0 1-.5-.5v-8c0-.28.22-.5.5-.5h3.25m1.63 0h2.74"/><path fill="#000" d="M1281.5 112.5h-15a2 2 0 0 0-2 2v15c0 1.1.9 2 2 2h15a2 2 0 0 0 2-2v-15a2 2 0 0 0-2-2"/><path fill="#fff" d="M1281.5 113.5h-15a1 1 0 0 0-1 1v15a1 1 0 0 0 1 1h15a1 1 0 0 0 1-1v-15a1 1 0 0 0-1-1m-12.25 3.5h-1v3h1Zm1.5 0h-1v3h1Zm1.5 0h-1v3h1Zm1.5 0h-1v3h1Zm1.5 0h-1v3h1Zm1.5 0h-1v3h1Zm1.5 0h-1v3h1Zm1.5 0h-1v3h1Zm-8.75-1h1.63m2.74 0h4.88c.28 0 .5.22.5.5v8a.5.5 0 0 1-.5.5h-2.75v1.25a.5.5 0 0 1-.5.5h-1.12v.75a.5.5 0 0 1-.5.5h-2.76a.5.5 0 0 1-.5-.5v-.75H1271a.5.5 0 0 1-.5-.5V125h-2.75a.5.5 0 0 1-.5-.5v-8c0-.28.22-.5.5-.5h3.25m1.63 0h2.74"/><path fill="#000" d="M1305.5 112.5h-15a2 2 0 0 0-2 2v15c0 1.1.9 2 2 2h15a2 2 0 0 0 2-2v-15a2 2 0 0 0-2-2"/><path fill="#fff" d="M1305.5 113.5h-15a1 1 0 0 0-1 1v15a1 1 0 0 0 1 1h15a1 1 0 0 0 1-1v-15a1 1 0 0 0-1-1m-12.25 3.5h-1v3h1Zm1.5 0h-1v3h1Zm1.5 0h-1v3h1Zm1.5 0h-1v3h1Zm1.5 0h-1v3h1Zm1.5 0h-1v3h1Zm1.5 0h-1v3h1Zm1.5 0h-1v3h1Zm-8.75-1h1.63m2.74 0h4.88c.28 0 .5.22.5.5v8a.5.5 0 0 1-.5.5h-2.75v1.25a.5.5 0 0 1-.5.5h-1.12v.75a.5.5 0 0 1-.5.5h-2.76a.5.5 0 0 1-.5-.5v-.75H1295a.5.5 0 0 1-.5-.5V125h-2.75a.5.5 0 0 1-.5-.5v-8c0-.28.22-.5.5-.5h3.25m1.63 0h2.74"/><path fill="#000" d="M1185.5 107.5h-15a2 2 0 0 1-2-2v-15c0-1.1.9-2 2-2h15a2 2 0 0 1 2 2v15a2 2 0 0 1-2 2"/><path fill="#fff" d="M1185.5 106.5h-15a1 1 0 0 1-1-1v-15a1 1 0 0 1 1-1h15a1 1 0 0 1 1 1v15a1 1 0 0 1-1 1m-12.25-3.5h-1v-3h1Zm1.5 0h-1v-3h1Zm1.5 0h-1v-3h1Zm1.5 0h-1v-3h1Zm1.5 0h-1v-3h1Zm1.5 0h-1v-3h1Zm1.5 0h-1v-3h1Zm1.5 0h-1v-3h1Zm-8.75 1h1.63m2.74 0h4.88a.5.5 0 0 0 .5-.5v-8a.5.5 0 0 0-.5-.5h-2.75v-1.25a.5.5 0 0 0-.5-.5h-1.12v-.75a.5.5 0 0 0-.5-.5h-2.76a.5.5 0 0 0-.5.5v.75H1175a.5.5 0 0 0-.5.5V95h-2.75a.5.5 0 0 0-.5.5v8c0 .28.22.5.5.5h3.25m1.63 0h2.74"/><path fill="#000" d="M1209.5 107.5h-15a2 2 0 0 1-2-2v-15c0-1.1.9-2 2-2h15a2 2 0 0 1 2 2v15a2 2 0 0 1-2 2"/><path fill="#fff" d="M1209.5 106.5h-15a1 1 0 0 1-1-1v-15a1 1 0 0 1 1-1h15a1 1 0 0 1 1 1v15a1 1 0 0 1-1 1m-12.25-3.5h-1v-3h1Zm1.5 0h-1v-3h1Zm1.5 0h-1v-3h1Zm1.5 0h-1v-3h1Zm1.5 0h-1v-3h1Zm1.5 0h-1v-3h1Zm1.5 0h-1v-3h1Zm1.5 0h-1v-3h1Zm-8.75 1h1.63m2.74 0h4.88a.5.5 0 0 0 .5-.5v-8a.5.5 0 0 0-.5-.5h-2.75v-1.25a.5.5 0 0 0-.5-.5h-1.12v-.75a.5.5 0 0 0-.5-.5h-2.76a.5.5 0 0 0-.5.5v.75H1199a.5.5 0 0 0-.5.5V95h-2.75a.5.5 0 0 0-.5.5v8c0 .28.22.5.5.5h3.25m1.63 0h2.74"/><path fill="#000" d="M1233.5 107.5h-15a2 2 0 0 1-2-2v-15c0-1.1.9-2 2-2h15a2 2 0 0 1 2 2v15a2 2 0 0 1-2 2"/><path fill="#fff" d="M1233.5 106.5h-15a1 1 0 0 1-1-1v-15a1 1 0 0 1 1-1h15a1 1 0 0 1 1 1v15a1 1 0 0 1-1 1m-12.25-3.5h-1v-3h1Zm1.5 0h-1v-3h1Zm1.5 0h-1v-3h1Zm1.5 0h-1v-3h1Zm1.5 0h-1v-3h1Zm1.5 0h-1v-3h1Zm1.5 0h-1v-3h1Zm1.5 0h-1v-3h1Zm-8.75 1h1.63m2.74 0h4.88a.5.5 0 0 0 .5-.5v-8a.5.5 0 0 0-.5-.5h-2.75v-1.25a.5.5 0 0 0-.5-.5h-1.12v-.75a.5.5 0 0 0-.5-.5h-2.76a.5.5 0 0 0-.5.5v.75H1223a.5.5 0 0 0-.5.5V95h-2.75a.5.5 0 0 0-.5.5v8c0 .28.22.5.5.5h3.25m1.63 0h2.74"/><path fill="#000" d="M1257.5 107.5h-15a2 2 0 0 1-2-2v-15c0-1.1.9-2 2-2h15a2 2 0 0 1 2 2v15a2 2 0 0 1-2 2"/><path fill="#fff" d="M1257.5 106.5h-15a1 1 0 0 1-1-1v-15a1 1 0 0 1 1-1h15a1 1 0 0 1 1 1v15a1 1 0 0 1-1 1m-12.25-3.5h-1v-3h1Zm1.5 0h-1v-3h1Zm1.5 0h-1v-3h1Zm1.5 0h-1v-3h1Zm1.5 0h-1v-3h1Zm1.5 0h-1v-3h1Zm1.5 0h-1v-3h1Zm1.5 0h-1v-3h1Zm-8.75 1h1.63m2.74 0h4.88a.5.5 0 0 0 .5-.5v-8a.5.5 0 0 0-.5-.5h-2.75v-1.25a.5.5 0 0 0-.5-.5h-1.12v-.75a.5.5 0 0 0-.5-.5h-2.76a.5.5 0 0 0-.5.5v.75H1247a.5.5 0 0 0-.5.5V95h-2.75a.5.5 0 0 0-.5.5v8c0 .28.22.5.5.5h3.25m1.63 0h2.74"/><path fill="#000" d="M1281.5 107.5h-15a2 2 0 0 1-2-2v-15c0-1.1.9-2 2-2h15a2 2 0 0 1 2 2v15a2 2 0 0 1-2 2"/><path fill="#fff" d="M1281.5 106.5h-15a1 1 0 0 1-1-1v-15a1 1 0 0 1 1-1h15a1 1 0 0 1 1 1v15a1 1 0 0 1-1 1m-12.25-3.5h-1v-3h1Zm1.5 0h-1v-3h1Zm1.5 0h-1v-3h1Zm1.5 0h-1v-3h1Zm1.5 0h-1v-3h1Zm1.5 0h-1v-3h1Zm1.5 0h-1v-3h1Zm1.5 0h-1v-3h1Zm-8.75 1h1.63m2.74 0h4.88a.5.5 0 0 0 .5-.5v-8a.5.5 0 0 0-.5-.5h-2.75v-1.25a.5.5 0 0 0-.5-.5h-1.12v-.75a.5.5 0 0 0-.5-.5h-2.76a.5.5 0 0 0-.5.5v.75H1271a.5.5 0 0 0-.5.5V95h-2.75a.5.5 0 0 0-.5.5v8c0 .28.22.5.5.5h3.25m1.63 0h2.74"/><path fill="#000" d="M1305.5 107.5h-15a2 2 0 0 1-2-2v-15c0-1.1.9-2 2-2h15a2 2 0 0 1 2 2v15a2 2 0 0 1-2 2"/><path fill="#fff" d="M1305.5 106.5h-15a1 1 0 0 1-1-1v-15a1 1 0 0 1 1-1h15a1 1 0 0 1 1 1v15a1 1 0 0 1-1 1m-12.25-3.5h-1v-3h1Zm1.5 0h-1v-3h1Zm1.5 0h-1v-3h1Zm1.5 0h-1v-3h1Zm1.5 0h-1v-3h1Zm1.5 0h-1v-3h1Zm1.5 0h-1v-3h1Zm1.5 0h-1v-3h1Zm-8.75 1h1.63m2.74 0h4.88a.5.5 0 0 0 .5-.5v-8a.5.5 0 0 0-.5-.5h-2.75v-1.25a.5.5 0 0 0-.5-.5h-1.12v-.75a.5.5 0 0 0-.5-.5h-2.76a.5.5 0 0 0-.5.5v.75H1295a.5.5 0 0 0-.5.5V95h-2.75a.5.5 0 0 0-.5.5v8c0 .28.22.5.5.5h3.25m1.63 0h2.74"/><path fill="#ccc" d="M1410 80h-250l50-30h150Z"/><path stroke="#000" stroke-linecap="square" d="M1410 80h-250l50-30h150Z"/><path fill="#fff" d="M1259.34 55.83h51.33v18.34h-51.33z"/><path stroke="#000" stroke-linecap="round" stroke-linejoin="round" d="M1259.34 55.83h51.33v18.34h-51.33z"/><text fill="#000" transform="translate(1261.34 57.83)">
            <tspan xml:space="preserve" x="0" y="11" font-family="Helvetica Neue" font-size="12">lab-sw-2</tspan>
          </text><path fill="#999" d="M460 80h250v60H460z"/><path stroke="#000" stroke-linecap="square" d="M460 80h250v60H460z"/><path fill="#000" d="M699.5 112.5h-15a2 2 0 0 0-2 2v15c0 1.1.9 2 2 2h15a2 2 0 0 0 2-2v-15a2 2 0 0 0-2-2"/><path fill="#fff" d="M699.5 113.5h-15a1 1 0 0 0-1 1v15a1 1 0 0 0 1 1h15a1 1 0 0 0 1-1v-15a1 1 0 0 0-1-1m-12.25 3.5h-1v3h1Zm1.5 0h-1v3h1Zm1.5 0h-1v3h1Zm1.5 0h-1v3h1Zm1.5 0h-1v3h1Zm1.5 0h-1v3h1Zm1.5 0h-1v3h1Zm1.5 0h-1v3h1Zm-8.75-1h1.63m2.75 0h4.87c.28 0 .5.22.5.5v8a.5.5 0 0 1-.5.5h-2.75v1.25a.5.5 0 0 1-.5.5h-1.12v.75a.5.5 0 0 1-.5.5h-2.75a.5.5 0 0 1-.5-.5v-.75H689a.5.5 0 0 1-.5-.5V125h-2.75a.5.5 0 0 1-.5-.5v-8c0-.28.22-.5.5-.5H689m1.63 0h2.75"/><path fill="#000" d="M670.5 112.5h-15a2 2 0 0 0-2 2v15c0 1.1.9 2 2 2h15a2 2 0 0 0 2-2v-15a2 2 0 0 0-2-2"/><path fill="#fff" d="M670.5 113.5h-15a1 1 0 0 0-1 1v15a1 1 0 0 0 1 1h15a1 1 0 0 0 1-1v-15a1 1 0 0 0-1-1m-12.25 3.5h-1v3h1Zm1.5 0h-1v3h1Zm1.5 0h-1v3h1Zm1.5 0h-1v3h1Zm1.5 0h-1v3h1Zm1.5 0h-1v3h1Zm1.5 0h-1v3h1Zm1.5 0h-1v3h1Zm-8.75-1h1.63m2.75 0h4.87c.28 0 .5.22.5.5v8a.5.5 0 0 1-.5.5h-2.75v1.25a.5.5 0 0 1-.5.5h-1.12v.75a.5.5 0 0 1-.5.5h-2.75a.5.5 0 0 1-.5-.5v-.75H660a.5.5 0 0 1-.5-.5V125h-2.75a.5.5 0 0 1-.5-.5v-8c0-.28.22-.5.5-.5H660m1.63 0h2.75"/><path fill="#000" d="M485.5 112.5h-15a2 2 0 0 0-2 2v15c0 1.1.9 2 2 2h15a2 2 0 0 0 2-2v-15a2 2 0 0 0-2-2"/><path fill="#fff" d="M485.5 113.5h-15a1 1 0 0 0-1 1v15a1 1 0 0 0 1 1h15a1 1 0 0 0 1-1v-15a1 1 0 0 0-1-1m-12.25 3.5h-1v3h1Zm1.5 0h-1v3h1Zm1.5 0h-1v3h1Zm1.5 0h-1v3h1Zm1.5 0h-1v3h1Zm1.5 0h-1v3h1Zm1.5 0h-1v3h1Zm1.5 0h-1v3h1Zm-8.75-1h1.63m2.75 0h4.87c.28 0 .5.22.5.5v8a.5.5 0 0 1-.5.5h-2.75v1.25a.5.5 0 0 1-.5.5h-1.12v.75a.5.5 0 0 1-.5.5h-2.75a.5.5 0 0 1-.5-.5v-.75H475a.5.5 0 0 1-.5-.5V125h-2.75a.5.5 0 0 1-.5-.5v-8c0-.28.22-.5.5-.5H475m1.63 0h2.75"/><path fill="#000" d="M509.5 112.5h-15a2 2 0 0 0-2 2v15c0 1.1.9 2 2 2h15a2 2 0 0 0 2-2v-15a2 2 0 0 0-2-2"/><path fill="#fff" d="M509.5 113.5h-15a1 1 0 0 0-1 1v15a1 1 0 0 0 1 1h15a1 1 0 0 0 1-1v-15a1 1 0 0 0-1-1m-12.25 3.5h-1v3h1Zm1.5 0h-1v3h1Zm1.5 0h-1v3h1Zm1.5 0h-1v3h1Zm1.5 0h-1v3h1Zm1.5 0h-1v3h1Zm1.5 0h-1v3h1Zm1.5 0h-1v3h1Zm-8.75-1h1.63m2.75 0h4.87c.28 0 .5.22.5.5v8a.5.5 0 0 1-.5.5h-2.75v1.25a.5.5 0 0 1-.5.5h-1.12v.75a.5.5 0 0 1-.5.5h-2.75a.5.5 0 0 1-.5-.5v-.75H499a.5.5 0 0 1-.5-.5V125h-2.75a.5.5 0 0 1-.5-.5v-8c0-.28.22-.5.5-.5H499m1.63 0h2.75"/><path fill="#000" d="M533.5 112.5h-15a2 2 0 0 0-2 2v15c0 1.1.9 2 2 2h15a2 2 0 0 0 2-2v-15a2 2 0 0 0-2-2"/><path fill="#fff" d="M533.5 113.5h-15a1 1 0 0 0-1 1v15a1 1 0 0 0 1 1h15a1 1 0 0 0 1-1v-15a1 1 0 0 0-1-1m-12.25 3.5h-1v3h1Zm1.5 0h-1v3h1Zm1.5 0h-1v3h1Zm1.5 0h-1v3h1Zm1.5 0h-1v3h1Zm1.5 0h-1v3h1Zm1.5 0h-1v3h1Zm1.5 0h-1v3h1Zm-8.75-1h1.63m2.75 0h4.87c.28 0 .5.22.5.5v8a.5.5 0 0 1-.5.5h-2.75v1.25a.5.5 0 0 1-.5.5h-1.12v.75a.5.5 0 0 1-.5.5h-2.75a.5.5 0 0 1-.5-.5v-.75H523a.5.5 0 0 1-.5-.5V125h-2.75a.5.5 0 0 1-.5-.5v-8c0-.28.22-.5.5-.5H523m1.63 0h2.75"/><path fill="#000" d="M557.5 112.5h-15a2 2 0 0 0-2 2v15c0 1.1.9 2 2 2h15a2 2 0 0 0 2-2v-15a2 2 0 0 0-2-2"/><path fill="#fff" d="M557.5 113.5h-15a1 1 0 0 0-1 1v15a1 1 0 0 0 1 1h15a1 1 0 0 0 1-1v-15a1 1 0 0 0-1-1m-12.25 3.5h-1v3h1Zm1.5 0h-1v3h1Zm1.5 0h-1v3h1Zm1.5 0h-1v3h1Zm1.5 0h-1v3h1Zm1.5 0h-1v3h1Zm1.5 0h-1v3h1Zm1.5 0h-1v3h1Zm-8.75-1h1.63m2.75 0h4.87c.28 0 .5.22.5.5v8a.5.5 0 0 1-.5.5h-2.75v1.25a.5.5 0 0 1-.5.5h-1.12v.75a.5.5 0 0 1-.5.5h-2.75a.5.5 0 0 1-.5-.5v-.75H547a.5.5 0 0 1-.5-.5V125h-2.75a.5.5 0 0 1-.5-.5v-8c0-.28.22-.5.5-.5H547m1.63 0h2.75"/><path fill="#000" d="M581.5 112.5h-15a2 2 0 0 0-2 2v15c0 1.1.9 2 2 2h15a2 2 0 0 0 2-2v-15a2 2 0 0 0-2-2"/><path fill="#fff" d="M581.5 113.5h-15a1 1 0 0 0-1 1v15a1 1 0 0 0 1 1h15a1 1 0 0 0 1-1v-15a1 1 0 0 0-1-1m-12.25 3.5h-1v3h1Zm1.5 0h-1v3h1Zm1.5 0h-1v3h1Zm1.5 0h-1v3h1Zm1.5 0h-1v3h1Zm1.5 0h-1v3h1Zm1.5 0h-1v3h1Zm1.5 0h-1v3h1Zm-8.75-1h1.63m2.75 0h4.87c.28 0 .5.22.5.5v8a.5.5 0 0 1-.5.5h-2.75v1.25a.5.5 0 0 1-.5.5h-1.12v.75a.5.5 0 0 1-.5.5h-2.75a.5.5 0 0 1-.5-.5v-.75H571a.5.5 0 0 1-.5-.5V125h-2.75a.5.5 0 0 1-.5-.5v-8c0-.28.22-.5.5-.5H571m1.63 0h2.75"/><path fill="#000" d="M605.5 112.5h-15a2 2 0 0 0-2 2v15c0 1.1.9 2 2 2h15a2 2 0 0 0 2-2v-15a2 2 0 0 0-2-2"/><path fill="#fff" d="M605.5 113.5h-15a1 1 0 0 0-1 1v15a1 1 0 0 0 1 1h15a1 1 0 0 0 1-1v-15a1 1 0 0 0-1-1m-12.25 3.5h-1v3h1Zm1.5 0h-1v3h1Zm1.5 0h-1v3h1Zm1.5 0h-1v3h1Zm1.5 0h-1v3h1Zm1.5 0h-1v3h1Zm1.5 0h-1v3h1Zm1.5 0h-1v3h1Zm-8.75-1h1.63m2.75 0h4.87c.28 0 .5.22.5.5v8a.5.5 0 0 1-.5.5h-2.75v1.25a.5.5 0 0 1-.5.5h-1.12v.75a.5.5 0 0 1-.5.5h-2.75a.5.5 0 0 1-.5-.5v-.75H595a.5.5 0 0 1-.5-.5V125h-2.75a.5.5 0 0 1-.5-.5v-8c0-.28.22-.5.5-.5H595m1.63 0h2.75"/><path fill="#000" d="M485.5 107.5h-15a2 2 0 0 1-2-2v-15c0-1.1.9-2 2-2h15a2 2 0 0 1 2 2v15a2 2 0 0 1-2 2"/><path fill="#fff" d="M485.5 106.5h-15a1 1 0 0 1-1-1v-15a1 1 0 0 1 1-1h15a1 1 0 0 1 1 1v15a1 1 0 0 1-1 1m-12.25-3.5h-1v-3h1Zm1.5 0h-1v-3h1Zm1.5 0h-1v-3h1Zm1.5 0h-1v-3h1Zm1.5 0h-1v-3h1Zm1.5 0h-1v-3h1Zm1.5 0h-1v-3h1Zm1.5 0h-1v-3h1Zm-8.75 1h1.63m2.75 0h4.87a.5.5 0 0 0 .5-.5v-8a.5.5 0 0 0-.5-.5h-2.75v-1.25a.5.5 0 0 0-.5-.5h-1.12v-.75a.5.5 0 0 0-.5-.5h-2.75a.5.5 0 0 0-.5.5v.75H475a.5.5 0 0 0-.5.5V95h-2.75a.5.5 0 0 0-.5.5v8c0 .28.22.5.5.5H475m1.63 0h2.75"/><path fill="#000" d="M509.5 107.5h-15a2 2 0 0 1-2-2v-15c0-1.1.9-2 2-2h15a2 2 0 0 1 2 2v15a2 2 0 0 1-2 2"/><path fill="#fff" d="M509.5 106.5h-15a1 1 0 0 1-1-1v-15a1 1 0 0 1 1-1h15a1 1 0 0 1 1 1v15a1 1 0 0 1-1 1m-12.25-3.5h-1v-3h1Zm1.5 0h-1v-3h1Zm1.5 0h-1v-3h1Zm1.5 0h-1v-3h1Zm1.5 0h-1v-3h1Zm1.5 0h-1v-3h1Zm1.5 0h-1v-3h1Zm1.5 0h-1v-3h1Zm-8.75 1h1.63m2.75 0h4.87a.5.5 0 0 0 .5-.5v-8a.5.5 0 0 0-.5-.5h-2.75v-1.25a.5.5 0 0 0-.5-.5h-1.12v-.75a.5.5 0 0 0-.5-.5h-2.75a.5.5 0 0 0-.5.5v.75H499a.5.5 0 0 0-.5.5V95h-2.75a.5.5 0 0 0-.5.5v8c0 .28.22.5.5.5H499m1.63 0h2.75"/><path fill="#000" d="M533.5 107.5h-15a2 2 0 0 1-2-2v-15c0-1.1.9-2 2-2h15a2 2 0 0 1 2 2v15a2 2 0 0 1-2 2"/><path fill="#fff" d="M533.5 106.5h-15a1 1 0 0 1-1-1v-15a1 1 0 0 1 1-1h15a1 1 0 0 1 1 1v15a1 1 0 0 1-1 1m-12.25-3.5h-1v-3h1Zm1.5 0h-1v-3h1Zm1.5 0h-1v-3h1Zm1.5 0h-1v-3h1Zm1.5 0h-1v-3h1Zm1.5 0h-1v-3h1Zm1.5 0h-1v-3h1Zm1.5 0h-1v-3h1Zm-8.75 1h1.63m2.75 0h4.87a.5.5 0 0 0 .5-.5v-8a.5.5 0 0 0-.5-.5h-2.75v-1.25a.5.5 0 0 0-.5-.5h-1.12v-.75a.5.5 0 0 0-.5-.5h-2.75a.5.5 0 0 0-.5.5v.75H523a.5.5 0 0 0-.5.5V95h-2.75a.5.5 0 0 0-.5.5v8c0 .28.22.5.5.5H523m1.63 0h2.75"/><path fill="#000" d="M557.5 107.5h-15a2 2 0 0 1-2-2v-15c0-1.1.9-2 2-2h15a2 2 0 0 1 2 2v15a2 2 0 0 1-2 2"/><path fill="#fff" d="M557.5 106.5h-15a1 1 0 0 1-1-1v-15a1 1 0 0 1 1-1h15a1 1 0 0 1 1 1v15a1 1 0 0 1-1 1m-12.25-3.5h-1v-3h1Zm1.5 0h-1v-3h1Zm1.5 0h-1v-3h1Zm1.5 0h-1v-3h1Zm1.5 0h-1v-3h1Zm1.5 0h-1v-3h1Zm1.5 0h-1v-3h1Zm1.5 0h-1v-3h1Zm-8.75 1h1.63m2.75 0h4.87a.5.5 0 0 0 .5-.5v-8a.5.5 0 0 0-.5-.5h-2.75v-1.25a.5.5 0 0 0-.5-.5h-1.12v-.75a.5.5 0 0 0-.5-.5h-2.75a.5.5 0 0 0-.5.5v.75H547a.5.5 0 0 0-.5.5V95h-2.75a.5.5 0 0 0-.5.5v8c0 .28.22.5.5.5H547m1.63 0h2.75"/><path fill="#000" d="M581.5 107.5h-15a2 2 0 0 1-2-2v-15c0-1.1.9-2 2-2h15a2 2 0 0 1 2 2v15a2 2 0 0 1-2 2"/><path fill="#fff" d="M581.5 106.5h-15a1 1 0 0 1-1-1v-15a1 1 0 0 1 1-1h15a1 1 0 0 1 1 1v15a1 1 0 0 1-1 1m-12.25-3.5h-1v-3h1Zm1.5 0h-1v-3h1Zm1.5 0h-1v-3h1Zm1.5 0h-1v-3h1Zm1.5 0h-1v-3h1Zm1.5 0h-1v-3h1Zm1.5 0h-1v-3h1Zm1.5 0h-1v-3h1Zm-8.75 1h1.63m2.75 0h4.87a.5.5 0 0 0 .5-.5v-8a.5.5 0 0 0-.5-.5h-2.75v-1.25a.5.5 0 0 0-.5-.5h-1.12v-.75a.5.5 0 0 0-.5-.5h-2.75a.5.5 0 0 0-.5.5v.75H571a.5.5 0 0 0-.5.5V95h-2.75a.5.5 0 0 0-.5.5v8c0 .28.22.5.5.5H571m1.63 0h2.75"/><path fill="#000" d="M605.5 107.5h-15a2 2 0 0 1-2-2v-15c0-1.1.9-2 2-2h15a2 2 0 0 1 2 2v15a2 2 0 0 1-2 2"/><path fill="#fff" d="M605.5 106.5h-15a1 1 0 0 1-1-1v-15a1 1 0 0 1 1-1h15a1 1 0 0 1 1 1v15a1 1 0 0 1-1 1m-12.25-3.5h-1v-3h1Zm1.5 0h-1v-3h1Zm1.5 0h-1v-3h1Zm1.5 0h-1v-3h1Zm1.5 0h-1v-3h1Zm1.5 0h-1v-3h1Zm1.5 0h-1v-3h1Zm1.5 0h-1v-3h1Zm-8.75 1h1.63m2.75 0h4.87a.5.5 0 0 0 .5-.5v-8a.5.5 0 0 0-.5-.5h-2.75v-1.25a.5.5 0 0 0-.5-.5h-1.12v-.75a.5.5 0 0 0-.5-.5h-2.75a.5.5 0 0 0-.5.5v.75H595a.5.5 0 0 0-.5.5V95h-2.75a.5.5 0 0 0-.5.5v8c0 .28.22.5.5.5H595m1.63 0h2.75"/><path fill="#ccc" d="M710 80H460l50-30h150Z"/><path stroke="#000" stroke-linecap="square" d="M710 80H460l50-30h150Z"/><path fill="#fff" d="M559.34 55.83h51.33v18.34h-51.33z"/><path stroke="#000" stroke-linecap="round" stroke-linejoin="round" d="M559.34 55.83h51.33v18.34h-51.33z"/><text fill="#000" transform="translate(561.34 57.83)">
            <tspan xml:space="preserve" x="0" y="11" font-family="Helvetica Neue" font-size="12">lab-sw-1</tspan>
          </text><path stroke="#000" stroke-linecap="square" stroke-width="2" marker-end="url(#a)" marker-start="url(#b)" d="M663 139.7v464.6"/><path stroke="#000" stroke-linecap="square" stroke-width="2" marker-end="url(#a)" marker-start="url(#b)" d="M709.7 622h635.6"/><path stroke="#000" stroke-linecap="square" stroke-width="2" marker-end="url(#a)" marker-start="url(#b)" d="M1392 604.3V139.7"/><path stroke="#000" stroke-linecap="square" stroke-width="2" marker-end="url(#a)" marker-start="url(#b)" d="M1345.3 122H709.7"/><path fill="#fff" d="M1349.5 165.38h84.99v28.45h-84.99z"/><path stroke="#000" stroke-linecap="round" stroke-linejoin="round" stroke-width="2" d="M1349.5 165.38h84.99v28.45h-84.99z"/><text fill="#000" transform="translate(1354.5 170.38)">
          <tspan xml:space="preserve" x="0" y="15" font-family="Helvetica Neue" font-size="16">mge-0/2/1</tspan>
        </text><path fill="#fff" d="M1050.2 607.78h84.99v28.45h-84.99z"/><path stroke="#000" stroke-linecap="round" stroke-linejoin="round" stroke-width="2" d="M1050.2 607.78h84.99v28.45h-84.99z"/><text fill="#000" transform="translate(1055.2 612.78)">
          <tspan xml:space="preserve" x="0" y="15" font-family="Helvetica Neue" font-size="16">mge-0/2/0</tspan>
        </text><path fill="#fff" d="M620.5 502.08h84.99v28.45H620.5z"/><path stroke="#000" stroke-linecap="round" stroke-linejoin="round" stroke-width="2" d="M620.5 502.08h84.99v28.45H620.5z"/><text fill="#000" transform="translate(625.5 507.08)">
          <tspan xml:space="preserve" x="0" y="15" font-family="Helvetica Neue" font-size="16">mge-0/2/0</tspan>
        </text><path fill="#fff" d="M789.4 107.78h84.99v28.45H789.4z"/><path stroke="#000" stroke-linecap="round" stroke-linejoin="round" stroke-width="2" d="M789.4 107.78h84.99v28.45H789.4z"/><text fill="#000" transform="translate(794.4 112.78)">
          <tspan xml:space="preserve" x="0" y="15" font-family="Helvetica Neue" font-size="16">mge-0/2/1</tspan>
        </text><path fill="#fff" d="M1050.2 107.78h84.99v28.45h-84.99z"/><path stroke="#000" stroke-linecap="round" stroke-linejoin="round" stroke-width="2" d="M1050.2 107.78h84.99v28.45h-84.99z"/><text fill="#000" transform="translate(1055.2 112.78)">
          <tspan xml:space="preserve" x="0" y="15" font-family="Helvetica Neue" font-size="16">mge-0/2/0</tspan>
        </text><path fill="#fff" d="M1349.5 502.08h84.99v28.45h-84.99z"/><path stroke="#000" stroke-linecap="round" stroke-linejoin="round" stroke-width="2" d="M1349.5 502.08h84.99v28.45h-84.99z"/><text fill="#000" transform="translate(1354.5 507.08)">
          <tspan xml:space="preserve" x="0" y="15" font-family="Helvetica Neue" font-size="16">mge-0/2/1</tspan>
        </text><path fill="#fff" d="M789.4 607.78h84.99v28.45H789.4z"/><path stroke="#000" stroke-linecap="round" stroke-linejoin="round" stroke-width="2" d="M789.4 607.78h84.99v28.45H789.4z"/><text fill="#000" transform="translate(794.4 612.78)">
          <tspan xml:space="preserve" x="0" y="15" font-family="Helvetica Neue" font-size="16">mge-0/2/1</tspan>
        </text><path fill="#fff" d="M620.5 165.38h84.99v28.45H620.5z"/><path stroke="#000" stroke-linecap="round" stroke-linejoin="round" stroke-width="2" d="M620.5 165.38h84.99v28.45H620.5z"/><text fill="#000" transform="translate(625.5 170.38)">
          <tspan xml:space="preserve" x="0" y="15" font-family="Helvetica Neue" font-size="16">mge-0/2/0</tspan>
        </text><path fill="#fff" d="M110 50h320v382.49H110z"/><path stroke="#000" stroke-linecap="round" stroke-linejoin="round" d="M110 50h320v382.49H110z"/><text fill="#000" transform="translate(125 55)">
            <tspan xml:space="preserve" x="0" y="16" font-family="Helvetica Neue" font-size="16" font-weight="bold">lab-sw-1</tspan>
          </text><path fill="#fff" d="M220 394.04h100v28.45H220z"/><path stroke="#000" stroke-linecap="round" stroke-linejoin="round" d="M220 394.04h100v28.45H220z"/><text fill="#000" transform="translate(225 399.04)">
                <tspan xml:space="preserve" x="0" y="15" font-family="Helvetica Neue" font-size="16">10.1.0.0/16</tspan>
              </text><path fill="#fff" d="M120 394.04h100v28.45H120z"/><path stroke="#000" stroke-linecap="round" stroke-linejoin="round" d="M120 394.04h100v28.45H120z"/><text fill="#000" transform="translate(125 399.04)">
                <tspan xml:space="preserve" x="0" y="15" font-family="Helvetica Neue" font-size="16">10.1.0.0</tspan>
              </text><path fill="#fff" d="M120 365.6h100v28.45H120z"/><path stroke="#000" stroke-linecap="round" stroke-linejoin="round" d="M120 365.6h100v28.45H120z"/><text fill="#000" transform="translate(125 370.6)">
                <tspan xml:space="preserve" x="0" y="15" font-family="Helvetica Neue" font-size="16">0.0.0.0</tspan>
              </text><path fill="#fff" d="M220 365.6h100v28.45H220z"/><path stroke="#000" stroke-linecap="round" stroke-linejoin="round" d="M220 365.6h100v28.45H220z"/><text fill="#000" transform="translate(225 370.6)">
                <tspan xml:space="preserve" x="0" y="15" font-family="Helvetica Neue" font-size="16">-</tspan>
              </text><path fill="#ccc" d="M220 337.15h100v28.45H220z"/><path stroke="#000" stroke-linecap="round" stroke-linejoin="round" d="M220 337.15h100v28.45H220z"/><text fill="#000" transform="translate(225 342.15)">
                <tspan xml:space="preserve" x="0" y="15" font-family="Helvetica Neue" font-size="16">Area Range</tspan>
              </text><path fill="#ccc" d="M120 337.15h100v28.45H120z"/><path stroke="#000" stroke-linecap="round" stroke-linejoin="round" d="M120 337.15h100v28.45H120z"/><text fill="#000" transform="translate(125 342.15)">
                <tspan xml:space="preserve" x="0" y="15" font-family="Helvetica Neue" font-size="16">Area</tspan>
              </text><path fill="#999" d="M120 308.7h200v28.45H120z"/><path stroke="#000" stroke-linecap="round" stroke-linejoin="round" d="M120 308.7h200v28.45H120z"/><text fill="#000" transform="translate(125 313.7)">
              <tspan xml:space="preserve" x="0" y="15" font-family="Helvetica Neue" font-size="16">OSPF Areas</tspan>
            </text><path fill="#fff" d="M120 260.28h100v28.38H120z"/><path stroke="#000" stroke-linecap="round" stroke-linejoin="round" d="M120 260.28h100v28.38H120z"/><text fill="#000" transform="translate(125 265.25)">
                <tspan xml:space="preserve" x="0" y="15" font-family="Helvetica Neue" font-size="16">irb.111</tspan>
              </text><path fill="#fff" d="M220 260.28h100v28.38H220z"/><path stroke="#000" stroke-linecap="round" stroke-linejoin="round" d="M220 260.28h100v28.38H220z"/><text fill="#000" transform="translate(225 265.25)">
                <tspan xml:space="preserve" x="0" y="15" font-family="Helvetica Neue" font-size="16">10.1.0.0</tspan>
              </text><path fill="#fff" d="M320 260.28h100v28.38H320z"/><path stroke="#000" stroke-linecap="round" stroke-linejoin="round" d="M320 260.28h100v28.38H320z"/><text fill="#000" transform="translate(325 265.25)">
                <tspan xml:space="preserve" x="0" y="15" font-family="Helvetica Neue" font-size="16">passive</tspan>
              </text><path fill="#fff" d="M120 231.89h100v28.38H120z"/><path stroke="#000" stroke-linecap="round" stroke-linejoin="round" d="M120 231.89h100v28.38H120z"/><text fill="#000" transform="translate(125 236.86)">
                <tspan xml:space="preserve" x="0" y="15" font-family="Helvetica Neue" font-size="16">irb.110</tspan>
              </text><path fill="#fff" d="M320 231.89h100v28.38H320z"/><path stroke="#000" stroke-linecap="round" stroke-linejoin="round" d="M320 231.89h100v28.38H320z"/><text fill="#000" transform="translate(325 236.86)">
                <tspan xml:space="preserve" x="0" y="15" font-family="Helvetica Neue" font-size="16">passive</tspan>
              </text><path fill="#fff" d="M220 231.89h100v28.38H220z"/><path stroke="#000" stroke-linecap="round" stroke-linejoin="round" d="M220 231.89h100v28.38H220z"/><text fill="#000" transform="translate(225 236.86)">
                <tspan xml:space="preserve" x="0" y="15" font-family="Helvetica Neue" font-size="16">10.1.0.0</tspan>
              </text><path fill="#fff" d="M120 203.51h100v28.38H120z"/><path stroke="#000" stroke-linecap="round" stroke-linejoin="round" d="M120 203.51h100v28.38H120z"/><text fill="#000" transform="translate(125 208.48)">
                <tspan xml:space="preserve" x="0" y="15" font-family="Helvetica Neue" font-size="16">mge-0/2/1.0</tspan>
              </text><path fill="#fff" d="M220 203.51h100v28.38H220z"/><path stroke="#000" stroke-linecap="round" stroke-linejoin="round" d="M220 203.51h100v28.38H220z"/><text fill="#000" transform="translate(225 208.48)">
                <tspan xml:space="preserve" x="0" y="15" font-family="Helvetica Neue" font-size="16">0.0.0.0</tspan>
              </text><path fill="#fff" d="M320 203.51h100v28.38H320z"/><path stroke="#000" stroke-linecap="round" stroke-linejoin="round" d="M320 203.51h100v28.38H320z"/><text fill="#000" transform="translate(325 208.48)">
                <tspan xml:space="preserve" x="0" y="15" font-family="Helvetica Neue" font-size="16">active</tspan>
              </text><path fill="#fff" d="M320 175.13h100v28.38H320z"/><path stroke="#000" stroke-linecap="round" stroke-linejoin="round" d="M320 175.13h100v28.38H320z"/><text fill="#000" transform="translate(325 180.1)">
                <tspan xml:space="preserve" x="0" y="15" font-family="Helvetica Neue" font-size="16">active</tspan>
              </text><path fill="#ccc" d="M320 117.91h100v28.83H320z"/><path stroke="#000" stroke-linecap="round" stroke-linejoin="round" d="M320 117.91h100v28.83H320z"/><text fill="#000" transform="translate(325 123.1)">
                <tspan xml:space="preserve" x="0" y="15" font-family="Helvetica Neue" font-size="16">Mode</tspan>
              </text><path fill="#fff" d="M320 146.74h100v28.38H320z"/><path stroke="#000" stroke-linecap="round" stroke-linejoin="round" d="M320 146.74h100v28.38H320z"/><text fill="#000" transform="translate(325 151.71)">
                <tspan xml:space="preserve" x="0" y="15" font-family="Helvetica Neue" font-size="16">passive</tspan>
              </text><path fill="#fff" d="M220 175.13h100v28.38H220z"/><path stroke="#000" stroke-linecap="round" stroke-linejoin="round" d="M220 175.13h100v28.38H220z"/><text fill="#000" transform="translate(225 180.1)">
                <tspan xml:space="preserve" x="0" y="15" font-family="Helvetica Neue" font-size="16">0.0.0.0</tspan>
              </text><path fill="#fff" d="M120 175.13h100v28.38H120z"/><path stroke="#000" stroke-linecap="round" stroke-linejoin="round" d="M120 175.13h100v28.38H120z"/><text fill="#000" transform="translate(125 180.1)">
                <tspan xml:space="preserve" x="0" y="15" font-family="Helvetica Neue" font-size="16">mge-0/2/0.0</tspan>
              </text><path fill="#fff" d="M220 146.74h100v28.38H220z"/><path stroke="#000" stroke-linecap="round" stroke-linejoin="round" d="M220 146.74h100v28.38H220z"/><text fill="#000" transform="translate(225 151.71)">
                <tspan xml:space="preserve" x="0" y="15" font-family="Helvetica Neue" font-size="16">10.1.0.0</tspan>
              </text><path fill="#fff" d="M120 146.74h100v28.38H120z"/><path stroke="#000" stroke-linecap="round" stroke-linejoin="round" d="M120 146.74h100v28.38H120z"/><text fill="#000" transform="translate(125 151.71)">
                <tspan xml:space="preserve" x="0" y="15" font-family="Helvetica Neue" font-size="16">lo0.0</tspan>
              </text><path fill="#ccc" d="M220 117.91h100v28.83H220z"/><path stroke="#000" stroke-linecap="round" stroke-linejoin="round" d="M220 117.91h100v28.83H220z"/><text fill="#000" transform="translate(225 123.1)">
                <tspan xml:space="preserve" x="0" y="15" font-family="Helvetica Neue" font-size="16">Area</tspan>
              </text><path fill="#ccc" d="M120 117.91h100v28.83H120z"/><path stroke="#000" stroke-linecap="round" stroke-linejoin="round" d="M120 117.91h100v28.83H120z"/><text fill="#000" transform="translate(125 123.1)">
                <tspan xml:space="preserve" x="0" y="15" font-family="Helvetica Neue" font-size="16">Name</tspan>
              </text><path fill="#999" d="M120 89.46h300v28.45H120z"/><path stroke="#000" stroke-linecap="round" stroke-linejoin="round" d="M120 89.46h300v28.45H120z"/><text fill="#000" transform="translate(125 94.46)">
              <tspan xml:space="preserve" x="0" y="15" font-family="Helvetica Neue" font-size="16">OSPF Interfaces</tspan>
            </text><path fill="#fff" d="M1440 50h320v382.49h-320z"/><path stroke="#000" stroke-linecap="round" stroke-linejoin="round" d="M1440 50h320v382.49h-320z"/><text fill="#000" transform="translate(1455 55)">
            <tspan xml:space="preserve" x="0" y="16" font-family="Helvetica Neue" font-size="16" font-weight="bold">lab-sw-2</tspan>
          </text><path fill="#fff" d="M1550 394.04h100v28.45h-100z"/><path stroke="#000" stroke-linecap="round" stroke-linejoin="round" d="M1550 394.04h100v28.45h-100z"/><text fill="#000" transform="translate(1555 399.04)">
                <tspan xml:space="preserve" x="0" y="15" font-family="Helvetica Neue" font-size="16">10.2.0.0/16</tspan>
              </text><path fill="#fff" d="M1450 394.04h100v28.45h-100z"/><path stroke="#000" stroke-linecap="round" stroke-linejoin="round" d="M1450 394.04h100v28.45h-100z"/><text fill="#000" transform="translate(1455 399.04)">
                <tspan xml:space="preserve" x="0" y="15" font-family="Helvetica Neue" font-size="16">10.2.0.0</tspan>
              </text><path fill="#fff" d="M1450 365.6h100v28.45h-100z"/><path stroke="#000" stroke-linecap="round" stroke-linejoin="round" d="M1450 365.6h100v28.45h-100z"/><text fill="#000" transform="translate(1455 370.6)">
                <tspan xml:space="preserve" x="0" y="15" font-family="Helvetica Neue" font-size="16">0.0.0.0</tspan>
              </text><path fill="#fff" d="M1550 365.6h100v28.45h-100z"/><path stroke="#000" stroke-linecap="round" stroke-linejoin="round" d="M1550 365.6h100v28.45h-100z"/><text fill="#000" transform="translate(1555 370.6)">
                <tspan xml:space="preserve" x="0" y="15" font-family="Helvetica Neue" font-size="16">-</tspan>
              </text><path fill="#ccc" d="M1550 337.15h100v28.45h-100z"/><path stroke="#000" stroke-linecap="round" stroke-linejoin="round" d="M1550 337.15h100v28.45h-100z"/><text fill="#000" transform="translate(1555 342.15)">
                <tspan xml:space="preserve" x="0" y="15" font-family="Helvetica Neue" font-size="16">Area Range</tspan>
              </text><path fill="#ccc" d="M1450 337.15h100v28.45h-100z"/><path stroke="#000" stroke-linecap="round" stroke-linejoin="round" d="M1450 337.15h100v28.45h-100z"/><text fill="#000" transform="translate(1455 342.15)">
                <tspan xml:space="preserve" x="0" y="15" font-family="Helvetica Neue" font-size="16">Area</tspan>
              </text><path fill="#999" d="M1450 308.7h200v28.45h-200z"/><path stroke="#000" stroke-linecap="round" stroke-linejoin="round" d="M1450 308.7h200v28.45h-200z"/><text fill="#000" transform="translate(1455 313.7)">
              <tspan xml:space="preserve" x="0" y="15" font-family="Helvetica Neue" font-size="16">OSPF Areas</tspan>
            </text><path fill="#fff" d="M1450 260.28h100v28.38h-100z"/><path stroke="#000" stroke-linecap="round" stroke-linejoin="round" d="M1450 260.28h100v28.38h-100z"/><text fill="#000" transform="translate(1455 265.25)">
                <tspan xml:space="preserve" x="0" y="15" font-family="Helvetica Neue" font-size="16">irb.211</tspan>
              </text><path fill="#fff" d="M1550 260.28h100v28.38h-100z"/><path stroke="#000" stroke-linecap="round" stroke-linejoin="round" d="M1550 260.28h100v28.38h-100z"/><text fill="#000" transform="translate(1555 265.25)">
                <tspan xml:space="preserve" x="0" y="15" font-family="Helvetica Neue" font-size="16">10.2.0.0</tspan>
              </text><path fill="#fff" d="M1650 260.28h100v28.38h-100z"/><path stroke="#000" stroke-linecap="round" stroke-linejoin="round" d="M1650 260.28h100v28.38h-100z"/><text fill="#000" transform="translate(1655 265.25)">
                <tspan xml:space="preserve" x="0" y="15" font-family="Helvetica Neue" font-size="16">passive</tspan>
              </text><path fill="#fff" d="M1450 231.89h100v28.38h-100z"/><path stroke="#000" stroke-linecap="round" stroke-linejoin="round" d="M1450 231.89h100v28.38h-100z"/><text fill="#000" transform="translate(1455 236.86)">
                <tspan xml:space="preserve" x="0" y="15" font-family="Helvetica Neue" font-size="16">irb.210</tspan>
              </text><path fill="#fff" d="M1650 231.89h100v28.38h-100z"/><path stroke="#000" stroke-linecap="round" stroke-linejoin="round" d="M1650 231.89h100v28.38h-100z"/><text fill="#000" transform="translate(1655 236.86)">
                <tspan xml:space="preserve" x="0" y="15" font-family="Helvetica Neue" font-size="16">passive</tspan>
              </text><path fill="#fff" d="M1550 231.89h100v28.38h-100z"/><path stroke="#000" stroke-linecap="round" stroke-linejoin="round" d="M1550 231.89h100v28.38h-100z"/><text fill="#000" transform="translate(1555 236.86)">
                <tspan xml:space="preserve" x="0" y="15" font-family="Helvetica Neue" font-size="16">10.2.0.0</tspan>
              </text><path fill="#fff" d="M1450 203.51h100v28.38h-100z"/><path stroke="#000" stroke-linecap="round" stroke-linejoin="round" d="M1450 203.51h100v28.38h-100z"/><text fill="#000" transform="translate(1455 208.48)">
                <tspan xml:space="preserve" x="0" y="15" font-family="Helvetica Neue" font-size="16">mge-0/2/1.0</tspan>
              </text><path fill="#fff" d="M1550 203.51h100v28.38h-100z"/><path stroke="#000" stroke-linecap="round" stroke-linejoin="round" d="M1550 203.51h100v28.38h-100z"/><text fill="#000" transform="translate(1555 208.48)">
                <tspan xml:space="preserve" x="0" y="15" font-family="Helvetica Neue" font-size="16">0.0.0.0</tspan>
              </text><path fill="#fff" d="M1650 203.51h100v28.38h-100z"/><path stroke="#000" stroke-linecap="round" stroke-linejoin="round" d="M1650 203.51h100v28.38h-100z"/><text fill="#000" transform="translate(1655 208.48)">
                <tspan xml:space="preserve" x="0" y="15" font-family="Helvetica Neue" font-size="16">active</tspan>
              </text><path fill="#fff" d="M1650 175.13h100v28.38h-100z"/><path stroke="#000" stroke-linecap="round" stroke-linejoin="round" d="M1650 175.13h100v28.38h-100z"/><text fill="#000" transform="translate(1655 180.1)">
                <tspan xml:space="preserve" x="0" y="15" font-family="Helvetica Neue" font-size="16">active</tspan>
              </text><path fill="#ccc" d="M1650 117.91h100v28.83h-100z"/><path stroke="#000" stroke-linecap="round" stroke-linejoin="round" d="M1650 117.91h100v28.83h-100z"/><text fill="#000" transform="translate(1655 123.1)">
                <tspan xml:space="preserve" x="0" y="15" font-family="Helvetica Neue" font-size="16">Mode</tspan>
              </text><path fill="#fff" d="M1650 146.74h100v28.38h-100z"/><path stroke="#000" stroke-linecap="round" stroke-linejoin="round" d="M1650 146.74h100v28.38h-100z"/><text fill="#000" transform="translate(1655 151.71)">
                <tspan xml:space="preserve" x="0" y="15" font-family="Helvetica Neue" font-size="16">passive</tspan>
              </text><path fill="#fff" d="M1550 175.13h100v28.38h-100z"/><path stroke="#000" stroke-linecap="round" stroke-linejoin="round" d="M1550 175.13h100v28.38h-100z"/><text fill="#000" transform="translate(1555 180.1)">
                <tspan xml:space="preserve" x="0" y="15" font-family="Helvetica Neue" font-size="16">0.0.0.0</tspan>
              </text><path fill="#fff" d="M1450 175.13h100v28.38h-100z"/><path stroke="#000" stroke-linecap="round" stroke-linejoin="round" d="M1450 175.13h100v28.38h-100z"/><text fill="#000" transform="translate(1455 180.1)">
                <tspan xml:space="preserve" x="0" y="15" font-family="Helvetica Neue" font-size="16">mge-0/2/0.0</tspan>
              </text><path fill="#fff" d="M1550 146.74h100v28.38h-100z"/><path stroke="#000" stroke-linecap="round" stroke-linejoin="round" d="M1550 146.74h100v28.38h-100z"/><text fill="#000" transform="translate(1555 151.71)">
                <tspan xml:space="preserve" x="0" y="15" font-family="Helvetica Neue" font-size="16">10.2.0.0</tspan>
              </text><path fill="#fff" d="M1450 146.74h100v28.38h-100z"/><path stroke="#000" stroke-linecap="round" stroke-linejoin="round" d="M1450 146.74h100v28.38h-100z"/><text fill="#000" transform="translate(1455 151.71)">
                <tspan xml:space="preserve" x="0" y="15" font-family="Helvetica Neue" font-size="16">lo0.0</tspan>
              </text><path fill="#ccc" d="M1550 117.91h100v28.83h-100z"/><path stroke="#000" stroke-linecap="round" stroke-linejoin="round" d="M1550 117.91h100v28.83h-100z"/><text fill="#000" transform="translate(1555 123.1)">
                <tspan xml:space="preserve" x="0" y="15" font-family="Helvetica Neue" font-size="16">Area</tspan>
              </text><path fill="#ccc" d="M1450 117.91h100v28.83h-100z"/><path stroke="#000" stroke-linecap="round" stroke-linejoin="round" d="M1450 117.91h100v28.83h-100z"/><text fill="#000" transform="translate(1455 123.1)">
                <tspan xml:space="preserve" x="0" y="15" font-family="Helvetica Neue" font-size="16">Name</tspan>
              </text><path fill="#999" d="M1450 89.46h300v28.45h-300z"/><path stroke="#000" stroke-linecap="round" stroke-linejoin="round" d="M1450 89.46h300v28.45h-300z"/><text fill="#000" transform="translate(1455 94.46)">
              <tspan xml:space="preserve" x="0" y="15" font-family="Helvetica Neue" font-size="16">OSPF Interfaces</tspan>
            </text><path fill="#fff" d="M1440 550h320v382.49h-320z"/><path stroke="#000" stroke-linecap="round" stroke-linejoin="round" d="M1440 550h320v382.49h-320z"/><text fill="#000" transform="translate(1455 555)">
            <tspan xml:space="preserve" x="0" y="16" font-family="Helvetica Neue" font-size="16" font-weight="bold">lab-sw-3</tspan>
          </text><path fill="#fff" d="M1550 894.04h100v28.45h-100z"/><path stroke="#000" stroke-linecap="round" stroke-linejoin="round" d="M1550 894.04h100v28.45h-100z"/><text fill="#000" transform="translate(1555 899.04)">
                <tspan xml:space="preserve" x="0" y="15" font-family="Helvetica Neue" font-size="16">10.3.0.0/16</tspan>
              </text><path fill="#fff" d="M1450 894.04h100v28.45h-100z"/><path stroke="#000" stroke-linecap="round" stroke-linejoin="round" d="M1450 894.04h100v28.45h-100z"/><text fill="#000" transform="translate(1455 899.04)">
                <tspan xml:space="preserve" x="0" y="15" font-family="Helvetica Neue" font-size="16">10.3.0.0</tspan>
              </text><path fill="#fff" d="M1450 865.6h100v28.45h-100z"/><path stroke="#000" stroke-linecap="round" stroke-linejoin="round" d="M1450 865.6h100v28.45h-100z"/><text fill="#000" transform="translate(1455 870.6)">
                <tspan xml:space="preserve" x="0" y="15" font-family="Helvetica Neue" font-size="16">0.0.0.0</tspan>
              </text><path fill="#fff" d="M1550 865.6h100v28.45h-100z"/><path stroke="#000" stroke-linecap="round" stroke-linejoin="round" d="M1550 865.6h100v28.45h-100z"/><text fill="#000" transform="translate(1555 870.6)">
                <tspan xml:space="preserve" x="0" y="15" font-family="Helvetica Neue" font-size="16">-</tspan>
              </text><path fill="#ccc" d="M1550 837.15h100v28.45h-100z"/><path stroke="#000" stroke-linecap="round" stroke-linejoin="round" d="M1550 837.15h100v28.45h-100z"/><text fill="#000" transform="translate(1555 842.15)">
                <tspan xml:space="preserve" x="0" y="15" font-family="Helvetica Neue" font-size="16">Area Range</tspan>
              </text><path fill="#ccc" d="M1450 837.15h100v28.45h-100z"/><path stroke="#000" stroke-linecap="round" stroke-linejoin="round" d="M1450 837.15h100v28.45h-100z"/><text fill="#000" transform="translate(1455 842.15)">
                <tspan xml:space="preserve" x="0" y="15" font-family="Helvetica Neue" font-size="16">Area</tspan>
              </text><path fill="#999" d="M1450 808.7h200v28.45h-200z"/><path stroke="#000" stroke-linecap="round" stroke-linejoin="round" d="M1450 808.7h200v28.45h-200z"/><text fill="#000" transform="translate(1455 813.7)">
              <tspan xml:space="preserve" x="0" y="15" font-family="Helvetica Neue" font-size="16">OSPF Areas</tspan>
            </text><path fill="#fff" d="M1450 760.28h100v28.38h-100z"/><path stroke="#000" stroke-linecap="round" stroke-linejoin="round" d="M1450 760.28h100v28.38h-100z"/><text fill="#000" transform="translate(1455 765.25)">
                <tspan xml:space="preserve" x="0" y="15" font-family="Helvetica Neue" font-size="16">irb.311</tspan>
              </text><path fill="#fff" d="M1550 760.28h100v28.38h-100z"/><path stroke="#000" stroke-linecap="round" stroke-linejoin="round" d="M1550 760.28h100v28.38h-100z"/><text fill="#000" transform="translate(1555 765.25)">
                <tspan xml:space="preserve" x="0" y="15" font-family="Helvetica Neue" font-size="16">10.3.0.0</tspan>
              </text><path fill="#fff" d="M1650 760.28h100v28.38h-100z"/><path stroke="#000" stroke-linecap="round" stroke-linejoin="round" d="M1650 760.28h100v28.38h-100z"/><text fill="#000" transform="translate(1655 765.25)">
                <tspan xml:space="preserve" x="0" y="15" font-family="Helvetica Neue" font-size="16">passive</tspan>
              </text><path fill="#fff" d="M1450 731.89h100v28.38h-100z"/><path stroke="#000" stroke-linecap="round" stroke-linejoin="round" d="M1450 731.89h100v28.38h-100z"/><text fill="#000" transform="translate(1455 736.86)">
                <tspan xml:space="preserve" x="0" y="15" font-family="Helvetica Neue" font-size="16">irb.310</tspan>
              </text><path fill="#fff" d="M1650 731.89h100v28.38h-100z"/><path stroke="#000" stroke-linecap="round" stroke-linejoin="round" d="M1650 731.89h100v28.38h-100z"/><text fill="#000" transform="translate(1655 736.86)">
                <tspan xml:space="preserve" x="0" y="15" font-family="Helvetica Neue" font-size="16">passive</tspan>
              </text><path fill="#fff" d="M1550 731.89h100v28.38h-100z"/><path stroke="#000" stroke-linecap="round" stroke-linejoin="round" d="M1550 731.89h100v28.38h-100z"/><text fill="#000" transform="translate(1555 736.86)">
                <tspan xml:space="preserve" x="0" y="15" font-family="Helvetica Neue" font-size="16">10.3.0.0</tspan>
              </text><path fill="#fff" d="M1450 703.51h100v28.38h-100z"/><path stroke="#000" stroke-linecap="round" stroke-linejoin="round" d="M1450 703.51h100v28.38h-100z"/><text fill="#000" transform="translate(1455 708.48)">
                <tspan xml:space="preserve" x="0" y="15" font-family="Helvetica Neue" font-size="16">mge-0/2/1.0</tspan>
              </text><path fill="#fff" d="M1550 703.51h100v28.38h-100z"/><path stroke="#000" stroke-linecap="round" stroke-linejoin="round" d="M1550 703.51h100v28.38h-100z"/><text fill="#000" transform="translate(1555 708.48)">
                <tspan xml:space="preserve" x="0" y="15" font-family="Helvetica Neue" font-size="16">0.0.0.0</tspan>
              </text><path fill="#fff" d="M1650 703.51h100v28.38h-100z"/><path stroke="#000" stroke-linecap="round" stroke-linejoin="round" d="M1650 703.51h100v28.38h-100z"/><text fill="#000" transform="translate(1655 708.48)">
                <tspan xml:space="preserve" x="0" y="15" font-family="Helvetica Neue" font-size="16">active</tspan>
              </text><path fill="#fff" d="M1650 675.13h100v28.38h-100z"/><path stroke="#000" stroke-linecap="round" stroke-linejoin="round" d="M1650 675.13h100v28.38h-100z"/><text fill="#000" transform="translate(1655 680.1)">
                <tspan xml:space="preserve" x="0" y="15" font-family="Helvetica Neue" font-size="16">active</tspan>
              </text><path fill="#ccc" d="M1650 617.91h100v28.83h-100z"/><path stroke="#000" stroke-linecap="round" stroke-linejoin="round" d="M1650 617.91h100v28.83h-100z"/><text fill="#000" transform="translate(1655 623.1)">
                <tspan xml:space="preserve" x="0" y="15" font-family="Helvetica Neue" font-size="16">Mode</tspan>
              </text><path fill="#fff" d="M1650 646.74h100v28.38h-100z"/><path stroke="#000" stroke-linecap="round" stroke-linejoin="round" d="M1650 646.74h100v28.38h-100z"/><text fill="#000" transform="translate(1655 651.71)">
                <tspan xml:space="preserve" x="0" y="15" font-family="Helvetica Neue" font-size="16">passive</tspan>
              </text><path fill="#fff" d="M1550 675.13h100v28.38h-100z"/><path stroke="#000" stroke-linecap="round" stroke-linejoin="round" d="M1550 675.13h100v28.38h-100z"/><text fill="#000" transform="translate(1555 680.1)">
                <tspan xml:space="preserve" x="0" y="15" font-family="Helvetica Neue" font-size="16">0.0.0.0</tspan>
              </text><path fill="#fff" d="M1450 675.13h100v28.38h-100z"/><path stroke="#000" stroke-linecap="round" stroke-linejoin="round" d="M1450 675.13h100v28.38h-100z"/><text fill="#000" transform="translate(1455 680.1)">
                <tspan xml:space="preserve" x="0" y="15" font-family="Helvetica Neue" font-size="16">mge-0/2/0.0</tspan>
              </text><path fill="#fff" d="M1550 646.74h100v28.38h-100z"/><path stroke="#000" stroke-linecap="round" stroke-linejoin="round" d="M1550 646.74h100v28.38h-100z"/><text fill="#000" transform="translate(1555 651.71)">
                <tspan xml:space="preserve" x="0" y="15" font-family="Helvetica Neue" font-size="16">10.3.0.0</tspan>
              </text><path fill="#fff" d="M1450 646.74h100v28.38h-100z"/><path stroke="#000" stroke-linecap="round" stroke-linejoin="round" d="M1450 646.74h100v28.38h-100z"/><text fill="#000" transform="translate(1455 651.71)">
                <tspan xml:space="preserve" x="0" y="15" font-family="Helvetica Neue" font-size="16">lo0.0</tspan>
              </text><path fill="#ccc" d="M1550 617.91h100v28.83h-100z"/><path stroke="#000" stroke-linecap="round" stroke-linejoin="round" d="M1550 617.91h100v28.83h-100z"/><text fill="#000" transform="translate(1555 623.1)">
                <tspan xml:space="preserve" x="0" y="15" font-family="Helvetica Neue" font-size="16">Area</tspan>
              </text><path fill="#ccc" d="M1450 617.91h100v28.83h-100z"/><path stroke="#000" stroke-linecap="round" stroke-linejoin="round" d="M1450 617.91h100v28.83h-100z"/><text fill="#000" transform="translate(1455 623.1)">
                <tspan xml:space="preserve" x="0" y="15" font-family="Helvetica Neue" font-size="16">Name</tspan>
              </text><path fill="#999" d="M1450 589.46h300v28.45h-300z"/><path stroke="#000" stroke-linecap="round" stroke-linejoin="round" d="M1450 589.46h300v28.45h-300z"/><text fill="#000" transform="translate(1455 594.46)">
              <tspan xml:space="preserve" x="0" y="15" font-family="Helvetica Neue" font-size="16">OSPF Interfaces</tspan>
            </text><path fill="#fff" d="M110 550h320v382.49H110z"/><path stroke="#000" stroke-linecap="round" stroke-linejoin="round" d="M110 550h320v382.49H110z"/><text fill="#000" transform="translate(125 555)">
            <tspan xml:space="preserve" x="0" y="16" font-family="Helvetica Neue" font-size="16" font-weight="bold">lab-sw-4</tspan>
          </text><path fill="#fff" d="M220 894.04h100v28.45H220z"/><path stroke="#000" stroke-linecap="round" stroke-linejoin="round" d="M220 894.04h100v28.45H220z"/><text fill="#000" transform="translate(225 899.04)">
                <tspan xml:space="preserve" x="0" y="15" font-family="Helvetica Neue" font-size="16">10.4.0.0/16</tspan>
              </text><path fill="#fff" d="M120 894.04h100v28.45H120z"/><path stroke="#000" stroke-linecap="round" stroke-linejoin="round" d="M120 894.04h100v28.45H120z"/><text fill="#000" transform="translate(125 899.04)">
                <tspan xml:space="preserve" x="0" y="15" font-family="Helvetica Neue" font-size="16">10.4.0.0</tspan>
              </text><path fill="#fff" d="M120 865.6h100v28.45H120z"/><path stroke="#000" stroke-linecap="round" stroke-linejoin="round" d="M120 865.6h100v28.45H120z"/><text fill="#000" transform="translate(125 870.6)">
                <tspan xml:space="preserve" x="0" y="15" font-family="Helvetica Neue" font-size="16">0.0.0.0</tspan>
              </text><path fill="#fff" d="M220 865.6h100v28.45H220z"/><path stroke="#000" stroke-linecap="round" stroke-linejoin="round" d="M220 865.6h100v28.45H220z"/><text fill="#000" transform="translate(225 870.6)">
                <tspan xml:space="preserve" x="0" y="15" font-family="Helvetica Neue" font-size="16">-</tspan>
              </text><path fill="#ccc" d="M220 837.15h100v28.45H220z"/><path stroke="#000" stroke-linecap="round" stroke-linejoin="round" d="M220 837.15h100v28.45H220z"/><text fill="#000" transform="translate(225 842.15)">
                <tspan xml:space="preserve" x="0" y="15" font-family="Helvetica Neue" font-size="16">Area Range</tspan>
              </text><path fill="#ccc" d="M120 837.15h100v28.45H120z"/><path stroke="#000" stroke-linecap="round" stroke-linejoin="round" d="M120 837.15h100v28.45H120z"/><text fill="#000" transform="translate(125 842.15)">
                <tspan xml:space="preserve" x="0" y="15" font-family="Helvetica Neue" font-size="16">Area</tspan>
              </text><path fill="#999" d="M120 808.7h200v28.45H120z"/><path stroke="#000" stroke-linecap="round" stroke-linejoin="round" d="M120 808.7h200v28.45H120z"/><text fill="#000" transform="translate(125 813.7)">
              <tspan xml:space="preserve" x="0" y="15" font-family="Helvetica Neue" font-size="16">OSPF Areas</tspan>
            </text><path fill="#fff" d="M120 760.28h100v28.38H120z"/><path stroke="#000" stroke-linecap="round" stroke-linejoin="round" d="M120 760.28h100v28.38H120z"/><text fill="#000" transform="translate(125 765.25)">
                <tspan xml:space="preserve" x="0" y="15" font-family="Helvetica Neue" font-size="16">irb.411</tspan>
              </text><path fill="#fff" d="M220 760.28h100v28.38H220z"/><path stroke="#000" stroke-linecap="round" stroke-linejoin="round" d="M220 760.28h100v28.38H220z"/><text fill="#000" transform="translate(225 765.25)">
                <tspan xml:space="preserve" x="0" y="15" font-family="Helvetica Neue" font-size="16">10.4.0.0</tspan>
              </text><path fill="#fff" d="M320 760.28h100v28.38H320z"/><path stroke="#000" stroke-linecap="round" stroke-linejoin="round" d="M320 760.28h100v28.38H320z"/><text fill="#000" transform="translate(325 765.25)">
                <tspan xml:space="preserve" x="0" y="15" font-family="Helvetica Neue" font-size="16">passive</tspan>
              </text><path fill="#fff" d="M120 731.89h100v28.38H120z"/><path stroke="#000" stroke-linecap="round" stroke-linejoin="round" d="M120 731.89h100v28.38H120z"/><text fill="#000" transform="translate(125 736.86)">
                <tspan xml:space="preserve" x="0" y="15" font-family="Helvetica Neue" font-size="16">irb.410</tspan>
              </text><path fill="#fff" d="M320 731.89h100v28.38H320z"/><path stroke="#000" stroke-linecap="round" stroke-linejoin="round" d="M320 731.89h100v28.38H320z"/><text fill="#000" transform="translate(325 736.86)">
                <tspan xml:space="preserve" x="0" y="15" font-family="Helvetica Neue" font-size="16">passive</tspan>
              </text><path fill="#fff" d="M220 731.89h100v28.38H220z"/><path stroke="#000" stroke-linecap="round" stroke-linejoin="round" d="M220 731.89h100v28.38H220z"/><text fill="#000" transform="translate(225 736.86)">
                <tspan xml:space="preserve" x="0" y="15" font-family="Helvetica Neue" font-size="16">10.4.0.0</tspan>
              </text><path fill="#fff" d="M120 703.51h100v28.38H120z"/><path stroke="#000" stroke-linecap="round" stroke-linejoin="round" d="M120 703.51h100v28.38H120z"/><text fill="#000" transform="translate(125 708.48)">
                <tspan xml:space="preserve" x="0" y="15" font-family="Helvetica Neue" font-size="16">mge-0/2/1.0</tspan>
              </text><path fill="#fff" d="M220 703.51h100v28.38H220z"/><path stroke="#000" stroke-linecap="round" stroke-linejoin="round" d="M220 703.51h100v28.38H220z"/><text fill="#000" transform="translate(225 708.48)">
                <tspan xml:space="preserve" x="0" y="15" font-family="Helvetica Neue" font-size="16">0.0.0.0</tspan>
              </text><path fill="#fff" d="M320 703.51h100v28.38H320z"/><path stroke="#000" stroke-linecap="round" stroke-linejoin="round" d="M320 703.51h100v28.38H320z"/><text fill="#000" transform="translate(325 708.48)">
                <tspan xml:space="preserve" x="0" y="15" font-family="Helvetica Neue" font-size="16">active</tspan>
              </text><path fill="#fff" d="M320 675.13h100v28.38H320z"/><path stroke="#000" stroke-linecap="round" stroke-linejoin="round" d="M320 675.13h100v28.38H320z"/><text fill="#000" transform="translate(325 680.1)">
                <tspan xml:space="preserve" x="0" y="15" font-family="Helvetica Neue" font-size="16">active</tspan>
              </text><path fill="#ccc" d="M320 617.91h100v28.83H320z"/><path stroke="#000" stroke-linecap="round" stroke-linejoin="round" d="M320 617.91h100v28.83H320z"/><text fill="#000" transform="translate(325 623.1)">
                <tspan xml:space="preserve" x="0" y="15" font-family="Helvetica Neue" font-size="16">Mode</tspan>
              </text><path fill="#fff" d="M320 646.74h100v28.38H320z"/><path stroke="#000" stroke-linecap="round" stroke-linejoin="round" d="M320 646.74h100v28.38H320z"/><text fill="#000" transform="translate(325 651.71)">
                <tspan xml:space="preserve" x="0" y="15" font-family="Helvetica Neue" font-size="16">passive</tspan>
              </text><path fill="#fff" d="M220 675.13h100v28.38H220z"/><path stroke="#000" stroke-linecap="round" stroke-linejoin="round" d="M220 675.13h100v28.38H220z"/><text fill="#000" transform="translate(225 680.1)">
                <tspan xml:space="preserve" x="0" y="15" font-family="Helvetica Neue" font-size="16">0.0.0.0</tspan>
              </text><path fill="#fff" d="M120 675.13h100v28.38H120z"/><path stroke="#000" stroke-linecap="round" stroke-linejoin="round" d="M120 675.13h100v28.38H120z"/><text fill="#000" transform="translate(125 680.1)">
                <tspan xml:space="preserve" x="0" y="15" font-family="Helvetica Neue" font-size="16">mge-0/2/0.0</tspan>
              </text><path fill="#fff" d="M220 646.74h100v28.38H220z"/><path stroke="#000" stroke-linecap="round" stroke-linejoin="round" d="M220 646.74h100v28.38H220z"/><text fill="#000" transform="translate(225 651.71)">
                <tspan xml:space="preserve" x="0" y="15" font-family="Helvetica Neue" font-size="16">10.4.0.0</tspan>
              </text><path fill="#fff" d="M120 646.74h100v28.38H120z"/><path stroke="#000" stroke-linecap="round" stroke-linejoin="round" d="M120 646.74h100v28.38H120z"/><text fill="#000" transform="translate(125 651.71)">
                <tspan xml:space="preserve" x="0" y="15" font-family="Helvetica Neue" font-size="16">lo0.0</tspan>
              </text><path fill="#ccc" d="M220 617.91h100v28.83H220z"/><path stroke="#000" stroke-linecap="round" stroke-linejoin="round" d="M220 617.91h100v28.83H220z"/><text fill="#000" transform="translate(225 623.1)">
                <tspan xml:space="preserve" x="0" y="15" font-family="Helvetica Neue" font-size="16">Area</tspan>
              </text><path fill="#ccc" d="M120 617.91h100v28.83H120z"/><path stroke="#000" stroke-linecap="round" stroke-linejoin="round" d="M120 617.91h100v28.83H120z"/><text fill="#000" transform="translate(125 623.1)">
                <tspan xml:space="preserve" x="0" y="15" font-family="Helvetica Neue" font-size="16">Name</tspan>
              </text><path fill="#999" d="M120 589.46h300v28.45H120z"/><path stroke="#000" stroke-linecap="round" stroke-linejoin="round" d="M120 589.46h300v28.45H120z"/><text fill="#000" transform="translate(125 594.46)">
              <tspan xml:space="preserve" x="0" y="15" font-family="Helvetica Neue" font-size="16">OSPF Interfaces</tspan>
            </text></g></svg>