<?xml version="1.0" encoding="UTF-8" standalone="no"?>
<!DOCTYPE svg PUBLIC "-//W3C//DTD SVG 1.1//EN" "http://www.w3.org/Graphics/SVG/1.1/DTD/svg11.dtd">
<svg version="1.1" xmlns="http://www.w3.org/2000/svg" xmlns:dc="http://purl.org/dc/elements/1.1/" xmlns:xl="http://www.w3.org/1999/xlink" viewBox="0 0 1870 1047.3512" width="1870" height="1047.3512">
  <defs>
    <linearGradient x1="0" x2="1" id="Gradient" gradientUnits="userSpaceOnUse">
      <stop offset="0" stop-color="#fffd78"/>
      <stop offset=".45238096" stop-color="#ffe979"/>
      <stop offset="1" stop-color="#ffd579"/>
    </linearGradient>
    <linearGradient id="Obj_Gradient" xl:href="#Gradient" gradientTransform="translate(935 595) rotate(90) scale(30)"/>
    <linearGradient id="Obj_Gradient_2" xl:href="#Gradient" gradientTransform="translate(1270 360) scale(30)"/>
    <linearGradient id="Obj_Gradient_3" xl:href="#Gradient" gradientTransform="translate(935 125) rotate(-90) scale(30)"/>
    <clipPath id="inner_stroke_clip_path">
      <path d="M 1069.2287 340.52725 L 1068.9068 340.52725 C 1065.8847 312.65164 1041.8566 290.6719 1011.9645 288.68177 C 1011.1333 288.61626 1010.2949 288.5982 1009.4565 288.56882 C 1008.8198 288.55074 1008.1976 288.48298 1007.5634 288.48298 C 1007.477 288.48298 1007.3857 288.492 1007.3016 288.492 C 1007.2031 288.492 1007.1142 288.48298 1007.0061 288.48298 C 1000.4838 288.48298 994.2017 289.4679 988.304 291.23214 C 970.558 267.49268 941.2328 251.96456 908.0303 251.96457 C 907.9534 251.96456 907.8814 251.96908 907.8021 251.9736 C 907.6964 251.96908 907.5883 251.96456 907.4826 251.96457 C 906.1925 251.96456 904.9385 252.09333 903.6605 252.14528 C 902.1518 252.20176 900.6383 252.22435 899.1417 252.3486 C 896.5688 252.5564 894.044 252.893 891.5263 253.27702 C 891.3462 253.3064 891.1708 253.32446 890.9954 253.35383 C 845.9494 260.54184 811.3295 296.5362 809.5062 340.52725 L 800.7761 340.52725 C 772.1452 340.52724 748.9291 362.3579 748.9291 389.27795 C 748.9291 416.2048 772.1452 438.03543 800.7761 438.03543 L 813.297 438.03543 L 1069.2287 438.03543 C 1097.8572 438.03543 1121.0709 416.2048 1121.0709 389.27795 C 1121.0709 362.3579 1097.8572 340.52724 1069.2287 340.52725 L 1069.2287 340.52725 Z"/>
    </clipPath>
  </defs>
  <metadata> Produced by OmniGraffle 7.24.4\n2025-04-24 01:13:41 +0000</metadata>
  <g id="Canvas_2" fill="none" stroke-opacity="1" stroke="none" fill-opacity="1" stroke-dasharray="none">
    <title>Canvas 2</title>
    <g id="Canvas_2_background">
      <title>background</title>
      <g id="Graphic_11406">
        <rect x="0" y="0" width="1870" height="1047.3512" fill="#8f9abf"/>
      </g>
      <g id="Graphic_11537">
        <path d="M 844.43 600.0829 L 855.7299 613.88434 L 710.5 610 L 902.8691 625 L 893.7759 611.87516 L 1044.1622 621.6265 L 1035.369 605.4688 L 1159.5 610 L 986.7306 594.9995 L 994.8167 610.3748 L 844.4313 600.0829 Z" fill="url(#Obj_Gradient)"/>
        <path d="M 844.43 600.0829 L 855.7299 613.88434 L 710.5 610 L 902.8691 625 L 893.7759 611.87516 L 1044.1622 621.6265 L 1035.369 605.4688 L 1159.5 610 L 986.7306 594.9995 L 994.8167 610.3748 L 844.4313 600.0829 Z" stroke="red" stroke-linecap="round" stroke-linejoin="round" stroke-width="2"/>
      </g>
      <g id="Graphic_11536">
        <path d="M 1275.083 448.5529 L 1288.8843 437.50457 L 1285 579.5 L 1300 391.4153 L 1286.8752 400.30595 L 1296.6265 253.269 L 1280.4688 261.86638 L 1285 140.5 L 1269.9995 309.4215 L 1285.3748 301.51554 L 1275.083 448.55157 Z" fill="url(#Obj_Gradient_2)"/>
        <path d="M 1275.083 448.5529 L 1288.8843 437.50457 L 1285 579.5 L 1300 391.4153 L 1286.8752 400.30595 L 1296.6265 253.269 L 1280.4688 261.86638 L 1285 140.5 L 1269.9995 309.4215 L 1285.3748 301.51554 L 1275.083 448.55157 Z" stroke="red" stroke-linecap="round" stroke-linejoin="round" stroke-width="2"/>
      </g>
      <g id="Graphic_11535">
        <path d="M 1025.57 119.91707 L 1014.27 106.11566 L 1159.5 110 L 967.1309 95 L 976.2241 108.12484 L 825.8378 98.3735 L 834.631 114.53117 L 710.5 110 L 883.2694 125.00048 L 875.1833 109.62521 L 1025.5687 119.91707 Z" fill="url(#Obj_Gradient_3)"/>
        <path d="M 1025.57 119.91707 L 1014.27 106.11566 L 1159.5 110 L 967.1309 95 L 976.2241 108.12484 L 825.8378 98.3735 L 834.631 114.53117 L 710.5 110 L 883.2694 125.00048 L 875.1833 109.62521 L 1025.5687 119.91707 Z" stroke="red" stroke-linecap="round" stroke-linejoin="round" stroke-width="2"/>
      </g>
      <g id="Line_11534">
        <line x1="624.62264" y1="580" x2="812.123" y2="438.03543" stroke="black" stroke-linecap="square" stroke-linejoin="miter" stroke-width="5"/>
      </g>
      <g id="Line_11533">
        <line x1="1245.3774" y1="580" x2="1057.877" y2="438.03543" stroke="black" stroke-linecap="square" stroke-linejoin="miter" stroke-width="5"/>
      </g>
      <g id="Line_11532">
        <line x1="1240.3191" y1="140" x2="1017.8881" y2="289.34656" stroke="black" stroke-linecap="square" stroke-linejoin="miter" stroke-width="5"/>
      </g>
      <g id="Line_11531">
        <line x1="629.68085" y1="140" x2="837.574" y2="279.5854" stroke="black" stroke-linecap="square" stroke-linejoin="miter" stroke-width="5"/>
      </g>
      <g id="Group_11528">
        <title>Cloud</title>
        <g id="Graphic_11530">
          <path d="M 1069.2239 340.52725 L 1068.9044 340.52725 C 1065.8847 312.65164 1041.8566 290.6719 1011.9621 288.68177 C 1011.1309 288.61626 1010.2925 288.5982 1009.454 288.56882 C 1008.8175 288.55074 1008.1952 288.48298 1007.561 288.48298 C 1007.477 288.48298 1007.3833 288.492 1007.2992 288.492 C 1007.2007 288.492 1007.1118 288.48298 1007.0037 288.48298 C 1000.4814 288.48298 994.1993 289.4679 988.3016 291.23214 C 970.5556 267.49268 941.2304 251.96456 908.0303 251.96457 C 907.9534 251.96456 907.8814 251.96908 907.8021 251.9736 C 907.6964 251.96908 907.5883 251.96456 907.4826 251.96457 C 906.1925 251.96456 904.9385 252.09333 903.6605 252.14528 C 902.1518 252.20176 900.6383 252.22435 899.1417 252.3486 C 896.5688 252.5564 894.044 252.893 891.5263 253.27702 C 891.3462 253.3064 891.1708 253.32446 890.9954 253.35383 C 845.9494 260.54184 811.3295 296.5362 809.5062 340.52725 L 800.7761 340.52725 C 772.1452 340.52724 748.9291 362.3579 748.9291 389.27795 C 748.9291 416.2048 772.1452 438.03543 800.7761 438.03543 L 813.297 438.03543 L 1069.2287 438.03543 C 1097.8572 438.03543 1121.0709 416.2048 1121.0709 389.27795 C 1121.066 362.3579 1097.8524 340.52724 1069.2239 340.52725 Z" fill="#bcbec0"/>
        </g>
        <g id="Graphic_11529">
          <path d="M 1069.2287 340.52725 L 1068.9068 340.52725 C 1065.8847 312.65164 1041.8566 290.6719 1011.9645 288.68177 C 1011.1333 288.61626 1010.2949 288.5982 1009.4565 288.56882 C 1008.8198 288.55074 1008.1976 288.48298 1007.5634 288.48298 C 1007.477 288.48298 1007.3857 288.492 1007.3016 288.492 C 1007.2031 288.492 1007.1142 288.48298 1007.0061 288.48298 C 1000.4838 288.48298 994.2017 289.4679 988.304 291.23214 C 970.558 267.49268 941.2328 251.96456 908.0303 251.96457 C 907.9534 251.96456 907.8814 251.96908 907.8021 251.9736 C 907.6964 251.96908 907.5883 251.96456 907.4826 251.96457 C 906.1925 251.96456 904.9385 252.09333 903.6605 252.14528 C 902.1518 252.20176 900.6383 252.22435 899.1417 252.3486 C 896.5688 252.5564 894.044 252.893 891.5263 253.27702 C 891.3462 253.3064 891.1708 253.32446 890.9954 253.35383 C 845.9494 260.54184 811.3295 296.5362 809.5062 340.52725 L 800.7761 340.52725 C 772.1452 340.52724 748.9291 362.3579 748.9291 389.27795 C 748.9291 416.2048 772.1452 438.03543 800.7761 438.03543 L 813.297 438.03543 L 1069.2287 438.03543 C 1097.8572 438.03543 1121.0709 416.2048 1121.0709 389.27795 C 1121.0709 362.3579 1097.8572 340.52724 1069.2287 340.52725 L 1069.2287 340.52725 Z" stroke="#636567" stroke-linecap="butt" stroke-linejoin="miter" stroke-width="2.25" clip-path="url(#inner_stroke_clip_path)"/>
          <text transform="translate(753.9291 335.776)" fill="black">
            <tspan font-family="Helvetica Neue" font-size="16" fill="black" x="146.84688" y="15" xml:space="preserve">“Internet”</tspan>
          </text>
        </g>
      </g>
      <g id="Group_11498">
        <g id="Graphic_11527">
          <rect x="460" y="80" width="250" height="60" fill="#998a8a"/>
          <rect x="460" y="80" width="250" height="60" stroke="black" stroke-linecap="square" stroke-linejoin="miter" stroke-width="1"/>
        </g>
        <g id="Group_11508">
          <g id="Group_11524">
            <title>ethernet jack</title>
            <g id="Graphic_11526">
              <title>background</title>
              <path d="M 485.5 112.5 L 470.5 112.5 C 469.39543 112.5 468.5 113.39543 468.5 114.5 L 468.5 129.5 C 468.5 130.60457 469.39543 131.5 470.5 131.5 L 485.5 131.5 C 486.60457 131.5 487.5 130.60457 487.5 129.5 L 487.5 114.5 C 487.5 113.39543 486.60457 112.5 485.5 112.5 Z" fill="black"/>
            </g>
            <g id="Graphic_11525">
              <title>ethernet</title>
              <path d="M 485.5 113.5 L 470.5 113.5 C 469.9477 113.5 469.5 113.94772 469.5 114.5 L 469.5 129.5 C 469.5 130.05228 469.9477 130.5 470.5 130.5 L 485.5 130.5 C 486.0523 130.5 486.5 130.05228 486.5 129.5 L 486.5 114.5 C 486.5 113.94772 486.0523 113.5 485.5 113.5 Z M 473.25 117 L 472.25 117 L 472.25 120 L 473.25 120 Z M 474.75 117 L 473.75 117 L 473.75 120 L 474.75 120 Z M 476.25 117 L 475.25 117 L 475.25 120 L 476.25 120 Z M 477.75 117 L 476.75 117 L 476.75 120 L 477.75 120 Z M 479.25 117 L 478.25 117 L 478.25 120 L 479.25 120 Z M 480.75 117 L 479.75 117 L 479.75 120 L 480.75 120 Z M 482.25 117 L 481.25 117 L 481.25 120 L 482.25 120 Z M 483.75 117 L 482.75 117 L 482.75 120 L 483.75 120 Z M 475 116 L 476.625 116 M 479.375 116 L 481 116 L 484.25 116 C 484.52614 116 484.75 116.22386 484.75 116.5 L 484.75 124.5 C 484.75 124.77614 484.52614 125 484.25 125 L 481.5 125 L 481.5 126.25 C 481.5 126.52614 481.27614 126.75 481 126.75 L 479.875 126.75 L 479.875 127.5 C 479.875 127.77614 479.65114 128 479.375 128 L 476.625 128 C 476.34886 128 476.125 127.77614 476.125 127.5 L 476.125 126.75 L 475 126.75 C 474.72386 126.75 474.5 126.52614 474.5 126.25 L 474.5 125 L 471.75 125 C 471.47386 125 471.25 124.77614 471.25 124.5 L 471.25 116.5 C 471.25 116.22386 471.47386 116 471.75 116 L 475 116 L 475 116 M 476.625 116 L 479.375 116" fill="white"/>
            </g>
          </g>
          <g id="Group_11521">
            <title>ethernet jack</title>
            <g id="Graphic_11523">
              <title>background</title>
              <path d="M 509.5 112.5 L 494.5 112.5 C 493.39543 112.5 492.5 113.39543 492.5 114.5 L 492.5 129.5 C 492.5 130.60457 493.39543 131.5 494.5 131.5 L 509.5 131.5 C 510.60457 131.5 511.5 130.60457 511.5 129.5 L 511.5 114.5 C 511.5 113.39543 510.60457 112.5 509.5 112.5 Z" fill="black"/>
            </g>
            <g id="Graphic_11522">
              <title>ethernet</title>
              <path d="M 509.5 113.5 L 494.5 113.5 C 493.9477 113.5 493.5 113.94772 493.5 114.5 L 493.5 129.5 C 493.5 130.05228 493.9477 130.5 494.5 130.5 L 509.5 130.5 C 510.0523 130.5 510.5 130.05228 510.5 129.5 L 510.5 114.5 C 510.5 113.94772 510.0523 113.5 509.5 113.5 Z M 497.25 117 L 496.25 117 L 496.25 120 L 497.25 120 Z M 498.75 117 L 497.75 117 L 497.75 120 L 498.75 120 Z M 500.25 117 L 499.25 117 L 499.25 120 L 500.25 120 Z M 501.75 117 L 500.75 117 L 500.75 120 L 501.75 120 Z M 503.25 117 L 502.25 117 L 502.25 120 L 503.25 120 Z M 504.75 117 L 503.75 117 L 503.75 120 L 504.75 120 Z M 506.25 117 L 505.25 117 L 505.25 120 L 506.25 120 Z M 507.75 117 L 506.75 117 L 506.75 120 L 507.75 120 Z M 499 116 L 500.625 116 M 503.375 116 L 505 116 L 508.25 116 C 508.52614 116 508.75 116.22386 508.75 116.5 L 508.75 124.5 C 508.75 124.77614 508.52614 125 508.25 125 L 505.5 125 L 505.5 126.25 C 505.5 126.52614 505.27614 126.75 505 126.75 L 503.875 126.75 L 503.875 127.5 C 503.875 127.77614 503.65114 128 503.375 128 L 500.625 128 C 500.34886 128 500.125 127.77614 500.125 127.5 L 500.125 126.75 L 499 126.75 C 498.72386 126.75 498.5 126.52614 498.5 126.25 L 498.5 125 L 495.75 125 C 495.47386 125 495.25 124.77614 495.25 124.5 L 495.25 116.5 C 495.25 116.22386 495.47386 116 495.75 116 L 499 116 L 499 116 M 500.625 116 L 503.375 116" fill="white"/>
            </g>
          </g>
          <g id="Group_11518">
            <title>ethernet jack</title>
            <g id="Graphic_11520">
              <title>background</title>
              <path d="M 533.5 112.5 L 518.5 112.5 C 517.3954 112.5 516.5 113.39543 516.5 114.5 L 516.5 129.5 C 516.5 130.60457 517.3954 131.5 518.5 131.5 L 533.5 131.5 C 534.6046 131.5 535.5 130.60457 535.5 129.5 L 535.5 114.5 C 535.5 113.39543 534.6046 112.5 533.5 112.5 Z" fill="black"/>
            </g>
            <g id="Graphic_11519">
              <title>ethernet</title>
              <path d="M 533.5 113.5 L 518.5 113.5 C 517.9477 113.5 517.5 113.94772 517.5 114.5 L 517.5 129.5 C 517.5 130.05228 517.9477 130.5 518.5 130.5 L 533.5 130.5 C 534.0523 130.5 534.5 130.05228 534.5 129.5 L 534.5 114.5 C 534.5 113.94772 534.0523 113.5 533.5 113.5 Z M 521.25 117 L 520.25 117 L 520.25 120 L 521.25 120 Z M 522.75 117 L 521.75 117 L 521.75 120 L 522.75 120 Z M 524.25 117 L 523.25 117 L 523.25 120 L 524.25 120 Z M 525.75 117 L 524.75 117 L 524.75 120 L 525.75 120 Z M 527.25 117 L 526.25 117 L 526.25 120 L 527.25 120 Z M 528.75 117 L 527.75 117 L 527.75 120 L 528.75 120 Z M 530.25 117 L 529.25 117 L 529.25 120 L 530.25 120 Z M 531.75 117 L 530.75 117 L 530.75 120 L 531.75 120 Z M 523 116 L 524.625 116 M 527.375 116 L 529 116 L 532.25 116 C 532.52614 116 532.75 116.22386 532.75 116.5 L 532.75 124.5 C 532.75 124.77614 532.52614 125 532.25 125 L 529.5 125 L 529.5 126.25 C 529.5 126.52614 529.27614 126.75 529 126.75 L 527.875 126.75 L 527.875 127.5 C 527.875 127.77614 527.65114 128 527.375 128 L 524.625 128 C 524.34886 128 524.125 127.77614 524.125 127.5 L 524.125 126.75 L 523 126.75 C 522.72386 126.75 522.5 126.52614 522.5 126.25 L 522.5 125 L 519.75 125 C 519.47386 125 519.25 124.77614 519.25 124.5 L 519.25 116.5 C 519.25 116.22386 519.47386 116 519.75 116 L 523 116 L 523 116 M 524.625 116 L 527.375 116" fill="white"/>
            </g>
          </g>
          <g id="Group_11515">
            <title>ethernet jack</title>
            <g id="Graphic_11517">
              <title>background</title>
              <path d="M 557.5 112.5 L 542.5 112.5 C 541.3954 112.5 540.5 113.39543 540.5 114.5 L 540.5 129.5 C 540.5 130.60457 541.3954 131.5 542.5 131.5 L 557.5 131.5 C 558.6046 131.5 559.5 130.60457 559.5 129.5 L 559.5 114.5 C 559.5 113.39543 558.6046 112.5 557.5 112.5 Z" fill="black"/>
            </g>
            <g id="Graphic_11516">
              <title>ethernet</title>
              <path d="M 557.5 113.5 L 542.5 113.5 C 541.9477 113.5 541.5 113.94772 541.5 114.5 L 541.5 129.5 C 541.5 130.05228 541.9477 130.5 542.5 130.5 L 557.5 130.5 C 558.0523 130.5 558.5 130.05228 558.5 129.5 L 558.5 114.5 C 558.5 113.94772 558.0523 113.5 557.5 113.5 Z M 545.25 117 L 544.25 117 L 544.25 120 L 545.25 120 Z M 546.75 117 L 545.75 117 L 545.75 120 L 546.75 120 Z M 548.25 117 L 547.25 117 L 547.25 120 L 548.25 120 Z M 549.75 117 L 548.75 117 L 548.75 120 L 549.75 120 Z M 551.25 117 L 550.25 117 L 550.25 120 L 551.25 120 Z M 552.75 117 L 551.75 117 L 551.75 120 L 552.75 120 Z M 554.25 117 L 553.25 117 L 553.25 120 L 554.25 120 Z M 555.75 117 L 554.75 117 L 554.75 120 L 555.75 120 Z M 547 116 L 548.625 116 M 551.375 116 L 553 116 L 556.25 116 C 556.52614 116 556.75 116.22386 556.75 116.5 L 556.75 124.5 C 556.75 124.77614 556.52614 125 556.25 125 L 553.5 125 L 553.5 126.25 C 553.5 126.52614 553.27614 126.75 553 126.75 L 551.875 126.75 L 551.875 127.5 C 551.875 127.77614 551.65114 128 551.375 128 L 548.625 128 C 548.34886 128 548.125 127.77614 548.125 127.5 L 548.125 126.75 L 547 126.75 C 546.72386 126.75 546.5 126.52614 546.5 126.25 L 546.5 125 L 543.75 125 C 543.47386 125 543.25 124.77614 543.25 124.5 L 543.25 116.5 C 543.25 116.22386 543.47386 116 543.75 116 L 547 116 L 547 116 M 548.625 116 L 551.375 116" fill="white"/>
            </g>
          </g>
          <g id="Group_11512">
            <title>ethernet jack</title>
            <g id="Graphic_11514">
              <title>background</title>
              <path d="M 581.5 112.5 L 566.5 112.5 C 565.3954 112.5 564.5 113.39543 564.5 114.5 L 564.5 129.5 C 564.5 130.60457 565.3954 131.5 566.5 131.5 L 581.5 131.5 C 582.6046 131.5 583.5 130.60457 583.5 129.5 L 583.5 114.5 C 583.5 113.39543 582.6046 112.5 581.5 112.5 Z" fill="black"/>
            </g>
            <g id="Graphic_11513">
              <title>ethernet</title>
              <path d="M 581.5 113.5 L 566.5 113.5 C 565.9477 113.5 565.5 113.94772 565.5 114.5 L 565.5 129.5 C 565.5 130.05228 565.9477 130.5 566.5 130.5 L 581.5 130.5 C 582.0523 130.5 582.5 130.05228 582.5 129.5 L 582.5 114.5 C 582.5 113.94772 582.0523 113.5 581.5 113.5 Z M 569.25 117 L 568.25 117 L 568.25 120 L 569.25 120 Z M 570.75 117 L 569.75 117 L 569.75 120 L 570.75 120 Z M 572.25 117 L 571.25 117 L 571.25 120 L 572.25 120 Z M 573.75 117 L 572.75 117 L 572.75 120 L 573.75 120 Z M 575.25 117 L 574.25 117 L 574.25 120 L 575.25 120 Z M 576.75 117 L 575.75 117 L 575.75 120 L 576.75 120 Z M 578.25 117 L 577.25 117 L 577.25 120 L 578.25 120 Z M 579.75 117 L 578.75 117 L 578.75 120 L 579.75 120 Z M 571 116 L 572.625 116 M 575.375 116 L 577 116 L 580.25 116 C 580.52614 116 580.75 116.22386 580.75 116.5 L 580.75 124.5 C 580.75 124.77614 580.52614 125 580.25 125 L 577.5 125 L 577.5 126.25 C 577.5 126.52614 577.27614 126.75 577 126.75 L 575.875 126.75 L 575.875 127.5 C 575.875 127.77614 575.65114 128 575.375 128 L 572.625 128 C 572.34886 128 572.125 127.77614 572.125 127.5 L 572.125 126.75 L 571 126.75 C 570.72386 126.75 570.5 126.52614 570.5 126.25 L 570.5 125 L 567.75 125 C 567.47386 125 567.25 124.77614 567.25 124.5 L 567.25 116.5 C 567.25 116.22386 567.47386 116 567.75 116 L 571 116 L 571 116 M 572.625 116 L 575.375 116" fill="white"/>
            </g>
          </g>
          <g id="Group_11509">
            <title>ethernet jack</title>
            <g id="Graphic_11511">
              <title>background</title>
              <path d="M 605.5 112.5 L 590.5 112.5 C 589.3954 112.5 588.5 113.39543 588.5 114.5 L 588.5 129.5 C 588.5 130.60457 589.3954 131.5 590.5 131.5 L 605.5 131.5 C 606.6046 131.5 607.5 130.60457 607.5 129.5 L 607.5 114.5 C 607.5 113.39543 606.6046 112.5 605.5 112.5 Z" fill="black"/>
            </g>
            <g id="Graphic_11510">
              <title>ethernet</title>
              <path d="M 605.5 113.5 L 590.5 113.5 C 589.9477 113.5 589.5 113.94772 589.5 114.5 L 589.5 129.5 C 589.5 130.05228 589.9477 130.5 590.5 130.5 L 605.5 130.5 C 606.0523 130.5 606.5 130.05228 606.5 129.5 L 606.5 114.5 C 606.5 113.94772 606.0523 113.5 605.5 113.5 Z M 593.25 117 L 592.25 117 L 592.25 120 L 593.25 120 Z M 594.75 117 L 593.75 117 L 593.75 120 L 594.75 120 Z M 596.25 117 L 595.25 117 L 595.25 120 L 596.25 120 Z M 597.75 117 L 596.75 117 L 596.75 120 L 597.75 120 Z M 599.25 117 L 598.25 117 L 598.25 120 L 599.25 120 Z M 600.75 117 L 599.75 117 L 599.75 120 L 600.75 120 Z M 602.25 117 L 601.25 117 L 601.25 120 L 602.25 120 Z M 603.75 117 L 602.75 117 L 602.75 120 L 603.75 120 Z M 595 116 L 596.625 116 M 599.375 116 L 601 116 L 604.25 116 C 604.52614 116 604.75 116.22386 604.75 116.5 L 604.75 124.5 C 604.75 124.77614 604.52614 125 604.25 125 L 601.5 125 L 601.5 126.25 C 601.5 126.52614 601.27614 126.75 601 126.75 L 599.875 126.75 L 599.875 127.5 C 599.875 127.77614 599.65114 128 599.375 128 L 596.625 128 C 596.34886 128 596.125 127.77614 596.125 127.5 L 596.125 126.75 L 595 126.75 C 594.72386 126.75 594.5 126.52614 594.5 126.25 L 594.5 125 L 591.75 125 C 591.47386 125 591.25 124.77614 591.25 124.5 L 591.25 116.5 C 591.25 116.22386 591.47386 116 591.75 116 L 595 116 L 595 116 M 596.625 116 L 599.375 116" fill="white"/>
            </g>
          </g>
        </g>
        <g id="Group_11501">
          <g id="Group_11505">
            <title>sfp slot</title>
            <g id="Graphic_11507">
              <title>background</title>
              <path d="M 670.5 114 L 655.5 114 C 654.3954 114 653.5 114.89543 653.5 116 L 653.5 128 C 653.5 129.10457 654.3954 130 655.5 130 L 670.5 130 C 671.6046 130 672.5 129.10457 672.5 128 L 672.5 116 C 672.5 114.89543 671.6046 114 670.5 114 Z" fill="black"/>
            </g>
            <g id="Graphic_11506">
              <title>sfp</title>
              <path d="M 670.5 115 L 655.5 115 C 654.9477 115 654.5 115.44772 654.5 116 L 654.5 128 C 654.5 128.55228 654.9477 129 655.5 129 L 670.5 129 C 671.0523 129 671.5 128.55228 671.5 128 L 671.5 116 C 671.5 115.44772 671.0523 115 670.5 115 Z M 669.25 117.5 L 669.25 117.5 C 669.52614 117.5 669.75 117.72386 669.75 118 L 669.75 126 C 669.75 126.27614 669.52614 126.5 669.25 126.5 L 656.75 126.5 C 656.47386 126.5 656.25 126.27614 656.25 126 L 656.25 118 C 656.25 117.72386 656.47386 117.5 656.75 117.5 L 669.25 117.5 Z M 668.75 118.5 L 667.75 118.5 L 667.75 121.5 L 668.75 121.5 Z M 667.25 118.5 L 666.25 118.5 L 666.25 121.5 L 667.25 121.5 Z M 665.75 118.5 L 664.75 118.5 L 664.75 121.5 L 665.75 121.5 Z M 664.25 118.5 L 663.25 118.5 L 663.25 121.5 L 664.25 121.5 Z M 662.75 118.5 L 661.75 118.5 L 661.75 121.5 L 662.75 121.5 Z M 661.25 118.5 L 660.25 118.5 L 660.25 121.5 L 661.25 121.5 Z M 659.75 118.5 L 658.75 118.5 L 658.75 121.5 L 659.75 121.5 Z M 658.25 118.5 L 657.25 118.5 L 657.25 121.5 L 658.25 121.5 Z" fill="white"/>
            </g>
          </g>
          <g id="Group_11502">
            <title>sfp slot</title>
            <g id="Graphic_11504">
              <title>background</title>
              <path d="M 699.5 114 L 684.5 114 C 683.3954 114 682.5 114.89543 682.5 116 L 682.5 128 C 682.5 129.10457 683.3954 130 684.5 130 L 699.5 130 C 700.6046 130 701.5 129.10457 701.5 128 L 701.5 116 C 701.5 114.89543 700.6046 114 699.5 114 Z" fill="black"/>
            </g>
            <g id="Graphic_11503">
              <title>sfp</title>
              <path d="M 699.5 115 L 684.5 115 C 683.9477 115 683.5 115.44772 683.5 116 L 683.5 128 C 683.5 128.55228 683.9477 129 684.5 129 L 699.5 129 C 700.0523 129 700.5 128.55228 700.5 128 L 700.5 116 C 700.5 115.44772 700.0523 115 699.5 115 Z M 698.25 117.5 L 698.25 117.5 C 698.52614 117.5 698.75 117.72386 698.75 118 L 698.75 126 C 698.75 126.27614 698.52614 126.5 698.25 126.5 L 685.75 126.5 C 685.47386 126.5 685.25 126.27614 685.25 126 L 685.25 118 C 685.25 117.72386 685.47386 117.5 685.75 117.5 L 698.25 117.5 Z M 697.75 118.5 L 696.75 118.5 L 696.75 121.5 L 697.75 121.5 Z M 696.25 118.5 L 695.25 118.5 L 695.25 121.5 L 696.25 121.5 Z M 694.75 118.5 L 693.75 118.5 L 693.75 121.5 L 694.75 121.5 Z M 693.25 118.5 L 692.25 118.5 L 692.25 121.5 L 693.25 121.5 Z M 691.75 118.5 L 690.75 118.5 L 690.75 121.5 L 691.75 121.5 Z M 690.25 118.5 L 689.25 118.5 L 689.25 121.5 L 690.25 121.5 Z M 688.75 118.5 L 687.75 118.5 L 687.75 121.5 L 688.75 121.5 Z M 687.25 118.5 L 686.25 118.5 L 686.25 121.5 L 687.25 121.5 Z" fill="white"/>
            </g>
          </g>
        </g>
        <g id="Graphic_11500">
          <path d="M 710 80 L 460 80 L 510 50 L 660 50 Z" fill="#ccb8b8"/>
          <path d="M 710 80 L 460 80 L 510 50 L 660 50 Z" stroke="black" stroke-linecap="square" stroke-linejoin="miter" stroke-width="1"/>
        </g>
        <g id="Graphic_11499">
          <rect x="560.56" y="55.832" width="48.88" height="18.335999" fill="white"/>
          <rect x="560.56" y="55.832" width="48.88" height="18.335999" stroke="black" stroke-linecap="round" stroke-linejoin="round" stroke-width="1"/>
          <text transform="translate(562.56 57.832)" fill="black">
            <tspan font-family="Helvetica Neue" font-size="12" fill="black" x="50803806e-20" y="11" xml:space="preserve">lab-fw-1</tspan>
          </text>
        </g>
      </g>
      <g id="Group_11468">
        <g id="Graphic_11497">
          <rect x="1160" y="80" width="250" height="60" fill="#998a8a"/>
          <rect x="1160" y="80" width="250" height="60" stroke="black" stroke-linecap="square" stroke-linejoin="miter" stroke-width="1"/>
        </g>
        <g id="Group_11478">
          <g id="Group_11494">
            <title>ethernet jack</title>
            <g id="Graphic_11496">
              <title>background</title>
              <path d="M 1185.5 112.5 L 1170.5 112.5 C 1169.3954 112.5 1168.5 113.39543 1168.5 114.5 L 1168.5 129.5 C 1168.5 130.60457 1169.3954 131.5 1170.5 131.5 L 1185.5 131.5 C 1186.6046 131.5 1187.5 130.60457 1187.5 129.5 L 1187.5 114.5 C 1187.5 113.39543 1186.6046 112.5 1185.5 112.5 Z" fill="black"/>
            </g>
            <g id="Graphic_11495">
              <title>ethernet</title>
              <path d="M 1185.5 113.5 L 1170.5 113.5 C 1169.9477 113.5 1169.5 113.94772 1169.5 114.5 L 1169.5 129.5 C 1169.5 130.05228 1169.9477 130.5 1170.5 130.5 L 1185.5 130.5 C 1186.0523 130.5 1186.5 130.05228 1186.5 129.5 L 1186.5 114.5 C 1186.5 113.94772 1186.0523 113.5 1185.5 113.5 Z M 1173.25 117 L 1172.25 117 L 1172.25 120 L 1173.25 120 Z M 1174.75 117 L 1173.75 117 L 1173.75 120 L 1174.75 120 Z M 1176.25 117 L 1175.25 117 L 1175.25 120 L 1176.25 120 Z M 1177.75 117 L 1176.75 117 L 1176.75 120 L 1177.75 120 Z M 1179.25 117 L 1178.25 117 L 1178.25 120 L 1179.25 120 Z M 1180.75 117 L 1179.75 117 L 1179.75 120 L 1180.75 120 Z M 1182.25 117 L 1181.25 117 L 1181.25 120 L 1182.25 120 Z M 1183.75 117 L 1182.75 117 L 1182.75 120 L 1183.75 120 Z M 1175 116 L 1176.625 116 M 1179.375 116 L 1181 116 L 1184.25 116 C 1184.5261 116 1184.75 116.22386 1184.75 116.5 L 1184.75 124.5 C 1184.75 124.77614 1184.5261 125 1184.25 125 L 1181.5 125 L 1181.5 126.25 C 1181.5 126.52614 1181.2761 126.75 1181 126.75 L 1179.875 126.75 L 1179.875 127.5 C 1179.875 127.77614 1179.6511 128 1179.375 128 L 1176.625 128 C 1176.3489 128 1176.125 127.77614 1176.125 127.5 L 1176.125 126.75 L 1175 126.75 C 1174.7239 126.75 1174.5 126.52614 1174.5 126.25 L 1174.5 125 L 1171.75 125 C 1171.4739 125 1171.25 124.77614 1171.25 124.5 L 1171.25 116.5 C 1171.25 116.22386 1171.4739 116 1171.75 116 L 1175 116 L 1175 116 M 1176.625 116 L 1179.375 116" fill="white"/>
            </g>
          </g>
          <g id="Group_11491">
            <title>ethernet jack</title>
            <g id="Graphic_11493">
              <title>background</title>
              <path d="M 1209.5 112.5 L 1194.5 112.5 C 1193.3954 112.5 1192.5 113.39543 1192.5 114.5 L 1192.5 129.5 C 1192.5 130.60457 1193.3954 131.5 1194.5 131.5 L 1209.5 131.5 C 1210.6046 131.5 1211.5 130.60457 1211.5 129.5 L 1211.5 114.5 C 1211.5 113.39543 1210.6046 112.5 1209.5 112.5 Z" fill="black"/>
            </g>
            <g id="Graphic_11492">
              <title>ethernet</title>
              <path d="M 1209.5 113.5 L 1194.5 113.5 C 1193.9477 113.5 1193.5 113.94772 1193.5 114.5 L 1193.5 129.5 C 1193.5 130.05228 1193.9477 130.5 1194.5 130.5 L 1209.5 130.5 C 1210.0523 130.5 1210.5 130.05228 1210.5 129.5 L 1210.5 114.5 C 1210.5 113.94772 1210.0523 113.5 1209.5 113.5 Z M 1197.25 117 L 1196.25 117 L 1196.25 120 L 1197.25 120 Z M 1198.75 117 L 1197.75 117 L 1197.75 120 L 1198.75 120 Z M 1200.25 117 L 1199.25 117 L 1199.25 120 L 1200.25 120 Z M 1201.75 117 L 1200.75 117 L 1200.75 120 L 1201.75 120 Z M 1203.25 117 L 1202.25 117 L 1202.25 120 L 1203.25 120 Z M 1204.75 117 L 1203.75 117 L 1203.75 120 L 1204.75 120 Z M 1206.25 117 L 1205.25 117 L 1205.25 120 L 1206.25 120 Z M 1207.75 117 L 1206.75 117 L 1206.75 120 L 1207.75 120 Z M 1199 116 L 1200.625 116 M 1203.375 116 L 1205 116 L 1208.25 116 C 1208.5261 116 1208.75 116.22386 1208.75 116.5 L 1208.75 124.5 C 1208.75 124.77614 1208.5261 125 1208.25 125 L 1205.5 125 L 1205.5 126.25 C 1205.5 126.52614 1205.2761 126.75 1205 126.75 L 1203.875 126.75 L 1203.875 127.5 C 1203.875 127.77614 1203.6511 128 1203.375 128 L 1200.625 128 C 1200.3489 128 1200.125 127.77614 1200.125 127.5 L 1200.125 126.75 L 1199 126.75 C 1198.7239 126.75 1198.5 126.52614 1198.5 126.25 L 1198.5 125 L 1195.75 125 C 1195.4739 125 1195.25 124.77614 1195.25 124.5 L 1195.25 116.5 C 1195.25 116.22386 1195.4739 116 1195.75 116 L 1199 116 L 1199 116 M 1200.625 116 L 1203.375 116" fill="white"/>
            </g>
          </g>
          <g id="Group_11488">
            <title>ethernet jack</title>
            <g id="Graphic_11490">
              <title>background</title>
              <path d="M 1233.5 112.5 L 1218.5 112.5 C 1217.3954 112.5 1216.5 113.39543 1216.5 114.5 L 1216.5 129.5 C 1216.5 130.60457 1217.3954 131.5 1218.5 131.5 L 1233.5 131.5 C 1234.6046 131.5 1235.5 130.60457 1235.5 129.5 L 1235.5 114.5 C 1235.5 113.39543 1234.6046 112.5 1233.5 112.5 Z" fill="black"/>
            </g>
            <g id="Graphic_11489">
              <title>ethernet</title>
              <path d="M 1233.5 113.5 L 1218.5 113.5 C 1217.9477 113.5 1217.5 113.94772 1217.5 114.5 L 1217.5 129.5 C 1217.5 130.05228 1217.9477 130.5 1218.5 130.5 L 1233.5 130.5 C 1234.0523 130.5 1234.5 130.05228 1234.5 129.5 L 1234.5 114.5 C 1234.5 113.94772 1234.0523 113.5 1233.5 113.5 Z M 1221.25 117 L 1220.25 117 L 1220.25 120 L 1221.25 120 Z M 1222.75 117 L 1221.75 117 L 1221.75 120 L 1222.75 120 Z M 1224.25 117 L 1223.25 117 L 1223.25 120 L 1224.25 120 Z M 1225.75 117 L 1224.75 117 L 1224.75 120 L 1225.75 120 Z M 1227.25 117 L 1226.25 117 L 1226.25 120 L 1227.25 120 Z M 1228.75 117 L 1227.75 117 L 1227.75 120 L 1228.75 120 Z M 1230.25 117 L 1229.25 117 L 1229.25 120 L 1230.25 120 Z M 1231.75 117 L 1230.75 117 L 1230.75 120 L 1231.75 120 Z M 1223 116 L 1224.625 116 M 1227.375 116 L 1229 116 L 1232.25 116 C 1232.5261 116 1232.75 116.22386 1232.75 116.5 L 1232.75 124.5 C 1232.75 124.77614 1232.5261 125 1232.25 125 L 1229.5 125 L 1229.5 126.25 C 1229.5 126.52614 1229.2761 126.75 1229 126.75 L 1227.875 126.75 L 1227.875 127.5 C 1227.875 127.77614 1227.6511 128 1227.375 128 L 1224.625 128 C 1224.3489 128 1224.125 127.77614 1224.125 127.5 L 1224.125 126.75 L 1223 126.75 C 1222.7239 126.75 1222.5 126.52614 1222.5 126.25 L 1222.5 125 L 1219.75 125 C 1219.4739 125 1219.25 124.77614 1219.25 124.5 L 1219.25 116.5 C 1219.25 116.22386 1219.4739 116 1219.75 116 L 1223 116 L 1223 116 M 1224.625 116 L 1227.375 116" fill="white"/>
            </g>
          </g>
          <g id="Group_11485">
            <title>ethernet jack</title>
            <g id="Graphic_11487">
              <title>background</title>
              <path d="M 1257.5 112.5 L 1242.5 112.5 C 1241.3954 112.5 1240.5 113.39543 1240.5 114.5 L 1240.5 129.5 C 1240.5 130.60457 1241.3954 131.5 1242.5 131.5 L 1257.5 131.5 C 1258.6046 131.5 1259.5 130.60457 1259.5 129.5 L 1259.5 114.5 C 1259.5 113.39543 1258.6046 112.5 1257.5 112.5 Z" fill="black"/>
            </g>
            <g id="Graphic_11486">
              <title>ethernet</title>
              <path d="M 1257.5 113.5 L 1242.5 113.5 C 1241.9477 113.5 1241.5 113.94772 1241.5 114.5 L 1241.5 129.5 C 1241.5 130.05228 1241.9477 130.5 1242.5 130.5 L 1257.5 130.5 C 1258.0523 130.5 1258.5 130.05228 1258.5 129.5 L 1258.5 114.5 C 1258.5 113.94772 1258.0523 113.5 1257.5 113.5 Z M 1245.25 117 L 1244.25 117 L 1244.25 120 L 1245.25 120 Z M 1246.75 117 L 1245.75 117 L 1245.75 120 L 1246.75 120 Z M 1248.25 117 L 1247.25 117 L 1247.25 120 L 1248.25 120 Z M 1249.75 117 L 1248.75 117 L 1248.75 120 L 1249.75 120 Z M 1251.25 117 L 1250.25 117 L 1250.25 120 L 1251.25 120 Z M 1252.75 117 L 1251.75 117 L 1251.75 120 L 1252.75 120 Z M 1254.25 117 L 1253.25 117 L 1253.25 120 L 1254.25 120 Z M 1255.75 117 L 1254.75 117 L 1254.75 120 L 1255.75 120 Z M 1247 116 L 1248.625 116 M 1251.375 116 L 1253 116 L 1256.25 116 C 1256.5261 116 1256.75 116.22386 1256.75 116.5 L 1256.75 124.5 C 1256.75 124.77614 1256.5261 125 1256.25 125 L 1253.5 125 L 1253.5 126.25 C 1253.5 126.52614 1253.2761 126.75 1253 126.75 L 1251.875 126.75 L 1251.875 127.5 C 1251.875 127.77614 1251.6511 128 1251.375 128 L 1248.625 128 C 1248.3489 128 1248.125 127.77614 1248.125 127.5 L 1248.125 126.75 L 1247 126.75 C 1246.7239 126.75 1246.5 126.52614 1246.5 126.25 L 1246.5 125 L 1243.75 125 C 1243.4739 125 1243.25 124.77614 1243.25 124.5 L 1243.25 116.5 C 1243.25 116.22386 1243.4739 116 1243.75 116 L 1247 116 L 1247 116 M 1248.625 116 L 1251.375 116" fill="white"/>
            </g>
          </g>
          <g id="Group_11482">
            <title>ethernet jack</title>
            <g id="Graphic_11484">
              <title>background</title>
              <path d="M 1281.5 112.5 L 1266.5 112.5 C 1265.3954 112.5 1264.5 113.39543 1264.5 114.5 L 1264.5 129.5 C 1264.5 130.60457 1265.3954 131.5 1266.5 131.5 L 1281.5 131.5 C 1282.6046 131.5 1283.5 130.60457 1283.5 129.5 L 1283.5 114.5 C 1283.5 113.39543 1282.6046 112.5 1281.5 112.5 Z" fill="black"/>
            </g>
            <g id="Graphic_11483">
              <title>ethernet</title>
              <path d="M 1281.5 113.5 L 1266.5 113.5 C 1265.9477 113.5 1265.5 113.94772 1265.5 114.5 L 1265.5 129.5 C 1265.5 130.05228 1265.9477 130.5 1266.5 130.5 L 1281.5 130.5 C 1282.0523 130.5 1282.5 130.05228 1282.5 129.5 L 1282.5 114.5 C 1282.5 113.94772 1282.0523 113.5 1281.5 113.5 Z M 1269.25 117 L 1268.25 117 L 1268.25 120 L 1269.25 120 Z M 1270.75 117 L 1269.75 117 L 1269.75 120 L 1270.75 120 Z M 1272.25 117 L 1271.25 117 L 1271.25 120 L 1272.25 120 Z M 1273.75 117 L 1272.75 117 L 1272.75 120 L 1273.75 120 Z M 1275.25 117 L 1274.25 117 L 1274.25 120 L 1275.25 120 Z M 1276.75 117 L 1275.75 117 L 1275.75 120 L 1276.75 120 Z M 1278.25 117 L 1277.25 117 L 1277.25 120 L 1278.25 120 Z M 1279.75 117 L 1278.75 117 L 1278.75 120 L 1279.75 120 Z M 1271 116 L 1272.625 116 M 1275.375 116 L 1277 116 L 1280.25 116 C 1280.5261 116 1280.75 116.22386 1280.75 116.5 L 1280.75 124.5 C 1280.75 124.77614 1280.5261 125 1280.25 125 L 1277.5 125 L 1277.5 126.25 C 1277.5 126.52614 1277.2761 126.75 1277 126.75 L 1275.875 126.75 L 1275.875 127.5 C 1275.875 127.77614 1275.6511 128 1275.375 128 L 1272.625 128 C 1272.3489 128 1272.125 127.77614 1272.125 127.5 L 1272.125 126.75 L 1271 126.75 C 1270.7239 126.75 1270.5 126.52614 1270.5 126.25 L 1270.5 125 L 1267.75 125 C 1267.4739 125 1267.25 124.77614 1267.25 124.5 L 1267.25 116.5 C 1267.25 116.22386 1267.4739 116 1267.75 116 L 1271 116 L 1271 116 M 1272.625 116 L 1275.375 116" fill="white"/>
            </g>
          </g>
          <g id="Group_11479">
            <title>ethernet jack</title>
            <g id="Graphic_11481">
              <title>background</title>
              <path d="M 1305.5 112.5 L 1290.5 112.5 C 1289.3954 112.5 1288.5 113.39543 1288.5 114.5 L 1288.5 129.5 C 1288.5 130.60457 1289.3954 131.5 1290.5 131.5 L 1305.5 131.5 C 1306.6046 131.5 1307.5 130.60457 1307.5 129.5 L 1307.5 114.5 C 1307.5 113.39543 1306.6046 112.5 1305.5 112.5 Z" fill="black"/>
            </g>
            <g id="Graphic_11480">
              <title>ethernet</title>
              <path d="M 1305.5 113.5 L 1290.5 113.5 C 1289.9477 113.5 1289.5 113.94772 1289.5 114.5 L 1289.5 129.5 C 1289.5 130.05228 1289.9477 130.5 1290.5 130.5 L 1305.5 130.5 C 1306.0523 130.5 1306.5 130.05228 1306.5 129.5 L 1306.5 114.5 C 1306.5 113.94772 1306.0523 113.5 1305.5 113.5 Z M 1293.25 117 L 1292.25 117 L 1292.25 120 L 1293.25 120 Z M 1294.75 117 L 1293.75 117 L 1293.75 120 L 1294.75 120 Z M 1296.25 117 L 1295.25 117 L 1295.25 120 L 1296.25 120 Z M 1297.75 117 L 1296.75 117 L 1296.75 120 L 1297.75 120 Z M 1299.25 117 L 1298.25 117 L 1298.25 120 L 1299.25 120 Z M 1300.75 117 L 1299.75 117 L 1299.75 120 L 1300.75 120 Z M 1302.25 117 L 1301.25 117 L 1301.25 120 L 1302.25 120 Z M 1303.75 117 L 1302.75 117 L 1302.75 120 L 1303.75 120 Z M 1295 116 L 1296.625 116 M 1299.375 116 L 1301 116 L 1304.25 116 C 1304.5261 116 1304.75 116.22386 1304.75 116.5 L 1304.75 124.5 C 1304.75 124.77614 1304.5261 125 1304.25 125 L 1301.5 125 L 1301.5 126.25 C 1301.5 126.52614 1301.2761 126.75 1301 126.75 L 1299.875 126.75 L 1299.875 127.5 C 1299.875 127.77614 1299.6511 128 1299.375 128 L 1296.625 128 C 1296.3489 128 1296.125 127.77614 1296.125 127.5 L 1296.125 126.75 L 1295 126.75 C 1294.7239 126.75 1294.5 126.52614 1294.5 126.25 L 1294.5 125 L 1291.75 125 C 1291.4739 125 1291.25 124.77614 1291.25 124.5 L 1291.25 116.5 C 1291.25 116.22386 1291.4739 116 1291.75 116 L 1295 116 L 1295 116 M 1296.625 116 L 1299.375 116" fill="white"/>
            </g>
          </g>
        </g>
        <g id="Group_11471">
          <g id="Group_11475">
            <title>sfp slot</title>
            <g id="Graphic_11477">
              <title>background</title>
              <path d="M 1370.5 114 L 1355.5 114 C 1354.3954 114 1353.5 114.89543 1353.5 116 L 1353.5 128 C 1353.5 129.10457 1354.3954 130 1355.5 130 L 1370.5 130 C 1371.6046 130 1372.5 129.10457 1372.5 128 L 1372.5 116 C 1372.5 114.89543 1371.6046 114 1370.5 114 Z" fill="black"/>
            </g>
            <g id="Graphic_11476">
              <title>sfp</title>
              <path d="M 1370.5 115 L 1355.5 115 C 1354.9477 115 1354.5 115.44772 1354.5 116 L 1354.5 128 C 1354.5 128.55228 1354.9477 129 1355.5 129 L 1370.5 129 C 1371.0523 129 1371.5 128.55228 1371.5 128 L 1371.5 116 C 1371.5 115.44772 1371.0523 115 1370.5 115 Z M 1369.25 117.5 L 1369.25 117.5 C 1369.5261 117.5 1369.75 117.72386 1369.75 118 L 1369.75 126 C 1369.75 126.27614 1369.5261 126.5 1369.25 126.5 L 1356.75 126.5 C 1356.4739 126.5 1356.25 126.27614 1356.25 126 L 1356.25 118 C 1356.25 117.72386 1356.4739 117.5 1356.75 117.5 L 1369.25 117.5 Z M 1368.75 118.5 L 1367.75 118.5 L 1367.75 121.5 L 1368.75 121.5 Z M 1367.25 118.5 L 1366.25 118.5 L 1366.25 121.5 L 1367.25 121.5 Z M 1365.75 118.5 L 1364.75 118.5 L 1364.75 121.5 L 1365.75 121.5 Z M 1364.25 118.5 L 1363.25 118.5 L 1363.25 121.5 L 1364.25 121.5 Z M 1362.75 118.5 L 1361.75 118.5 L 1361.75 121.5 L 1362.75 121.5 Z M 1361.25 118.5 L 1360.25 118.5 L 1360.25 121.5 L 1361.25 121.5 Z M 1359.75 118.5 L 1358.75 118.5 L 1358.75 121.5 L 1359.75 121.5 Z M 1358.25 118.5 L 1357.25 118.5 L 1357.25 121.5 L 1358.25 121.5 Z" fill="white"/>
            </g>
          </g>
          <g id="Group_11472">
            <title>sfp slot</title>
            <g id="Graphic_11474">
              <title>background</title>
              <path d="M 1399.5 114 L 1384.5 114 C 1383.3954 114 1382.5 114.89543 1382.5 116 L 1382.5 128 C 1382.5 129.10457 1383.3954 130 1384.5 130 L 1399.5 130 C 1400.6046 130 1401.5 129.10457 1401.5 128 L 1401.5 116 C 1401.5 114.89543 1400.6046 114 1399.5 114 Z" fill="black"/>
            </g>
            <g id="Graphic_11473">
              <title>sfp</title>
              <path d="M 1399.5 115 L 1384.5 115 C 1383.9477 115 1383.5 115.44772 1383.5 116 L 1383.5 128 C 1383.5 128.55228 1383.9477 129 1384.5 129 L 1399.5 129 C 1400.0523 129 1400.5 128.55228 1400.5 128 L 1400.5 116 C 1400.5 115.44772 1400.0523 115 1399.5 115 Z M 1398.25 117.5 L 1398.25 117.5 C 1398.5261 117.5 1398.75 117.72386 1398.75 118 L 1398.75 126 C 1398.75 126.27614 1398.5261 126.5 1398.25 126.5 L 1385.75 126.5 C 1385.4739 126.5 1385.25 126.27614 1385.25 126 L 1385.25 118 C 1385.25 117.72386 1385.4739 117.5 1385.75 117.5 L 1398.25 117.5 Z M 1397.75 118.5 L 1396.75 118.5 L 1396.75 121.5 L 1397.75 121.5 Z M 1396.25 118.5 L 1395.25 118.5 L 1395.25 121.5 L 1396.25 121.5 Z M 1394.75 118.5 L 1393.75 118.5 L 1393.75 121.5 L 1394.75 121.5 Z M 1393.25 118.5 L 1392.25 118.5 L 1392.25 121.5 L 1393.25 121.5 Z M 1391.75 118.5 L 1390.75 118.5 L 1390.75 121.5 L 1391.75 121.5 Z M 1390.25 118.5 L 1389.25 118.5 L 1389.25 121.5 L 1390.25 121.5 Z M 1388.75 118.5 L 1387.75 118.5 L 1387.75 121.5 L 1388.75 121.5 Z M 1387.25 118.5 L 1386.25 118.5 L 1386.25 121.5 L 1387.25 121.5 Z" fill="white"/>
            </g>
          </g>
        </g>
        <g id="Graphic_11470">
          <path d="M 1410 80 L 1160 80 L 1210 50 L 1360 50 Z" fill="#ccb8b8"/>
          <path d="M 1410 80 L 1160 80 L 1210 50 L 1360 50 Z" stroke="black" stroke-linecap="square" stroke-linejoin="miter" stroke-width="1"/>
        </g>
        <g id="Graphic_11469">
          <rect x="1260.56" y="55.832" width="48.88" height="18.335999" fill="white"/>
          <rect x="1260.56" y="55.832" width="48.88" height="18.335999" stroke="black" stroke-linecap="round" stroke-linejoin="round" stroke-width="1"/>
          <text transform="translate(1262.56 57.832)" fill="black">
            <tspan font-family="Helvetica Neue" font-size="12" fill="black" x="50803806e-20" y="11" xml:space="preserve">lab-fw-2</tspan>
          </text>
        </g>
      </g>
      <g id="Group_11438">
        <g id="Graphic_11467">
          <rect x="460" y="580" width="250" height="60" fill="#998a8a"/>
          <rect x="460" y="580" width="250" height="60" stroke="black" stroke-linecap="square" stroke-linejoin="miter" stroke-width="1"/>
        </g>
        <g id="Group_11448">
          <g id="Group_11464">
            <title>ethernet jack</title>
            <g id="Graphic_11466">
              <title>background</title>
              <path d="M 485.5 612.5 L 470.5 612.5 C 469.39543 612.5 468.5 613.3954 468.5 614.5 L 468.5 629.5 C 468.5 630.6046 469.39543 631.5 470.5 631.5 L 485.5 631.5 C 486.60457 631.5 487.5 630.6046 487.5 629.5 L 487.5 614.5 C 487.5 613.3954 486.60457 612.5 485.5 612.5 Z" fill="black"/>
            </g>
            <g id="Graphic_11465">
              <title>ethernet</title>
              <path d="M 485.5 613.5 L 470.5 613.5 C 469.9477 613.5 469.5 613.9477 469.5 614.5 L 469.5 629.5 C 469.5 630.0523 469.9477 630.5 470.5 630.5 L 485.5 630.5 C 486.0523 630.5 486.5 630.0523 486.5 629.5 L 486.5 614.5 C 486.5 613.9477 486.0523 613.5 485.5 613.5 Z M 473.25 617 L 472.25 617 L 472.25 620 L 473.25 620 Z M 474.75 617 L 473.75 617 L 473.75 620 L 474.75 620 Z M 476.25 617 L 475.25 617 L 475.25 620 L 476.25 620 Z M 477.75 617 L 476.75 617 L 476.75 620 L 477.75 620 Z M 479.25 617 L 478.25 617 L 478.25 620 L 479.25 620 Z M 480.75 617 L 479.75 617 L 479.75 620 L 480.75 620 Z M 482.25 617 L 481.25 617 L 481.25 620 L 482.25 620 Z M 483.75 617 L 482.75 617 L 482.75 620 L 483.75 620 Z M 475 616 L 476.625 616 M 479.375 616 L 481 616 L 484.25 616 C 484.52614 616 484.75 616.22386 484.75 616.5 L 484.75 624.5 C 484.75 624.77614 484.52614 625 484.25 625 L 481.5 625 L 481.5 626.25 C 481.5 626.52614 481.27614 626.75 481 626.75 L 479.875 626.75 L 479.875 627.5 C 479.875 627.77614 479.65114 628 479.375 628 L 476.625 628 C 476.34886 628 476.125 627.77614 476.125 627.5 L 476.125 626.75 L 475 626.75 C 474.72386 626.75 474.5 626.52614 474.5 626.25 L 474.5 625 L 471.75 625 C 471.47386 625 471.25 624.77614 471.25 624.5 L 471.25 616.5 C 471.25 616.22386 471.47386 616 471.75 616 L 475 616 L 475 616 M 476.625 616 L 479.375 616" fill="white"/>
            </g>
          </g>
          <g id="Group_11461">
            <title>ethernet jack</title>
            <g id="Graphic_11463">
              <title>background</title>
              <path d="M 509.5 612.5 L 494.5 612.5 C 493.39543 612.5 492.5 613.3954 492.5 614.5 L 492.5 629.5 C 492.5 630.6046 493.39543 631.5 494.5 631.5 L 509.5 631.5 C 510.60457 631.5 511.5 630.6046 511.5 629.5 L 511.5 614.5 C 511.5 613.3954 510.60457 612.5 509.5 612.5 Z" fill="black"/>
            </g>
            <g id="Graphic_11462">
              <title>ethernet</title>
              <path d="M 509.5 613.5 L 494.5 613.5 C 493.9477 613.5 493.5 613.9477 493.5 614.5 L 493.5 629.5 C 493.5 630.0523 493.9477 630.5 494.5 630.5 L 509.5 630.5 C 510.0523 630.5 510.5 630.0523 510.5 629.5 L 510.5 614.5 C 510.5 613.9477 510.0523 613.5 509.5 613.5 Z M 497.25 617 L 496.25 617 L 496.25 620 L 497.25 620 Z M 498.75 617 L 497.75 617 L 497.75 620 L 498.75 620 Z M 500.25 617 L 499.25 617 L 499.25 620 L 500.25 620 Z M 501.75 617 L 500.75 617 L 500.75 620 L 501.75 620 Z M 503.25 617 L 502.25 617 L 502.25 620 L 503.25 620 Z M 504.75 617 L 503.75 617 L 503.75 620 L 504.75 620 Z M 506.25 617 L 505.25 617 L 505.25 620 L 506.25 620 Z M 507.75 617 L 506.75 617 L 506.75 620 L 507.75 620 Z M 499 616 L 500.625 616 M 503.375 616 L 505 616 L 508.25 616 C 508.52614 616 508.75 616.22386 508.75 616.5 L 508.75 624.5 C 508.75 624.77614 508.52614 625 508.25 625 L 505.5 625 L 505.5 626.25 C 505.5 626.52614 505.27614 626.75 505 626.75 L 503.875 626.75 L 503.875 627.5 C 503.875 627.77614 503.65114 628 503.375 628 L 500.625 628 C 500.34886 628 500.125 627.77614 500.125 627.5 L 500.125 626.75 L 499 626.75 C 498.72386 626.75 498.5 626.52614 498.5 626.25 L 498.5 625 L 495.75 625 C 495.47386 625 495.25 624.77614 495.25 624.5 L 495.25 616.5 C 495.25 616.22386 495.47386 616 495.75 616 L 499 616 L 499 616 M 500.625 616 L 503.375 616" fill="white"/>
            </g>
          </g>
          <g id="Group_11458">
            <title>ethernet jack</title>
            <g id="Graphic_11460">
              <title>background</title>
              <path d="M 533.5 612.5 L 518.5 612.5 C 517.3954 612.5 516.5 613.3954 516.5 614.5 L 516.5 629.5 C 516.5 630.6046 517.3954 631.5 518.5 631.5 L 533.5 631.5 C 534.6046 631.5 535.5 630.6046 535.5 629.5 L 535.5 614.5 C 535.5 613.3954 534.6046 612.5 533.5 612.5 Z" fill="black"/>
            </g>
            <g id="Graphic_11459">
              <title>ethernet</title>
              <path d="M 533.5 613.5 L 518.5 613.5 C 517.9477 613.5 517.5 613.9477 517.5 614.5 L 517.5 629.5 C 517.5 630.0523 517.9477 630.5 518.5 630.5 L 533.5 630.5 C 534.0523 630.5 534.5 630.0523 534.5 629.5 L 534.5 614.5 C 534.5 613.9477 534.0523 613.5 533.5 613.5 Z M 521.25 617 L 520.25 617 L 520.25 620 L 521.25 620 Z M 522.75 617 L 521.75 617 L 521.75 620 L 522.75 620 Z M 524.25 617 L 523.25 617 L 523.25 620 L 524.25 620 Z M 525.75 617 L 524.75 617 L 524.75 620 L 525.75 620 Z M 527.25 617 L 526.25 617 L 526.25 620 L 527.25 620 Z M 528.75 617 L 527.75 617 L 527.75 620 L 528.75 620 Z M 530.25 617 L 529.25 617 L 529.25 620 L 530.25 620 Z M 531.75 617 L 530.75 617 L 530.75 620 L 531.75 620 Z M 523 616 L 524.625 616 M 527.375 616 L 529 616 L 532.25 616 C 532.52614 616 532.75 616.22386 532.75 616.5 L 532.75 624.5 C 532.75 624.77614 532.52614 625 532.25 625 L 529.5 625 L 529.5 626.25 C 529.5 626.52614 529.27614 626.75 529 626.75 L 527.875 626.75 L 527.875 627.5 C 527.875 627.77614 527.65114 628 527.375 628 L 524.625 628 C 524.34886 628 524.125 627.77614 524.125 627.5 L 524.125 626.75 L 523 626.75 C 522.72386 626.75 522.5 626.52614 522.5 626.25 L 522.5 625 L 519.75 625 C 519.47386 625 519.25 624.77614 519.25 624.5 L 519.25 616.5 C 519.25 616.22386 519.47386 616 519.75 616 L 523 616 L 523 616 M 524.625 616 L 527.375 616" fill="white"/>
            </g>
          </g>
          <g id="Group_11455">
            <title>ethernet jack</title>
            <g id="Graphic_11457">
              <title>background</title>
              <path d="M 557.5 612.5 L 542.5 612.5 C 541.3954 612.5 540.5 613.3954 540.5 614.5 L 540.5 629.5 C 540.5 630.6046 541.3954 631.5 542.5 631.5 L 557.5 631.5 C 558.6046 631.5 559.5 630.6046 559.5 629.5 L 559.5 614.5 C 559.5 613.3954 558.6046 612.5 557.5 612.5 Z" fill="black"/>
            </g>
            <g id="Graphic_11456">
              <title>ethernet</title>
              <path d="M 557.5 613.5 L 542.5 613.5 C 541.9477 613.5 541.5 613.9477 541.5 614.5 L 541.5 629.5 C 541.5 630.0523 541.9477 630.5 542.5 630.5 L 557.5 630.5 C 558.0523 630.5 558.5 630.0523 558.5 629.5 L 558.5 614.5 C 558.5 613.9477 558.0523 613.5 557.5 613.5 Z M 545.25 617 L 544.25 617 L 544.25 620 L 545.25 620 Z M 546.75 617 L 545.75 617 L 545.75 620 L 546.75 620 Z M 548.25 617 L 547.25 617 L 547.25 620 L 548.25 620 Z M 549.75 617 L 548.75 617 L 548.75 620 L 549.75 620 Z M 551.25 617 L 550.25 617 L 550.25 620 L 551.25 620 Z M 552.75 617 L 551.75 617 L 551.75 620 L 552.75 620 Z M 554.25 617 L 553.25 617 L 553.25 620 L 554.25 620 Z M 555.75 617 L 554.75 617 L 554.75 620 L 555.75 620 Z M 547 616 L 548.625 616 M 551.375 616 L 553 616 L 556.25 616 C 556.52614 616 556.75 616.22386 556.75 616.5 L 556.75 624.5 C 556.75 624.77614 556.52614 625 556.25 625 L 553.5 625 L 553.5 626.25 C 553.5 626.52614 553.27614 626.75 553 626.75 L 551.875 626.75 L 551.875 627.5 C 551.875 627.77614 551.65114 628 551.375 628 L 548.625 628 C 548.34886 628 548.125 627.77614 548.125 627.5 L 548.125 626.75 L 547 626.75 C 546.72386 626.75 546.5 626.52614 546.5 626.25 L 546.5 625 L 543.75 625 C 543.47386 625 543.25 624.77614 543.25 624.5 L 543.25 616.5 C 543.25 616.22386 543.47386 616 543.75 616 L 547 616 L 547 616 M 548.625 616 L 551.375 616" fill="white"/>
            </g>
          </g>
          <g id="Group_11452">
            <title>ethernet jack</title>
            <g id="Graphic_11454">
              <title>background</title>
              <path d="M 581.5 612.5 L 566.5 612.5 C 565.3954 612.5 564.5 613.3954 564.5 614.5 L 564.5 629.5 C 564.5 630.6046 565.3954 631.5 566.5 631.5 L 581.5 631.5 C 582.6046 631.5 583.5 630.6046 583.5 629.5 L 583.5 614.5 C 583.5 613.3954 582.6046 612.5 581.5 612.5 Z" fill="black"/>
            </g>
            <g id="Graphic_11453">
              <title>ethernet</title>
              <path d="M 581.5 613.5 L 566.5 613.5 C 565.9477 613.5 565.5 613.9477 565.5 614.5 L 565.5 629.5 C 565.5 630.0523 565.9477 630.5 566.5 630.5 L 581.5 630.5 C 582.0523 630.5 582.5 630.0523 582.5 629.5 L 582.5 614.5 C 582.5 613.9477 582.0523 613.5 581.5 613.5 Z M 569.25 617 L 568.25 617 L 568.25 620 L 569.25 620 Z M 570.75 617 L 569.75 617 L 569.75 620 L 570.75 620 Z M 572.25 617 L 571.25 617 L 571.25 620 L 572.25 620 Z M 573.75 617 L 572.75 617 L 572.75 620 L 573.75 620 Z M 575.25 617 L 574.25 617 L 574.25 620 L 575.25 620 Z M 576.75 617 L 575.75 617 L 575.75 620 L 576.75 620 Z M 578.25 617 L 577.25 617 L 577.25 620 L 578.25 620 Z M 579.75 617 L 578.75 617 L 578.75 620 L 579.75 620 Z M 571 616 L 572.625 616 M 575.375 616 L 577 616 L 580.25 616 C 580.52614 616 580.75 616.22386 580.75 616.5 L 580.75 624.5 C 580.75 624.77614 580.52614 625 580.25 625 L 577.5 625 L 577.5 626.25 C 577.5 626.52614 577.27614 626.75 577 626.75 L 575.875 626.75 L 575.875 627.5 C 575.875 627.77614 575.65114 628 575.375 628 L 572.625 628 C 572.34886 628 572.125 627.77614 572.125 627.5 L 572.125 626.75 L 571 626.75 C 570.72386 626.75 570.5 626.52614 570.5 626.25 L 570.5 625 L 567.75 625 C 567.47386 625 567.25 624.77614 567.25 624.5 L 567.25 616.5 C 567.25 616.22386 567.47386 616 567.75 616 L 571 616 L 571 616 M 572.625 616 L 575.375 616" fill="white"/>
            </g>
          </g>
          <g id="Group_11449">
            <title>ethernet jack</title>
            <g id="Graphic_11451">
              <title>background</title>
              <path d="M 605.5 612.5 L 590.5 612.5 C 589.3954 612.5 588.5 613.3954 588.5 614.5 L 588.5 629.5 C 588.5 630.6046 589.3954 631.5 590.5 631.5 L 605.5 631.5 C 606.6046 631.5 607.5 630.6046 607.5 629.5 L 607.5 614.5 C 607.5 613.3954 606.6046 612.5 605.5 612.5 Z" fill="black"/>
            </g>
            <g id="Graphic_11450">
              <title>ethernet</title>
              <path d="M 605.5 613.5 L 590.5 613.5 C 589.9477 613.5 589.5 613.9477 589.5 614.5 L 589.5 629.5 C 589.5 630.0523 589.9477 630.5 590.5 630.5 L 605.5 630.5 C 606.0523 630.5 606.5 630.0523 606.5 629.5 L 606.5 614.5 C 606.5 613.9477 606.0523 613.5 605.5 613.5 Z M 593.25 617 L 592.25 617 L 592.25 620 L 593.25 620 Z M 594.75 617 L 593.75 617 L 593.75 620 L 594.75 620 Z M 596.25 617 L 595.25 617 L 595.25 620 L 596.25 620 Z M 597.75 617 L 596.75 617 L 596.75 620 L 597.75 620 Z M 599.25 617 L 598.25 617 L 598.25 620 L 599.25 620 Z M 600.75 617 L 599.75 617 L 599.75 620 L 600.75 620 Z M 602.25 617 L 601.25 617 L 601.25 620 L 602.25 620 Z M 603.75 617 L 602.75 617 L 602.75 620 L 603.75 620 Z M 595 616 L 596.625 616 M 599.375 616 L 601 616 L 604.25 616 C 604.52614 616 604.75 616.22386 604.75 616.5 L 604.75 624.5 C 604.75 624.77614 604.52614 625 604.25 625 L 601.5 625 L 601.5 626.25 C 601.5 626.52614 601.27614 626.75 601 626.75 L 599.875 626.75 L 599.875 627.5 C 599.875 627.77614 599.65114 628 599.375 628 L 596.625 628 C 596.34886 628 596.125 627.77614 596.125 627.5 L 596.125 626.75 L 595 626.75 C 594.72386 626.75 594.5 626.52614 594.5 626.25 L 594.5 625 L 591.75 625 C 591.47386 625 591.25 624.77614 591.25 624.5 L 591.25 616.5 C 591.25 616.22386 591.47386 616 591.75 616 L 595 616 L 595 616 M 596.625 616 L 599.375 616" fill="white"/>
            </g>
          </g>
        </g>
        <g id="Group_11441">
          <g id="Group_11445">
            <title>sfp slot</title>
            <g id="Graphic_11447">
              <title>background</title>
              <path d="M 670.5 614 L 655.5 614 C 654.3954 614 653.5 614.8954 653.5 616 L 653.5 628 C 653.5 629.1046 654.3954 630 655.5 630 L 670.5 630 C 671.6046 630 672.5 629.1046 672.5 628 L 672.5 616 C 672.5 614.8954 671.6046 614 670.5 614 Z" fill="black"/>
            </g>
            <g id="Graphic_11446">
              <title>sfp</title>
              <path d="M 670.5 615 L 655.5 615 C 654.9477 615 654.5 615.4477 654.5 616 L 654.5 628 C 654.5 628.5523 654.9477 629 655.5 629 L 670.5 629 C 671.0523 629 671.5 628.5523 671.5 628 L 671.5 616 C 671.5 615.4477 671.0523 615 670.5 615 Z M 669.25 617.5 L 669.25 617.5 C 669.52614 617.5 669.75 617.72386 669.75 618 L 669.75 626 C 669.75 626.27614 669.52614 626.5 669.25 626.5 L 656.75 626.5 C 656.47386 626.5 656.25 626.27614 656.25 626 L 656.25 618 C 656.25 617.72386 656.47386 617.5 656.75 617.5 L 669.25 617.5 Z M 668.75 618.5 L 667.75 618.5 L 667.75 621.5 L 668.75 621.5 Z M 667.25 618.5 L 666.25 618.5 L 666.25 621.5 L 667.25 621.5 Z M 665.75 618.5 L 664.75 618.5 L 664.75 621.5 L 665.75 621.5 Z M 664.25 618.5 L 663.25 618.5 L 663.25 621.5 L 664.25 621.5 Z M 662.75 618.5 L 661.75 618.5 L 661.75 621.5 L 662.75 621.5 Z M 661.25 618.5 L 660.25 618.5 L 660.25 621.5 L 661.25 621.5 Z M 659.75 618.5 L 658.75 618.5 L 658.75 621.5 L 659.75 621.5 Z M 658.25 618.5 L 657.25 618.5 L 657.25 621.5 L 658.25 621.5 Z" fill="white"/>
            </g>
          </g>
          <g id="Group_11442">
            <title>sfp slot</title>
            <g id="Graphic_11444">
              <title>background</title>
              <path d="M 699.5 614 L 684.5 614 C 683.3954 614 682.5 614.8954 682.5 616 L 682.5 628 C 682.5 629.1046 683.3954 630 684.5 630 L 699.5 630 C 700.6046 630 701.5 629.1046 701.5 628 L 701.5 616 C 701.5 614.8954 700.6046 614 699.5 614 Z" fill="black"/>
            </g>
            <g id="Graphic_11443">
              <title>sfp</title>
              <path d="M 699.5 615 L 684.5 615 C 683.9477 615 683.5 615.4477 683.5 616 L 683.5 628 C 683.5 628.5523 683.9477 629 684.5 629 L 699.5 629 C 700.0523 629 700.5 628.5523 700.5 628 L 700.5 616 C 700.5 615.4477 700.0523 615 699.5 615 Z M 698.25 617.5 L 698.25 617.5 C 698.52614 617.5 698.75 617.72386 698.75 618 L 698.75 626 C 698.75 626.27614 698.52614 626.5 698.25 626.5 L 685.75 626.5 C 685.47386 626.5 685.25 626.27614 685.25 626 L 685.25 618 C 685.25 617.72386 685.47386 617.5 685.75 617.5 L 698.25 617.5 Z M 697.75 618.5 L 696.75 618.5 L 696.75 621.5 L 697.75 621.5 Z M 696.25 618.5 L 695.25 618.5 L 695.25 621.5 L 696.25 621.5 Z M 694.75 618.5 L 693.75 618.5 L 693.75 621.5 L 694.75 621.5 Z M 693.25 618.5 L 692.25 618.5 L 692.25 621.5 L 693.25 621.5 Z M 691.75 618.5 L 690.75 618.5 L 690.75 621.5 L 691.75 621.5 Z M 690.25 618.5 L 689.25 618.5 L 689.25 621.5 L 690.25 621.5 Z M 688.75 618.5 L 687.75 618.5 L 687.75 621.5 L 688.75 621.5 Z M 687.25 618.5 L 686.25 618.5 L 686.25 621.5 L 687.25 621.5 Z" fill="white"/>
            </g>
          </g>
        </g>
        <g id="Graphic_11440">
          <path d="M 710 580 L 460 580 L 510 550 L 660 550 Z" fill="#ccb8b8"/>
          <path d="M 710 580 L 460 580 L 510 550 L 660 550 Z" stroke="black" stroke-linecap="square" stroke-linejoin="miter" stroke-width="1"/>
        </g>
        <g id="Graphic_11439">
          <rect x="560.56" y="555.832" width="48.88" height="18.335999" fill="white"/>
          <rect x="560.56" y="555.832" width="48.88" height="18.335999" stroke="black" stroke-linecap="round" stroke-linejoin="round" stroke-width="1"/>
          <text transform="translate(562.56 557.832)" fill="black">
            <tspan font-family="Helvetica Neue" font-size="12" fill="black" x="50803806e-20" y="11" xml:space="preserve">lab-fw-4</tspan>
          </text>
        </g>
      </g>
      <g id="Group_11408">
        <g id="Graphic_11437">
          <rect x="1160" y="580" width="250" height="60" fill="#998a8a"/>
          <rect x="1160" y="580" width="250" height="60" stroke="black" stroke-linecap="square" stroke-linejoin="miter" stroke-width="1"/>
        </g>
        <g id="Group_11418">
          <g id="Group_11434">
            <title>ethernet jack</title>
            <g id="Graphic_11436">
              <title>background</title>
              <path d="M 1185.5 612.5 L 1170.5 612.5 C 1169.3954 612.5 1168.5 613.3954 1168.5 614.5 L 1168.5 629.5 C 1168.5 630.6046 1169.3954 631.5 1170.5 631.5 L 1185.5 631.5 C 1186.6046 631.5 1187.5 630.6046 1187.5 629.5 L 1187.5 614.5 C 1187.5 613.3954 1186.6046 612.5 1185.5 612.5 Z" fill="black"/>
            </g>
            <g id="Graphic_11435">
              <title>ethernet</title>
              <path d="M 1185.5 613.5 L 1170.5 613.5 C 1169.9477 613.5 1169.5 613.9477 1169.5 614.5 L 1169.5 629.5 C 1169.5 630.0523 1169.9477 630.5 1170.5 630.5 L 1185.5 630.5 C 1186.0523 630.5 1186.5 630.0523 1186.5 629.5 L 1186.5 614.5 C 1186.5 613.9477 1186.0523 613.5 1185.5 613.5 Z M 1173.25 617 L 1172.25 617 L 1172.25 620 L 1173.25 620 Z M 1174.75 617 L 1173.75 617 L 1173.75 620 L 1174.75 620 Z M 1176.25 617 L 1175.25 617 L 1175.25 620 L 1176.25 620 Z M 1177.75 617 L 1176.75 617 L 1176.75 620 L 1177.75 620 Z M 1179.25 617 L 1178.25 617 L 1178.25 620 L 1179.25 620 Z M 1180.75 617 L 1179.75 617 L 1179.75 620 L 1180.75 620 Z M 1182.25 617 L 1181.25 617 L 1181.25 620 L 1182.25 620 Z M 1183.75 617 L 1182.75 617 L 1182.75 620 L 1183.75 620 Z M 1175 616 L 1176.625 616 M 1179.375 616 L 1181 616 L 1184.25 616 C 1184.5261 616 1184.75 616.22386 1184.75 616.5 L 1184.75 624.5 C 1184.75 624.77614 1184.5261 625 1184.25 625 L 1181.5 625 L 1181.5 626.25 C 1181.5 626.52614 1181.2761 626.75 1181 626.75 L 1179.875 626.75 L 1179.875 627.5 C 1179.875 627.77614 1179.6511 628 1179.375 628 L 1176.625 628 C 1176.3489 628 1176.125 627.77614 1176.125 627.5 L 1176.125 626.75 L 1175 626.75 C 1174.7239 626.75 1174.5 626.52614 1174.5 626.25 L 1174.5 625 L 1171.75 625 C 1171.4739 625 1171.25 624.77614 1171.25 624.5 L 1171.25 616.5 C 1171.25 616.22386 1171.4739 616 1171.75 616 L 1175 616 L 1175 616 M 1176.625 616 L 1179.375 616" fill="white"/>
            </g>
          </g>
          <g id="Group_11431">
            <title>ethernet jack</title>
            <g id="Graphic_11433">
              <title>background</title>
              <path d="M 1209.5 612.5 L 1194.5 612.5 C 1193.3954 612.5 1192.5 613.3954 1192.5 614.5 L 1192.5 629.5 C 1192.5 630.6046 1193.3954 631.5 1194.5 631.5 L 1209.5 631.5 C 1210.6046 631.5 1211.5 630.6046 1211.5 629.5 L 1211.5 614.5 C 1211.5 613.3954 1210.6046 612.5 1209.5 612.5 Z" fill="black"/>
            </g>
            <g id="Graphic_11432">
              <title>ethernet</title>
              <path d="M 1209.5 613.5 L 1194.5 613.5 C 1193.9477 613.5 1193.5 613.9477 1193.5 614.5 L 1193.5 629.5 C 1193.5 630.0523 1193.9477 630.5 1194.5 630.5 L 1209.5 630.5 C 1210.0523 630.5 1210.5 630.0523 1210.5 629.5 L 1210.5 614.5 C 1210.5 613.9477 1210.0523 613.5 1209.5 613.5 Z M 1197.25 617 L 1196.25 617 L 1196.25 620 L 1197.25 620 Z M 1198.75 617 L 1197.75 617 L 1197.75 620 L 1198.75 620 Z M 1200.25 617 L 1199.25 617 L 1199.25 620 L 1200.25 620 Z M 1201.75 617 L 1200.75 617 L 1200.75 620 L 1201.75 620 Z M 1203.25 617 L 1202.25 617 L 1202.25 620 L 1203.25 620 Z M 1204.75 617 L 1203.75 617 L 1203.75 620 L 1204.75 620 Z M 1206.25 617 L 1205.25 617 L 1205.25 620 L 1206.25 620 Z M 1207.75 617 L 1206.75 617 L 1206.75 620 L 1207.75 620 Z M 1199 616 L 1200.625 616 M 1203.375 616 L 1205 616 L 1208.25 616 C 1208.5261 616 1208.75 616.22386 1208.75 616.5 L 1208.75 624.5 C 1208.75 624.77614 1208.5261 625 1208.25 625 L 1205.5 625 L 1205.5 626.25 C 1205.5 626.52614 1205.2761 626.75 1205 626.75 L 1203.875 626.75 L 1203.875 627.5 C 1203.875 627.77614 1203.6511 628 1203.375 628 L 1200.625 628 C 1200.3489 628 1200.125 627.77614 1200.125 627.5 L 1200.125 626.75 L 1199 626.75 C 1198.7239 626.75 1198.5 626.52614 1198.5 626.25 L 1198.5 625 L 1195.75 625 C 1195.4739 625 1195.25 624.77614 1195.25 624.5 L 1195.25 616.5 C 1195.25 616.22386 1195.4739 616 1195.75 616 L 1199 616 L 1199 616 M 1200.625 616 L 1203.375 616" fill="white"/>
            </g>
          </g>
          <g id="Group_11428">
            <title>ethernet jack</title>
            <g id="Graphic_11430">
              <title>background</title>
              <path d="M 1233.5 612.5 L 1218.5 612.5 C 1217.3954 612.5 1216.5 613.3954 1216.5 614.5 L 1216.5 629.5 C 1216.5 630.6046 1217.3954 631.5 1218.5 631.5 L 1233.5 631.5 C 1234.6046 631.5 1235.5 630.6046 1235.5 629.5 L 1235.5 614.5 C 1235.5 613.3954 1234.6046 612.5 1233.5 612.5 Z" fill="black"/>
            </g>
            <g id="Graphic_11429">
              <title>ethernet</title>
              <path d="M 1233.5 613.5 L 1218.5 613.5 C 1217.9477 613.5 1217.5 613.9477 1217.5 614.5 L 1217.5 629.5 C 1217.5 630.0523 1217.9477 630.5 1218.5 630.5 L 1233.5 630.5 C 1234.0523 630.5 1234.5 630.0523 1234.5 629.5 L 1234.5 614.5 C 1234.5 613.9477 1234.0523 613.5 1233.5 613.5 Z M 1221.25 617 L 1220.25 617 L 1220.25 620 L 1221.25 620 Z M 1222.75 617 L 1221.75 617 L 1221.75 620 L 1222.75 620 Z M 1224.25 617 L 1223.25 617 L 1223.25 620 L 1224.25 620 Z M 1225.75 617 L 1224.75 617 L 1224.75 620 L 1225.75 620 Z M 1227.25 617 L 1226.25 617 L 1226.25 620 L 1227.25 620 Z M 1228.75 617 L 1227.75 617 L 1227.75 620 L 1228.75 620 Z M 1230.25 617 L 1229.25 617 L 1229.25 620 L 1230.25 620 Z M 1231.75 617 L 1230.75 617 L 1230.75 620 L 1231.75 620 Z M 1223 616 L 1224.625 616 M 1227.375 616 L 1229 616 L 1232.25 616 C 1232.5261 616 1232.75 616.22386 1232.75 616.5 L 1232.75 624.5 C 1232.75 624.77614 1232.5261 625 1232.25 625 L 1229.5 625 L 1229.5 626.25 C 1229.5 626.52614 1229.2761 626.75 1229 626.75 L 1227.875 626.75 L 1227.875 627.5 C 1227.875 627.77614 1227.6511 628 1227.375 628 L 1224.625 628 C 1224.3489 628 1224.125 627.77614 1224.125 627.5 L 1224.125 626.75 L 1223 626.75 C 1222.7239 626.75 1222.5 626.52614 1222.5 626.25 L 1222.5 625 L 1219.75 625 C 1219.4739 625 1219.25 624.77614 1219.25 624.5 L 1219.25 616.5 C 1219.25 616.22386 1219.4739 616 1219.75 616 L 1223 616 L 1223 616 M 1224.625 616 L 1227.375 616" fill="white"/>
            </g>
          </g>
          <g id="Group_11425">
            <title>ethernet jack</title>
            <g id="Graphic_11427">
              <title>background</title>
              <path d="M 1257.5 612.5 L 1242.5 612.5 C 1241.3954 612.5 1240.5 613.3954 1240.5 614.5 L 1240.5 629.5 C 1240.5 630.6046 1241.3954 631.5 1242.5 631.5 L 1257.5 631.5 C 1258.6046 631.5 1259.5 630.6046 1259.5 629.5 L 1259.5 614.5 C 1259.5 613.3954 1258.6046 612.5 1257.5 612.5 Z" fill="black"/>
            </g>
            <g id="Graphic_11426">
              <title>ethernet</title>
              <path d="M 1257.5 613.5 L 1242.5 613.5 C 1241.9477 613.5 1241.5 613.9477 1241.5 614.5 L 1241.5 629.5 C 1241.5 630.0523 1241.9477 630.5 1242.5 630.5 L 1257.5 630.5 C 1258.0523 630.5 1258.5 630.0523 1258.5 629.5 L 1258.5 614.5 C 1258.5 613.9477 1258.0523 613.5 1257.5 613.5 Z M 1245.25 617 L 1244.25 617 L 1244.25 620 L 1245.25 620 Z M 1246.75 617 L 1245.75 617 L 1245.75 620 L 1246.75 620 Z M 1248.25 617 L 1247.25 617 L 1247.25 620 L 1248.25 620 Z M 1249.75 617 L 1248.75 617 L 1248.75 620 L 1249.75 620 Z M 1251.25 617 L 1250.25 617 L 1250.25 620 L 1251.25 620 Z M 1252.75 617 L 1251.75 617 L 1251.75 620 L 1252.75 620 Z M 1254.25 617 L 1253.25 617 L 1253.25 620 L 1254.25 620 Z M 1255.75 617 L 1254.75 617 L 1254.75 620 L 1255.75 620 Z M 1247 616 L 1248.625 616 M 1251.375 616 L 1253 616 L 1256.25 616 C 1256.5261 616 1256.75 616.22386 1256.75 616.5 L 1256.75 624.5 C 1256.75 624.77614 1256.5261 625 1256.25 625 L 1253.5 625 L 1253.5 626.25 C 1253.5 626.52614 1253.2761 626.75 1253 626.75 L 1251.875 626.75 L 1251.875 627.5 C 1251.875 627.77614 1251.6511 628 1251.375 628 L 1248.625 628 C 1248.3489 628 1248.125 627.77614 1248.125 627.5 L 1248.125 626.75 L 1247 626.75 C 1246.7239 626.75 1246.5 626.52614 1246.5 626.25 L 1246.5 625 L 1243.75 625 C 1243.4739 625 1243.25 624.77614 1243.25 624.5 L 1243.25 616.5 C 1243.25 616.22386 1243.4739 616 1243.75 616 L 1247 616 L 1247 616 M 1248.625 616 L 1251.375 616" fill="white"/>
            </g>
          </g>
          <g id="Group_11422">
            <title>ethernet jack</title>
            <g id="Graphic_11424">
              <title>background</title>
              <path d="M 1281.5 612.5 L 1266.5 612.5 C 1265.3954 612.5 1264.5 613.3954 1264.5 614.5 L 1264.5 629.5 C 1264.5 630.6046 1265.3954 631.5 1266.5 631.5 L 1281.5 631.5 C 1282.6046 631.5 1283.5 630.6046 1283.5 629.5 L 1283.5 614.5 C 1283.5 613.3954 1282.6046 612.5 1281.5 612.5 Z" fill="black"/>
            </g>
            <g id="Graphic_11423">
              <title>ethernet</title>
              <path d="M 1281.5 613.5 L 1266.5 613.5 C 1265.9477 613.5 1265.5 613.9477 1265.5 614.5 L 1265.5 629.5 C 1265.5 630.0523 1265.9477 630.5 1266.5 630.5 L 1281.5 630.5 C 1282.0523 630.5 1282.5 630.0523 1282.5 629.5 L 1282.5 614.5 C 1282.5 613.9477 1282.0523 613.5 1281.5 613.5 Z M 1269.25 617 L 1268.25 617 L 1268.25 620 L 1269.25 620 Z M 1270.75 617 L 1269.75 617 L 1269.75 620 L 1270.75 620 Z M 1272.25 617 L 1271.25 617 L 1271.25 620 L 1272.25 620 Z M 1273.75 617 L 1272.75 617 L 1272.75 620 L 1273.75 620 Z M 1275.25 617 L 1274.25 617 L 1274.25 620 L 1275.25 620 Z M 1276.75 617 L 1275.75 617 L 1275.75 620 L 1276.75 620 Z M 1278.25 617 L 1277.25 617 L 1277.25 620 L 1278.25 620 Z M 1279.75 617 L 1278.75 617 L 1278.75 620 L 1279.75 620 Z M 1271 616 L 1272.625 616 M 1275.375 616 L 1277 616 L 1280.25 616 C 1280.5261 616 1280.75 616.22386 1280.75 616.5 L 1280.75 624.5 C 1280.75 624.77614 1280.5261 625 1280.25 625 L 1277.5 625 L 1277.5 626.25 C 1277.5 626.52614 1277.2761 626.75 1277 626.75 L 1275.875 626.75 L 1275.875 627.5 C 1275.875 627.77614 1275.6511 628 1275.375 628 L 1272.625 628 C 1272.3489 628 1272.125 627.77614 1272.125 627.5 L 1272.125 626.75 L 1271 626.75 C 1270.7239 626.75 1270.5 626.52614 1270.5 626.25 L 1270.5 625 L 1267.75 625 C 1267.4739 625 1267.25 624.77614 1267.25 624.5 L 1267.25 616.5 C 1267.25 616.22386 1267.4739 616 1267.75 616 L 1271 616 L 1271 616 M 1272.625 616 L 1275.375 616" fill="white"/>
            </g>
          </g>
          <g id="Group_11419">
            <title>ethernet jack</title>
            <g id="Graphic_11421">
              <title>background</title>
              <path d="M 1305.5 612.5 L 1290.5 612.5 C 1289.3954 612.5 1288.5 613.3954 1288.5 614.5 L 1288.5 629.5 C 1288.5 630.6046 1289.3954 631.5 1290.5 631.5 L 1305.5 631.5 C 1306.6046 631.5 1307.5 630.6046 1307.5 629.5 L 1307.5 614.5 C 1307.5 613.3954 1306.6046 612.5 1305.5 612.5 Z" fill="black"/>
            </g>
            <g id="Graphic_11420">
              <title>ethernet</title>
              <path d="M 1305.5 613.5 L 1290.5 613.5 C 1289.9477 613.5 1289.5 613.9477 1289.5 614.5 L 1289.5 629.5 C 1289.5 630.0523 1289.9477 630.5 1290.5 630.5 L 1305.5 630.5 C 1306.0523 630.5 1306.5 630.0523 1306.5 629.5 L 1306.5 614.5 C 1306.5 613.9477 1306.0523 613.5 1305.5 613.5 Z M 1293.25 617 L 1292.25 617 L 1292.25 620 L 1293.25 620 Z M 1294.75 617 L 1293.75 617 L 1293.75 620 L 1294.75 620 Z M 1296.25 617 L 1295.25 617 L 1295.25 620 L 1296.25 620 Z M 1297.75 617 L 1296.75 617 L 1296.75 620 L 1297.75 620 Z M 1299.25 617 L 1298.25 617 L 1298.25 620 L 1299.25 620 Z M 1300.75 617 L 1299.75 617 L 1299.75 620 L 1300.75 620 Z M 1302.25 617 L 1301.25 617 L 1301.25 620 L 1302.25 620 Z M 1303.75 617 L 1302.75 617 L 1302.75 620 L 1303.75 620 Z M 1295 616 L 1296.625 616 M 1299.375 616 L 1301 616 L 1304.25 616 C 1304.5261 616 1304.75 616.22386 1304.75 616.5 L 1304.75 624.5 C 1304.75 624.77614 1304.5261 625 1304.25 625 L 1301.5 625 L 1301.5 626.25 C 1301.5 626.52614 1301.2761 626.75 1301 626.75 L 1299.875 626.75 L 1299.875 627.5 C 1299.875 627.77614 1299.6511 628 1299.375 628 L 1296.625 628 C 1296.3489 628 1296.125 627.77614 1296.125 627.5 L 1296.125 626.75 L 1295 626.75 C 1294.7239 626.75 1294.5 626.52614 1294.5 626.25 L 1294.5 625 L 1291.75 625 C 1291.4739 625 1291.25 624.77614 1291.25 624.5 L 1291.25 616.5 C 1291.25 616.22386 1291.4739 616 1291.75 616 L 1295 616 L 1295 616 M 1296.625 616 L 1299.375 616" fill="white"/>
            </g>
          </g>
        </g>
        <g id="Group_11411">
          <g id="Group_11415">
            <title>sfp slot</title>
            <g id="Graphic_11417">
              <title>background</title>
              <path d="M 1370.5 614 L 1355.5 614 C 1354.3954 614 1353.5 614.8954 1353.5 616 L 1353.5 628 C 1353.5 629.1046 1354.3954 630 1355.5 630 L 1370.5 630 C 1371.6046 630 1372.5 629.1046 1372.5 628 L 1372.5 616 C 1372.5 614.8954 1371.6046 614 1370.5 614 Z" fill="black"/>
            </g>
            <g id="Graphic_11416">
              <title>sfp</title>
              <path d="M 1370.5 615 L 1355.5 615 C 1354.9477 615 1354.5 615.4477 1354.5 616 L 1354.5 628 C 1354.5 628.5523 1354.9477 629 1355.5 629 L 1370.5 629 C 1371.0523 629 1371.5 628.5523 1371.5 628 L 1371.5 616 C 1371.5 615.4477 1371.0523 615 1370.5 615 Z M 1369.25 617.5 L 1369.25 617.5 C 1369.5261 617.5 1369.75 617.72386 1369.75 618 L 1369.75 626 C 1369.75 626.27614 1369.5261 626.5 1369.25 626.5 L 1356.75 626.5 C 1356.4739 626.5 1356.25 626.27614 1356.25 626 L 1356.25 618 C 1356.25 617.72386 1356.4739 617.5 1356.75 617.5 L 1369.25 617.5 Z M 1368.75 618.5 L 1367.75 618.5 L 1367.75 621.5 L 1368.75 621.5 Z M 1367.25 618.5 L 1366.25 618.5 L 1366.25 621.5 L 1367.25 621.5 Z M 1365.75 618.5 L 1364.75 618.5 L 1364.75 621.5 L 1365.75 621.5 Z M 1364.25 618.5 L 1363.25 618.5 L 1363.25 621.5 L 1364.25 621.5 Z M 1362.75 618.5 L 1361.75 618.5 L 1361.75 621.5 L 1362.75 621.5 Z M 1361.25 618.5 L 1360.25 618.5 L 1360.25 621.5 L 1361.25 621.5 Z M 1359.75 618.5 L 1358.75 618.5 L 1358.75 621.5 L 1359.75 621.5 Z M 1358.25 618.5 L 1357.25 618.5 L 1357.25 621.5 L 1358.25 621.5 Z" fill="white"/>
            </g>
          </g>
          <g id="Group_11412">
            <title>sfp slot</title>
            <g id="Graphic_11414">
              <title>background</title>
              <path d="M 1399.5 614 L 1384.5 614 C 1383.3954 614 1382.5 614.8954 1382.5 616 L 1382.5 628 C 1382.5 629.1046 1383.3954 630 1384.5 630 L 1399.5 630 C 1400.6046 630 1401.5 629.1046 1401.5 628 L 1401.5 616 C 1401.5 614.8954 1400.6046 614 1399.5 614 Z" fill="black"/>
            </g>
            <g id="Graphic_11413">
              <title>sfp</title>
              <path d="M 1399.5 615 L 1384.5 615 C 1383.9477 615 1383.5 615.4477 1383.5 616 L 1383.5 628 C 1383.5 628.5523 1383.9477 629 1384.5 629 L 1399.5 629 C 1400.0523 629 1400.5 628.5523 1400.5 628 L 1400.5 616 C 1400.5 615.4477 1400.0523 615 1399.5 615 Z M 1398.25 617.5 L 1398.25 617.5 C 1398.5261 617.5 1398.75 617.72386 1398.75 618 L 1398.75 626 C 1398.75 626.27614 1398.5261 626.5 1398.25 626.5 L 1385.75 626.5 C 1385.4739 626.5 1385.25 626.27614 1385.25 626 L 1385.25 618 C 1385.25 617.72386 1385.4739 617.5 1385.75 617.5 L 1398.25 617.5 Z M 1397.75 618.5 L 1396.75 618.5 L 1396.75 621.5 L 1397.75 621.5 Z M 1396.25 618.5 L 1395.25 618.5 L 1395.25 621.5 L 1396.25 621.5 Z M 1394.75 618.5 L 1393.75 618.5 L 1393.75 621.5 L 1394.75 621.5 Z M 1393.25 618.5 L 1392.25 618.5 L 1392.25 621.5 L 1393.25 621.5 Z M 1391.75 618.5 L 1390.75 618.5 L 1390.75 621.5 L 1391.75 621.5 Z M 1390.25 618.5 L 1389.25 618.5 L 1389.25 621.5 L 1390.25 621.5 Z M 1388.75 618.5 L 1387.75 618.5 L 1387.75 621.5 L 1388.75 621.5 Z M 1387.25 618.5 L 1386.25 618.5 L 1386.25 621.5 L 1387.25 621.5 Z" fill="white"/>
            </g>
          </g>
        </g>
        <g id="Graphic_11410">
          <path d="M 1410 580 L 1160 580 L 1210 550 L 1360 550 Z" fill="#ccb8b8"/>
          <path d="M 1410 580 L 1160 580 L 1210 550 L 1360 550 Z" stroke="black" stroke-linecap="square" stroke-linejoin="miter" stroke-width="1"/>
        </g>
        <g id="Graphic_11409">
          <rect x="1260.56" y="555.832" width="48.88" height="18.335999" fill="white"/>
          <rect x="1260.56" y="555.832" width="48.88" height="18.335999" stroke="black" stroke-linecap="round" stroke-linejoin="round" stroke-width="1"/>
          <text transform="translate(1262.56 557.832)" fill="black">
            <tspan font-family="Helvetica Neue" font-size="12" fill="black" x="50803806e-20" y="11" xml:space="preserve">lab-fw-3</tspan>
          </text>
        </g>
      </g>
    </g>
  </g>
</svg>
